<?xml version="1.0" standalone="no"?>
<!DOCTYPE svg PUBLIC "-//W3C//DTD SVG 1.1//EN" "http://www.w3.org/Graphics/SVG/1.1/DTD/svg11.dtd" >
<svg xmlns="http://www.w3.org/2000/svg">
<metadata>
Created by FontPrep 20130207 at Sat Nov 10 00:09:18 2018
 By Ridwan Sanusi
Copyright (c) 2016 by THOMAS GILLETT. All rights reserved.
</metadata>
<defs>
<font id="c619a96ac511676d933efb7e298f0628" horiz-adv-x='1024' >
  <font-face 
    font-family="Gordita-Bold"
    font-weight="700"
    font-stretch="normal"
    units-per-em="2048"
    panose-1="0 0 0 0 0 0 0 0 0 0"
    ascent="1638"
    descent="-410"
    x-height="1018"
    cap-height="1493"
    bbox="-739 -737 2914 2261"
    underline-thickness="94"
    underline-position="-96"
    unicode-range="U+000D-FB04"
  />
<missing-glyph horiz-adv-x="1523" 
d="M1319 1382h-1026l1026 -1261v1261zM172 0v1493h1258v-1493h-1258z" />
    <glyph glyph-name="ff" unicode="ff" horiz-adv-x="1570" 
d="M1454 1303q-182 0 -182 -168v-117h264v-252h-262v-766h-297v766h-434v-766h-297v766h-195v252h195v100q-4 248 164 372q94 69 212 69t193 -23v-244q-31 10 -92 11q-180 0 -180 -168v-117h434v100q0 177 85 298q44 65 125 104t183 39t176 -23v-244q-31 11 -92 11z" />
    <glyph glyph-name="fi" unicode="fi" horiz-adv-x="1413" 
d="M1124 1188q-76 0 -131 55q-53 57 -53 131t53 131q57 53 131 53t131 -53q55 -55 55 -131t-54 -131q-56 -55 -132 -55zM1274 0h-297v766h-434v-766h-297v766h-195v252h195v100q-4 248 164 372q94 69 212 69t193 -23v-244q-31 10 -92 11q-180 0 -180 -168v-117h731v-1018z
" />
    <glyph glyph-name="fl" unicode="fl" horiz-adv-x="1411" 
d="M1274 0h-297v766h-434v-766h-297v766h-195v252h195v100q-4 248 164 372q94 69 212 69t193 -23v-244q-31 10 -92 11q-180 0 -180 -168v-117h434v534h297v-1552z" />
    <glyph glyph-name="ffi" unicode="ffi" horiz-adv-x="2146" 
d="M2044 1374q0 -78 -54 -132t-130 -54t-130 54t-54 132t53 131q57 53 131 53t129 -52q55 -54 55 -132zM2009 0h-299v766h-436v-766h-297v766h-434v-766h-297v766h-195v252h195v100q-4 248 164 372q94 69 212 69t193 -23v-244q-31 10 -92 11q-180 0 -180 -168v-117h434v100
q0 177 85 298q44 65 125 104t183 39t176 -23v-244q-31 10 -92 11q-182 0 -182 -168v-117h737v-1018z" />
    <glyph glyph-name="ffl" unicode="ffl" horiz-adv-x="2160" 
d="M2021 0h-309v766h-438v-766h-297v766h-434v-766h-297v766h-195v252h195v100q-4 248 164 372q94 69 212 69t193 -23v-244q-31 10 -92 11q-180 0 -180 -168v-117h434v100q0 177 85 298q44 65 125 104t183 39t176 -23v-244q-31 10 -92 11q-182 0 -182 -168v-117h440v536h309
v-1554z" />
    <glyph glyph-name=".notdef" horiz-adv-x="1523" 
d="M1319 1382h-1026l1026 -1261v1261zM172 0v1493h1258v-1493h-1258z" />
    <glyph glyph-name=".null" horiz-adv-x="0" 
 />
    <glyph glyph-name="nonmarkingreturn" horiz-adv-x="634" 
 />
    <glyph glyph-name="NULL" horiz-adv-x="0" 
 />
    <glyph glyph-name="NULL" horiz-adv-x="0" 
 />
    <glyph glyph-name="CR" unicode="&#xd;" horiz-adv-x="479" 
 />
    <glyph glyph-name="space" unicode=" " horiz-adv-x="479" 
 />
    <glyph glyph-name="exclam" unicode="!" horiz-adv-x="647" 
d="M326 348q74 0 131 -53q55 -59 55 -131t-54 -128t-132 -56t-131 55t-54 129q1 74 54 131q57 53 131 53zM158 1493h327l2 -301l-30 -676h-271l-28 676v301z" />
    <glyph glyph-name="quotedbl" unicode="&#x22;" horiz-adv-x="974" 
d="M708 1485q75 0 124 -54t49 -141q-1 -38 -7 -69l-96 -424h-143l-94 424q-8 33 -9 69q0 84 50 140q51 55 126 55zM94 1290q0 84 49 140q51 55 127 55t127 -55q47 -57 47 -140q0 -28 -8 -69l-96 -424h-143l-95 424q-8 39 -8 69z" />
    <glyph glyph-name="numbersign" unicode="#" horiz-adv-x="1607" 
d="M676 924l-74 -324h332l74 324h-332zM1417 602v-217h-297l-86 -385h-237l86 385h-326l-86 -385h-240l86 385h-245v217h297l71 318h-247v217h296l80 358h238l-80 -358h326l82 358h237l-82 -358h248v-217h-297l-72 -318h248z" />
    <glyph glyph-name="dollar" unicode="$" horiz-adv-x="1286" 
d="M891 428q0 56 -42 98t-114 56v-310q72 14 114 58t42 98zM428 1071q0 -124 152 -151l4 -2v309q-70 -15 -113 -59t-43 -97zM1200 447q0 -164 -122 -295t-341 -154v-193h-157v193q-217 18 -347 134q-129 116 -161 314l284 66q14 -92 74 -154t154 -82v336l-68 13
q-180 35 -286 145t-106 282q-1 171 133 303t323 148v197h157v-199q203 -25 314 -141t125 -246l-275 -80q-33 147 -166 187v-330l49 -10q196 -37 306 -153t110 -281z" />
    <glyph glyph-name="percent" unicode="%" horiz-adv-x="1693" 
d="M1409 329q0 49 -35 83t-83 34t-83 -34q-34 -34 -34 -83q0 -50 34 -84t83 -34q48 0 83 35t35 83zM1291 -8q-140 0 -239 98q-100 98 -100 238t101 239q96 99 238 99q141 0 239 -98t98 -239q0 -140 -98 -239q-99 -98 -239 -98zM405 1288q-50 0 -84 -34t-34 -81t35 -86
q35 -33 84 -33q48 0 82 34t34 83t-35 82q-32 35 -82 35zM1460 1493l-971 -1493h-260l973 1493h258zM68 1171q0 139 98 239t238 99q140 0 239 -99q98 -98 98 -238t-98 -239t-238 -99t-239 98q-98 100 -98 239z" />
    <glyph glyph-name="ampersand" unicode="&#x26;" horiz-adv-x="1429" 
d="M383 418q-1 -94 67 -133t145 -39t171 61l-252 289q-131 -84 -131 -178zM768 1116q0 53 -44 93t-108 40t-105 -41q-42 -41 -42 -93t55 -118l64 -71l108 65q72 41 72 125zM553 -20q-189 0 -329 104t-140 315t266 385l-55 66q-113 128 -113 280t124 270t301 120t311 -117
t131 -277q0 -213 -207 -335l-90 -54l206 -235q84 119 119 235h279q-18 -92 -78 -207t-150 -223l269 -307h-363l-104 119q-188 -139 -377 -139z" />
    <glyph glyph-name="quotesingle" unicode="'" horiz-adv-x="536" 
d="M94 1290q0 84 49 140q51 55 127 55t127 -55q47 -57 47 -140q0 -20 -8 -69l-96 -424h-143l-95 424q-8 33 -8 69z" />
    <glyph glyph-name="parenleft" unicode="(" horiz-adv-x="786" 
d="M86 666v71q0 313 138 547t394 381l130 -174q-393 -287 -394 -754v-71q1 -469 394 -754l-130 -172q-254 141 -393 377t-139 549z" />
    <glyph glyph-name="parenright" unicode=")" horiz-adv-x="780" 
d="M426 666v71q0 475 -391 758l127 170q258 -145 395 -381t137 -547v-71q0 -311 -137 -547t-395 -379l-127 168q391 283 391 758z" />
    <glyph glyph-name="asterisk" unicode="*" horiz-adv-x="960" 
d="M379 1493h199v-264l245 80l64 -185l-246 -80l150 -210l-156 -115l-156 211l-155 -211l-156 115l149 210l-245 82l61 183l246 -80v264z" />
    <glyph glyph-name="plus" unicode="+" horiz-adv-x="1181" 
d="M1100 557h-363v-373h-282v373h-373v279h373v368h282v-368h363v-279z" />
    <glyph glyph-name="comma" unicode="," horiz-adv-x="612" 
d="M510 100q0 -184 -100 -308t-281 -152v141q168 53 199 211q-27 -6 -58 -6q-74 0 -123 52t-49 132t60 128t149 48q87 0 145 -70t58 -176z" />
    <glyph glyph-name="hyphen" unicode="-" horiz-adv-x="874" 
d="M123 471v295h629v-295h-629z" />
    <glyph glyph-name="period" unicode="." horiz-adv-x="600" 
d="M300 -23q-85 1 -146 61q-62 60 -62 145t62 147q63 59 146 59t146 -59q60 -64 60 -148t-60 -144t-146 -61z" />
    <glyph glyph-name="slash" unicode="/" horiz-adv-x="1071" 
d="M334 -10h-275l680 1564h277z" />
    <glyph glyph-name="zero" unicode="0" horiz-adv-x="1464" 
d="M1059 750q0 166 -74 309q-39 74 -104 118q-66 44 -148 44q-135 0 -215 -103t-102 -244q-37 -197 37 -374q37 -100 108 -161q71 -59 177 -61t183 78q138 143 138 394zM92 748q0 309 158 532q166 236 500 236q170 0 306 -88t214 -236q102 -184 102 -436q0 -182 -58 -344
t-171 -271q-164 -160 -414 -159q-186 0 -323 87t-213 238q-101 189 -101 441z" />
    <glyph glyph-name="one" unicode="1" horiz-adv-x="942" 
d="M766 0h-307v1124l-316 -180l-137 252l506 297h254v-1493z" />
    <glyph glyph-name="two" unicode="2" horiz-adv-x="1294" 
d="M1188 0h-1098v90q0 348 367 567l188 113q14 10 55 35t102 79q60 54 60 140t-60 143t-154 57t-168 -63q-73 -64 -66 -209l-312 43q4 315 247 453q120 68 298 68q250 0 393 -144q139 -135 140 -338q0 -164 -90 -276q-84 -111 -213 -185l-234 -143q-133 -78 -151 -147h696
v-283z" />
    <glyph glyph-name="three" unicode="3" horiz-adv-x="1306" 
d="M1208 494q0 -156 -78 -273t-208 -181q-129 -64 -277 -63q-199 0 -375 126t-192 358l311 51q6 -82 50 -142q79 -108 194 -108q114 0 186 64q74 61 74 152q0 90 -72 152t-163 62t-148 -33l-143 211l399 344h-645v279h1044v-270l-368 -305q193 -18 301 -144
q110 -124 110 -280z" />
    <glyph glyph-name="four" unicode="4" horiz-adv-x="1390" 
d="M797 573v564l-439 -564h439zM1096 297v-297h-299v297h-738v336l668 860h369v-920h213v-276h-213z" />
    <glyph glyph-name="five" unicode="5" horiz-adv-x="1273" 
d="M625 -18q-211 0 -369 118t-182 328l297 59q14 -100 85 -160q71 -61 173 -61t176 64t74 168t-72 165q-72 60 -180 60q-55 0 -119 -30t-96 -75l-291 121l158 754h843v-281h-614l-64 -319q49 43 119 63q68 25 133 25q214 0 352 -132t138 -349q0 -162 -76 -277
q-78 -123 -203 -180q-124 -61 -282 -61z" />
    <glyph glyph-name="six" unicode="6" horiz-adv-x="1325" 
d="M422 500q0 -102 76 -172q78 -68 181 -68t175 68t72 170t-70 166t-178 63q-108 0 -180 -63q-76 -62 -76 -164zM1075 1159q-121 70 -284 71q-162 1 -263 -124q-94 -111 -108 -270q129 152 332 151q137 0 252 -65q115 -70 175 -180t60 -242q0 -240 -171 -379t-388 -139
q-158 0 -274 59t-185 149q-125 158 -125 508t188 584t523 234q197 0 379 -82z" />
    <glyph glyph-name="seven" unicode="7" horiz-adv-x="1206" 
d="M59 1212v281h1094v-266l-659 -1227h-349l654 1212h-740z" />
    <glyph glyph-name="eight" unicode="8" horiz-adv-x="1306" 
d="M901 443q0 91 -76 149q-76 53 -171 53t-173 -53q-75 -56 -75 -150t75 -145q74 -55 168 -57t173 55t79 148zM652 885q86 0 152 52t66 135t-65 134q-66 49 -153 49q-86 0 -152 -49t-66 -132t66 -136t152 -53zM1210 409q0 -124 -68 -216t-196 -152q-126 -59 -270 -59
q-292 1 -459 151q-121 106 -121 279q0 121 73 214t191 142v2q-106 43 -171 129t-65 199t65 205t171 143q127 70 305 70t343 -109q78 -51 125 -135t47 -188t-64 -187q-59 -82 -170 -127v-2q120 -49 192 -142t72 -217z" />
    <glyph glyph-name="nine" unicode="9" horiz-adv-x="1325" 
d="M903 995q0 102 -76 172t-180 70t-177 -69t-73 -172t70 -167q68 -67 174 -67t184 66t78 167zM86 988q0 124 47 225t129 167q168 135 383 136q151 0 269 -62q197 -102 260 -291q55 -152 55 -352q0 -373 -174 -600q-184 -229 -516 -229q-137 0 -225 19t-167 60l109 277
q142 -69 276 -72q174 0 270 116t107 275q-129 -152 -338 -151q-139 0 -249 67q-112 63 -174 177t-62 238z" />
    <glyph glyph-name="colon" unicode=":" horiz-adv-x="641" 
d="M322 389q84 0 144 -59q60 -60 60 -146t-60 -146t-146 -61q-85 1 -146 61t-61 145t61 147q63 59 148 59zM321 1042q85 0 145 -59t60 -146t-60 -147t-146 -61q-85 0 -146 60q-61 59 -61 145t61 147t147 61z" />
    <glyph glyph-name="semicolon" unicode=";" horiz-adv-x="649" 
d="M530 100q0 -184 -102 -309t-281 -151v141q166 53 201 211q-31 -6 -57 -6q-76 0 -125 52t-49 131t59 128q61 49 149 49q89 0 147 -70t58 -176zM324 629q-86 0 -146 60q-60 59 -61 145q0 86 60 147q61 61 147 61t147 -61q59 -63 59 -147t-60 -144t-146 -61z" />
    <glyph glyph-name="less" unicode="&#x3c;" horiz-adv-x="1208" 
d="M72 578v235l995 455v-283l-659 -285v-4l659 -286v-289z" />
    <glyph glyph-name="equal" unicode="=" horiz-adv-x="1208" 
d="M129 295v278h948v-278h-948zM129 819v277h948v-277h-948z" />
    <glyph glyph-name="greater" unicode="&#x3e;" horiz-adv-x="1208" 
d="M141 121v287l660 284v4l-660 287v285l996 -455v-235z" />
    <glyph glyph-name="question" unicode="?" horiz-adv-x="1122" 
d="M530 348q74 0 132 -53q53 -57 53 -131t-53 -129q-54 -55 -132 -55t-131 53t-53 131t53 131q57 53 131 53zM377 584q0 53 37 116q37 64 90 108t105 85q126 99 126 201q0 70 -49 110q-51 37 -133 37t-135 -61q-55 -57 -56 -150q0 -25 9 -69l-297 22q-6 49 -6 94
q0 135 70 237q139 200 425 202q186 0 335 -109t149 -309t-207 -355q-82 -61 -125 -115t-51 -124h-285q-2 27 -2 80z" />
    <glyph glyph-name="at" unicode="@" horiz-adv-x="1650" 
d="M973 633q1 143 -137 143q-68 0 -119 -61t-51 -129t36 -111t100 -43q63 0 118 66q53 66 53 135zM862 -16q214 0 400 131l73 -115q-74 -66 -211 -112q-138 -46 -282 -46t-290 60t-245 159q-215 215 -215 535q0 154 64 300q127 293 417 417q147 59 325 59t338 -83
q161 -83 253 -232q94 -145 94 -352q1 -207 -119 -343t-278 -137q-72 0 -131 31t-84 80q-35 -47 -102 -80t-139 -33t-142 49q-72 49 -113 123q-39 78 -39 152q-4 174 112 307t277 131q51 0 103 -28t76 -76l16 96h221l-80 -475q-14 -104 58 -105q80 0 149 95q70 90 70 231
q0 217 -155 365t-406 149q-173 0 -319 -87t-234 -232q-86 -147 -86 -322q0 -252 161 -430q170 -182 463 -182z" />
    <glyph glyph-name="A" unicode="A" horiz-adv-x="1509" 
d="M752 1194l-217 -588h434zM1194 0l-119 319h-643l-119 -319h-315l571 1493h371l573 -1493h-319z" />
    <glyph glyph-name="B" unicode="B" horiz-adv-x="1417" 
d="M1032 453q0 166 -244 165h-313v-331h324q89 0 161 35t72 131zM729 887q238 0 238 164q-1 85 -63 121t-154 36h-275v-321h254zM1061 776q272 -101 272 -344q0 -242 -161 -337t-369 -95h-629v1493h619q189 0 333 -100t144 -302t-209 -313v-2z" />
    <glyph glyph-name="C" unicode="C" horiz-adv-x="1609" 
d="M850 -20q-311 0 -537 208q-103 96 -167 245t-64 309t63 313q134 286 418 403q147 57 295 58q242 0 412 -113q74 -43 135 -113q111 -121 147 -258l-292 -100q-10 47 -52 106q-125 178 -354 176q-129 0 -231 -63q-105 -61 -163 -169t-58 -234t56 -235q58 -109 164 -173
t241 -64q187 0 319 146q63 74 84 153l295 -102q-31 -131 -142 -252q-131 -146 -329 -209q-111 -32 -240 -32z" />
    <glyph glyph-name="D" unicode="D" horiz-adv-x="1558" 
d="M635 293q240 0 381 119t141 336q0 218 -145 336t-373 118h-158v-909h154zM631 1493q391 -1 617 -197t227 -540q-1 -344 -229 -550t-621 -206h-451v1493h457z" />
    <glyph glyph-name="E" unicode="E" horiz-adv-x="1263" 
d="M1157 0h-983v1493h977v-289h-672v-305h602v-289h-602v-321h678v-289z" />
    <glyph glyph-name="F" unicode="F" horiz-adv-x="1239" 
d="M1157 1198h-676v-315h606v-295h-606v-588h-307v1493h983v-295z" />
    <glyph glyph-name="G" unicode="G" horiz-adv-x="1634" 
d="M786 803h779v-117q0 -272 -146 -450q-70 -86 -157 -142q-174 -117 -406 -117q-172 1 -316 61t-243 165q-215 219 -215 542q0 209 106 392q106 178 282 278t390 101q272 0 446 -134t224 -321l-301 -92q-25 100 -127 176t-236 76q-134 1 -240 -61t-168 -171t-62 -241
t58 -240q58 -110 164 -174t244 -64t248 70q102 70 131 182h-455v281z" />
    <glyph glyph-name="H" unicode="H" horiz-adv-x="1589" 
d="M1108 0v604h-627v-604h-307v1493h307v-590h627v590h307v-1493h-307z" />
    <glyph glyph-name="I" unicode="I" horiz-adv-x="657" 
d="M174 0v1493h309v-1493h-309z" />
    <glyph glyph-name="J" unicode="J" horiz-adv-x="1220" 
d="M59 635h299v-154q0 -106 58 -155q58 -50 140 -50q83 0 139 50t57 145v1022h307v-1026q-1 -225 -137 -356t-353 -133t-365 138t-145 351v168z" />
    <glyph glyph-name="K" unicode="K" horiz-adv-x="1402" 
d="M481 0h-307v1493h307v-649l512 649h385l-569 -715l606 -778h-397l-537 709v-709z" />
    <glyph glyph-name="L" unicode="L" horiz-adv-x="1150" 
d="M1120 0h-946v1493h307v-1198h639v-295z" />
    <glyph glyph-name="M" unicode="M" horiz-adv-x="2009" 
d="M1532 0v1018h-4l-422 -1018h-207l-420 1012h-2v-1012h-303v1493h418l412 -993l403 993h428v-1493h-303z" />
    <glyph glyph-name="N" unicode="N" horiz-adv-x="1654" 
d="M479 0h-305v1493h358l644 -1010v1010h305v-1493h-351l-651 1026v-1026z" />
    <glyph glyph-name="O" unicode="O" horiz-adv-x="1714" 
d="M858 1217q-126 -1 -232 -63t-166 -171t-60 -235t60 -234t165 -174q106 -64 234 -64q129 0 233 64t165 172q59 109 60 236q4 190 -133 330t-326 139zM82 745q0 155 61 301t166 246q101 100 249 162t307 62t299 -60t245 -160q103 -102 163 -244t60 -301t-62 -303
q-126 -292 -413 -409q-145 -61 -303 -62q-324 0 -548 222t-224 546z" />
    <glyph glyph-name="P" unicode="P" horiz-adv-x="1318" 
d="M950 1008q0 66 -35 112q-63 82 -215 82h-217v-389h219q102 0 176 48q72 49 72 147zM727 1493q235 0 385 -123q150 -122 150 -362t-156 -361q-150 -121 -389 -121h-234v-526h-309v1493h553z" />
    <glyph glyph-name="Q" unicode="Q" horiz-adv-x="1716" 
d="M858 1219q-190 0 -326 -138q-136 -139 -137 -331q-2 -192 137 -336t326 -140q100 0 193 43l-236 205l189 223l253 -231q61 109 61 236t-61 233q-59 106 -167 172q-111 63 -232 64zM854 -20q-326 0 -548 220q-106 104 -164 245q-60 140 -60 298q0 157 61 303t166 246
q101 100 249 162t302 62q215 0 392 -102q176 -102 278 -276t102 -404t-141 -427l145 -127l-188 -219l-162 148q-193 -129 -432 -129z" />
    <glyph glyph-name="R" unicode="R" horiz-adv-x="1392" 
d="M737 1200h-256v-379h258q96 0 167 47q71 48 71 146t-69 142t-171 44zM483 537v-537h-309v1493h590q225 0 373 -117q154 -127 153 -356q1 -313 -278 -426l315 -594h-336l-284 537h-224z" />
    <glyph glyph-name="S" unicode="S" horiz-adv-x="1300" 
d="M665 -23q-259 0 -410 124t-187 339l288 68q18 -120 106 -186t205 -66q118 0 176 48t58 112t-46 106q-46 43 -124 58l-211 43q-180 33 -288 147t-109 281q0 199 156 333q158 132 389 132t372 -125q127 -119 150 -273l-281 -82q-20 94 -87 148t-166 55q-99 0 -162 -49
t-64 -115q0 -125 154 -155l209 -39q205 -37 313 -157t108 -289t-139 -312q-151 -146 -410 -146z" />
    <glyph glyph-name="T" unicode="T" horiz-adv-x="1284" 
d="M797 1194v-1194h-310v1194h-446v299h1202v-299h-446z" />
    <glyph glyph-name="U" unicode="U" horiz-adv-x="1515" 
d="M1053 1493h305v-891q0 -291 -153 -457q-153 -165 -453 -165t-446 165t-146 447v901h309l-2 -895q0 -158 81 -240t215 -82t212 86t78 230v901z" />
    <glyph glyph-name="V" unicode="V" horiz-adv-x="1495" 
d="M926 0h-359l-538 1493h333l388 -1135l387 1135h329z" />
    <glyph glyph-name="W" unicode="W" horiz-adv-x="2271" 
d="M1137 1083h-4l-326 -1083h-334l-436 1493h330l284 -1061l322 1061h327l324 -1069l295 1069h317l-442 -1493h-334z" />
    <glyph glyph-name="X" unicode="X" horiz-adv-x="1439" 
d="M1081 0l-364 537l-371 -537h-348l537 768l-506 725h360l332 -485l334 485h358l-510 -723l539 -770h-361z" />
    <glyph glyph-name="Y" unicode="Y" horiz-adv-x="1454" 
d="M883 0h-310v590l-546 903h356l344 -598l350 598h353l-547 -889v-604z" />
    <glyph glyph-name="Z" unicode="Z" horiz-adv-x="1304" 
d="M1221 287v-287h-1143v272l743 936h-712v285h1095v-266l-741 -940h758z" />
    <glyph glyph-name="bracketleft" unicode="[" horiz-adv-x="854" 
d="M170 -240v1893h616v-232h-360v-1429h360v-232h-616z" />
    <glyph glyph-name="backslash" unicode="\" horiz-adv-x="1071" 
d="M55 1554h277l682 -1564h-277z" />
    <glyph glyph-name="bracketright" unicode="]" horiz-adv-x="854" 
d="M68 -240v232h362v1429h-362v232h616v-1893h-616z" />
    <glyph glyph-name="asciicircum" unicode="^" horiz-adv-x="1243" 
d="M864 860l-243 395l-242 -395h-303l434 633h227l430 -633h-303z" />
    <glyph glyph-name="underscore" unicode="_" horiz-adv-x="1054" 
d="M0 -365v242h1055v-242h-1055z" />
    <glyph glyph-name="grave" unicode="`" horiz-adv-x="591" 
d="M360 1544l205 -356h-243l-302 356h340z" />
    <glyph glyph-name="a" unicode="a" horiz-adv-x="1126" 
d="M504 197q92 0 147 57t56 139v25h-179q-55 0 -102 -31t-47 -83t35 -80t90 -27zM418 -20q-137 0 -238 83q-100 86 -100 222v8q0 199 205 270q109 41 243 41h99q80 0 80 70q0 55 -43 91t-114 36t-120 -37t-65 -102l-263 59q18 106 88 180q135 143 371 141q195 2 317 -106
t121 -305v-467q0 -70 9 -164h-277q-6 41 -6 127h-4q-106 -147 -303 -147z" />
    <glyph glyph-name="b" unicode="b" horiz-adv-x="1306" 
d="M678 768q-108 0 -179 -72t-71 -186t73 -188q73 -72 178 -72t178 73t73 185t-72 186t-180 74zM1231 506q0 -204 -137 -365t-345 -161t-319 143h-2v-123h-291v1552h297v-655h4q72 92 172 119q72 23 138 22q219 0 351 -164t132 -368z" />
    <glyph glyph-name="c" unicode="c" horiz-adv-x="1189" 
d="M620 768q-97 0 -168 -71t-71 -187t70 -184q68 -74 165 -74t158 44t86 114l273 -82q-31 -111 -111 -195q-160 -156 -396 -157q-237 -1 -396 153t-154 379q0 147 74 270q68 119 198 195q133 69 292 69t298 -88q147 -88 188 -260l-272 -82q-18 64 -78 110t-156 46z" />
    <glyph glyph-name="d" unicode="d" horiz-adv-x="1306" 
d="M881 510q0 110 -72 184t-179 74t-180 -73t-73 -185t74 -186q70 -74 177 -74t181 74q72 76 72 186zM872 901v651h297v-1552h-288v129h-4q-101 -149 -317 -149t-350 158t-134 368q0 209 139 371q139 161 338 161t315 -137h4z" />
    <glyph glyph-name="e" unicode="e" horiz-adv-x="1196" 
d="M634 -23q-152 -1 -280 65q-127 66 -204 191q-76 127 -76 275t72 269q72 122 197 194q124 72 271 71q224 0 366 -141t142 -369q0 -69 -6 -106h-737q12 -88 83 -144q70 -56 150 -56t146 38q66 39 86 98l246 -83q-48 -141 -176 -221t-280 -81zM385 625h438q-6 61 -57 118
q-52 57 -152 57t-160 -58t-69 -117z" />
    <glyph glyph-name="f" unicode="f" horiz-adv-x="839" 
d="M543 1018h262v-252h-262v-766h-297v766h-195v252h195v100q-4 248 164 372q94 69 212 69t193 -23v-244q-31 10 -92 11q-180 0 -180 -168v-117z" />
    <glyph glyph-name="g" unicode="g" horiz-adv-x="1300" 
d="M872 514q0 114 -70 184t-175 70q-106 0 -177 -71t-71 -183t71 -184t175 -72q103 0 175 72t72 184zM532 1034q219 0 332 -139h4v123h293v-967q1 -279 -155 -420t-390 -141t-372 115q-137 109 -162 252l274 80q16 -79 74 -133t168 -54t188 68t78 200v117h-4
q-104 -135 -293 -135q-141 0 -254 67t-175 185t-62 262q0 199 131 356q61 76 153 120t172 44z" />
    <glyph glyph-name="h" unicode="h" 
d="M1092 0h-297v565q0 91 -45 145q-44 54 -134 54t-136 -58t-46 -139v-567h-297v1552h297v-653h2q60 84 144 112t137 27q188 0 281 -120t94 -285v-633z" />
    <glyph glyph-name="i" unicode="i" horiz-adv-x="573" 
d="M137 1018h299v-1018h-299v1018zM471 1374q0 -74 -53 -131q-55 -55 -131 -55t-130 54q-55 54 -55 132t54 131q57 53 131 53t131 -53q53 -57 53 -131z" />
    <glyph glyph-name="j" unicode="j" horiz-adv-x="587" 
d="M154 1018h297v-1153q-1 -166 -97 -266t-258 -101q-117 0 -180 23v246q54 -11 108 -11t92 36t38 102v1124zM485 1374q0 -78 -54 -132t-130 -54t-130 54t-54 132t53 131q57 53 131 53t129 -52q55 -54 55 -132z" />
    <glyph glyph-name="k" unicode="k" horiz-adv-x="1179" 
d="M434 481v-481h-297v1554h297v-936l354 400h379l-409 -469l420 -549h-375l-361 481h-8z" />
    <glyph glyph-name="l" unicode="l" horiz-adv-x="573" 
d="M137 0v1554h299v-1554h-299z" />
    <glyph glyph-name="m" unicode="m" horiz-adv-x="1851" 
d="M1260 762q-86 0 -134 -52t-49 -141v-569h-295v565q0 197 -166 197q-88 0 -135 -52t-47 -145v-565h-297v1018h293v-133h2q45 75 128 115t169 40q213 0 297 -161q76 85 155 123t185 38q180 0 268 -110t88 -295v-635h-297v569q1 193 -165 193z" />
    <glyph glyph-name="n" unicode="n" 
d="M1092 0h-297v565q0 93 -45 145q-46 52 -134 52t-135 -57t-47 -140v-565h-297v1018h295v-133h2q54 96 148 125t141 28q182 0 275 -116t94 -289v-633z" />
    <glyph glyph-name="o" unicode="o" horiz-adv-x="1259" 
d="M379 510q0 -110 72 -186q74 -74 179 -74t178 72t73 188t-73 188t-178 72t-179 -74q-72 -76 -72 -186zM74 507q0 144 75 270t205 196q130 69 282 69q150 0 276 -68t200 -190t74 -272t-75 -274t-202 -192q-127 -69 -279 -69t-282 68q-126 72 -200 195t-74 267z" />
    <glyph glyph-name="p" unicode="p" horiz-adv-x="1306" 
d="M678 768q-108 0 -179 -72t-71 -186t73 -188q73 -72 178 -72t178 73t73 185t-72 186t-180 74zM137 1018h295v-127h4q111 147 321 147t342 -164t132 -368t-137 -365q-136 -161 -342 -161t-314 133h-4v-615h-297v1520z" />
    <glyph glyph-name="q" unicode="q" horiz-adv-x="1306" 
d="M881 510q0 110 -72 184t-179 74t-180 -73t-73 -185t74 -186q70 -74 177 -74t181 74q72 76 72 186zM877 901v117h292v-1520h-297v617h-2q-100 -135 -313 -135t-347 158t-134 368q0 209 139 371q139 161 342 161t315 -137h5z" />
    <glyph glyph-name="r" unicode="r" horiz-adv-x="806" 
d="M672 735q-114 0 -178 -76t-64 -213v-446h-293v1018h283v-148h2q76 158 264 158q35 0 80 -10v-291q-53 8 -94 8z" />
    <glyph glyph-name="s" unicode="s" horiz-adv-x="987" 
d="M905 307q0 -125 -104 -227q-103 -102 -287 -103q-253 0 -373 156q-63 74 -69 158l262 55q6 -57 50 -98t106 -41q62 1 95 27q32 26 31 61q0 66 -98 88l-129 29q-293 66 -293 297q0 139 112 236t277 97q223 0 336 -139q61 -74 72 -153l-258 -56q-10 57 -49 89
q-40 32 -94 32q-54 -1 -86 -25t-31 -61q0 -57 80 -74l141 -30q150 -29 230 -111t79 -207z" />
    <glyph glyph-name="t" unicode="t" horiz-adv-x="872" 
d="M786 760h-251v-385q0 -131 145 -131q41 0 104 8v-242q-74 -25 -178 -24q-369 0 -368 372v402h-197v258h203v319h291v-319h251v-258z" />
    <glyph glyph-name="u" unicode="u" 
d="M127 1018h297v-567q0 -91 45 -143t134 -52t135 56t46 139v567h297v-1018h-293v127h-4q-100 -147 -284 -147t-278 118t-95 281v639z" />
    <glyph glyph-name="v" unicode="v" horiz-adv-x="1183" 
d="M741 0h-301l-413 1018h315l250 -680l252 680h315z" />
    <glyph glyph-name="w" unicode="w" horiz-adv-x="1701" 
d="M989 1018l191 -637l192 637h297l-317 -1018h-295l-207 649l-211 -649h-289l-315 1018h303l184 -631h2l191 631h274z" />
    <glyph glyph-name="x" unicode="x" horiz-adv-x="1095" 
d="M741 0l-194 299l-197 -299h-330l367 512l-356 506h336l182 -287l188 287h328l-358 -498l368 -520h-334z" />
    <glyph glyph-name="y" unicode="y" horiz-adv-x="1165" 
d="M522 -502h-317l248 611l-428 909h327l254 -582l228 582h307z" />
    <glyph glyph-name="z" unicode="z" horiz-adv-x="1030" 
d="M82 0v231l475 533h-461v254h844v-227l-481 -537h483v-254h-860z" />
    <glyph glyph-name="braceleft" unicode="{" horiz-adv-x="862" 
d="M793 -8v-232h-142q-237 0 -347 98t-73 345l31 203q14 102 -37 145q-55 39 -157 39h-29v233h29q106 0 157 39t37 144l-31 202q-35 246 74 345t346 100h142v-232h-113q-147 0 -176 -57t-4 -225l24 -168q12 -90 -32 -165t-175 -99q91 -17 143 -65t62 -96t2 -104l-24 -168
q-25 -168 4 -225t176 -57h113z" />
    <glyph glyph-name="bar" unicode="|" horiz-adv-x="595" 
d="M170 -221v1921h256v-1921h-256z" />
    <glyph glyph-name="braceright" unicode="}" horiz-adv-x="862" 
d="M70 -240v232h112q147 0 176 57t4 225l-24 168q-14 88 31 164t176 101q-131 25 -175 99t-32 165l24 168q33 151 0 217t-180 65h-112v232h143q233 1 343 -99t75 -346l-29 -202q-14 -102 35 -144q51 -39 158 -39h28v-233h-28q-102 0 -158 -39q-49 -43 -35 -145l29 -203
q35 -248 -74 -345t-344 -98h-143z" />
    <glyph glyph-name="asciitilde" unicode="~" horiz-adv-x="1220" 
d="M811 365q-98 0 -219 77q-39 27 -94 56q-59 25 -88 24q-71 0 -144 -102l-166 158q123 209 310 208q60 0 124 -22t110 -54q116 -81 167 -79q70 0 145 100l166 -156q-125 -210 -311 -210z" />
    <glyph glyph-name="uni00A0" unicode="&#xa0;" horiz-adv-x="479" 
 />
    <glyph glyph-name="exclamdown" unicode="&#xa1;" horiz-adv-x="616" 
d="M473 -473h-328v299l29 676h270l29 -674v-301zM305 672q-76 0 -130 54t-54 131t54 131t130 54t130 -54t54 -129t-53 -132q-55 -55 -131 -55z" />
    <glyph glyph-name="cent" unicode="&#xa2;" horiz-adv-x="1212" 
d="M389 512q0 -90 43 -157t119 -91v492q-76 -26 -119 -90t-43 -154zM702 -195h-155v181q-209 29 -336 173t-127 346t130 349t333 178v182h155v-180q156 -14 277 -102t156 -236l-269 -82q-39 117 -168 148v-504q125 25 172 152l271 -82q-27 -98 -95 -175q-126 -144 -344 -169
v-179z" />
    <glyph glyph-name="sterling" unicode="&#xa3;" horiz-adv-x="1351" 
d="M840 0h-725v268q89 43 161 112t72 165q0 25 -8 73h-223v244h139q-39 104 -39 215t70 213q63 102 177 158t243 57q207 0 340 -114q131 -117 149 -322l-305 -49q-14 78 -55 136t-119 58t-129 -45q-49 -47 -49 -121t47 -186h387v-244h-307q2 -14 2 -32q0 -80 -33 -158
t-92 -131h282q92 6 125 82q13 30 29 106l301 -26q-24 -209 -128 -334t-312 -125z" />
    <glyph glyph-name="currency" unicode="&#xa4;" horiz-adv-x="1290" 
d="M453 513q0 -81 53 -133t138 -52t138 51t53 134t-54 137t-136 54t-139 -53q-53 -57 -53 -138zM646 70q-112 0 -214 51l-166 -166l-182 182l162 160q-58 100 -58 217t56 221l-160 164l182 180l166 -168q102 51 217 51t209 -51l164 166l182 -180l-160 -162q60 -100 60 -216
t-60 -224l162 -160l-182 -182l-164 168q-102 -51 -214 -51z" />
    <glyph glyph-name="yen" unicode="&#xa5;" horiz-adv-x="1480" 
d="M1331 788v-194h-436v-113h436v-196h-436v-285h-309v285h-436v196h436v113h-436v194h335l-419 705h358l315 -588l322 588h352l-422 -705h340z" />
    <glyph glyph-name="brokenbar" unicode="&#xa6;" horiz-adv-x="593" 
d="M168 522h256v-743h-256v743zM424 954h-256v746h256v-746z" />
    <glyph glyph-name="section" unicode="&#xa7;" horiz-adv-x="1269" 
d="M362 782q0 -74 203 -123l84 -22q161 -46 227 6q34 27 33 72q0 72 -202 121l-13 4q-6 0 -16 3t-27 7t-51 15t-119 14q-51 0 -85 -26t-34 -71zM1087 298q1 -138 -117 -229q-118 -92 -331 -92t-353 87t-173 219l225 96q26 -66 98 -117t207 -51q66 0 105 25q38 24 38 60
t-38 60t-144 50l-158 38q-172 41 -266 115t-94 174q0 184 190 254q-92 74 -92 197q0 152 123 242t322 92q199 0 331 -77t177 -206l-219 -105q-31 70 -105 112q-73 42 -159 42t-126 -26t-41 -60q0 -34 30 -60q30 -24 116 -42l192 -47q360 -88 361 -291q0 -180 -191 -252
q92 -70 92 -208z" />
    <glyph glyph-name="dieresis" unicode="&#xa8;" horiz-adv-x="839" 
d="M809 1342q0 -68 -48 -116t-119 -48t-117 47t-46 117t47 117q47 48 116 48t118 -49q49 -48 49 -116zM354 1342q0 -68 -48 -116t-119 -48t-117 49t-45 115q0 66 47 115q48 50 116 50t117 -49q49 -48 49 -116z" />
    <glyph glyph-name="copyright" unicode="&#xa9;" horiz-adv-x="1703" 
d="M510 410q-137 136 -137 336t143 335q139 137 351 137t343 -137q70 -70 93 -170l-240 -71q-14 55 -70 96q-57 41 -140 41t-146 -62q-61 -63 -61 -165t60 -166t146 -64t140 39t77 100l240 -73q-29 -104 -102 -175q-139 -135 -348 -135q-210 0 -349 134zM832 1391
q-148 0 -295 -87t-231 -235t-85 -300q0 -289 187 -474q80 -84 198 -136q118 -53 245 -53q128 0 245 52q230 103 338 342q51 125 51 251q0 127 -53 249t-136 202q-188 189 -464 189zM86 747q0 157 61 299t166 244q97 100 241 162t298 64q154 0 295 -60t246 -162
q102 -102 163 -244q62 -142 62 -298t-64 -298t-165 -247q-107 -103 -246 -164q-297 -127 -590 -2q-135 59 -241 163t-166 246q-60 140 -60 297z" />
    <glyph glyph-name="ordfeminine" unicode="&#xaa;" horiz-adv-x="1050" 
d="M139 565h754v-186h-754v186zM692 1094q0 80 -51 131q-53 49 -126 49t-124 -49q-51 -55 -51 -132t51 -128t125 -51t125 50t51 130zM688 819h-2q-70 -94 -217 -94q-100 0 -178 52t-119 135t-41 182q0 201 164 313q80 55 176 55q137 0 215 -96h2v82h205v-711h-205v82z" />
    <glyph glyph-name="guillemotleft" unicode="&#xab;" horiz-adv-x="1284" 
d="M1024 1014l162 -158l-285 -281l285 -282l-162 -158l-444 438zM500 1014l159 -158l-284 -281l287 -282l-164 -158l-445 438z" />
    <glyph glyph-name="logicalnot" unicode="&#xac;" horiz-adv-x="1370" 
d="M92 795v270h1143v-616h-291v346h-852z" />
    <glyph glyph-name="uni00AD" unicode="&#xad;" horiz-adv-x="874" 
d="M123 471v295h629v-295h-629z" />
    <glyph glyph-name="registered" unicode="&#xae;" horiz-adv-x="1243" 
d="M647 1016q96 0 96 75t-96 74h-104v-149h104zM543 899v-215h-123v600h235q93 0 153 -48t60 -142q0 -127 -112 -172l125 -238h-138l-108 215h-92zM620 1413q-112 0 -210 -58q-98 -57 -156 -155t-57 -217q0 -174 125 -301t298 -129t302 127t125 303q0 119 -58 215
q-53 97 -155 158q-102 57 -214 57zM1145 983q-1 -143 -71 -262t-190 -190t-263 -71t-263 72q-120 70 -190 191t-70 259t70 262t190 194t262 70q144 0 264 -70t190 -191t71 -264z" />
    <glyph glyph-name="degree" unicode="&#xb0;" horiz-adv-x="878" 
d="M436 1298q-64 0 -106 -43t-43 -109q0 -66 43 -109q42 -44 108 -44t110 45q44 44 44 106t-46 108t-110 46zM442 1505q148 0 252 -105t104 -255q0 -151 -104 -255t-252 -104t-258 105q-104 109 -104 256t104 254q110 104 258 104z" />
    <glyph glyph-name="plusminus" unicode="&#xb1;" horiz-adv-x="1255" 
d="M1126 264v-264h-995v264h995zM768 399h-268v318h-377v274h377v316h268v-316h367v-274h-367v-318z" />
    <glyph glyph-name="uni00B2" unicode="&#xb2;" horiz-adv-x="892" 
d="M778 811h-669v70q0 123 88 227q55 61 133 106l119 68q96 55 96 125q0 39 -28 63t-78 25q-50 0 -79 -34t-28 -97l-219 35q6 127 96 215q94 84 236 84t237 -82q92 -86 92 -205q0 -174 -178 -276l-141 -82q-35 -25 -56 -41h379v-201z" />
    <glyph glyph-name="uni00B3" unicode="&#xb3;" horiz-adv-x="874" 
d="M778 1085q0 -131 -102 -211t-246 -80t-235 78q-96 76 -103 211l215 35q2 -57 35 -91t86 -34t88 26t35 69q0 42 -36 66t-77 24t-71 -15l-97 154l213 164h-381v196h666v-180l-199 -154q86 -20 150 -96q59 -76 59 -162z" />
    <glyph glyph-name="acute" unicode="&#xb4;" horiz-adv-x="581" 
d="M221 1544h342l-303 -356h-244z" />
    <glyph glyph-name="uni00B5" unicode="&#xb5;" horiz-adv-x="1269" 
d="M455 1018v-567q0 -91 45 -143t133 -52t135 56t47 139v567h297v-1018h-293v127h-4q-94 -143 -256 -143q-16 0 -53 9t-60 23v-329h-288v1331h297z" />
    <glyph glyph-name="paragraph" unicode="&#xb6;" horiz-adv-x="1075" 
d="M592 686h-100q-176 0 -302 121q-127 117 -128 283t127 286t303 117h395v-1493h-295v686z" />
    <glyph glyph-name="middot" unicode="&#xb7;" horiz-adv-x="614" 
d="M514 600q0 -84 -60 -144t-145 -61q-84 0 -147 60q-62 61 -62 146t62 147t146 61q85 0 147 -61q59 -64 59 -148z" />
    <glyph glyph-name="uni00B9" unicode="&#xb9;" horiz-adv-x="714" 
d="M580 1677v-866h-252v608l-201 -112l-98 180l327 190h224z" />
    <glyph glyph-name="ordmasculine" unicode="&#xba;" horiz-adv-x="1032" 
d="M891 565v-186h-752v186h752zM514 1274q-74 0 -124 -53t-50 -129t50 -127t125 -51t125 50t50 129t-51 130t-125 51zM131 1091q0 157 114 265q115 108 273 106q158 0 270 -105t113 -263q0 -158 -113 -264q-112 -106 -274 -105t-272 105t-111 261z" />
    <glyph glyph-name="guillemotright" unicode="&#xbb;" horiz-adv-x="1284" 
d="M625 856l161 158l445 -441l-445 -438l-161 158l284 280zM100 856l160 158l447 -441l-445 -438l-164 158l287 280z" />
    <glyph glyph-name="onequarter" unicode="&#xbc;" horiz-adv-x="1882" 
d="M1434 354v283l-232 -283h232zM1657 156v-156h-223v156h-437v245l383 463h277v-510h143v-198h-143zM1522 1493l-971 -1493h-260l973 1493h258zM606 627h-252v610l-198 -113l-99 181l328 188h221v-866z" />
    <glyph glyph-name="onehalf" unicode="&#xbd;" horiz-adv-x="1888" 
d="M1122 0v68q0 209 221 335l119 68q96 53 97 125q0 40 -28 64t-78 24t-79 -35t-28 -96l-220 33q6 133 97 215q88 86 233 86q144 0 238 -83t94 -206q0 -174 -178 -274l-142 -84q-39 -25 -55 -41h379v-199h-670zM1524 1493l-971 -1493h-260l973 1493h258zM608 1493v-866
l-252 2v608l-198 -113l-101 181l330 188h221z" />
    <glyph glyph-name="threequarters" unicode="&#xbe;" horiz-adv-x="1955" 
d="M1526 354v283l-236 -283h236zM1747 156v-156h-221v156h-439v245l383 463h277v-510h141v-198h-141zM1610 1493l-969 -1493h-260l971 1493h258zM764 903q0 -133 -102 -213t-246 -80t-236 77q-94 77 -100 214l217 33q0 -55 33 -90t86 -35t88 26q35 27 35 69t-36 66
q-62 41 -149 11l-96 152l213 163h-379v197h664v-178l-199 -156q86 -20 150 -94q57 -72 57 -162z" />
    <glyph glyph-name="questiondown" unicode="&#xbf;" horiz-adv-x="1099" 
d="M731 459q0 -141 -127 -246q-70 -57 -104 -84q-127 -104 -127 -203q0 -72 50 -110t133 -37q83 0 134 61q55 61 55 150q0 18 -8 71l295 -24q8 -41 8 -94q0 -135 -69 -236q-72 -100 -183 -151t-243 -52q-186 0 -335 109t-149 309t207 354q80 60 124 116t52 124h283
q4 -41 4 -57zM762 858q0 -78 -54 -132t-131 -54t-128 55q-55 51 -55 129t55 131q51 55 128 55t131 -53t54 -131z" />
    <glyph glyph-name="Agrave" unicode="&#xc0;" horiz-adv-x="1509" 
d="M969 606l-217 588l-217 -588h434zM-2 0l571 1493h371l573 -1493h-319l-119 319h-643l-119 -319h-315zM881 1630h-246l-301 357h342z" />
    <glyph glyph-name="Aacute" unicode="&#xc1;" horiz-adv-x="1509" 
d="M969 606l-217 588l-217 -588h434zM432 319l-119 -319h-315l571 1493h371l573 -1493h-319l-119 319h-643zM840 1987h340l-301 -357h-244z" />
    <glyph glyph-name="Acircumflex" unicode="&#xc2;" horiz-adv-x="1509" 
d="M969 606l-217 588l-217 -588h434zM-2 0l571 1493h371l573 -1493h-319l-119 319h-643l-119 -319h-315zM750 1802l-115 -174h-254l229 332h281l229 -332h-252z" />
    <glyph glyph-name="Atilde" unicode="&#xc3;" horiz-adv-x="1509" 
d="M969 606l-217 588l-217 -588h434zM432 319l-119 -319h-315l571 1493h371l573 -1493h-319l-119 319h-643zM928 1628q-96 0 -169 45t-120 45q-53 0 -59 -90h-174l-3 49q-5 113 51 180t164 66q56 2 152 -44t121 -44q47 6 57 39q6 16 10 45h168l2 -47q6 -112 -49 -178
t-151 -66z" />
    <glyph glyph-name="Adieresis" unicode="&#xc4;" horiz-adv-x="1509" 
d="M969 606l-217 588l-217 -588h434zM432 319l-119 -319h-315l571 1493h371l573 -1493h-319l-119 319h-643zM991 1614q-71 0 -117 48t-46 116t46 118q47 50 116 50t118 -50t49 -118t-48 -116t-118 -48zM684 1778q0 -68 -47 -116t-118 -48t-118 47t-47 118t47 117
q45 50 117 50t117 -50q49 -50 49 -118z" />
    <glyph glyph-name="Aring" unicode="&#xc5;" horiz-adv-x="1509" 
d="M752 1194l-217 -588h434zM749 1704q-50 0 -85 -33t-35 -80t36 -83t88 -36t87 35q34 39 34 83t-34 79q-41 35 -91 35zM754 1870q121 0 209 -82q86 -84 86 -194t-74 -191l538 -1403h-319l-119 317h-645l-117 -317h-315l534 1401q-76 77 -76 191t89 196q88 82 209 82z" />
    <glyph glyph-name="AE" unicode="&#xc6;" horiz-adv-x="2009" 
d="M930 584v622h-19l-313 -622h332zM1894 1493v-289h-659v-305h590v-289h-590v-321h666v-289h-971v297h-475l-148 -297h-332l758 1493h1161z" />
    <glyph glyph-name="Ccedilla" unicode="&#xc7;" horiz-adv-x="1609" 
d="M987 -193q0 -160 -96 -233q-100 -72 -264 -72q-82 0 -138 17v200q47 -8 113 -8t108 47q42 48 42 116t-19 114q-266 37 -459 241q-193 209 -192 516q0 158 63 310q134 286 418 403q147 57 295 58q242 0 412 -113q74 -43 135 -113q111 -121 147 -258l-292 -100
q-10 47 -52 106q-125 178 -354 176q-129 0 -231 -63q-105 -61 -163 -169t-58 -234t56 -235q58 -109 164 -173t241 -64q187 0 319 146q63 74 84 153l295 -102q-17 -82 -81 -176t-161 -170q-154 -119 -367 -143q35 -83 35 -177z" />
    <glyph glyph-name="Egrave" unicode="&#xc8;" horiz-adv-x="1271" 
d="M1087 610h-600v-321h676v-289h-989v1493h983v-289h-670v-305h600v-289zM858 1630h-244l-303 357h344z" />
    <glyph glyph-name="Eacute" unicode="&#xc9;" horiz-adv-x="1271" 
d="M1163 0h-989v1493h983v-289h-670v-305h600v-289h-600v-321h676v-289zM678 1987h342l-303 -357h-244z" />
    <glyph glyph-name="Ecircumflex" unicode="&#xca;" horiz-adv-x="1271" 
d="M1087 610h-600v-321h676v-289h-989v1493h983v-289h-670v-305h600v-289zM672 1802l-117 -174h-258l235 332h279l229 -332h-252z" />
    <glyph glyph-name="Edieresis" unicode="&#xcb;" horiz-adv-x="1263" 
d="M174 1493h977v-289h-672v-305h602v-289h-602v-321h678v-289h-983v1493zM1063 1778q0 -68 -48 -116t-119 -48t-118 48t-47 116t47 118q49 50 118 50t118 -50t49 -118zM423 1614q-71 0 -118 48t-47 117t49 117q45 50 115 50t118 -48t48 -120q0 -70 -47 -117t-118 -47z" />
    <glyph glyph-name="Igrave" unicode="&#xcc;" horiz-adv-x="657" 
d="M174 0v1493h309v-1493h-309zM451 1630h-246l-301 357h342z" />
    <glyph glyph-name="Iacute" unicode="&#xcd;" horiz-adv-x="657" 
d="M483 1493v-1493h-309v1493h309zM410 1987h342l-301 -357h-246z" />
    <glyph glyph-name="Icircumflex" unicode="&#xce;" horiz-adv-x="657" 
d="M174 0v1493h309v-1493h-309zM330 1802l-115 -174h-258l233 332h281l229 -332h-251z" />
    <glyph glyph-name="Idieresis" unicode="&#xcf;" horiz-adv-x="657" 
d="M483 1493v-1493h-309v1493h309zM552 1614q-71 0 -118 48t-47 116t47 118q49 50 118 50t117 -48t48 -120q0 -70 -47 -117t-118 -47zM105 1614q-71 0 -117 48t-47 117q0 69 48 117q49 48 117 50q68 0 117 -50t49 -118t-48 -116t-119 -48z" />
    <glyph glyph-name="Eth" unicode="&#xd0;" horiz-adv-x="1599" 
d="M522 293h152q238 0 381 120t143 336q0 217 -145 335t-375 118h-156v-307h318v-285h-318v-317zM215 1493h457q393 0 617 -197q224 -198 224 -542t-228 -549t-619 -205h-451v610h-182v285h182v598z" />
    <glyph glyph-name="Ntilde" unicode="&#xd1;" horiz-adv-x="1660" 
d="M487 0h-313v1493h367l641 -1010v1010h305v-1493h-350l-650 1026v-1026zM990 1628q-97 0 -168 45t-117 45q-55 0 -60 -90h-176l-2 49q-4 113 51 180t166 66q54 2 150 -44t130 -43q34 2 46 30q10 28 12 53h170l2 -47q4 -112 -52 -178t-152 -66z" />
    <glyph glyph-name="Ograve" unicode="&#xd2;" horiz-adv-x="1714" 
d="M400 748q0 -126 60 -234t165 -174q106 -64 234 -64q129 0 233 64t165 172q59 109 60 236q-1 128 -61 236t-165 170t-233 62t-232 -62q-106 -62 -166 -171t-60 -235zM82 745q0 155 61 301t166 246q101 100 249 162t307 62t299 -60t245 -160q103 -102 163 -244t60 -301
t-62 -303q-126 -292 -413 -409q-145 -61 -303 -62q-324 0 -548 222t-224 546zM991 1630h-243l-302 357h342z" />
    <glyph glyph-name="Oacute" unicode="&#xd3;" horiz-adv-x="1714" 
d="M858 1217q-126 -1 -232 -63t-166 -171t-60 -235t60 -234t165 -174q106 -64 234 -64q129 0 233 64t165 172q59 109 60 236q4 190 -133 330t-326 139zM82 745q0 155 61 301t166 246q101 100 249 162t307 62t299 -60t245 -160q103 -102 163 -244t60 -301t-62 -303
q-126 -292 -413 -409q-145 -61 -303 -62q-324 0 -548 222t-224 546zM932 1987h340l-301 -357h-244z" />
    <glyph glyph-name="Ocircumflex" unicode="&#xd4;" horiz-adv-x="1714" 
d="M400 748q0 -126 60 -234t165 -174q106 -64 234 -64q129 0 233 64t165 172q59 109 60 236q-1 128 -61 236t-165 170t-233 62t-232 -62q-106 -62 -166 -171t-60 -235zM82 745q0 155 61 301t166 246q101 100 249 162t307 62t299 -60t245 -160q103 -102 163 -244t60 -301
t-62 -303q-126 -292 -413 -409q-145 -61 -303 -62q-324 0 -548 222t-224 546zM864 1802l-116 -174h-254l231 332h279l229 -332h-252z" />
    <glyph glyph-name="Otilde" unicode="&#xd5;" horiz-adv-x="1714" 
d="M858 1217q-126 -1 -232 -63t-166 -171t-60 -235t60 -234t165 -174q106 -64 234 -64q129 0 233 64t165 172q59 109 60 236q4 190 -133 330t-326 139zM82 745q0 155 61 301t166 246q101 100 249 162t307 62t299 -60t245 -160q103 -102 163 -244t60 -301t-62 -303
q-126 -292 -413 -409q-145 -61 -303 -62q-324 0 -548 222t-224 546zM1020 1628q-96 0 -169 45t-120 45q-53 0 -59 -90h-174l-2 49q-4 113 51 180t164 66q55 2 151 -44t121 -44q47 6 57 39q6 16 11 45h168l2 -47q7 -112 -49 -178t-152 -66z" />
    <glyph glyph-name="Odieresis" unicode="&#xd6;" horiz-adv-x="1714" 
d="M858 1217q-126 -1 -232 -63t-166 -171t-60 -235t60 -234t165 -174q106 -64 234 -64q129 0 233 64t165 172q59 109 60 236q4 190 -133 330t-326 139zM82 745q0 155 61 301t166 246q101 100 249 162t307 62t299 -60t245 -160q103 -102 163 -244t60 -301t-62 -303
q-126 -292 -413 -409q-145 -61 -303 -62q-324 0 -548 222t-224 546zM1096 1614q-70 0 -117 48t-47 116t46 118t116 50t118 -50t50 -118q0 -68 -48 -116t-118 -48zM623 1614q-70 0 -117 48t-47 116t47 118t116 50q70 0 118 -50t48 -118t-48 -116t-117 -48z" />
    <glyph glyph-name="multiply" unicode="&#xd7;" horiz-adv-x="1269" 
d="M283 160l-183 180l355 354l-355 355l183 180l352 -352l354 352l180 -180l-352 -355l352 -354l-180 -180l-354 352z" />
    <glyph glyph-name="Oslash" unicode="&#xd8;" horiz-adv-x="1720" 
d="M860 276q188 -6 328 138t135 334q0 145 -74 258l-633 -662q111 -68 244 -68zM397 748q0 -139 74 -256l631 659q-111 68 -242 68q-188 3 -328 -139t-135 -332zM1634 752q0 -160 -62 -304q-126 -292 -413 -409q-145 -61 -303 -62q-248 0 -446 140l-170 -172l-154 143
l168 174q-170 211 -170 483q0 159 62 303t167 244q103 102 249 162t302 62q248 0 447 -138l170 176l153 -143l-168 -176q168 -207 168 -483z" />
    <glyph glyph-name="Ugrave" unicode="&#xd9;" horiz-adv-x="1515" 
d="M1053 592v901h305v-891q0 -291 -153 -457q-153 -165 -453 -165t-446 165t-146 447v901h309l-2 -895q0 -158 81 -240t215 -82t212 84q78 89 78 232zM891 1630h-244l-301 357h342z" />
    <glyph glyph-name="Uacute" unicode="&#xda;" horiz-adv-x="1515" 
d="M1358 1493v-891q0 -291 -153 -457q-153 -165 -453 -165t-446 165t-146 447v901h309l-2 -895q0 -158 81 -240t215 -82t212 86t78 230v901h305zM838 1987h340l-301 -357h-244z" />
    <glyph glyph-name="Ucircumflex" unicode="&#xdb;" horiz-adv-x="1515" 
d="M1053 592v901h305v-891q0 -291 -153 -457q-153 -165 -453 -165t-446 165t-146 447v901h309l-2 -895q0 -158 81 -240t215 -82t212 84q78 89 78 232zM760 1802l-115 -174h-258l234 332h278l229 -332h-251z" />
    <glyph glyph-name="Udieresis" unicode="&#xdc;" horiz-adv-x="1515" 
d="M1358 1493v-891q0 -291 -153 -457q-153 -165 -453 -165t-446 165t-146 447v901h309l-2 -895q0 -158 81 -240t215 -82t212 86t78 230v901h305zM995 1614q-71 0 -117 48t-46 116t46 118q48 50 116 50t118 -50q49 -50 49 -118t-48 -116t-118 -48zM522 1614q-70 0 -116 48
t-48 116q0 68 46 118t116 50t119 -50t49 -118t-48 -116t-118 -48z" />
    <glyph glyph-name="Yacute" unicode="&#xdd;" horiz-adv-x="1460" 
d="M580 0v590l-553 903h362l344 -598l348 598h353l-545 -889v-604h-309zM819 1987h340l-301 -357h-244z" />
    <glyph glyph-name="Thorn" unicode="&#xde;" horiz-adv-x="1318" 
d="M950 756q0 98 -70 145q-71 47 -178 47h-219v-387h219q104 0 177 47q71 50 71 148zM481 1239h246q322 0 465 -215q72 -113 72 -262q0 -244 -153 -365t-394 -121h-236v-276h-307v1493h307v-254z" />
    <glyph glyph-name="germandbls" unicode="&#xdf;" horiz-adv-x="1325" 
d="M1260 317q0 -104 -54 -183q-106 -157 -336 -157q-164 1 -258 95t-98 204l238 41q2 -39 34 -73t81 -35q50 0 82 29t32 71q0 74 -117 117l-71 27q-217 86 -218 260q0 112 74 186l33 29q12 6 27 18l63 41q88 57 88 144t-74 126q-68 31 -129 31q-113 0 -165 -78
q-57 -76 -58 -196v-1014h-297v1036q0 240 138 380t378 140t394 -149q109 -109 109 -263t-81 -229q-43 -43 -98 -75l-51 -33q-49 -29 -49 -68q0 -20 13 -33t52 -28l57 -23q261 -102 261 -338z" />
    <glyph glyph-name="agrave" unicode="&#xe0;" horiz-adv-x="1126" 
d="M504 197q92 0 147 57t56 139v25h-179q-55 0 -102 -31t-47 -83t35 -80t90 -27zM418 -20q-137 0 -238 83q-100 86 -100 222v8q0 199 205 270q109 41 243 41h99q80 0 80 70q0 55 -43 91t-114 36t-120 -37t-65 -102l-263 59q18 106 88 180q135 143 371 141q195 2 317 -106
t121 -305v-467q0 -70 9 -164h-277q-6 41 -6 127h-4q-106 -147 -303 -147zM696 1188h-243l-301 356h340z" />
    <glyph glyph-name="aacute" unicode="&#xe1;" horiz-adv-x="1126" 
d="M504 197q92 0 147 57t56 139v25h-179q-55 0 -102 -31t-47 -83t35 -80t90 -27zM418 -20q-137 0 -238 83q-100 86 -100 222v8q0 199 205 270q109 41 243 41h99q80 0 80 70q0 55 -43 91t-114 36t-120 -37t-65 -102l-263 59q18 106 88 180q135 143 371 141q195 2 317 -106
t121 -305v-467q0 -70 9 -164h-277q-6 41 -6 127h-4q-106 -147 -303 -147zM637 1544h342l-303 -356h-244z" />
    <glyph glyph-name="acircumflex" unicode="&#xe2;" horiz-adv-x="1126" 
d="M504 197q92 0 147 57t56 139v25h-179q-55 0 -102 -31t-47 -83t35 -80t90 -27zM418 -20q-137 0 -238 83q-100 86 -100 222v8q0 199 205 270q109 41 243 41h99q80 0 80 70q0 55 -43 91t-114 36t-120 -37t-65 -102l-263 59q18 106 88 180q135 143 371 141q195 2 317 -106
t121 -305v-467q0 -70 9 -164h-277q-6 41 -6 127h-4q-106 -147 -303 -147zM563 1364l-114 -174h-254l229 332h278l230 -332h-252z" />
    <glyph glyph-name="atilde" unicode="&#xe3;" horiz-adv-x="1126" 
d="M504 197q92 0 147 57t56 139v25h-179q-55 0 -102 -31t-47 -83t35 -80t90 -27zM418 -20q-137 0 -238 83q-100 86 -100 222v8q0 199 205 270q109 41 243 41h99q80 0 80 70q0 55 -43 91t-114 36t-120 -37t-65 -102l-263 59q18 106 88 180q135 143 371 141q195 2 317 -106
t121 -305v-467q0 -70 9 -164h-277q-6 41 -6 127h-4q-106 -147 -303 -147zM706 1190q-94 0 -168 45t-120 45q-55 0 -60 -88h-176l-2 47q-4 113 51 179t166 67q55 2 151 -44t121 -45q26 1 48 19q0 2 8 18t10 50h170l2 -49q4 -111 -51 -178q-56 -66 -150 -66z" />
    <glyph glyph-name="adieresis" unicode="&#xe4;" horiz-adv-x="1126" 
d="M504 197q92 0 147 57t56 139v25h-179q-55 0 -102 -31t-47 -83t35 -80t90 -27zM418 -20q-137 0 -238 83q-100 86 -100 222v8q0 199 205 270q109 41 243 41h99q80 0 80 70q0 55 -43 91t-114 36t-120 -37t-65 -102l-263 59q18 106 88 180q135 143 371 141q195 2 317 -106
t121 -305v-467q0 -70 9 -164h-277q-6 41 -6 127h-4q-106 -147 -303 -147zM786 1178q-70 0 -116 49t-47 115q0 66 47 115q48 50 116 50t117 -49q49 -48 49 -116t-48 -116t-118 -48zM498 1342q0 -66 -47 -115t-118 -49t-118 49t-47 115t47 115q47 50 117 50t119 -49
q47 -50 47 -116z" />
    <glyph glyph-name="aring" unicode="&#xe5;" horiz-adv-x="1126" 
d="M707 418h-179q-55 0 -102 -31t-47 -83t35 -80t90 -27q92 0 147 57t56 139v25zM662 1138q0 38 -29 66t-73 29q-44 0 -73 -27q-29 -28 -29 -68t30 -68q28 -28 71 -28t73 29t30 67zM725 127h-4q-106 -147 -303 -147q-137 0 -238 83q-100 86 -100 222v8q0 199 205 270
q109 41 243 41h99q80 0 80 70q0 55 -43 91t-114 36t-120 -37t-65 -102l-263 59q31 180 209 266q-45 70 -45 152q0 115 86 198q88 82 209 82t208 -82t87 -198q0 -82 -47 -154q190 -102 190 -354v-467q1 -70 9 -164h-277q-6 41 -6 127z" />
    <glyph glyph-name="ae" unicode="&#xe6;" horiz-adv-x="1810" 
d="M504 197q92 0 147 57t56 139v25h-179q-55 0 -102 -31t-47 -83t35 -80t90 -27zM999 625h439q-6 61 -58 118t-151 57q-100 0 -158 -57q-64 -59 -72 -118zM1247 -23q-260 0 -418 177q-162 -174 -401 -174h-10q-137 0 -238 83q-100 86 -100 222v8q0 199 205 270
q109 41 243 41h99q80 0 80 70q0 55 -43 91t-114 36t-120 -37t-65 -102l-263 59q18 106 88 180q135 143 362 142q226 -1 339 -123q147 122 354 122t350 -139q141 -141 142 -364q0 -68 -6 -113h-738q12 -88 83 -144q70 -56 150 -56t146 38q63 39 88 98l244 -83
q-49 -139 -174 -221t-283 -81z" />
    <glyph glyph-name="ccedilla" unicode="&#xe7;" horiz-adv-x="1189" 
d="M762 -193q0 -305 -361 -305q-82 0 -137 17v200q46 -8 112 -8t108 47q42 48 42 116t-18 114q-190 33 -311 177t-121 343q0 147 74 270q68 119 198 195q133 69 292 69t298 -88q147 -88 188 -260l-272 -82q-18 64 -78 110t-156 46q-97 0 -168 -71t-71 -187t70 -184
q68 -74 165 -74t158 44t86 114l273 -82q-39 -137 -150 -230q-115 -87 -256 -112q35 -86 35 -179z" />
    <glyph glyph-name="egrave" unicode="&#xe8;" horiz-adv-x="1196" 
d="M634 -23q-152 -1 -280 65q-127 66 -204 191q-76 127 -76 275t72 269q72 122 197 194q124 72 271 71q224 0 366 -141t142 -369q0 -70 -6 -106h-737q12 -88 83 -144q70 -56 150 -56t146 38q66 39 86 98l246 -83q-48 -141 -176 -221t-280 -81zM385 625h438q-6 61 -57 118
q-52 57 -152 57t-160 -58t-69 -117zM543 1544l205 -356h-246l-301 356h342z" />
    <glyph glyph-name="eacute" unicode="&#xe9;" horiz-adv-x="1196" 
d="M634 -23q-152 -1 -280 65q-127 66 -204 191q-76 127 -76 275t72 269q72 122 197 194q124 72 271 71q224 0 366 -141t142 -369q0 -70 -6 -106h-737q12 -88 83 -144q70 -56 150 -56t146 38q66 39 86 98l246 -83q-48 -141 -176 -221t-280 -81zM385 625h438q-6 61 -57 118
q-52 57 -152 57t-160 -58t-69 -117zM483 1188l205 356h342l-303 -356h-244z" />
    <glyph glyph-name="ecircumflex" unicode="&#xea;" horiz-adv-x="1196" 
d="M634 -23q-152 -1 -280 65q-127 66 -204 191q-76 127 -76 275t72 269q72 122 197 194q124 72 271 71q224 0 366 -141t142 -369q0 -70 -6 -106h-737q12 -88 83 -144q70 -56 150 -56t146 38q66 39 86 98l246 -83q-48 -141 -176 -221t-280 -81zM385 625h438q-6 61 -57 118
q-52 57 -152 57t-160 -58t-69 -117zM731 1190l-117 174l-116 -174h-254l229 332h281l229 -332h-252z" />
    <glyph glyph-name="edieresis" unicode="&#xeb;" horiz-adv-x="1196" 
d="M634 -23q-152 -1 -280 65q-127 66 -204 191q-76 127 -76 275t72 269q72 122 197 194q124 72 271 71q224 0 366 -141t142 -369q0 -70 -6 -106h-737q12 -88 83 -144q70 -56 150 -56t146 38q66 39 86 98l246 -83q-48 -141 -176 -221t-280 -81zM385 625h438q-6 61 -57 118
q-52 57 -152 57t-160 -58t-69 -117zM836 1178q-70 0 -116 47t-46 117t46 117q46 48 116 48t118 -49q48 -48 49 -116q0 -68 -48 -116q-49 -48 -119 -48zM549 1342q0 -68 -48 -116t-119 -48t-117 49t-46 115t46 115q46 50 116 50t119 -49q49 -48 49 -116z" />
    <glyph glyph-name="igrave" unicode="&#xec;" horiz-adv-x="573" 
d="M436 0h-299v1018h299v-1018zM410 1188h-244l-301 356h342z" />
    <glyph glyph-name="iacute" unicode="&#xed;" horiz-adv-x="573" 
d="M137 1018h299v-1018h-299v1018zM367 1544h342l-301 -356h-244z" />
    <glyph glyph-name="icircumflex" unicode="&#xee;" horiz-adv-x="573" 
d="M436 0h-299v1018h299v-1018zM287 1364l-115 -174h-256l231 332h281l229 -332h-251z" />
    <glyph glyph-name="idieresis" unicode="&#xef;" horiz-adv-x="573" 
d="M137 1018h299v-1018h-299v1018zM508 1507q70 0 118 -49q48 -48 48 -116t-47 -116t-118 -48t-118 47t-47 117t47 117q47 48 117 48zM63 1178q-69 0 -117 48t-48 116t49 116q45 49 115 49t118 -49q49 -49 49 -117q0 -67 -48 -115t-118 -48z" />
    <glyph glyph-name="eth" unicode="&#xf0;" horiz-adv-x="1255" 
d="M621 246q101 0 176 69q70 70 69 172q0 102 -69 172t-177 70q-108 1 -176 -67t-68 -174t73 -171q71 -71 172 -71zM1163 597q0 -372 -248 -536q-125 -84 -282 -84t-289 64q-124 67 -196 183t-72 261q0 213 149 345q150 132 355 133q55 -1 118 -19t105 -55l4 2
q-41 133 -131 229l-281 -114l-76 174l185 75q-102 51 -238 91l88 227q258 -66 439 -201l235 96l78 -174l-162 -65q219 -260 219 -632z" />
    <glyph glyph-name="ntilde" unicode="&#xf1;" horiz-adv-x="1220" 
d="M797 0v565q0 93 -45 145t-134 52q-90 0 -136 -57t-46 -140v-565h-299v1018h297v-133h4q52 96 146 125t141 28q182 0 275 -116t94 -289v-633h-297zM778 1190q-94 0 -168 45t-121 45q-55 0 -59 -88h-176l-2 47q-4 113 51 179t166 67q55 2 151 -44t130 -43q52 5 57 85h170
l2 -49q4 -111 -51 -178q-56 -66 -150 -66z" />
    <glyph glyph-name="ograve" unicode="&#xf2;" horiz-adv-x="1259" 
d="M630 250q105 0 178 72t73 188t-73 188t-178 72t-179 -74q-72 -76 -72 -186t72 -186q74 -74 179 -74zM74 507q0 144 75 270t205 196q130 69 282 69q150 0 276 -68t200 -190t74 -272t-75 -274t-202 -192q-127 -69 -279 -69t-282 68q-126 72 -200 195t-74 267zM764 1188
h-244l-301 356h342z" />
    <glyph glyph-name="oacute" unicode="&#xf3;" horiz-adv-x="1259" 
d="M379 510q0 -110 72 -186q74 -74 179 -74t178 72t73 188t-73 188t-178 72t-179 -74q-72 -76 -72 -186zM74 507q0 144 75 270t205 196q130 69 282 69q150 0 276 -68t200 -190t74 -272t-75 -274t-202 -192q-127 -69 -279 -69t-282 68q-126 72 -200 195t-74 267zM705 1544
h339l-301 -356h-243z" />
    <glyph glyph-name="ocircumflex" unicode="&#xf4;" horiz-adv-x="1259" 
d="M630 250q105 0 178 72t73 188t-73 188t-178 72t-179 -74q-72 -76 -72 -186t72 -186q74 -74 179 -74zM74 507q0 144 75 270t205 196q130 69 282 69q150 0 276 -68t200 -190t74 -272t-75 -274t-202 -192q-127 -69 -279 -69t-282 68q-126 72 -200 195t-74 267zM635 1364
l-117 -174h-254l230 332h280l230 -332h-252z" />
    <glyph glyph-name="otilde" unicode="&#xf5;" horiz-adv-x="1259" 
d="M379 510q0 -110 72 -186q74 -74 179 -74t178 72t73 188t-73 188t-178 72t-179 -74q-72 -76 -72 -186zM74 507q0 144 75 270t205 196q130 69 282 69q150 0 276 -68t200 -190t74 -272t-75 -274t-202 -192q-127 -69 -279 -69t-282 68q-126 72 -200 195t-74 267zM792 1190
q-94 0 -170 45t-120 45q-53 0 -60 -88h-174l-2 47q-4 113 51 179t164 67q55 2 151 -44t122 -44q47 6 57 41q8 16 10 45h170l2 -49q4 -111 -51 -178q-56 -66 -150 -66z" />
    <glyph glyph-name="odieresis" unicode="&#xf6;" horiz-adv-x="1259" 
d="M379 510q0 -110 72 -186q74 -74 179 -74t178 72t73 188t-73 188t-178 72t-179 -74q-72 -76 -72 -186zM74 507q0 144 75 270t205 196q130 69 282 69q150 0 276 -68t200 -190t74 -272t-75 -274t-202 -192q-127 -69 -279 -69t-282 68q-126 72 -200 195t-74 267zM858 1178
q-70 0 -117 49t-47 115t46 115q46 50 116 50t119 -49q49 -48 49 -116t-48 -116t-118 -48zM569 1342q0 -66 -47 -115t-118 -49q-72 0 -118 49t-46 115t47 115q47 50 117 50t118 -49q47 -50 47 -116z" />
    <glyph glyph-name="divide" unicode="&#xf7;" horiz-adv-x="1128" 
d="M566 418q70 0 115 -50q46 -50 46 -114t-46 -114t-116 -50t-114 49q-49 45 -49 113t49 117q45 49 115 49zM1038 838v-275h-948v275h948zM727 1142q0 -66 -47 -112q-47 -47 -116 -47t-113 47q-49 47 -49 114t48 115t113 48t117 -47q47 -52 47 -118z" />
    <glyph glyph-name="oslash" unicode="&#xf8;" horiz-adv-x="1263" 
d="M633 248q106 0 180 74q72 76 72 188q0 68 -25 123l-356 -352q61 -33 129 -33zM379 510q0 -66 24 -121l355 352q-59 31 -125 31q-106 0 -180 -74t-74 -188zM1188 532q0 -170 -75 -294t-202 -192q-127 -69 -295 -69t-313 99l-121 -119l-108 106l116 115q-115 143 -114 328
q0 145 76 272q78 125 206 195q128 69 292 69q165 0 308 -98l119 121l109 -109l-115 -114q117 -140 117 -310z" />
    <glyph glyph-name="ugrave" unicode="&#xf9;" 
d="M127 1018h297v-567q0 -91 45 -143t134 -52t135 56t46 139v567h297v-1018h-293v127h-4q-100 -147 -284 -147t-278 118t-95 281v639zM737 1188h-243l-301 356h342z" />
    <glyph glyph-name="uacute" unicode="&#xfa;" horiz-adv-x="1220" 
d="M127 1018h297v-567q0 -91 45 -143t134 -52t135 56t46 139v567h297v-1018h-293v127h-4q-100 -147 -284 -147t-278 118t-95 281v639zM690 1544h342l-301 -356h-244z" />
    <glyph glyph-name="ucircumflex" unicode="&#xfb;" 
d="M127 1018h297v-567q0 -91 45 -143t134 -52t135 56t46 139v567h297v-1018h-293v127h-4q-100 -147 -284 -147t-278 118t-95 281v639zM604 1364l-115 -174h-253l229 332h280l230 -332h-252z" />
    <glyph glyph-name="udieresis" unicode="&#xfc;" 
d="M127 1018h297v-567q0 -91 45 -143t134 -52t135 56t46 139v567h297v-1018h-293v127h-4q-100 -147 -284 -147t-278 118t-95 281v639zM831 1178q-71 0 -117 49t-46 115t47 115q47 50 115 50t118 -49q49 -48 49 -116t-48 -116t-118 -48zM377 1178q-70 0 -117 49t-47 115
t47 115q47 50 116 50t118 -49q49 -48 49 -116t-48 -116t-118 -48z" />
    <glyph glyph-name="yacute" unicode="&#xfd;" horiz-adv-x="1165" 
d="M455 109l-430 909h327l256 -582l228 582h305l-619 -1520h-317zM694 1544h340l-301 -356h-244z" />
    <glyph glyph-name="thorn" unicode="&#xfe;" horiz-adv-x="1306" 
d="M678 768q-108 0 -179 -72t-71 -186t73 -188q73 -72 178 -72t178 73t73 185t-72 186t-180 74zM434 895h4q111 143 320 143t341 -164t132 -368t-137 -365q-136 -161 -342 -161t-314 133h-4v-615h-297v2054h297v-657z" />
    <glyph glyph-name="ydieresis" unicode="&#xff;" horiz-adv-x="1165" 
d="M453 109l-428 909h327l254 -582l228 582h307l-619 -1520h-317zM989 1342q0 -66 -47 -115t-118 -49q-72 0 -118 49t-46 115t46 115q48 50 118 50t118 -49q47 -50 47 -116zM370 1178q-70 0 -118 48q-47 48 -47 116t49 116q45 49 115 49q69 0 117 -48q48 -47 48 -117
t-47 -117t-117 -47z" />
    <glyph glyph-name="Amacron" unicode="&#x100;" horiz-adv-x="1509" 
d="M969 606l-217 588l-217 -588h434zM432 319l-119 -319h-315l571 1493h371l573 -1493h-319l-119 319h-643zM1102 1876v-221h-694v221h694z" />
    <glyph glyph-name="amacron" unicode="&#x101;" horiz-adv-x="1126" 
d="M504 197q92 0 147 57t56 139v25h-179q-55 0 -102 -31t-47 -83t35 -80t90 -27zM418 -20q-137 0 -238 83q-100 86 -100 222v8q0 199 205 270q109 41 243 41h99q80 0 80 70q0 55 -43 91t-114 36t-120 -37t-65 -102l-263 59q18 106 88 180q135 143 371 141q195 2 317 -106
t121 -305v-467q0 -70 9 -164h-277q-6 41 -6 127h-4q-106 -147 -303 -147zM887 1421v-223h-694v223h694z" />
    <glyph glyph-name="Abreve" unicode="&#x102;" horiz-adv-x="1509" 
d="M969 606l-217 588l-217 -588h434zM432 319l-119 -319h-315l571 1493h371l573 -1493h-319l-119 319h-643zM752 1638q-148 0 -246 94q-100 94 -117 246h221q23 -137 140 -137q57 0 95 37t46 100h223q-14 -152 -114 -246t-248 -94z" />
    <glyph glyph-name="abreve" unicode="&#x103;" horiz-adv-x="1126" 
d="M504 197q92 0 147 57t56 139v25h-179q-55 0 -102 -31t-47 -83t35 -80t90 -27zM418 -20q-137 0 -238 83q-100 86 -100 222v8q0 199 205 270q109 41 243 41h99q80 0 80 70q0 55 -43 91t-114 36t-120 -37t-65 -102l-263 59q18 106 88 180q135 143 371 141q195 2 317 -106
t121 -305v-467q0 -70 9 -164h-277q-6 41 -6 127h-4q-106 -147 -303 -147zM568 1182q-146 0 -246 95t-117 245h223q23 -137 139 -138q57 0 95 37q37 37 47 101h223q-14 -154 -116 -247t-248 -93z" />
    <glyph glyph-name="Aogonek" unicode="&#x104;" horiz-adv-x="1509" 
d="M752 1194l-217 -588h434zM1327 -215q0 -51 44 -77t93 -25l41 2v-174q-55 -16 -145 -17q-170 0 -252 94q-43 49 -43 121q0 147 211 291h-82l-119 319h-643l-119 -319h-315l571 1493h371l573 -1493q-186 -118 -186 -215z" />
    <glyph glyph-name="aogonek" unicode="&#x105;" horiz-adv-x="1126" 
d="M707 418h-179q-55 0 -102 -31t-47 -83t35 -80t90 -27q92 0 147 57t56 139v25zM561 -291q0 147 211 291h-41q-6 41 -6 127h-4q-106 -147 -303 -147q-137 0 -238 83q-100 86 -100 222v8q0 199 205 270q109 41 243 41h99q80 0 80 70q0 55 -43 91t-114 36t-120 -37t-65 -102
l-263 59q18 106 88 180q135 143 371 141q195 2 317 -106t121 -305v-467q0 -70 9 -164q-74 -44 -130 -104t-55 -111q0 -51 44 -77t96 -25l38 2v-174q-55 -16 -145 -17q-166 0 -252 94q-43 49 -43 121z" />
    <glyph glyph-name="Cacute" unicode="&#x106;" horiz-adv-x="1611" 
d="M852 -20q-311 0 -537 208q-102 94 -170 244q-63 150 -63 329t88 344t238 267q202 144 448 144t414 -113q78 -47 137 -113q111 -121 147 -258l-294 -100q-8 47 -50 105q-128 179 -354 177q-129 0 -231 -63q-104 -61 -164 -168q-57 -111 -57 -237t56 -233q58 -109 164 -173
t241 -64q187 0 319 146q63 74 84 153l295 -102q-31 -131 -142 -252q-131 -146 -329 -209q-111 -32 -240 -32zM911 1987h342l-301 -357h-243z" />
    <glyph glyph-name="cacute" unicode="&#x107;" horiz-adv-x="1193" 
d="M231 129q-155 147 -155 375t160 385q164 154 397 153q167 0 313 -90t182 -258l-270 -82q-23 68 -81 112t-155 44t-168 -71t-71 -185t70 -188q70 -72 167 -72t157 44t87 114l271 -82q-31 -111 -111 -193q-154 -158 -396 -158q-241 0 -397 152zM709 1544h342l-301 -356
h-246z" />
    <glyph glyph-name="Ccircumflex" unicode="&#x108;" horiz-adv-x="1611" 
d="M852 -20q-311 0 -537 208q-102 94 -170 244q-63 150 -63 329t88 344t238 267q202 144 448 144t414 -113q78 -47 137 -113q111 -121 147 -258l-294 -100q-8 47 -50 105q-128 179 -354 177q-129 0 -231 -63q-104 -61 -164 -168q-57 -111 -57 -237t56 -233q58 -109 164 -173
t241 -64q187 0 319 146q63 74 84 153l295 -102q-31 -131 -142 -252q-131 -146 -329 -209q-111 -32 -240 -32zM860 1802l-115 -174h-253l229 332h278l230 -332h-252z" />
    <glyph glyph-name="ccircumflex" unicode="&#x109;" horiz-adv-x="1193" 
d="M231 129q-155 147 -155 375t160 385q164 154 397 153q167 0 313 -90t182 -258l-270 -82q-23 68 -81 112t-155 44t-168 -71t-71 -185t70 -188q70 -72 167 -72t157 44t87 114l271 -82q-31 -111 -111 -193q-154 -158 -396 -158q-241 0 -397 152zM635 1364l-117 -174h-256
l232 332h280l230 -332h-252z" />
    <glyph glyph-name="Cdotaccent" unicode="&#x10a;" horiz-adv-x="1611" 
d="M852 -20q-311 0 -537 208q-102 94 -170 244q-63 150 -63 329t88 344t238 267q202 144 448 144t414 -113q78 -47 137 -113q111 -121 147 -258l-294 -100q-8 47 -50 105q-128 179 -354 177q-129 0 -231 -63q-104 -61 -164 -168q-57 -111 -57 -237t56 -233q58 -109 164 -173
t241 -64q187 0 319 146q63 74 84 153l295 -102q-31 -131 -142 -252q-131 -146 -329 -209q-111 -32 -240 -32zM870 1614q-76 0 -130 54t-54 127t53 130q57 53 131 53t128 -54t54 -129t-55 -126q-51 -55 -127 -55z" />
    <glyph glyph-name="cdotaccent" unicode="&#x10b;" horiz-adv-x="1193" 
d="M231 129q-155 147 -155 375t160 385q164 154 397 153q167 0 313 -90t182 -258l-270 -82q-23 68 -81 112t-155 44t-168 -71t-71 -185t70 -188q70 -72 167 -72t157 44t87 114l271 -82q-31 -111 -111 -193q-154 -158 -396 -158q-241 0 -397 152zM634 1178q-77 0 -129 53
t-52 128t52 128t129 53t130 -53t53 -128t-53 -128t-130 -53z" />
    <glyph glyph-name="Ccaron" unicode="&#x10c;" horiz-adv-x="1611" 
d="M852 -20q-311 0 -537 208q-102 94 -170 244q-63 150 -63 329t88 344t238 267q202 144 448 144t414 -113q78 -47 137 -113q111 -121 147 -258l-294 -100q-8 47 -50 105q-128 179 -354 177q-129 0 -231 -63q-104 -61 -164 -168q-57 -111 -57 -237t56 -233q58 -109 164 -173
t241 -64q187 0 319 146q63 74 84 153l295 -102q-31 -131 -142 -252q-131 -146 -329 -209q-111 -32 -240 -32zM492 1960h253l115 -174l117 174h252l-230 -332h-278z" />
    <glyph glyph-name="ccaron" unicode="&#x10d;" horiz-adv-x="1193" 
d="M231 129q-155 147 -155 375t160 385q164 154 397 153q167 0 313 -90t182 -258l-270 -82q-23 68 -81 112t-155 44t-168 -71t-71 -185t70 -188q70 -72 167 -72t157 44t87 114l271 -82q-31 -111 -111 -193q-154 -158 -396 -158q-241 0 -397 152zM262 1522h256l117 -174
l117 174h252l-230 -332h-280z" />
    <glyph glyph-name="Dcaron" unicode="&#x10e;" horiz-adv-x="1560" 
d="M1163 748q0 218 -145 336t-373 118h-158v-909h152q238 0 381 119t143 336zM633 1493q391 1 617 -195t225 -542q0 -346 -226 -547q-229 -209 -622 -209h-453v1493h459zM276 1960h254l115 -174l117 174h252l-230 -332h-278z" />
    <glyph glyph-name="dcaron" unicode="&#x10f;" horiz-adv-x="1343" 
d="M881 510q0 110 -72 184t-179 74t-180 -73t-73 -185t74 -186q70 -74 177 -74t181 74q72 76 72 186zM872 901v651h297v-1552h-288v129h-4q-101 -149 -317 -149t-350 158t-134 368q0 209 139 371q139 161 338 161t315 -137h4zM1315 1554h311l-131 -446h-209z" />
    <glyph glyph-name="Dcroat" unicode="&#x110;" horiz-adv-x="1599" 
d="M522 293h152q238 0 381 120t143 336q0 217 -145 335t-375 118h-156v-307h318v-285h-318v-317zM215 1493h457q393 0 617 -197q224 -198 224 -542t-228 -549t-619 -205h-451v610h-182v285h182v598z" />
    <glyph glyph-name="dslash" unicode="&#x111;" horiz-adv-x="1308" 
d="M881 510q0 110 -72 184t-179 74t-180 -73t-73 -185t74 -186q70 -74 177 -74t181 74q72 76 72 186zM872 901v279h-303v202h303v172h297v-172h127v-202h-127v-1180h-288v129h-4q-101 -149 -317 -149t-350 158t-134 368q0 209 139 371q139 161 338 161t315 -137h4z" />
    <glyph glyph-name="Emacron" unicode="&#x112;" horiz-adv-x="1263" 
d="M174 1493h977v-289h-672v-305h602v-289h-602v-321h678v-289h-983v1493zM1014 1876v-221h-697v221h697z" />
    <glyph glyph-name="emacron" unicode="&#x113;" horiz-adv-x="1196" 
d="M385 625h436q-2 57 -55 116q-54 59 -154 59t-158 -56q-58 -58 -69 -119zM633 -23q-254 0 -407 158t-152 375q0 217 156 375q156 157 392 157t373 -151q135 -143 125 -352q2 -74 -4 -113h-739q12 -86 81 -143q68 -57 150 -57t146 37q64 38 90 99l243 -83
q-47 -135 -165 -218q-125 -84 -289 -84zM266 1421h697v-223h-697v223z" />
    <glyph glyph-name="Edotaccent" unicode="&#x116;" horiz-adv-x="1263" 
d="M1081 610h-602v-321h678v-289h-983v1493h977v-289h-672v-305h602v-289zM848 1795q0 -73 -54 -127t-129 -54t-129 54t-53 127q-1 73 53 128t128 55t131 -53q53 -57 53 -130z" />
    <glyph glyph-name="edotaccent" unicode="&#x117;" horiz-adv-x="1196" 
d="M385 625h436q-2 57 -55 116q-54 59 -154 59t-158 -56q-58 -58 -69 -119zM633 -23q-254 0 -407 158t-152 375q0 217 156 375q156 157 392 157t373 -151q135 -143 125 -352v-21q0 -72 -4 -92h-739q12 -86 81 -143q68 -57 150 -57t146 37q64 38 90 99l243 -83
q-47 -135 -165 -218q-125 -84 -289 -84zM434 1359q0 75 52 128t129 53t130 -52t53 -129t-52 -129q-54 -52 -131 -52t-129 53t-52 128z" />
    <glyph glyph-name="Eogonek" unicode="&#x118;" horiz-adv-x="1263" 
d="M707 -291q0 145 213 291h-746v1493h977v-289h-672v-305h602v-289h-602v-321h678v-289q-63 -37 -131 -102q-55 -56 -55 -110t43 -81q47 -25 94 -24l41 2v-174q-55 -16 -145 -17q-170 0 -252 94q-45 51 -45 121z" />
    <glyph glyph-name="eogonek" unicode="&#x119;" horiz-adv-x="1196" 
d="M385 625h436q-2 57 -55 116q-54 59 -154 59t-158 -56q-58 -58 -69 -119zM74 515q0 212 156 370q156 157 392 157t373 -151q135 -143 125 -352q2 -74 -4 -113h-739q12 -86 81 -143q68 -57 150 -57t146 37q64 38 90 99l243 -83q-37 -113 -143 -201q-248 -199 -248 -293
q0 -49 45 -78q45 -25 77 -25t56 3v-174q-51 -16 -143 -17q-170 0 -252 94q-45 47 -45 121q0 129 170 268q-240 10 -389 168q-141 158 -141 370z" />
    <glyph glyph-name="Ecaron" unicode="&#x11a;" horiz-adv-x="1263" 
d="M1081 610h-602v-321h678v-289h-983v1493h977v-289h-672v-305h602v-289zM295 1960h254l117 -174l116 174h252l-229 -332h-281z" />
    <glyph glyph-name="ecaron" unicode="&#x11b;" horiz-adv-x="1196" 
d="M385 625h438q-6 61 -57 118q-52 57 -152 57t-160 -58t-69 -117zM634 -23q-152 -1 -280 65q-127 66 -204 191q-76 127 -76 275t72 269q72 122 197 194q124 72 271 71q224 0 366 -141t142 -369q0 -69 -6 -106h-737q12 -88 83 -144q70 -56 150 -56t146 38q66 39 86 98
l246 -83q-48 -141 -176 -221t-280 -81zM473 1190l-229 332h254l114 -174l117 174h254l-231 -332h-279z" />
    <glyph glyph-name="Gcircumflex" unicode="&#x11c;" horiz-adv-x="1636" 
d="M788 522v281h779v-117q0 -272 -146 -450q-70 -86 -157 -142q-174 -117 -406 -117q-170 0 -315 62q-145 57 -246 164q-215 221 -215 542q0 209 105 389t283 280q178 101 390 102q274 0 448 -136t224 -319l-301 -92q-25 100 -126 176t-237 76q-136 1 -242 -61
q-104 -62 -166 -171t-62 -241t58 -240q58 -109 165 -172q106 -66 244 -66t247 70q102 69 131 182h-455zM862 1802l-114 -174h-256l231 332h278l230 -332h-252z" />
    <glyph glyph-name="gcircumflex" unicode="&#x11d;" horiz-adv-x="1300" 
d="M872 514q0 114 -70 184t-175 70q-106 0 -177 -71t-71 -183t71 -184t175 -72q103 0 175 72t72 184zM532 1034q219 0 332 -139h4v123h293v-967q1 -279 -155 -420t-390 -141t-372 115q-137 109 -162 252l274 80q16 -79 74 -133t168 -54t188 68t78 200v117h-4
q-104 -135 -293 -135q-141 0 -254 67t-175 185t-62 262q0 199 131 356q61 76 153 120t172 44zM643 1364l-115 -174h-254l230 332h278l232 -332h-254z" />
    <glyph glyph-name="Gbreve" unicode="&#x11e;" horiz-adv-x="1634" 
d="M1565 803v-117q0 -272 -146 -450q-70 -86 -157 -142q-174 -117 -406 -117q-172 1 -316 61t-243 165q-215 219 -215 542q0 209 106 392q106 178 282 278t390 101q272 0 446 -134t224 -321l-301 -92q-25 100 -127 176t-236 76q-134 1 -240 -61t-168 -171t-62 -241t58 -240
q58 -110 164 -174t244 -64t248 70q102 70 131 182h-455v281h779zM858 1638q-148 0 -244 95q-100 92 -116 245h223q23 -137 139 -137q57 0 94 37t47 100h224q-14 -152 -116 -246q-103 -94 -251 -94z" />
    <glyph glyph-name="gbreve" unicode="&#x11f;" horiz-adv-x="1300" 
d="M872 514q0 114 -70 184t-175 70q-106 0 -177 -71t-71 -183t71 -184t175 -72q103 0 175 72t72 184zM532 1034q219 0 332 -139h4v123h293v-967q1 -279 -155 -420t-390 -141t-372 115q-137 109 -162 252l274 80q16 -79 74 -133t168 -54t188 68t78 200v117h-4
q-104 -135 -293 -135q-141 0 -254 67t-175 185t-62 262q0 199 131 356q61 76 153 120t172 44zM646 1182q-146 0 -247 94q-100 96 -116 246h223q23 -137 139 -138q57 0 94 37t47 101h224q-14 -154 -116 -247t-248 -93z" />
    <glyph glyph-name="Gdotaccent" unicode="&#x120;" horiz-adv-x="1634" 
d="M1565 803v-117q0 -272 -146 -450q-70 -86 -157 -142q-174 -117 -406 -117q-172 1 -316 61t-243 165q-215 219 -215 542q0 209 106 392q106 178 282 278t390 101q272 0 446 -134t224 -321l-301 -92q-25 100 -127 176t-236 76q-134 1 -240 -61t-168 -171t-62 -241t58 -240
q58 -110 164 -174t244 -64t248 70q102 70 131 182h-455v281h779zM860 1614q-74 0 -128 54t-54 127t53 130q57 53 129 53t129 -53q55 -55 55 -130t-55 -128t-129 -53z" />
    <glyph glyph-name="gdotaccent" unicode="&#x121;" horiz-adv-x="1300" 
d="M872 514q0 114 -70 184t-175 70q-106 0 -177 -71t-71 -183t71 -184t175 -72q103 0 175 72t72 184zM532 1034q219 0 332 -139h4v123h293v-967q1 -279 -155 -420t-390 -141t-372 115q-137 109 -162 252l274 80q16 -79 74 -133t168 -54t188 68t78 200v117h-4
q-104 -135 -293 -135q-141 0 -254 67t-175 185t-62 262q0 199 131 356q61 76 153 120t172 44zM436 1359q0 75 52 128t129 53t131 -52t53 -129q0 -77 -53 -129q-52 -52 -130 -52t-130 53t-52 128z" />
    <glyph glyph-name="Gcommaaccent" unicode="&#x122;" horiz-adv-x="1634" 
d="M1006 -358q0 -150 -84 -256q-86 -102 -230 -123v114q135 45 164 177q-20 -6 -47 -7q-67 0 -105 44t-38 108q0 63 50 103t124 40t120 -58t46 -142zM1565 803v-117q0 -272 -146 -450q-70 -86 -157 -142q-174 -117 -406 -117q-172 1 -316 61t-243 165q-215 219 -215 542
q0 209 106 392q106 178 282 278t390 101q272 0 446 -134t224 -321l-301 -92q-25 100 -127 176t-236 76q-134 1 -240 -61t-168 -171t-62 -241t58 -240q58 -110 164 -174t244 -64t248 70q102 70 131 182h-455v281h779z" />
    <glyph glyph-name="gcommaaccent" unicode="&#x123;" horiz-adv-x="1300" 
d="M872 514q0 114 -70 184t-175 70q-106 0 -177 -71t-71 -183t71 -184t175 -72q103 0 175 72t72 184zM532 1034q219 0 332 -139h4v123h293v-967q1 -279 -155 -420t-390 -141t-372 115q-137 109 -162 252l274 80q16 -79 74 -133t168 -54t188 68t78 200v117h-4
q-104 -135 -293 -135q-141 0 -254 67t-175 185t-62 262q0 199 131 356q61 76 153 120t172 44zM449 1376q0 156 83 254q82 102 230 125v-117q-139 -47 -166 -174q27 6 49 6q59 0 101 -42t40 -108q0 -66 -48 -107q-48 -39 -122 -39t-122 57q-45 57 -45 145z" />
    <glyph glyph-name="Hbar" unicode="&#x126;" horiz-adv-x="1628" 
d="M502 903h624v207h-624v-207zM193 1321v174h309v-174h624v174h308v-174h157v-211h-157v-1110h-308v604h-624v-604h-309v1110h-156v211h156z" />
    <glyph glyph-name="hbar" unicode="&#x127;" 
d="M793 0v565q0 91 -45 145q-46 54 -134 54t-134 -58t-46 -139v-567h-297v1180h-127v202h127v172h297v-172h303v-202h-303v-281h2q56 84 142 112t139 27q188 0 280 -121t93 -284v-633h-297z" />
    <glyph glyph-name="Itilde" unicode="&#x128;" horiz-adv-x="657" 
d="M483 1493v-1493h-309v1493h309zM488 1628q-97 0 -164 45q-74 45 -121 45q-55 0 -60 -90h-176l-2 49q-4 113 51 180t166 66q54 2 150 -44t131 -43q35 2 45 30t12 53h170l2 -47q4 -112 -52 -178t-152 -66z" />
    <glyph glyph-name="itilde" unicode="&#x129;" horiz-adv-x="573" 
d="M137 1018h299v-1018h-299v1018zM449 1190q-95 0 -169 45t-120 45q-55 0 -60 -88h-174l-2 47q-4 113 50 179t165 67q55 2 151 -44t122 -44q47 6 57 41q4 14 10 45h168l2 -49q4 -113 -50 -179q-55 -65 -150 -65z" />
    <glyph glyph-name="Imacron" unicode="&#x12a;" horiz-adv-x="657" 
d="M483 1493v-1493h-309v1493h309zM668 1876v-221h-680v221h680z" />
    <glyph glyph-name="imacron" unicode="&#x12b;" horiz-adv-x="573" 
d="M137 1018h299v-1018h-299v1018zM614 1421v-223h-653v223h653z" />
    <glyph glyph-name="Ibreve" unicode="&#x12c;" horiz-adv-x="657" 
d="M483 1493v-1493h-309v1493h309zM326 1638q-148 0 -244 95q-100 92 -117 245h223q23 -137 140 -137q57 0 94 37t47 100h223q-14 -152 -116 -246t-250 -94z" />
    <glyph glyph-name="ibreve" unicode="&#x12d;" horiz-adv-x="573" 
d="M137 1018h299v-1018h-299v1018zM286 1182q-148 0 -248 95q-99 95 -116 245h223q9 -62 47 -100t95 -38t94 37t47 101h223q-17 -154 -117 -247t-248 -93z" />
    <glyph glyph-name="Iogonek" unicode="&#x12e;" horiz-adv-x="657" 
d="M483 1493v-1493q-72 -45 -129 -102q-57 -56 -57 -110t45 -81q48 -25 78 -25t55 3v-174q-51 -16 -143 -17q-170 0 -252 94q-45 47 -45 121q0 147 211 291h-72v1493h309z" />
    <glyph glyph-name="iogonek" unicode="&#x12f;" horiz-adv-x="573" 
d="M436 1018v-1018q-74 -45 -130 -103q-56 -59 -56 -111t45 -78t75 -26t58 3v-174q-51 -16 -143 -17q-170 0 -252 94q-45 47 -45 121q0 145 211 291h-62v1018h299zM287 1188q-76 0 -130 54q-55 54 -55 132t54 131q57 53 131 53t131 -53q53 -57 53 -131t-53 -131
q-55 -55 -131 -55z" />
    <glyph glyph-name="Idot" unicode="&#x130;" horiz-adv-x="657" 
d="M174 0v1493h309v-1493h-309zM145 1795q1 75 55 129t128 54t131 -53q53 -57 53 -130t-54 -127t-130 -54t-127 55q-56 51 -56 126z" />
    <glyph glyph-name="dotlessi" unicode="&#x131;" horiz-adv-x="573" 
d="M137 1018h299v-1018h-299v1018z" />
    <glyph glyph-name="IJ" unicode="&#x132;" horiz-adv-x="1327" 
d="M469 754h-309v739h309v-739zM1165 467q0 -223 -137 -355t-355 -132q-217 0 -365 135t-148 352v78h309v-64q0 -106 56 -155q57 -50 141 -50t135 52q55 49 55 143v1022h309v-1026z" />
    <glyph glyph-name="Kcommaaccent" unicode="&#x136;" horiz-adv-x="1402" 
d="M899 -358q0 -150 -84 -256q-86 -102 -229 -123v114q135 47 164 177q-23 -6 -48 -7q-66 0 -102 43q-39 41 -39 107q0 65 50 105t123 40t119 -57t46 -143zM481 0h-307v1493h307v-649l512 649h385l-569 -715l606 -778h-397l-537 709v-709z" />
    <glyph glyph-name="kcommaaccent" unicode="&#x137;" horiz-adv-x="1179" 
d="M764 -358q0 -150 -84 -256q-86 -102 -229 -123v114q135 47 163 177q-20 -6 -47 -7q-67 0 -105 44t-38 108q0 63 50 103t124 40t120 -57t46 -143zM434 481v-481h-297v1554h297v-936l354 400h379l-409 -469l420 -549h-375l-361 481h-8z" />
    <glyph glyph-name="Lacute" unicode="&#x139;" horiz-adv-x="1150" 
d="M174 1493h307v-1198h639v-295h-946v1493zM430 1987h342l-301 -357h-246z" />
    <glyph glyph-name="lacute" unicode="&#x13a;" horiz-adv-x="573" 
d="M436 1554v-1554h-299v1554h299zM367 2048h342l-301 -356h-244z" />
    <glyph glyph-name="Lcommaaccent" unicode="&#x13b;" horiz-adv-x="1150" 
d="M811 -358q0 -150 -84 -256q-86 -102 -229 -123v114q135 47 164 177q-23 -6 -48 -7q-66 0 -104 44t-39 108q0 63 50 103t124 40t120 -57t46 -143zM174 1493h307v-1198h639v-295h-946v1493z" />
    <glyph glyph-name="lcommaaccent" unicode="&#x13c;" horiz-adv-x="573" 
d="M451 -358q0 -150 -84 -256q-86 -102 -230 -123v114q135 47 164 177q-23 -6 -47 -7q-66 0 -102 43q-39 41 -39 107q0 65 49 105q48 40 122 40t120 -57t47 -143zM436 1554v-1554h-299v1554h299z" />
    <glyph glyph-name="Lcaron" unicode="&#x13d;" horiz-adv-x="1171" 
d="M174 1493h307v-1198h639v-295h-946v1493zM809 1536h311l-131 -446h-209z" />
    <glyph glyph-name="lcaron" unicode="&#x13e;" horiz-adv-x="610" 
d="M580 1554h311l-131 -446h-207zM436 1554v-1554h-299v1554h299z" />
    <glyph glyph-name="Ldot" unicode="&#x13f;" horiz-adv-x="1169" 
d="M750 743q0 74 53 129q53 56 131 56t131 -54t53 -131q0 -78 -53 -131t-131 -53t-131 55t-53 129zM174 1493h307v-1198h639v-295h-946v1493z" />
    <glyph glyph-name="ldot" unicode="&#x140;" horiz-adv-x="903" 
d="M549 706q0 78 53 132q57 53 131 53t129 -53q56 -53 56 -131q0 -77 -54 -131t-131 -54q-78 0 -131 53t-53 131zM436 1554v-1554h-299v1554h299z" />
    <glyph glyph-name="Lslash" unicode="&#x141;" horiz-adv-x="1230" 
d="M254 1493h307v-528l391 178v-285l-391 -178v-383h637v-297h-944v541l-197 -90v286l197 88v668z" />
    <glyph glyph-name="lslash" unicode="&#x142;" horiz-adv-x="827" 
d="M270 1554h297v-647l195 109v-285l-195 -106v-625h-297v461l-194 -107v287l194 104v809z" />
    <glyph glyph-name="Nacute" unicode="&#x143;" horiz-adv-x="1654" 
d="M479 0h-305v1493h358l644 -1010v1010h305v-1493h-351l-651 1026v-1026zM944 1987h342l-301 -357h-244z" />
    <glyph glyph-name="nacute" unicode="&#x144;" 
d="M795 0v565q0 93 -45 145q-46 52 -134 52t-135 -57t-47 -140v-565h-297v1018h295v-133h4q52 96 146 125t141 28q182 0 275 -116t94 -289v-633h-297zM668 1544h342l-303 -356h-244z" />
    <glyph glyph-name="Ncommaaccent" unicode="&#x145;" horiz-adv-x="1654" 
d="M993 -358q0 -154 -84 -256t-229 -123v114q137 45 166 177q-25 -6 -47 -7q-66 0 -103 43q-41 41 -41 107q1 65 51 105t124 40t118 -55q45 -55 45 -145zM479 0h-305v1493h358l644 -1010v1010h305v-1493h-351l-651 1026v-1026z" />
    <glyph glyph-name="ncommaaccent" unicode="&#x146;" 
d="M782 -358q0 -150 -84 -256q-86 -102 -229 -123v114q135 45 164 177q-23 -6 -49 -7q-62 0 -102 44t-40 108q0 63 50 103t124 40t120 -58t46 -142zM795 0v565q0 93 -45 145q-46 52 -134 52t-135 -57t-47 -140v-565h-297v1018h295v-133h2q54 96 148 125t141 28
q182 0 275 -116t94 -289v-633h-297z" />
    <glyph glyph-name="Ncaron" unicode="&#x147;" horiz-adv-x="1654" 
d="M1176 1493h305v-1493h-351l-651 1026v-1026h-305v1493h358l644 -1010v1010zM504 1960h254l116 -174l117 174h252l-229 -332h-279z" />
    <glyph glyph-name="ncaron" unicode="&#x148;" 
d="M1092 633v-633h-297v565q0 93 -45 145q-46 52 -134 52t-135 -57t-47 -140v-565h-297v1018h295v-133h4q52 96 146 125t141 28q181 0 275 -116t94 -289zM246 1522h254l114 -174l119 174h252l-229 -332h-281z" />
    <glyph glyph-name="Eng" unicode="&#x14a;" horiz-adv-x="1654" 
d="M1176 1493h305v-1628q-1 -164 -97 -265t-266 -102q-117 0 -180 23v246q55 -10 98 -11q139 0 140 138v90l-697 1054v-1038h-305v1493h358l644 -971v971z" />
    <glyph glyph-name="eng" unicode="&#x14b;" 
d="M1092 633v-768q0 -164 -96 -265t-259 -102q-119 0 -182 23v246q55 -11 109 -11t93 36q38 36 38 102v671q0 93 -45 145q-46 52 -134 52t-135 -57t-47 -140v-565h-297v1018h295v-133h2q54 96 148 125t141 28q181 0 275 -116t94 -289z" />
    <glyph glyph-name="Omacron" unicode="&#x14c;" horiz-adv-x="1714" 
d="M858 1217q-126 -1 -232 -63t-166 -171t-60 -235t60 -234t165 -174q106 -64 234 -64q129 0 233 64t165 172q59 109 60 236q4 190 -133 330t-326 139zM82 745q0 155 61 301t166 246q101 100 249 162t307 62t299 -60t245 -160q103 -102 163 -244t60 -301t-62 -303
q-126 -292 -413 -409q-145 -61 -303 -62q-324 0 -548 222t-224 546zM1206 1876v-221h-694v221h694z" />
    <glyph glyph-name="omacron" unicode="&#x14d;" horiz-adv-x="1259" 
d="M379 510q0 -110 72 -186q74 -74 179 -74t178 72t73 188t-73 188t-178 72t-179 -74q-72 -76 -72 -186zM74 507q0 144 75 270t205 196q130 69 282 69q150 0 276 -68t200 -190t74 -272t-75 -274t-202 -192q-127 -69 -279 -69t-282 68q-126 72 -200 195t-74 267zM979 1421
v-223h-694v223h694z" />
    <glyph glyph-name="Ohungarumlaut" unicode="&#x150;" horiz-adv-x="1714" 
d="M858 1217q-126 -1 -232 -63t-166 -171t-60 -235t60 -234t165 -174q106 -64 234 -64q129 0 233 64t165 172q59 109 60 236q4 190 -133 330t-326 139zM82 745q0 155 61 301t166 246q101 100 249 162t307 62t299 -60t245 -160q103 -102 163 -244t60 -301t-62 -303
q-126 -292 -413 -409q-145 -61 -303 -62q-324 0 -548 222t-224 546zM1155 1982h334l-303 -358h-234zM735 1982h332l-301 -358h-236z" />
    <glyph glyph-name="ohungarumlaut" unicode="&#x151;" horiz-adv-x="1259" 
d="M379 510q0 -110 72 -186q74 -74 179 -74t178 72t73 188t-73 188t-178 72t-179 -74q-72 -76 -72 -186zM74 507q0 144 75 270t205 196q130 69 282 69q150 0 276 -68t200 -190t74 -272t-75 -274t-202 -192q-127 -69 -279 -69t-282 68q-126 72 -200 195t-74 267zM920 1544
h333l-303 -356h-233zM500 1544h331l-301 -356h-235z" />
    <glyph glyph-name="OE" unicode="&#x152;" horiz-adv-x="2406" 
d="M399 748q-3 -190 135 -332t326 -137q186 -4 326 138q139 142 135 331q2 190 -136 332t-325 139q-188 3 -326 -139t-135 -332zM1317 0v160q-195 -178 -465 -178q-164 0 -301 59q-145 57 -246 160q-103 96 -163 239t-60 302q0 319 229 548q101 102 247 164t304 62
q258 0 455 -179v156h977v-289h-676v-305h606v-289h-606v-321h682v-289h-983z" />
    <glyph glyph-name="oe" unicode="&#x153;" horiz-adv-x="2004" 
d="M630 250q105 0 178 72t73 188t-73 188t-178 72t-179 -74q-72 -76 -72 -186t72 -186q74 -74 179 -74zM1194 625h436q-4 61 -55 118t-151 57t-162 -58q-60 -60 -68 -117zM1442 -23q-250 0 -410 162q-166 -162 -403 -162q-152 0 -281 68q-126 72 -200 195t-74 267t75 270
t205 196t279 69q244 0 401 -161q166 161 390 161t366 -141t141 -369q0 -61 -6 -106h-739q12 -86 81 -143t152 -57t149 38q66 39 85 98l245 -83q-47 -133 -167 -218q-125 -84 -289 -84z" />
    <glyph glyph-name="Racute" unicode="&#x154;" horiz-adv-x="1392" 
d="M481 821h258q96 0 167 47q71 48 71 146t-69 142t-171 44h-256v-379zM483 537v-537h-309v1493h590q225 0 373 -117q154 -127 153 -356q0 -313 -278 -426l315 -594h-336l-284 537h-224zM725 1987h342l-301 -357h-244z" />
    <glyph glyph-name="racute" unicode="&#x155;" horiz-adv-x="808" 
d="M672 735q-110 0 -176 -76t-66 -213v-446h-293v1018h283v-148h4q76 158 262 158q37 0 82 -10v-291q-53 8 -96 8zM485 1544h342l-301 -356h-243z" />
    <glyph glyph-name="Rcommaaccent" unicode="&#x156;" horiz-adv-x="1392" 
d="M879 -358q0 -150 -84 -256q-86 -102 -230 -123v114q135 47 164 177q-20 -6 -47 -7q-66 0 -102 43q-39 41 -39 107q0 65 49 105t123 40t120 -57t46 -143zM481 821h258q96 0 167 47q71 48 71 146t-69 142t-171 44h-256v-379zM483 537v-537h-309v1493h590q225 0 373 -117
q154 -127 153 -356q0 -313 -278 -426l315 -594h-336l-284 537h-224z" />
    <glyph glyph-name="rcommaaccent" unicode="&#x157;" horiz-adv-x="806" 
d="M457 -358q0 -150 -84 -256q-86 -102 -230 -123v114q135 47 164 177q-23 -6 -47 -7q-66 0 -104 44t-39 108q0 63 50 103t124 40t120 -57t46 -143zM672 735q-114 0 -178 -76t-64 -213v-446h-293v1018h283v-148h2q76 158 264 158q35 0 80 -10v-291q-53 8 -94 8z" />
    <glyph glyph-name="Rcaron" unicode="&#x158;" horiz-adv-x="1392" 
d="M737 1200h-256v-379h258q96 0 167 47q71 48 71 146t-69 142t-171 44zM483 537v-537h-309v1493h590q225 0 373 -117q154 -127 153 -356q1 -313 -278 -426l315 -594h-336l-284 537h-224zM270 1960h254l115 -174l119 174h252l-232 -332h-278z" />
    <glyph glyph-name="rcaron" unicode="&#x159;" horiz-adv-x="808" 
d="M672 735q-110 0 -176 -76t-66 -213v-446h-293v1018h283v-148h4q76 158 262 158q37 0 82 -10v-291q-53 8 -96 8zM82 1522h256l115 -174l116 174h252l-229 -332h-279z" />
    <glyph glyph-name="Sacute" unicode="&#x15a;" horiz-adv-x="1302" 
d="M668 -23q-258 0 -412 123q-152 125 -188 340l290 68q18 -121 107 -186q84 -66 203 -66t176 47t57 111t-45 108q-45 43 -123 58l-211 43q-180 33 -288 147t-109 281q0 199 156 333q158 132 389 132t372 -125q127 -121 150 -273l-281 -82q-20 94 -87 148t-167 55
q-100 0 -162 -49t-63 -115q0 -125 154 -155l209 -39q205 -37 311 -156q111 -119 111 -290q1 -171 -145 -315t-404 -143zM719 1987h342l-303 -357h-244z" />
    <glyph glyph-name="sacute" unicode="&#x15b;" horiz-adv-x="987" 
d="M905 307q0 -125 -104 -227q-103 -102 -287 -103q-253 0 -373 156q-63 74 -69 158l262 55q6 -57 50 -98t106 -41q62 1 95 27q32 26 31 61q0 66 -98 88l-129 29q-293 66 -293 297q0 139 112 236t277 97q223 0 336 -139q61 -74 72 -153l-258 -56q-10 57 -49 89
q-40 32 -94 32q-54 -1 -86 -25t-31 -61q0 -57 80 -74l141 -30q150 -29 230 -111t79 -207zM551 1544h340l-301 -356h-244z" />
    <glyph glyph-name="Scircumflex" unicode="&#x15c;" horiz-adv-x="1302" 
d="M668 -23q-258 0 -412 123q-152 125 -188 340l290 68q18 -121 107 -186q84 -66 203 -66t177 48t58 112t-46 106q-46 43 -124 58l-211 43q-180 33 -288 147t-109 281q0 199 156 333q158 132 389 132t372 -125q127 -121 150 -273l-281 -82q-20 94 -87 148t-167 55
q-100 0 -162 -49t-63 -115q0 -125 154 -155l209 -39q205 -37 311 -156q111 -119 111 -290q1 -171 -145 -315t-404 -143zM659 1802l-116 -174h-254l231 332h279l229 -332h-252z" />
    <glyph glyph-name="scircumflex" unicode="&#x15d;" horiz-adv-x="987" 
d="M905 307q0 -125 -104 -227q-103 -102 -285 -103q-255 0 -375 156q-66 78 -69 158l262 55q6 -57 51 -96q43 -43 105 -43q62 1 96 27q33 26 32 61q0 66 -100 88l-127 29q-295 68 -295 297q0 141 113 235q111 98 276 98q223 0 336 -139q61 -74 72 -153l-258 -56
q-10 57 -49 89q-40 32 -94 32q-54 -1 -86 -25t-31 -61q0 -57 80 -74l141 -30q150 -29 230 -111t79 -207zM487 1364l-114 -174h-254l229 332h279l231 -332h-254z" />
    <glyph glyph-name="Scedilla" unicode="&#x15e;" horiz-adv-x="1300" 
d="M1214 444q0 -160 -106 -284q-106 -129 -297 -168q39 -78 39 -185q0 -305 -358 -305q-80 0 -140 17v200q47 -8 99 -8q164 0 163 180q0 51 -14 89q-227 16 -362 136t-170 324l288 68q18 -120 106 -186t205 -66q118 0 176 48t58 112t-46 106q-46 43 -124 58l-211 43
q-180 33 -288 147t-109 281q0 199 156 333q158 132 389 132t372 -125q127 -119 150 -273l-281 -82q-20 94 -87 148t-166 55q-99 0 -162 -49t-64 -115q0 -125 154 -155l209 -39q205 -37 313 -157t108 -280z" />
    <glyph glyph-name="scedilla" unicode="&#x15f;" horiz-adv-x="976" 
d="M897 317q0 -113 -71 -201t-205 -120q39 -78 38 -189q0 -305 -358 -305q-80 0 -139 17v200q47 -8 100 -8q162 0 162 180q0 51 -18 99q-160 20 -248 123q-74 92 -86 178l260 55q8 -61 52 -98t106 -37q62 -1 92 23q31 24 30 59q0 68 -94 88l-131 29q-291 63 -291 308
q0 126 110 221t275 95q227 -2 332 -139q55 -68 72 -150l-252 -55q-29 117 -150 117q-47 0 -80 -24t-32 -58q0 -55 80 -74l141 -28q145 -31 225 -112t80 -194z" />
    <glyph glyph-name="Scaron" unicode="&#x160;" horiz-adv-x="1306" 
d="M1221 435q1 -171 -145 -315t-406 -143q-260 0 -413 123t-189 340l294 68q18 -121 107 -186q84 -66 203 -66t177 48t58 112t-46 106q-46 43 -124 58l-211 43q-188 37 -296 149t-108 262t75 256q73 106 193 166t265 60q250 0 392 -125q127 -121 149 -273l-281 -82
q-20 94 -87 148t-167 55q-100 0 -162 -49t-63 -115q0 -125 154 -155l209 -39q203 -37 313 -156t109 -290zM272 1966h258l115 -174l117 174h252l-230 -332h-278z" />
    <glyph glyph-name="scaron" unicode="&#x161;" horiz-adv-x="989" 
d="M492 207q62 1 96 27q33 26 33 61q0 66 -101 88l-127 29q-145 34 -221 110t-76 187q0 141 114 237t277 96q223 0 336 -139q61 -74 72 -153l-258 -56q-10 57 -49 89q-40 32 -94 32q-54 -1 -86 -25t-31 -61q0 -57 80 -74l141 -30q150 -29 230 -111t81 -208q0 -126 -105 -228
t-300 -101q-248 2 -363 156q-63 78 -69 158l264 55q6 -57 51 -96q43 -43 105 -43zM119 1526h258l115 -174l116 174h252l-229 -332h-279z" />
    <glyph glyph-name="uni0162" unicode="&#x162;" horiz-adv-x="1284" 
d="M838 -193q0 -305 -359 -305q-80 0 -139 17v200q47 -8 100 -8q162 0 162 180q0 57 -22 109h-93v1194h-446v299h1202v-299h-446v-1194q41 -82 41 -193z" />
    <glyph glyph-name="uni0163" unicode="&#x163;" horiz-adv-x="872" 
d="M535 760v-385q0 -131 145 -131q41 0 104 8v-242q-72 -23 -159 -24q37 -80 37 -179q0 -160 -97 -233q-100 -72 -264 -72q-70 0 -108 9v204q61 -4 69 -4q80 0 122 47t42 132t-35 143q-154 86 -153 325v402h-197v258h203v319h291v-319h251v-258h-251z" />
    <glyph glyph-name="Tcaron" unicode="&#x164;" horiz-adv-x="1286" 
d="M41 1194v299h1204v-299h-446v-1194h-310v1194h-448zM274 1960h254l115 -174l117 174h254l-232 -332h-278z" />
    <glyph glyph-name="tcaron" unicode="&#x165;" horiz-adv-x="872" 
d="M535 1018h251v-258h-251v-385q0 -131 145 -131q41 0 104 8v-242q-74 -25 -178 -24q-369 0 -368 372v402h-197v258h203v319h291v-319zM692 1554h312l-132 -438h-206z" />
    <glyph glyph-name="Tbar" unicode="&#x166;" horiz-adv-x="1314" 
d="M504 502h-248v252h248v440h-449v299h1205v-299h-449v-440h248v-252h-248v-502h-307v502z" />
    <glyph glyph-name="tbar" unicode="&#x167;" horiz-adv-x="880" 
d="M246 406h-187v196h187v158h-197v258h203v319h291v-319h252v-258h-252v-158h196v-196h-196v-31q0 -131 145 -131q41 0 105 8v-242q-74 -25 -179 -24q-369 0 -368 372v48z" />
    <glyph glyph-name="Utilde" unicode="&#x168;" horiz-adv-x="1515" 
d="M1358 1493v-891q0 -291 -153 -457q-153 -165 -453 -165t-446 165t-146 447v901h309l-2 -895q0 -158 81 -240t215 -82t212 86t78 230v901h305zM918 1628q-97 0 -164 45q-74 45 -121 45q-55 0 -60 -90h-176l-2 49q-4 113 51 180t166 66q54 2 150 -44t131 -43q35 2 45 30
t12 53h170l2 -47q4 -112 -52 -178t-152 -66z" />
    <glyph glyph-name="utilde" unicode="&#x169;" 
d="M127 1018h297v-567q0 -91 45 -143t134 -52t135 56t46 139v567h297v-1018h-293v127h-4q-100 -147 -284 -147t-278 118t-95 281v639zM767 1190q-95 0 -169 45t-121 45q-55 0 -59 -88h-174l-2 47q-4 113 51 179t164 67q55 2 151 -44t121 -44q47 6 57 41q4 14 11 45h168
l2 -49q3 -112 -51 -178t-149 -66z" />
    <glyph glyph-name="Umacron" unicode="&#x16a;" horiz-adv-x="1515" 
d="M1358 1493v-891q0 -291 -153 -457q-153 -165 -453 -165t-446 165t-146 447v901h309l-2 -895q0 -158 81 -240t215 -82t212 86t78 230v901h305zM1106 1876v-221h-694v221h694z" />
    <glyph glyph-name="umacron" unicode="&#x16b;" 
d="M127 1018h297v-567q0 -91 45 -143t134 -52t135 56t46 139v567h297v-1018h-293v127h-4q-100 -147 -284 -147t-278 118t-95 281v639zM952 1421v-223h-696v223h696z" />
    <glyph glyph-name="Uring" unicode="&#x16e;" horiz-adv-x="1515" 
d="M1358 1493v-891q0 -291 -153 -457q-153 -165 -453 -165t-446 165t-146 447v901h309l-2 -895q0 -158 81 -240t215 -82t212 86t78 230v901h305zM883 1868q0 45 -37 80q-37 34 -88 34t-86 -32t-35 -80q0 -47 35 -86q35 -33 88 -33t88 33q35 39 35 84zM1055 1865
q0 -118 -85 -199t-209 -81t-210 82t-86 200q0 117 90 199t208 82t206 -82q86 -83 86 -201z" />
    <glyph glyph-name="uring" unicode="&#x16f;" 
d="M127 1018h297v-567q0 -91 45 -143t134 -52t135 56t46 139v567h297v-1018h-293v127h-4q-100 -147 -284 -147t-278 118t-95 281v639zM727 1431q0 46 -39 78q-37 37 -87 37t-86 -34t-36 -80t35 -84q39 -35 88 -35t88 35q37 37 37 83zM899 1430q0 -119 -88 -201t-208 -82
t-208 84t-88 200q0 115 88 197t210 82t206 -82q88 -79 88 -198z" />
    <glyph glyph-name="Uhungarumlaut" unicode="&#x170;" horiz-adv-x="1515" 
d="M1358 1493v-891q0 -291 -153 -457q-153 -165 -453 -165t-446 165t-146 447v901h309l-2 -895q0 -158 81 -240t215 -82t212 86t78 230v901h305zM1057 1982h334l-304 -358h-235zM635 1982h334l-303 -358h-236z" />
    <glyph glyph-name="uhungarumlaut" unicode="&#x171;" 
d="M127 1018h297v-567q0 -91 45 -143t134 -52t135 56t46 139v567h297v-1018h-293v127h-4q-100 -147 -284 -147t-278 118t-95 281v639zM893 1544h334l-303 -356h-236zM471 1544h334l-303 -356h-236z" />
    <glyph glyph-name="Uogonek" unicode="&#x172;" horiz-adv-x="1515" 
d="M1358 1493v-897q0 -375 -262 -535q-115 -70 -185 -145q-73 -74 -73 -128t45 -81q47 -25 87 -25t87 9v-172q-98 -25 -195 -25q-160 0 -241 94q-45 47 -46 121q0 137 181 273q-304 0 -450 166t-146 446v899h309l-2 -895q0 -158 81 -240t215 -82t212 86t78 230v901h305z" />
    <glyph glyph-name="uogonek" unicode="&#x173;" 
d="M1081 1018v-1018q-74 -45 -130 -103q-56 -57 -56 -109t45 -81q45 -25 94 -24l39 2v-174q-51 -16 -143 -17q-170 0 -252 94q-45 47 -45 121q0 145 211 291h-56v127h-4q-100 -147 -284 -147t-278 118t-95 281v639h297v-567q0 -91 45 -143t134 -52t135 56t46 139v567h297z
" />
    <glyph glyph-name="Wcircumflex" unicode="&#x174;" horiz-adv-x="2271" 
d="M807 0h-334l-436 1493h330l284 -1061l322 1061h327l324 -1069l295 1069h317l-442 -1493h-334l-323 1083h-4zM1137 1802l-115 -174h-256l231 332h281l229 -332h-252z" />
    <glyph glyph-name="wcircumflex" unicode="&#x175;" horiz-adv-x="1701" 
d="M1180 381l192 637h297l-317 -1018h-295l-207 649l-211 -649h-289l-315 1018h303l184 -631h2l191 631h274zM852 1364l-115 -174h-254l230 332h280l230 -332h-252z" />
    <glyph glyph-name="Ycircumflex" unicode="&#x176;" horiz-adv-x="1454" 
d="M573 0v590l-546 903h356l344 -598l350 598h353l-547 -889v-604h-310zM358 1960h254l115 -174l119 174h252l-230 -332h-280z" />
    <glyph glyph-name="ycircumflex" unicode="&#x177;" horiz-adv-x="1165" 
d="M453 109l-428 909h327l254 -582l228 582h307l-619 -1520h-317zM596 1364l-115 -174h-256l232 332h278l230 -332h-252z" />
    <glyph glyph-name="Ydieresis" unicode="&#x178;" horiz-adv-x="1454" 
d="M573 0v590l-546 903h356l344 -598l350 598h353l-547 -889v-604h-310zM948 1614q-70 0 -117 47t-47 118t47 117q45 50 115 50t119 -50t49 -118t-48 -116t-118 -48zM474 1614q-71 0 -118 48t-47 117t48 117t117 50q69 0 118 -50t49 -118t-48 -116t-119 -48z" />
    <glyph glyph-name="Zacute" unicode="&#x179;" horiz-adv-x="1306" 
d="M76 0v272l745 936h-710v285h1095v-266l-741 -940h756l2 -287h-1147zM702 1987h342l-303 -357h-243z" />
    <glyph glyph-name="zacute" unicode="&#x17a;" horiz-adv-x="1030" 
d="M96 764v254h844v-227l-481 -537h483v-254h-860v231l475 533h-461zM555 1544h342l-303 -356h-244z" />
    <glyph glyph-name="Zdotaccent" unicode="&#x17b;" horiz-adv-x="1306" 
d="M111 1493h1095v-266l-741 -940h756l2 -287h-1145v272l743 936h-710v285zM469 1796q0 76 53 129t128 53t129 -54q55 -54 55 -129t-56 -126q-53 -55 -129 -55t-127 55q-53 51 -53 127z" />
    <glyph glyph-name="zdotaccent" unicode="&#x17c;" horiz-adv-x="1030" 
d="M942 254v-254h-860v231l477 533h-461v254h842v-227l-479 -537h481zM511 1178q-77 0 -129 53t-52 128t52 128t129 53t130 -53t53 -128t-53 -128t-130 -53z" />
    <glyph glyph-name="Zcaron" unicode="&#x17d;" horiz-adv-x="1310" 
d="M109 1493h1099v-266l-739 -940h756l2 -287h-1149v272l747 936h-716v285zM281 1960h258l114 -174l117 174h254l-231 -332h-279z" />
    <glyph glyph-name="zcaron" unicode="&#x17e;" horiz-adv-x="1030" 
d="M942 254v-254h-860v231l475 533h-461v254h844v-227l-481 -537h483zM143 1522h254l115 -174l119 174h252l-232 -332h-278z" />
    <glyph glyph-name="florin" unicode="&#x192;" horiz-adv-x="1179" 
d="M997 1499q102 0 156 -20v-250q-75 16 -137 16t-110 -40t-62 -111l-15 -76h234v-254h-285l-82 -420q-35 -184 -170 -285q-111 -78 -278 -77q-86 0 -158 22v250q72 -16 129 -16q156 0 184 149l76 377h-188v254h239l25 119q44 195 170 284q106 78 272 78z" />
    <glyph glyph-name="uni01B5" unicode="&#x1b5;" horiz-adv-x="1308" 
d="M80 0v266l280 357h-249v264h458l254 323h-712v283h1095v-260l-270 -346h270v-264h-477l-264 -338h758v-285h-1143z" />
    <glyph glyph-name="uni01B6" unicode="&#x1b6;" horiz-adv-x="1032" 
d="M942 0h-860v217l184 213h-170v158h305l156 180h-461v250h844v-213l-188 -217h188v-158h-324l-157 -180h483v-250z" />
    <glyph glyph-name="uni01CD" unicode="&#x1cd;" horiz-adv-x="1509" 
d="M969 606l-217 588l-217 -588h434zM-2 0l571 1493h371l573 -1493h-319l-119 319h-643l-119 -319h-315zM379 1966h254l115 -174l118 174h252l-229 -332h-281z" />
    <glyph glyph-name="uni01CE" unicode="&#x1ce;" horiz-adv-x="1126" 
d="M504 197q92 0 147 57t56 139v25h-179q-55 0 -102 -31t-47 -83t35 -80t90 -27zM418 -20q-137 0 -238 83q-100 86 -100 222v8q0 199 205 270q109 41 243 41h99q80 0 80 70q0 55 -43 91t-114 36t-120 -37t-65 -102l-263 59q18 106 88 180q135 143 371 141q195 2 317 -106
t121 -305v-467q0 -70 9 -164h-277q-6 41 -6 127h-4q-106 -147 -303 -147zM193 1522h253l115 -174l117 174h254l-232 -332h-278z" />
    <glyph glyph-name="uni01CF" unicode="&#x1cf;" horiz-adv-x="657" 
d="M174 0v1493h309v-1493h-309zM-41 1960h254l115 -174l118 174h252l-229 -332h-281z" />
    <glyph glyph-name="uni01D0" unicode="&#x1d0;" horiz-adv-x="573" 
d="M436 0h-299v1018h299v-1018zM-82 1522h254l115 -174l116 174h252l-229 -332h-279z" />
    <glyph glyph-name="uni01D1" unicode="&#x1d1;" horiz-adv-x="1714" 
d="M858 1217q-126 -1 -232 -63t-166 -171t-60 -235t60 -234t165 -174q106 -64 234 -64q129 0 233 64t165 172q59 109 60 236q4 190 -133 330t-326 139zM82 745q0 155 61 301t166 246q101 100 249 162t307 62t299 -60t245 -160q103 -102 163 -244t60 -301t-62 -303
q-126 -292 -413 -409q-145 -61 -303 -62q-324 0 -548 222t-224 546zM487 1960h254l117 -174l117 174h252l-230 -332h-280z" />
    <glyph glyph-name="uni01D2" unicode="&#x1d2;" horiz-adv-x="1259" 
d="M379 510q0 -110 72 -186q74 -74 179 -74t178 72t73 188t-73 188t-178 72t-179 -74q-72 -76 -72 -186zM74 507q0 144 75 270t205 196q130 69 282 69q150 0 276 -68t200 -190t74 -272t-75 -274t-202 -192q-127 -69 -279 -69t-282 68q-126 72 -200 195t-74 267zM260 1522
h254l117 -174l117 174h251l-229 -332h-278z" />
    <glyph glyph-name="uni01D3" unicode="&#x1d3;" horiz-adv-x="1515" 
d="M1358 1493v-891q0 -291 -153 -457q-153 -165 -453 -165t-446 165t-146 447v901h309l-2 -895q0 -158 81 -240t215 -82t212 86t78 230v901h305zM389 1960h254l115 -174l119 174h251l-229 -332h-281z" />
    <glyph glyph-name="uni01D4" unicode="&#x1d4;" 
d="M127 1018h297v-567q0 -91 45 -143t134 -52t135 56t46 139v567h297v-1018h-293v127h-4q-100 -147 -284 -147t-278 118t-95 281v639zM236 1522h253l115 -174l117 174h252l-230 -332h-278z" />
    <glyph glyph-name="uni01D5" unicode="&#x1d5;" horiz-adv-x="1515" 
d="M996 1896q70 0 117 -48q48 -48 48 -116t-49 -117q-49 -48 -118 -48t-113 49q-49 45 -49 114q0 70 46 118q48 48 118 48zM522 1567q-68 0 -116 48t-48 116q0 69 48 117t118 48t117 -49t47 -117t-49 -115q-49 -48 -117 -48zM1106 2212v-223h-694v223h694zM1358 1493v-891
q0 -291 -153 -457q-153 -165 -453 -165t-446 165t-146 447v901h309l-2 -895q0 -158 81 -240t215 -82t212 86t78 230v901h305z" />
    <glyph glyph-name="uni01D6" unicode="&#x1d6;" 
d="M127 1018h297v-567q0 -91 45 -143t134 -52t135 56t46 139v567h297v-1018h-293v127h-4q-100 -147 -284 -147t-278 118t-95 281v639zM831 1112q-70 0 -114 47q-49 45 -49 114t47 120q49 49 117 49t116 -49q49 -49 49 -117t-48 -116t-118 -48zM378 1112q-71 0 -116 47
q-49 45 -49 114t47 119t117 50t118 -48t48 -118t-47 -117t-118 -47zM952 1737v-224h-696v224h696z" />
    <glyph glyph-name="uni01D7" unicode="&#x1d7;" horiz-adv-x="1515" 
d="M1161 1711q0 -69 -49 -116t-118 -47t-113 49q-49 45 -49 113t47 119q49 49 117 49t116 -49q49 -49 49 -118zM522 1548q-68 0 -114 49q-50 45 -50 113t48 119q50 49 118 49t117 -49q47 -51 47 -119t-49 -115t-117 -47zM821 2261h338l-287 -338h-243zM1358 1493v-891
q0 -291 -153 -457q-153 -165 -453 -165t-446 165t-146 447v901h307v-895q0 -158 81 -240t215 -82t212 86t78 230v901h305z" />
    <glyph glyph-name="uni01D8" unicode="&#x1d8;" 
d="M127 1018h297v-567q0 -91 45 -143t134 -52t135 56t46 139v567h297v-1018h-293v127h-4q-100 -147 -284 -147t-278 118t-95 281v639zM831 1112q-70 0 -114 47q-49 45 -49 114t47 120q49 49 117 49t116 -49q49 -49 49 -117t-48 -116t-118 -48zM378 1112q-71 0 -116 47
q-49 45 -49 114t47 119t117 50t118 -48t48 -118t-47 -117t-118 -47zM678 1843h342l-301 -358h-244z" />
    <glyph glyph-name="uni01D9" unicode="&#x1d9;" horiz-adv-x="1515" 
d="M1161 1711q0 -69 -49 -116t-118 -47t-113 49q-49 45 -49 113t47 119q49 49 117 49t116 -49q49 -49 49 -118zM522 1548q-68 0 -114 49q-50 45 -50 113t48 119q50 49 118 49t117 -49q47 -51 47 -119t-49 -115t-117 -47zM389 2236h254l115 -161l116 161h254l-229 -313h-278z
M1358 1493v-891q0 -291 -153 -457q-153 -165 -453 -165t-446 165t-146 447v901h307v-895q0 -158 81 -240t215 -82t212 86t78 230v901h305z" />
    <glyph glyph-name="uni01DA" unicode="&#x1da;" 
d="M127 1018h297v-567q0 -91 45 -143t134 -52t135 56t46 139v567h297v-1018h-293v127h-4q-100 -147 -284 -147t-278 118t-95 281v639zM831 1112q-70 0 -114 47q-49 45 -49 114t47 120q49 49 117 49t116 -49q49 -49 49 -117t-48 -116t-118 -48zM378 1112q-71 0 -116 47
q-49 45 -49 114t47 119t117 50t118 -48t48 -118t-47 -117t-118 -47zM236 1819h251l117 -177l117 177h254l-232 -334h-278z" />
    <glyph glyph-name="uni01DB" unicode="&#x1db;" horiz-adv-x="1515" 
d="M995 1548q-68 0 -114 49q-49 45 -49 113t47 119q49 49 117 49t116 -49q49 -49 49 -118t-49 -116t-117 -47zM891 1923h-244l-285 338h336zM522 1548q-68 0 -114 49q-50 45 -50 113t48 119q50 49 118 49t117 -49q47 -51 47 -119t-49 -115t-117 -47zM1358 1493v-891
q0 -291 -153 -457q-153 -165 -453 -165t-446 165t-146 447v901h309l-2 -895q0 -158 81 -240t215 -82t212 86t78 230v901h305z" />
    <glyph glyph-name="uni01DC" unicode="&#x1dc;" 
d="M127 1018h297v-567q0 -91 45 -143t134 -52t135 56t46 139v567h297v-1018h-293v127h-4q-100 -147 -284 -147t-278 118t-95 281v639zM831 1112q-70 0 -114 47q-49 45 -49 114t47 120q49 49 117 49t116 -49q49 -49 49 -117t-48 -116t-118 -48zM378 1112q-71 0 -116 47
q-49 45 -49 114t47 119t117 50t118 -48t48 -118t-47 -117t-118 -47zM539 1843l202 -358h-243l-301 358h342z" />
    <glyph glyph-name="Gcaron" unicode="&#x1e6;" horiz-adv-x="1636" 
d="M788 522v281h779v-117q0 -272 -146 -450q-70 -86 -157 -142q-174 -117 -406 -117q-170 0 -315 62q-145 57 -246 164q-215 221 -215 542q0 209 105 389t283 280q178 101 390 102q274 0 448 -136t224 -319l-301 -92q-25 100 -126 176t-237 76q-136 1 -242 -61
q-104 -62 -166 -171t-62 -241t58 -240q58 -109 165 -172q106 -66 244 -66t247 70q102 69 131 182h-455zM492 1960h256l114 -174l117 174h252l-230 -332h-278z" />
    <glyph glyph-name="gcaron" unicode="&#x1e7;" horiz-adv-x="1300" 
d="M872 514q0 114 -70 184t-175 70q-106 0 -177 -71t-71 -183t71 -184t175 -72q103 0 175 72t72 184zM532 1034q219 0 332 -139h4v123h293v-967q1 -279 -155 -420t-390 -141t-372 115q-137 109 -162 252l274 80q16 -79 74 -133t168 -54t188 68t78 200v117h-4
q-104 -135 -293 -135q-141 0 -254 67t-175 185t-62 262q0 199 131 356q61 76 153 120t172 44zM272 1522h254l115 -174l117 174h254l-232 -332h-278z" />
    <glyph glyph-name="uni01E8" unicode="&#x1e8;" horiz-adv-x="1404" 
d="M481 0h-307v1493h307v-649l512 649h387l-571 -715l608 -778h-397l-539 709v-709zM389 1960h254l115 -174l119 174h251l-229 -332h-281z" />
    <glyph glyph-name="uni01E9" unicode="&#x1e9;" horiz-adv-x="1179" 
d="M891 1348l119 174h252l-230 -332h-280l-230 332h254zM434 481v-481h-297v1554h297v-936l354 400h379l-409 -469l420 -549h-375l-361 481h-8z" />
    <glyph glyph-name="uni01F4" unicode="&#x1f4;" horiz-adv-x="1636" 
d="M1567 803v-117q0 -272 -146 -450q-70 -86 -157 -142q-174 -117 -406 -117q-170 0 -315 62q-145 57 -246 164q-215 221 -215 542q0 209 105 389t283 280q178 101 390 102q274 0 448 -136t224 -319l-301 -92q-25 100 -126 176t-237 76q-136 1 -242 -61q-104 -62 -166 -171
t-62 -241t58 -240q58 -109 165 -172q106 -66 244 -66t247 70q102 70 131 182h-455v281h779zM938 1987h342l-301 -357h-246z" />
    <glyph glyph-name="uni01F5" unicode="&#x1f5;" horiz-adv-x="1300" 
d="M872 514q0 114 -70 184t-175 70q-106 0 -177 -71t-71 -183t71 -184t175 -72q103 0 175 72t72 184zM532 1034q219 0 332 -139h4v123h293v-967q1 -279 -155 -420t-390 -141t-372 115q-137 109 -162 252l274 80q16 -79 74 -133t168 -54t188 68t78 200v117h-4
q-104 -135 -293 -135q-141 0 -254 67t-175 185t-62 262q0 199 131 356q61 76 153 120t172 44zM670 1544h342l-303 -356h-244z" />
    <glyph glyph-name="Aringacute" unicode="&#x1fa;" horiz-adv-x="1509" 
d="M749 1704q-50 0 -85 -33t-35 -80t36 -83t88 -36t87 35q34 39 34 83t-34 79q-41 35 -91 35zM752 1194l-217 -588h434zM1049 1589q0 -106 -74 -186l538 -1403h-319l-119 317h-645l-117 -317h-315l534 1401q-76 77 -76 191t89 196q88 82 207 82q43 0 88 -12l116 204h342
l-286 -338q37 -66 37 -135z" />
    <glyph glyph-name="aringacute" unicode="&#x1fb;" horiz-adv-x="1126" 
d="M662 1138q0 38 -29 66t-73 29q-44 0 -73 -27q-29 -28 -29 -68t30 -68q28 -28 71 -28t73 29t30 67zM707 418h-179q-55 0 -102 -31t-47 -83t35 -80t90 -27q92 0 147 57t56 139v25zM856 1128q0 -71 -47 -143q190 -102 190 -354v-467q0 -70 9 -164h-277q-6 41 -6 127h-4
q-106 -147 -303 -147q-137 0 -238 83q-100 86 -100 222v8q0 199 205 270q109 41 243 41h99q80 0 80 70q0 55 -43 91t-114 36t-120 -37t-65 -102l-263 59q31 180 209 266q-45 70 -45 152q0 115 86 198q88 82 209 82q43 0 96 -16l109 190h340l-279 -331q29 -63 29 -134z" />
    <glyph glyph-name="AEacute" unicode="&#x1fc;" horiz-adv-x="2009" 
d="M930 584v622h-19l-313 -622h332zM1894 1493v-289h-659v-305h590v-289h-590v-321h666v-289h-971v297h-475l-148 -297h-332l758 1493h1161zM1165 1982h342l-301 -358h-243z" />
    <glyph glyph-name="aeacute" unicode="&#x1fd;" horiz-adv-x="1810" 
d="M504 197q92 0 147 57t56 139v25h-179q-55 0 -102 -31t-47 -83t35 -80t90 -27zM999 625h439q-6 61 -58 118t-151 57q-100 0 -158 -57q-64 -59 -72 -118zM1247 -23q-260 0 -418 177q-162 -174 -401 -174h-10q-137 0 -238 83q-100 86 -100 222v8q0 199 205 270
q109 41 243 41h99q80 0 80 70q0 55 -43 91t-114 36t-120 -37t-65 -102l-263 59q18 106 88 180q135 143 362 142q226 -1 339 -123q147 122 354 122t350 -139q141 -141 142 -364q0 -68 -6 -113h-738q12 -88 83 -144q70 -56 150 -56t146 38q63 39 88 98l244 -83
q-49 -139 -174 -221t-283 -81zM975 1544h342l-303 -356h-244z" />
    <glyph glyph-name="Oslashacute" unicode="&#x1fe;" horiz-adv-x="1720" 
d="M860 276q188 -6 328 138t135 334q0 145 -74 258l-633 -662q111 -68 244 -68zM397 748q0 -139 74 -256l631 659q-111 68 -242 68q-188 3 -328 -139t-135 -332zM1634 752q0 -160 -62 -304q-126 -292 -413 -409q-145 -61 -303 -62q-248 0 -446 140l-170 -172l-154 143
l168 174q-170 211 -170 483q0 159 62 303t167 244q103 102 249 162t302 62q248 0 447 -138l170 176l153 -143l-168 -176q168 -207 168 -483zM932 1987h342l-301 -357h-246z" />
    <glyph glyph-name="oslashacute" unicode="&#x1ff;" horiz-adv-x="1263" 
d="M633 248q106 0 180 74q72 76 72 188q0 68 -25 123l-356 -352q61 -33 129 -33zM379 510q0 -66 24 -121l355 352q-59 31 -125 31q-106 0 -180 -74t-74 -188zM1188 532q0 -170 -75 -294t-202 -192q-127 -69 -295 -69t-313 99l-121 -119l-108 106l116 115q-115 143 -114 328
q0 145 76 272q78 125 206 195q128 69 292 69q165 0 308 -98l119 121l109 -109l-115 -114q117 -140 117 -310zM707 1544h340l-302 -356h-243z" />
    <glyph glyph-name="Scommaaccent" unicode="&#x218;" horiz-adv-x="1300" 
d="M819 -358q0 -150 -84 -256q-86 -102 -229 -123v114q135 47 164 177q-20 -6 -47 -7q-66 0 -104 42t-38 108q0 65 50 105t123 40t119 -57t46 -143zM665 -23q-259 0 -410 124t-187 339l288 68q18 -120 106 -186t205 -66q118 0 176 48t58 112t-46 106q-46 43 -124 58l-211 43
q-180 33 -288 147t-109 281q0 199 156 333q158 132 389 132t372 -125q127 -119 150 -273l-281 -82q-20 94 -87 148t-166 55q-99 0 -162 -49t-64 -115q0 -125 154 -155l209 -39q205 -37 313 -157t108 -289t-139 -312q-151 -146 -410 -146z" />
    <glyph glyph-name="scommaaccent" unicode="&#x219;" horiz-adv-x="987" 
d="M659 -358q0 -154 -83 -255t-230 -124v114q135 45 166 177q-25 -6 -49 -7q-61 0 -101 42t-40 108q0 65 50 105t124 40t118 -55q45 -55 45 -145zM905 307q0 -125 -104 -227q-103 -102 -287 -103q-253 0 -373 156q-63 74 -69 158l262 55q6 -57 50 -98t106 -41q62 1 95 27
q32 26 31 61q0 66 -98 88l-129 29q-293 66 -293 297q0 139 112 236t277 97q223 0 336 -139q61 -74 72 -153l-258 -56q-10 57 -49 89q-40 32 -94 32q-54 -1 -86 -25t-31 -61q0 -57 80 -74l141 -30q150 -29 230 -111t79 -207z" />
    <glyph glyph-name="uni021A" unicode="&#x21a;" horiz-adv-x="1284" 
d="M805 -358q0 -154 -83 -255t-230 -124v114q135 45 163 177q-20 -6 -47 -7q-66 0 -104 44t-39 108q0 63 50 103t124 40t120 -58t46 -142zM487 0v1194h-446v299h1202v-299h-446v-1194h-310z" />
    <glyph glyph-name="uni021B" unicode="&#x21b;" horiz-adv-x="872" 
d="M635 -358q0 -150 -84 -256q-86 -102 -229 -123v114q135 47 163 177q-23 -6 -47 -7q-66 0 -102 43q-39 41 -39 107q0 65 50 105t123 40t119 -57t46 -143zM786 1018v-258h-251v-385q0 -131 145 -131q41 0 104 8v-242q-74 -25 -178 -24q-369 0 -368 372v402h-197v258h203
v319h291v-319h251z" />
    <glyph glyph-name="uni0237" unicode="&#x237;" horiz-adv-x="587" 
d="M154 -106v1124h297v-1153q-1 -166 -97 -266t-258 -101q-117 0 -180 23v246q54 -11 108 -11t92 36t38 102z" />
    <glyph glyph-name="gravecomb" unicode="&#x300;" horiz-adv-x="0" 
d="M193 1188h-244l-301 356h342z" />
    <glyph glyph-name="acutecomb" unicode="&#x301;" horiz-adv-x="0" 
d="M-70 1544h342l-301 -356h-243z" />
    <glyph glyph-name="uni0302" unicode="&#x302;" horiz-adv-x="0" 
d="M-369 1364l-116 -174h-254l229 332h281l229 -332h-252z" />
    <glyph glyph-name="tildecomb" unicode="&#x303;" horiz-adv-x="0" 
d="M163 1190q-95 0 -169 45t-121 45q-55 0 -59 -88h-174l-2 47q-4 113 50 179t165 67q55 2 151 -44t121 -44q47 6 57 41q4 14 11 45h167l2 -49q4 -112 -50 -178t-149 -66z" />
    <glyph glyph-name="uni0304" unicode="&#x304;" horiz-adv-x="0" 
d="M348 1421v-223h-696v223h696z" />
    <glyph glyph-name="uni0306" unicode="&#x306;" horiz-adv-x="0" 
d="M2 1182q-148 0 -248 93t-116 247h221q23 -137 141 -138q55 0 93 38t48 100h221q-14 -154 -116 -246q-96 -94 -244 -94z" />
    <glyph glyph-name="uni0307" unicode="&#x307;" horiz-adv-x="0" 
d="M-1 1178q-77 0 -129 53t-52 128t52 128t129 53t130 -53t53 -128t-53 -128t-130 -53z" />
    <glyph glyph-name="uni0308" unicode="&#x308;" horiz-adv-x="0" 
d="M226 1178q-72 0 -118 48t-46 116t48 116q48 49 116 49t117 -48q48 -47 48 -117t-47 -117t-118 -47zM-228 1178q-70 0 -117 47q-46 47 -46 117t47 117q47 48 116 48q70 0 118 -49q48 -48 48 -116t-48 -116t-118 -48z" />
    <glyph glyph-name="uni030A" unicode="&#x30a;" horiz-adv-x="0" 
d="M123 1431q0 43 -37 79t-88 36t-86 -33t-35 -81t35 -84q35 -35 86 -35t90 35q35 39 35 83zM-1 1710q122 0 209 -80t87 -200q0 -119 -87 -201t-207 -82t-210 84q-86 84 -86 201t88 196q84 82 206 82z" />
    <glyph glyph-name="uni030B" unicode="&#x30b;" horiz-adv-x="0" 
d="M145 1544h334l-303 -356h-233zM-274 1544h331l-301 -356h-235z" />
    <glyph glyph-name="uni030C" unicode="&#x30c;" horiz-adv-x="0" 
d="M-369 1522h254l115 -174l117 174h252l-230 -332h-278z" />
    <glyph glyph-name="uni0312" unicode="&#x312;" horiz-adv-x="0" 
d="M-170 1376q0 152 85 255t228 124v-117q-137 -47 -163 -174q29 6 47 6q61 0 102 -44t41 -108t-50 -105q-50 -39 -123 -39t-120 58t-47 144z" />
    <glyph glyph-name="uni0326" unicode="&#x326;" horiz-adv-x="0" 
d="M170 -358q0 -150 -84 -256q-86 -102 -229 -123v114q135 47 163 177q-20 -6 -47 -7q-67 0 -105 44t-38 108q0 63 50 103t124 40t120 -57t46 -143z" />
    <glyph glyph-name="uni0327" unicode="&#x327;" horiz-adv-x="0" 
d="M158 -193q0 -160 -97 -233q-100 -72 -264 -72q-82 0 -137 17v200q46 -8 112 -8t108 47q42 46 42 120t-22 122h215q43 -82 43 -193z" />
    <glyph glyph-name="uni0328" unicode="&#x328;" horiz-adv-x="0" 
d="M39 -214q0 -52 44 -78q43 -26 75 -26t59 3v-174q-55 -16 -145 -17q-170 0 -252 94q-45 51 -45 121q0 144 213 291h237q-66 -39 -131 -104q-55 -58 -55 -110z" />
    <glyph glyph-name="Theta" unicode="&#x398;" horiz-adv-x="1714" 
d="M1202 899v-289h-688v289h688zM858 1217q-195 -1 -329 -139t-134 -330q0 -129 64 -239t168 -171q104 -62 231 -62q128 0 232 62t168 172q64 111 63 239q0 127 -61 235t-168 171q-109 62 -234 62zM854 -23q-324 1 -548 223t-224 545q0 155 61 301t166 246q101 100 249 162
t307 62t299 -60t245 -160q103 -102 163 -244t60 -301t-62 -303q-126 -292 -413 -409q-145 -62 -303 -62z" />
    <glyph glyph-name="uni03A9" unicode="&#x3a9;" horiz-adv-x="1683" 
d="M764 0h-651v268h366v29q-247 104 -334 330q-41 103 -41 227t58 252t160 221q211 189 522 189t523 -192t212 -490q0 -169 -104 -328q-88 -131 -269 -209v-29h365v-268h-649v430q184 41 262 166q70 104 69 227q4 160 -116 279q-121 119 -296 119t-295 -118t-116 -280
q0 -119 72 -227q78 -127 262 -166v-430z" />
    <glyph glyph-name="theta" unicode="&#x3b8;" horiz-adv-x="1398" 
d="M697 250q133 0 215 120t96 281h-617q16 -157 94 -279t212 -122zM696 1286q-133 0 -210 -119t-95 -266h617q-18 157 -98 271t-214 114zM700 1559q242 0 398 -166q70 -72 121 -179q100 -201 100 -438q2 -172 -57 -340t-166 -284q-158 -174 -401 -174t-396 174
q-72 78 -121 180q-96 205 -96 436q-2 174 55 340t164 281q157 170 399 170z" />
    <glyph glyph-name="pi" unicode="&#x3c0;" horiz-adv-x="1421" 
d="M819 307v453h-272v-760h-295v760h-205v258h1278v-258h-211v-393q0 -106 103 -107q28 0 108 8v-248q-104 -31 -197 -30q-141 0 -225 85t-84 232z" />
    <glyph glyph-name="uni0401" unicode="&#x401;" horiz-adv-x="1263" 
d="M174 1493h977v-289h-672v-305h602v-289h-602v-321h678v-289h-983v1493zM1063 1778q0 -68 -48 -116t-119 -48t-118 48t-47 116t47 118q49 50 118 50t118 -50t49 -118zM423 1614q-71 0 -118 48t-47 117t49 117q45 50 115 50t118 -48t48 -120q0 -70 -47 -117t-118 -47z" />
    <glyph glyph-name="uni0402" unicode="&#x402;" horiz-adv-x="1609" 
d="M1063 -23q-84 0 -166 19v289q61 -8 88 -9q264 0 264 195q0 188 -276 188q-74 1 -152 -23t-131 -71v-565h-305v1206h-344v287h1204v-287h-555v-354q164 106 382 106t354 -131t136 -359t-131 -359q-132 -132 -368 -132z" />
    <glyph glyph-name="uni0403" unicode="&#x403;" horiz-adv-x="1148" 
d="M174 0v1493h938v-293h-627v-1200h-311zM657 1982h342l-301 -358h-243z" />
    <glyph glyph-name="uni0404" unicode="&#x404;" horiz-adv-x="1617" 
d="M852 -23q-313 0 -537 211q-102 94 -170 244q-63 150 -63 310t63 313q63 139 170 245q103 98 245 156t298 60q344 0 545 -224q109 -115 149 -256l-286 -94q-36 123 -150 200t-266 77q-152 -1 -272 -93t-162 -233h592v-277h-598q43 -150 161 -247q119 -94 285 -95
q207 0 330 142q63 67 88 153l287 -100q-35 -133 -144 -252q-70 -72 -137 -119q-182 -121 -428 -121z" />
    <glyph glyph-name="uni0405" unicode="&#x405;" horiz-adv-x="1300" 
d="M665 -23q-259 0 -410 124t-187 339l288 68q18 -120 106 -186t205 -66q118 0 176 48t58 112t-46 106q-46 43 -124 58l-211 43q-180 33 -288 147t-109 281q0 199 156 333q158 132 389 132t372 -125q127 -119 150 -273l-281 -82q-20 94 -87 148t-166 55q-99 0 -162 -49
t-64 -115q0 -125 154 -155l209 -39q205 -37 313 -157t108 -289t-139 -312q-151 -146 -410 -146z" />
    <glyph glyph-name="uni0406" unicode="&#x406;" horiz-adv-x="657" 
d="M483 1493v-1493h-309v1493h309z" />
    <glyph glyph-name="uni0407" unicode="&#x407;" horiz-adv-x="657" 
d="M483 1493v-1493h-309v1493h309zM552 1614q-71 0 -118 48t-47 116t47 118q49 50 118 50t117 -48t48 -120q0 -70 -47 -117t-118 -47zM105 1614q-71 0 -117 48t-47 117q0 69 48 117q49 48 117 50q68 0 117 -50t49 -118t-48 -116t-119 -48z" />
    <glyph glyph-name="uni0408" unicode="&#x408;" horiz-adv-x="1220" 
d="M59 635h299v-154q0 -106 58 -155q58 -50 140 -50q83 0 139 50t57 145v1022h307v-1026q-1 -225 -137 -356t-353 -133t-365 138t-145 351v168z" />
    <glyph glyph-name="uni0409" unicode="&#x409;" horiz-adv-x="2357" 
d="M1452 293h320q227 0 227 182q0 57 -39 111q-51 61 -193 61h-315v-354zM1452 930h338q324 -2 446 -203q70 -111 71 -235q2 -253 -175 -390q-133 -102 -360 -102h-629v1198h-447l-45 -512q-35 -377 -229 -557q-145 -135 -371 -135h-6v282q162 0 248 197q39 92 53 223
l70 797h1036v-563z" />
    <glyph glyph-name="uni040A" unicode="&#x40a;" horiz-adv-x="2324" 
d="M1415 293h326q139 0 181 52t42 124q0 168 -225 168h-324v-344zM481 0h-307v1493h307v-578h627v578h307v-578h350q315 -2 435 -200q72 -113 71 -252q4 -231 -170 -365q-129 -98 -360 -98h-633v633h-627v-633z" />
    <glyph glyph-name="uni040B" unicode="&#x40b;" horiz-adv-x="1648" 
d="M1255 0v381q0 279 -260 278q-178 0 -305 -100v-559h-305v1206h-344v287h1204v-287h-555v-354q164 106 382 106t354 -124t137 -334v-500h-308z" />
    <glyph glyph-name="uni040C" unicode="&#x40c;" horiz-adv-x="1406" 
d="M483 0h-309v1493h309v-649l512 649h387l-571 -715l608 -778h-399l-537 709v-709zM829 1987h342l-301 -357h-243z" />
    <glyph glyph-name="uni040E" unicode="&#x40e;" horiz-adv-x="1390" 
d="M131 0v289h182q184 0 240 117l-547 1087h338l379 -766l356 766h334l-530 -1063q-96 -197 -166 -276q-41 -41 -68 -62q-109 -86 -303 -92h-215zM720 1632q-148 0 -246 93q-97 93 -124 257l174 31q54 -176 196 -176t195 176l172 -31q-27 -164 -123 -257t-244 -93z" />
    <glyph glyph-name="uni040F" unicode="&#x40f;" horiz-adv-x="1576" 
d="M938 0v-313h-299v313h-465v1493h307v-1196h615v1196h307v-1493h-465z" />
    <glyph glyph-name="uni0410" unicode="&#x410;" horiz-adv-x="1509" 
d="M969 606l-217 588l-217 -588h434zM432 319l-119 -319h-315l571 1493h371l573 -1493h-319l-119 319h-643z" />
    <glyph glyph-name="uni0411" unicode="&#x411;" horiz-adv-x="1427" 
d="M481 293h344q223 0 224 172q0 160 -228 160h-340v-332zM481 1200v-301h371q315 0 434 -192q70 -109 70 -250q0 -238 -170 -361q-129 -96 -365 -96h-647v1493h1088v-293h-781z" />
    <glyph glyph-name="uni0412" unicode="&#x412;" horiz-adv-x="1417" 
d="M1032 453q0 166 -244 165h-313v-331h324q89 0 161 35t72 131zM729 887q238 0 238 164q-1 85 -63 121t-154 36h-275v-321h254zM1061 776q272 -101 272 -344q0 -242 -161 -337t-369 -95h-629v1493h619q189 0 333 -100t144 -302t-209 -313v-2z" />
    <glyph glyph-name="uni0413" unicode="&#x413;" horiz-adv-x="1146" 
d="M174 0v1493h936v-293h-629v-1200h-307z" />
    <glyph glyph-name="uni0414" unicode="&#x414;" horiz-adv-x="1728" 
d="M1178 289v921h-424l-39 -374q-39 -393 -244 -547h707zM27 287h8q75 0 145 52t117 140q94 176 117 389l63 625h1008v-1206h155v-600h-299v313h-1015v-313h-299v600z" />
    <glyph glyph-name="uni0415" unicode="&#x415;" horiz-adv-x="1263" 
d="M174 1493h977v-289h-672v-305h602v-289h-602v-321h678v-289h-983v1493z" />
    <glyph glyph-name="uni0416" unicode="&#x416;" horiz-adv-x="2115" 
d="M903 1493h309v-700h9l495 700h379l-539 -725l562 -768h-381l-516 725h-9v-725h-309v725h-8l-516 -725h-381l561 768l-539 725h379l496 -700l8 2v698z" />
    <glyph glyph-name="uni0417" unicode="&#x417;" horiz-adv-x="1308" 
d="M897 485q0 61 -38 109q-72 90 -216 90q-74 0 -143 -31l-148 217l426 340h-672v283h1063v-289l-362 -289q180 -18 294 -140t113 -294q0 -223 -171 -361t-395 -138t-396 131t-191 350l312 49q8 -106 86 -176q72 -70 178 -72t183 58t77 163z" />
    <glyph glyph-name="uni0418" unicode="&#x418;" horiz-adv-x="1640" 
d="M479 1493v-1047l627 1047h360v-1493h-305v1055l-626 -1055h-361v1493h305z" />
    <glyph glyph-name="uni0419" unicode="&#x419;" horiz-adv-x="1640" 
d="M1466 0h-305v1055l-626 -1055h-361v1493h305v-1047l627 1047h360v-1493zM832 1632q-148 0 -248 94q-92 92 -121 256l174 31q55 -176 197 -176t194 176l172 -31q-29 -164 -124 -257q-96 -93 -244 -93z" />
    <glyph glyph-name="uni041A" unicode="&#x41a;" horiz-adv-x="1402" 
d="M481 0h-307v1493h307v-649l512 649h385l-569 -715l606 -778h-397l-537 709v-709z" />
    <glyph glyph-name="uni041B" unicode="&#x41b;" horiz-adv-x="1589" 
d="M51 -6h-6v282q168 2 240 201q37 96 51 223l82 793h997v-1493h-309l2 1202h-418l-53 -516q-72 -692 -586 -692z" />
    <glyph glyph-name="uni041C" unicode="&#x41c;" horiz-adv-x="2009" 
d="M477 1012v-1012h-303v1493h418l412 -993l403 993h428v-1493h-303v1018h-4l-422 -1018h-207l-420 1012h-2z" />
    <glyph glyph-name="uni041D" unicode="&#x41d;" horiz-adv-x="1589" 
d="M481 604v-604h-307v1493h307v-590h627v590h307v-1493h-307v604h-627z" />
    <glyph glyph-name="uni041E" unicode="&#x41e;" horiz-adv-x="1714" 
d="M858 1217q-126 -1 -232 -63t-166 -171t-60 -235t60 -234t165 -174q106 -64 234 -64q129 0 233 64t165 172q59 109 60 236q4 190 -133 330t-326 139zM82 745q0 155 61 301t166 246q101 100 249 162t307 62t299 -60t245 -160q103 -102 163 -244t60 -301t-62 -303
q-126 -292 -413 -409q-145 -61 -303 -62q-324 0 -548 222t-224 546z" />
    <glyph glyph-name="uni041F" unicode="&#x41f;" horiz-adv-x="1576" 
d="M481 1202v-1202h-307v1493h1229v-1493h-307v1202h-615z" />
    <glyph glyph-name="uni0420" unicode="&#x420;" horiz-adv-x="1318" 
d="M950 1008q0 66 -35 112q-63 82 -215 82h-217v-389h219q102 0 176 48q72 49 72 147zM727 1493q235 0 385 -123q150 -122 150 -362t-156 -361q-150 -121 -389 -121h-234v-526h-309v1493h553z" />
    <glyph glyph-name="uni0421" unicode="&#x421;" horiz-adv-x="1609" 
d="M850 -20q-311 0 -537 208q-103 96 -167 245t-64 309t63 313q134 286 418 403q147 57 295 58q242 0 412 -113q74 -43 135 -113q111 -121 147 -258l-292 -100q-10 47 -52 106q-125 178 -354 176q-129 0 -231 -63q-105 -61 -163 -169t-58 -234t56 -235q58 -109 164 -173
t241 -64q187 0 319 146q63 74 84 153l295 -102q-31 -131 -142 -252q-131 -146 -329 -209q-111 -32 -240 -32z" />
    <glyph glyph-name="uni0422" unicode="&#x422;" horiz-adv-x="1280" 
d="M485 0v1194h-446v299h1202v-299h-446v-1194h-310z" />
    <glyph glyph-name="uni0423" unicode="&#x423;" horiz-adv-x="1390" 
d="M131 0v289h182q184 0 240 117l-547 1087h338l379 -766l356 766h334l-530 -1063q-96 -197 -166 -276q-41 -41 -68 -62q-109 -86 -303 -92h-215z" />
    <glyph glyph-name="uni0424" unicode="&#x424;" horiz-adv-x="1927" 
d="M1118 1122v-727q194 -1 310 99t116 266t-116 264t-310 98zM811 395v727q-193 0 -309 -98t-117 -264q0 -166 118 -266t308 -99zM811 -47v158q-444 0 -635 299q-104 166 -104 354t94 340q92 143 258 223t385 80v133h309v-133q324 4 532 -175t205 -466q0 -195 -104 -356
q-57 -90 -137 -152q-182 -147 -496 -147v-158h-307z" />
    <glyph glyph-name="uni0425" unicode="&#x425;" horiz-adv-x="1439" 
d="M346 0h-348l537 768l-506 725h360l332 -485l334 485h358l-510 -723l539 -770h-361l-364 537z" />
    <glyph glyph-name="uni0426" unicode="&#x426;" horiz-adv-x="1648" 
d="M1096 293v1200h307v-1200h158v-606h-301v313h-1086v1493h307v-1200h615z" />
    <glyph glyph-name="uni0427" unicode="&#x427;" horiz-adv-x="1464" 
d="M981 0v580q-213 -109 -387 -109q-236 0 -363 125q-131 123 -131 367v530h310v-440q0 -279 249 -279q95 0 181 26t141 68v625h309v-1493h-309z" />
    <glyph glyph-name="uni0428" unicode="&#x428;" horiz-adv-x="2316" 
d="M481 1493v-1200h523v1200h307v-1200h522v1200h309v-1493h-1968v1493h307z" />
    <glyph glyph-name="uni0429" unicode="&#x429;" horiz-adv-x="2385" 
d="M481 1493v-1200h523v1200h307v-1200h522v1200h309v-1200h156v-606h-299v313h-1825v1493h307z" />
    <glyph glyph-name="uni042A" unicode="&#x42a;" horiz-adv-x="1613" 
d="M707 293h319q129 0 178 54q49 53 49 119t-39 120q-51 61 -190 61h-317v-354zM707 930h337q225 0 351 -99q53 -43 96 -104q70 -111 71 -235q2 -253 -176 -390q-133 -102 -360 -102h-629v1198h-356v295h666v-563z" />
    <glyph glyph-name="uni042B" unicode="&#x42b;" horiz-adv-x="2058" 
d="M481 293h322q129 0 178 54q49 53 49 119t-39 120q-51 61 -192 61h-318v-354zM1575 1493h309v-1493h-309v1493zM481 930h340q225 0 350 -99q53 -43 97 -104q70 -111 69 -254q2 -107 -42 -205t-132 -166q-133 -102 -360 -102h-629v1493h307v-563z" />
    <glyph glyph-name="uni042C" unicode="&#x42c;" horiz-adv-x="1390" 
d="M481 293h322q129 0 178 54q49 53 49 119t-39 120q-51 61 -192 61h-318v-354zM481 930h340q225 0 350 -99q53 -43 97 -104q70 -111 69 -254q2 -107 -42 -205t-132 -166q-133 -102 -360 -102h-629v1493h307v-563z" />
    <glyph glyph-name="uni042D" unicode="&#x42d;" horiz-adv-x="1617" 
d="M762 1516q226 0 400 -98q172 -98 272 -271q100 -175 100 -373q0 -376 -223 -581q-219 -215 -549 -216q-233 0 -416 121q-70 47 -141 119q-119 131 -148 252l287 100q28 -96 136 -195q108 -100 282 -100t291 98t155 244h-598v277h592q-43 141 -158 235q-119 90 -274 91
q-211 0 -334 -138q-68 -74 -84 -139l-286 94q25 96 102 196q78 99 194 173q174 111 400 111z" />
    <glyph glyph-name="uni042E" unicode="&#x42e;" horiz-adv-x="2267" 
d="M991 748q1 -130 57 -236t158 -171t228 -65q182 -4 311 138t127 338q-2 195 -129 327q-125 137 -315 137t-312 -133q-125 -131 -125 -335zM1421 1516q177 0 313 -60t237 -165t157 -243t55 -300q0 -162 -57 -304q-56 -142 -160 -245q-104 -105 -242 -163t-297 -59
q-283 -1 -489 177t-254 454h-201v-608h-309v1493h309v-606h203q31 180 135 324q103 145 263 225t337 80z" />
    <glyph glyph-name="uni042F" unicode="&#x42f;" horiz-adv-x="1392" 
d="M911 1200h-256q-91 0 -165 -41t-73 -141t71 -150q71 -49 167 -45h256v377zM102 1024q0 229 152 349t377 120h588v-1493h-308v537h-227l-281 -537h-337l317 594q-281 113 -281 430z" />
    <glyph glyph-name="uni0430" unicode="&#x430;" horiz-adv-x="1126" 
d="M504 197q92 0 147 57t56 139v25h-179q-55 0 -102 -31t-47 -83t35 -80t90 -27zM418 -20q-137 0 -238 83q-100 86 -100 222v8q0 199 205 270q109 41 243 41h99q80 0 80 70q0 55 -43 91t-114 36t-120 -37t-65 -102l-263 59q18 106 88 180q135 143 371 141q195 2 317 -106
t121 -305v-467q0 -70 9 -164h-277q-6 41 -6 127h-4q-106 -147 -303 -147z" />
    <glyph glyph-name="uni0431" unicode="&#x431;" horiz-adv-x="1284" 
d="M657 768q-100 0 -172 -70q-75 -68 -75 -188t74 -192q74 -70 180 -70q104 0 176 72t72 192t-78 188q-77 68 -177 68zM1208 513q0 -233 -153 -383t-397 -150t-402 165q-154 166 -154 469q0 242 36 370q77 273 317 405q152 82 354 118l299 56l51 -254l-350 -68
q-201 -39 -317 -141q-47 -45 -82 -94q-55 -86 -62 -156l8 -2q102 121 234 156q92 27 155 26q195 0 330 -141q133 -143 133 -376z" />
    <glyph glyph-name="uni0432" unicode="&#x432;" horiz-adv-x="1208" 
d="M428 233h281q123 0 122 97q1 40 -33 66t-98 26h-272v-189zM428 618h256q57 0 86 28t29 67t-29 63t-82 25h-260v-183zM137 1018h619q119 0 219 -53q119 -59 119 -209t-164 -224q197 -59 196 -253q0 -145 -110 -212t-266 -67h-613v1018z" />
    <glyph glyph-name="uni0433" unicode="&#x433;" horiz-adv-x="935" 
d="M137 0v1018h762v-258h-463v-760h-299z" />
    <glyph glyph-name="uni0434" unicode="&#x434;" horiz-adv-x="1398" 
d="M889 256v504h-299l-15 -150q-25 -250 -163 -352l2 -2h475zM53 258h2q84 0 150 100q59 96 76 258l41 402h864v-762h129v-569h-277v313h-708v-313h-277v571z" />
    <glyph glyph-name="uni0435" unicode="&#x435;" horiz-adv-x="1196" 
d="M385 625h438q-6 61 -57 118q-52 57 -152 57t-160 -58t-69 -117zM634 -23q-152 -1 -280 65q-127 66 -204 191q-76 127 -76 275t72 269q72 122 197 194q124 72 271 71q224 0 366 -141t142 -369q0 -69 -6 -106h-737q12 -88 83 -144q70 -56 150 -56t146 38q66 39 86 98
l246 -83q-48 -141 -176 -221t-280 -81z" />
    <glyph glyph-name="uni0436" unicode="&#x436;" horiz-adv-x="1751" 
d="M1024 549h6l342 469h350l-362 -498l371 -520h-359l-342 494h-6v-494h-297v494h-6l-340 -494h-361l371 520l-362 498h352l340 -469h6v469h297v-469z" />
    <glyph glyph-name="uni0437" unicode="&#x437;" horiz-adv-x="1042" 
d="M528 -20q-188 0 -312 84t-150 247l253 64q43 -152 191 -152q62 0 110 30t48 85t-43 82q-96 51 -226 -2l-90 168l269 182h-486v250h838v-225l-248 -166q106 -16 189 -84q83 -69 83 -219t-118 -247q-120 -97 -308 -97z" />
    <glyph glyph-name="uni0438" unicode="&#x438;" horiz-adv-x="1241" 
d="M137 0v1018h293v-592h2l375 592h297v-1018h-293v588h-2l-373 -588h-299z" />
    <glyph glyph-name="uni0439" unicode="&#x439;" horiz-adv-x="1241" 
d="M137 0v1018h293v-592h2l375 592h297v-1018h-293v588h-2l-373 -588h-299zM622 1178q-148 0 -249 94q-96 96 -121 256l174 31q52 -177 194 -177t197 177l172 -31q-27 -164 -123 -257t-244 -93z" />
    <glyph glyph-name="uni043A" unicode="&#x43a;" horiz-adv-x="1187" 
d="M434 444v-444h-297v1018h297v-436h6l375 436h361l-437 -496l457 -522h-379l-377 444h-6z" />
    <glyph glyph-name="uni043B" unicode="&#x43b;" horiz-adv-x="1271" 
d="M51 244q141 0 164 245l57 529h863v-1018h-297v760h-295l-29 -285q-47 -485 -451 -485l-12 2v252z" />
    <glyph glyph-name="uni043C" unicode="&#x43c;" horiz-adv-x="1581" 
d="M428 684v-684h-291v1018h404l250 -666l245 666h408v-1018h-293v696h-4l-252 -696h-209l-256 684h-2z" />
    <glyph glyph-name="uni043D" unicode="&#x43d;" horiz-adv-x="1228" 
d="M434 387v-387h-297v1018h297v-383h359v383h297v-1018h-297v387h-359z" />
    <glyph glyph-name="uni043E" unicode="&#x43e;" horiz-adv-x="1259" 
d="M379 510q0 -110 72 -186q74 -74 179 -74t178 72t73 188t-73 188t-178 72t-179 -74q-72 -76 -72 -186zM74 507q0 144 75 270t205 196q130 69 282 69q150 0 276 -68t200 -190t74 -272t-75 -274t-202 -192q-127 -69 -279 -69t-282 68q-126 72 -200 195t-74 267z" />
    <glyph glyph-name="uni043F" unicode="&#x43f;" horiz-adv-x="1222" 
d="M436 760v-760h-299v1018h948v-1018h-297v760h-352z" />
    <glyph glyph-name="uni0440" unicode="&#x440;" horiz-adv-x="1306" 
d="M678 768q-108 0 -179 -72t-71 -186t73 -188q73 -72 178 -72t178 73t73 185t-72 186t-180 74zM432 891h4q111 147 321 147t342 -164t132 -368t-137 -365q-136 -161 -342 -161t-314 133h-4v-615h-297v1520h295v-127z" />
    <glyph glyph-name="uni0441" unicode="&#x441;" horiz-adv-x="1189" 
d="M620 768q-97 0 -168 -71t-71 -187t70 -184q68 -74 165 -74t158 44t86 114l273 -82q-31 -111 -111 -195q-160 -156 -396 -157q-237 -1 -396 153t-154 379q0 147 74 270q68 119 198 195q133 69 292 69t298 -88q147 -88 188 -260l-272 -82q-18 64 -78 110t-156 46z" />
    <glyph glyph-name="uni0442" unicode="&#x442;" horiz-adv-x="991" 
d="M346 0v760h-307v258h913v-258h-307v-760h-299z" />
    <glyph glyph-name="uni0443" unicode="&#x443;" horiz-adv-x="1165" 
d="M453 109l-428 909h327l254 -582l228 582h307l-619 -1520h-317z" />
    <glyph glyph-name="uni0444" unicode="&#x444;" horiz-adv-x="1765" 
d="M1174 768q-66 0 -142 -45v-428q72 -45 142 -45q106 0 155 80t49 181t-52 179t-152 78zM590 768q-68 0 -116 -40t-67 -96t-19 -135t44 -157q49 -90 162 -90q68 0 141 45v428q-77 45 -145 45zM733 -465v535q-29 -31 -95 -57t-128 -25q-137 0 -238 78q-192 150 -192 444
q0 211 113 368t321 156q60 0 122 -26t97 -68v553h299v-553q36 41 98 68t121 26q141 0 243 -80q189 -148 192 -448q2 -133 -44 -249q-46 -117 -147 -193q-100 -76 -238 -76q-65 0 -131 24t-94 60v-537h-299z" />
    <glyph glyph-name="uni0445" unicode="&#x445;" horiz-adv-x="1095" 
d="M350 0h-330l367 512l-356 506h336l182 -287l188 287h328l-358 -498l368 -520h-334l-194 299z" />
    <glyph glyph-name="uni0446" unicode="&#x446;" horiz-adv-x="1298" 
d="M1214 -313h-276v313h-801v1018h299v-762h352v762h297v-762h129v-569z" />
    <glyph glyph-name="uni0447" unicode="&#x447;" horiz-adv-x="1161" 
d="M727 0v348q-135 -68 -286 -68t-257 86t-104 255v397h299v-311q0 -170 145 -170q104 0 203 49v432h297v-1018h-297z" />
    <glyph glyph-name="uni0448" unicode="&#x448;" horiz-adv-x="1835" 
d="M436 1018v-762h332v762h297v-762h334v762h299v-1018h-1561v1018h299z" />
    <glyph glyph-name="uni0449" unicode="&#x449;" horiz-adv-x="1910" 
d="M1827 -315h-277v315h-1413v1018h299v-762h332v762h297v-762h334v762h299v-762h129v-571z" />
    <glyph glyph-name="uni044A" unicode="&#x44a;" horiz-adv-x="1363" 
d="M655 236h205q156 0 156 131q0 57 -40 90t-116 32h-205v-253zM655 713h230q197 0 313 -89q116 -90 117 -262q0 -172 -109 -267t-305 -95h-543v762l-319 -2v258h616v-305z" />
    <glyph glyph-name="uni044B" unicode="&#x44b;" horiz-adv-x="1720" 
d="M434 236h205q156 0 156 131q0 123 -156 122h-205v-253zM1284 1018h299v-1018h-299v1018zM137 1018h297v-305h232q198 0 314 -90q116 -91 116 -261t-110 -266t-304 -96h-545v1018z" />
    <glyph glyph-name="uni044C" unicode="&#x44c;" horiz-adv-x="1146" 
d="M434 236h205q156 0 156 131q0 123 -156 122h-205v-253zM137 1018h297v-305h232q198 0 314 -90q116 -91 116 -261t-110 -266t-304 -96h-545v1018z" />
    <glyph glyph-name="uni044D" unicode="&#x44d;" horiz-adv-x="1187" 
d="M565 -23q-180 -1 -319 89t-189 258l262 79q29 -69 94 -113t153 -44t149 44q59 44 84 122h-332v204h332q-27 74 -87 116t-146 42t-152 -45q-65 -45 -88 -108l-263 77q29 113 111 192q158 152 393 153t394 -153q158 -155 153 -378q0 -225 -154 -380t-395 -155z" />
    <glyph glyph-name="uni044E" unicode="&#x44e;" horiz-adv-x="1718" 
d="M1107 250q103 0 169 72q63 74 63 188t-65 188q-66 72 -170 72t-169 -71t-65 -188t68 -187q66 -74 169 -74zM436 385v-385h-299v1018h299v-385h144q41 181 186 295t340 114q227 2 384 -152t152 -378q4 -225 -154 -382t-382 -153q-199 0 -343 112t-183 296h-144z" />
    <glyph glyph-name="uni044F" unicode="&#x44f;" horiz-adv-x="1228" 
d="M557 784q-158 0 -160 -120q0 -54 43 -90t121 -35h234v245h-238zM100 678q0 150 104 245t308 95h578v-1018h-295v326h-205l-203 -326h-334l242 381q-195 86 -195 297z" />
    <glyph glyph-name="uni0451" unicode="&#x451;" horiz-adv-x="1196" 
d="M385 625h438q-6 61 -57 118q-52 57 -152 57t-160 -58t-69 -117zM634 -23q-152 -1 -280 65q-127 66 -204 191q-76 127 -76 275t72 269q72 122 197 194q124 72 271 71q224 0 366 -141t142 -369q0 -69 -6 -106h-737q12 -88 83 -144q70 -56 150 -56t146 38q66 39 86 98
l246 -83q-48 -141 -176 -221t-280 -81zM836 1178q-70 0 -116 47t-46 117t46 117q46 48 116 48t118 -49q48 -48 49 -116q0 -68 -48 -116q-49 -48 -119 -48zM549 1342q0 -68 -48 -116t-119 -48t-117 49t-46 115t46 115q46 50 116 50t119 -49q49 -48 49 -116z" />
    <glyph glyph-name="uni0452" unicode="&#x452;" horiz-adv-x="1187" 
d="M600 238q88 0 140 58t53 161v108q0 91 -45 145q-46 54 -134 54t-134 -58t-46 -139v-567h-297v1180h-127v202h127v172h297v-172h303v-202h-303v-281h2q43 61 122 100t159 39q186 0 279 -119t94 -284v-266q0 -180 -103 -287q-104 -104 -270 -105q-88 0 -160 23v242
q25 -4 43 -4z" />
    <glyph glyph-name="uni0453" unicode="&#x453;" horiz-adv-x="937" 
d="M137 0v1018h764v-258h-465v-760h-299zM580 1544h342l-304 -356h-241z" />
    <glyph glyph-name="uni0454" unicode="&#x454;" horiz-adv-x="1187" 
d="M231 126q-156 150 -155 382q0 147 74 270q68 119 198 195q133 69 290 69t301 -88t185 -256l-260 -77q-23 63 -86 108t-148 45q-86 0 -148 -42t-89 -116h330v-204h-332q27 -76 89 -121t150 -45t150 47q61 42 90 110l260 -79q-32 -111 -110 -190q-156 -157 -394 -157
q-239 -1 -395 149z" />
    <glyph glyph-name="uni0455" unicode="&#x455;" horiz-adv-x="987" 
d="M905 307q0 -125 -104 -227q-103 -102 -287 -103q-253 0 -373 156q-63 74 -69 158l262 55q6 -57 50 -98t106 -41q62 1 95 27q32 26 31 61q0 66 -98 88l-129 29q-293 66 -293 297q0 139 112 236t277 97q223 0 336 -139q61 -74 72 -153l-258 -56q-10 57 -49 89
q-40 32 -94 32q-54 -1 -86 -25t-31 -61q0 -57 80 -74l141 -30q150 -29 230 -111t79 -207z" />
    <glyph glyph-name="uni0456" unicode="&#x456;" horiz-adv-x="573" 
d="M436 0h-299v1018h299v-1018zM471 1374q0 -74 -53 -131q-55 -55 -131 -55t-130 54q-55 54 -55 132t54 131q57 53 131 53t131 -53q53 -57 53 -131z" />
    <glyph glyph-name="uni0457" unicode="&#x457;" horiz-adv-x="573" 
d="M137 1018h299v-1018h-299v1018zM508 1507q70 0 118 -49q48 -48 48 -116t-47 -116t-118 -48t-118 47t-47 117t47 117q47 48 117 48zM63 1178q-69 0 -117 48t-48 116t49 116q45 49 115 49t118 -49q49 -49 49 -117q0 -67 -48 -115t-118 -48z" />
    <glyph glyph-name="uni0458" unicode="&#x458;" horiz-adv-x="587" 
d="M154 -106v1124h297v-1153q-1 -166 -97 -266t-258 -101q-117 0 -180 23v246q54 -11 108 -11t92 36t38 102zM485 1374q0 -78 -54 -132t-130 -54t-130 54t-54 132t53 131q57 53 131 53t129 -52q55 -54 55 -132z" />
    <glyph glyph-name="uni0459" unicode="&#x459;" horiz-adv-x="1845" 
d="M1133 236h198q164 0 164 141q0 59 -42 95t-122 36h-198v-272zM51 244q137 0 164 245l57 529h861v-287h223q202 0 320 -93t118 -266t-113 -272q-109 -100 -307 -100h-538v760h-295l-27 -285q-47 -485 -451 -485l-12 2v252z" />
    <glyph glyph-name="uni045A" unicode="&#x45a;" horiz-adv-x="1800" 
d="M1090 236h204q156 0 156 122t-156 123h-204v-245zM793 477h-359v-477h-297v1018h297v-316h359v316h297v-316h231q199 0 313 -88q117 -86 117 -256t-111 -264t-303 -94h-544v477z" />
    <glyph glyph-name="uni045B" unicode="&#x45b;" 
d="M793 0v565q0 91 -45 145q-46 54 -134 54t-134 -58t-46 -139v-567h-297v1180h-127v202h127v172h297v-172h303v-202h-303v-281h2q56 84 142 112t139 27q188 0 280 -121t93 -284v-633h-297z" />
    <glyph glyph-name="uni045C" unicode="&#x45c;" horiz-adv-x="1187" 
d="M436 444v-444h-299v1018h299v-436h4l375 436h363l-437 -496l457 -522h-381l-375 444h-6zM700 1544h342l-301 -356h-243z" />
    <glyph glyph-name="uni045E" unicode="&#x45e;" horiz-adv-x="1165" 
d="M453 109l-428 909h327l254 -582l228 582h307l-619 -1520h-317zM585 1178q-151 0 -249 94q-96 96 -121 256l174 31q53 -177 195 -177t194 177l174 -31q-28 -160 -122 -255t-245 -95z" />
    <glyph glyph-name="uni045F" unicode="&#x45f;" horiz-adv-x="1222" 
d="M750 0v-313h-277v313h-336v1018h299v-762h352v762h297v-1018h-335z" />
    <glyph glyph-name="uni0490" unicode="&#x490;" horiz-adv-x="1146" 
d="M174 0v1493h637v309h299v-602h-629v-1200h-307z" />
    <glyph glyph-name="uni0491" unicode="&#x491;" horiz-adv-x="935" 
d="M137 0v1018h486v319h276v-577h-463v-760h-299z" />
    <glyph glyph-name="uni0496" unicode="&#x496;" horiz-adv-x="2166" 
d="M2118 -313h-299v313h-82l-516 725h-9v-725h-309v725h-8l-516 -725h-381l561 768l-539 725h379l496 -700l8 2v698h309v-700h9l495 700h379l-539 -725l349 -475h213v-606z" />
    <glyph glyph-name="uni0497" unicode="&#x497;" horiz-adv-x="1792" 
d="M1731 -313h-277v313h-82l-342 494h-6v-494h-297v494h-6l-340 -494h-361l371 520l-362 498h352l340 -469h6v469h297v-469h6l342 469h350l-362 -498l186 -264h185v-569z" />
    <glyph glyph-name="uni0498" unicode="&#x498;" horiz-adv-x="1308" 
d="M793 -313h-299v313q-240 55 -361 248q-59 94 -72 215l312 49q8 -106 86 -176q72 -70 178 -72t183 58t77 163q0 61 -38 109q-72 90 -216 90q-74 0 -143 -31l-148 217l426 340h-672v283h1063v-289l-362 -289q180 -18 294 -140t113 -294q0 -223 -176 -366
q-100 -82 -245 -117v-311z" />
    <glyph glyph-name="uni0499" unicode="&#x499;" horiz-adv-x="1042" 
d="M653 -313h-276v307q-125 30 -207 110t-104 207l253 64q43 -152 191 -152q62 0 110 30t48 85t-43 82q-96 51 -226 -2l-90 168l269 182h-486v250h838v-225l-248 -166q106 -16 189 -84q83 -69 83 -219t-118 -246q-76 -61 -183 -84v-307z" />
    <glyph glyph-name="uni049A" unicode="&#x49a;" horiz-adv-x="1458" 
d="M1415 -313h-299v313h-98l-537 709v-709h-307v1493h307v-649l512 649h385l-569 -715l379 -485h227v-606z" />
    <glyph glyph-name="uni049B" unicode="&#x49b;" horiz-adv-x="1236" 
d="M1196 -313h-276l2 313h-105l-377 444h-6v-444h-297v1018h297v-436h6l375 436h361l-437 -496l234 -266h223v-569z" />
    <glyph glyph-name="uni04A2" unicode="&#x4a2;" horiz-adv-x="1658" 
d="M1571 -313h-299v313h-164v604h-627v-604h-307v1493h307v-590h627v590h307v-1200h156v-606z" />
    <glyph glyph-name="uni04A3" unicode="&#x4a3;" horiz-adv-x="1302" 
d="M1219 -313h-277l2 313h-151v387h-359v-387h-297v1018h297v-383h359v383h297v-762h129v-569z" />
    <glyph glyph-name="uni04AA" unicode="&#x4aa;" horiz-adv-x="1609" 
d="M1001 -313h-301v305q-262 51 -440 253t-178 500q0 158 63 310q134 286 418 403q147 57 295 58q242 0 412 -113q74 -43 135 -113q111 -121 147 -258l-292 -100q-10 47 -52 106q-125 178 -354 176q-129 0 -231 -63q-105 -61 -163 -169t-58 -234t56 -235q58 -109 164 -173
t241 -64q187 0 319 146q63 74 84 153l295 -102q-33 -135 -175 -287t-385 -194v-305z" />
    <glyph glyph-name="uni04AB" unicode="&#x4ab;" horiz-adv-x="1189" 
d="M760 -313h-277v305q-184 43 -296 182t-111 334q0 147 74 270q68 119 198 195q133 69 292 69t298 -88q147 -88 188 -260l-272 -82q-18 64 -78 110t-156 46q-97 0 -168 -71t-71 -187t70 -184q68 -74 165 -74t158 44t86 114l273 -82q-41 -135 -138 -217q-102 -90 -235 -117
v-307z" />
    <glyph glyph-name="uni04AC" unicode="&#x4ac;" horiz-adv-x="1290" 
d="M952 -313h-301v313h-166v1194h-446v299h1202v-299h-446v-901h157v-606z" />
    <glyph glyph-name="uni04AD" unicode="&#x4ad;" horiz-adv-x="1001" 
d="M774 -313h-276v313h-152v760h-307v258h913v-258h-307v-504h129v-569z" />
    <glyph glyph-name="uni04B2" unicode="&#x4b2;" horiz-adv-x="1490" 
d="M1442 -313h-301v313h-60l-364 537l-371 -537h-348l537 768l-506 725h360l332 -485l334 485h358l-510 -723l334 -477h205v-606z" />
    <glyph glyph-name="uni04B3" unicode="&#x4b3;" horiz-adv-x="1136" 
d="M1075 -313h-276v313h-58l-194 299l-197 -299h-330l367 512l-356 506h336l182 -287l188 287h328l-358 -498l186 -264h182v-569z" />
    <glyph glyph-name="uni04B6" unicode="&#x4b6;" horiz-adv-x="1533" 
d="M1446 -313h-299v313h-166v580q-213 -109 -387 -109q-236 0 -363 125q-131 123 -131 367v530h310v-440q0 -279 249 -279q95 0 181 26t141 68v625h309v-1200h156v-606z" />
    <glyph glyph-name="uni04B7" unicode="&#x4b7;" horiz-adv-x="1236" 
d="M1153 -313h-276v313h-150v348q-135 -68 -286 -68t-257 86t-104 255v397h299v-311q0 -170 145 -170q104 0 203 49v432h297v-762h129v-569z" />
    <glyph glyph-name="uni04C0" unicode="&#x4c0;" horiz-adv-x="657" 
d="M483 1493v-1493h-309v1493h309z" />
    <glyph glyph-name="uni04C1" unicode="&#x4c1;" horiz-adv-x="2115" 
d="M903 1493h309v-700h9l495 700h379l-539 -725l562 -768h-381l-516 725h-9v-725h-309v725h-8l-516 -725h-381l561 768l-539 725h379l496 -700l8 2v698zM1059 1632q-150 0 -248 94q-96 96 -121 256l174 31q52 -176 194 -176t195 176l172 -31q-25 -158 -118 -256
q-98 -94 -248 -94z" />
    <glyph glyph-name="uni04C2" unicode="&#x4c2;" horiz-adv-x="1751" 
d="M1024 549h6l342 469h350l-362 -498l371 -520h-359l-342 494h-6v-494h-297v494h-6l-340 -494h-361l371 520l-362 498h352l340 -469h6v469h297v-469zM877 1178q-150 0 -248 94q-96 94 -121 256l174 31q52 -177 194 -177t195 177l172 -31q-25 -158 -119 -256
q-97 -94 -247 -94z" />
    <glyph glyph-name="uni04CF" unicode="&#x4cf;" horiz-adv-x="573" 
d="M137 1018h299v-1018h-299v1018z" />
    <glyph glyph-name="uni04D0" unicode="&#x4d0;" horiz-adv-x="1509" 
d="M969 606l-217 588l-217 -588h434zM432 319l-119 -319h-315l571 1493h371l573 -1493h-319l-119 319h-643zM756 1632q-148 0 -248 94q-96 96 -121 256l174 31q53 -176 195 -176t196 176l172 -31q-27 -160 -120 -256q-100 -94 -248 -94z" />
    <glyph glyph-name="uni04D1" unicode="&#x4d1;" horiz-adv-x="1126" 
d="M504 197q92 0 147 57t56 139v25h-179q-55 0 -102 -31t-47 -83t35 -80t90 -27zM418 -20q-137 0 -238 83q-100 86 -100 222v8q0 199 205 270q109 41 243 41h99q80 0 80 70q0 55 -43 91t-114 36t-120 -37t-65 -102l-263 59q18 106 88 180q135 143 371 141q195 2 317 -106
t121 -305v-467q0 -70 9 -164h-277q-6 41 -6 127h-4q-106 -147 -303 -147zM559 1178q-150 0 -248 94q-96 94 -121 256l175 31q53 -177 194 -177t195 177l172 -31q-25 -158 -119 -256q-98 -94 -248 -94z" />
    <glyph glyph-name="uni04D2" unicode="&#x4d2;" horiz-adv-x="1509" 
d="M969 606l-217 588l-217 -588h434zM432 319l-119 -319h-315l571 1493h371l573 -1493h-319l-119 319h-643zM991 1614q-71 0 -117 48t-46 116t46 118q47 50 116 50t118 -50t49 -118t-48 -116t-118 -48zM684 1778q0 -68 -47 -116t-118 -48t-118 47t-47 118t47 117
q45 50 117 50t117 -50q49 -50 49 -118z" />
    <glyph glyph-name="uni04D3" unicode="&#x4d3;" horiz-adv-x="1126" 
d="M504 197q92 0 147 57t56 139v25h-179q-55 0 -102 -31t-47 -83t35 -80t90 -27zM418 -20q-137 0 -238 83q-100 86 -100 222v8q0 199 205 270q109 41 243 41h99q80 0 80 70q0 55 -43 91t-114 36t-120 -37t-65 -102l-263 59q18 106 88 180q135 143 371 141q195 2 317 -106
t121 -305v-467q0 -70 9 -164h-277q-6 41 -6 127h-4q-106 -147 -303 -147zM786 1178q-70 0 -116 49t-47 115q0 66 47 115q48 50 116 50t117 -49q49 -48 49 -116t-48 -116t-118 -48zM498 1342q0 -66 -47 -115t-118 -49t-118 49t-47 115t47 115q47 50 117 50t119 -49
q47 -50 47 -116z" />
    <glyph glyph-name="uni04D4" unicode="&#x4d4;" horiz-adv-x="2009" 
d="M930 584v622h-19l-313 -622h332zM1894 1493v-289h-659v-305h590v-289h-590v-321h666v-289h-971v297h-475l-148 -297h-332l758 1493h1161z" />
    <glyph glyph-name="uni04D5" unicode="&#x4d5;" horiz-adv-x="1810" 
d="M504 197q92 0 147 57t56 139v25h-179q-55 0 -102 -31t-47 -83t35 -80t90 -27zM999 625h439q-6 61 -58 118t-151 57q-100 0 -158 -57q-64 -59 -72 -118zM1247 -23q-260 0 -418 177q-162 -174 -401 -174h-10q-137 0 -238 83q-100 86 -100 222v8q0 199 205 270
q109 41 243 41h99q80 0 80 70q0 55 -43 91t-114 36t-120 -37t-65 -102l-263 59q18 106 88 180q135 143 362 142q226 -1 339 -123q147 122 354 122t350 -139q141 -141 142 -364q0 -68 -6 -113h-738q12 -88 83 -144q70 -56 150 -56t146 38q63 39 88 98l244 -83
q-49 -139 -174 -221t-283 -81z" />
    <glyph glyph-name="uni04D6" unicode="&#x4d6;" horiz-adv-x="1263" 
d="M174 1493h977v-289h-672v-305h602v-289h-602v-321h678v-289h-983v1493zM666 1632q-150 0 -248 94q-96 96 -121 256l174 31q53 -176 195 -176t194 176l174 -31q-27 -160 -121 -256q-97 -94 -247 -94z" />
    <glyph glyph-name="uni04D7" unicode="&#x4d7;" horiz-adv-x="1196" 
d="M385 625h438q-6 61 -57 118q-52 57 -152 57t-160 -58t-69 -117zM634 -23q-152 -1 -280 65q-127 66 -204 191q-76 127 -76 275t72 269q72 122 197 194q124 72 271 71q224 0 366 -141t142 -369q0 -69 -6 -106h-737q12 -88 83 -144q70 -56 150 -56t146 38q66 39 86 98
l246 -83q-48 -141 -176 -221t-280 -81zM620 1178q-148 0 -249 94q-96 96 -121 256l174 31q56 -177 196 -177t195 177l172 -31q-27 -164 -123 -257t-244 -93z" />
    <glyph glyph-name="uni04DC" unicode="&#x4dc;" horiz-adv-x="2115" 
d="M1294 1614q-70 0 -116 49t-48 116q0 67 48 117t116 50t117 -50t49 -118t-48 -116t-118 -48zM821 1614q-71 0 -117 48t-46 116t46 118t116 50t118 -50q49 -50 49 -118t-48 -116t-118 -48zM903 1493h309v-700h9l495 700h379l-539 -725l562 -768h-381l-516 725h-9v-725h-309
v725h-8l-516 -725h-381l561 768l-539 725h379l496 -700l8 2v698z" />
    <glyph glyph-name="uni04DD" unicode="&#x4dd;" horiz-adv-x="1751" 
d="M1024 549h6l342 469h350l-362 -498l371 -520h-359l-342 494h-6v-494h-297v494h-6l-340 -494h-361l371 520l-362 498h352l340 -469h6v469h297v-469zM1102 1507q70 0 118 -49q48 -48 48 -116t-47 -116t-118 -48t-118 49t-47 115t47 115q47 50 117 50zM648 1178
q-71 0 -118 48t-47 116t49 116q45 49 115 49t118 -48q48 -47 48 -117t-47 -117t-118 -47z" />
    <glyph glyph-name="uni04DE" unicode="&#x4de;" horiz-adv-x="1308" 
d="M897 485q0 61 -38 109q-72 90 -216 90q-74 0 -143 -31l-148 217l426 340h-672v283h1063v-289l-362 -289q180 -18 294 -140t113 -294q0 -223 -171 -361t-395 -138t-396 131t-191 350l312 49q8 -106 86 -176q72 -70 178 -72t183 58t77 163zM879 1614q-70 0 -117 47t-47 118
t47 117q45 50 115 50q71 0 119 -50t48 -118t-48 -116t-117 -48zM406 1614q-70 0 -117 47t-47 118t47 119t116 48t117 -50t49 -118t-47 -116t-118 -48z" />
    <glyph glyph-name="uni04DF" unicode="&#x4df;" horiz-adv-x="1042" 
d="M528 -20q-188 0 -312 84t-150 247l253 64q43 -152 191 -152q62 0 110 30t48 85t-43 82q-96 51 -226 -2l-90 168l269 182h-486v250h838v-225l-248 -166q106 -16 189 -84q83 -69 83 -219t-118 -247q-120 -97 -308 -97zM736 1178q-70 0 -116 47t-46 117t46 117q48 48 116 48
t117 -48q48 -47 48 -117t-47 -117t-118 -47zM282 1178q-70 0 -117 47q-46 47 -46 117t47 117q47 48 116 48q70 0 118 -49q48 -48 48 -116t-48 -116t-118 -48z" />
    <glyph glyph-name="uni04E2" unicode="&#x4e2;" horiz-adv-x="1640" 
d="M1167 1876v-221h-694v221h694zM479 1493v-1047l627 1047h360v-1493h-305v1055l-626 -1055h-361v1493h305z" />
    <glyph glyph-name="uni04E3" unicode="&#x4e3;" horiz-adv-x="1241" 
d="M137 0v1018h293v-592h2l375 592h297v-1018h-293v588h-2l-373 -588h-299zM967 1421v-223h-695v223h695z" />
    <glyph glyph-name="uni04E4" unicode="&#x4e4;" horiz-adv-x="1640" 
d="M479 1493v-1047l627 1047h360v-1493h-305v1055l-626 -1055h-361v1493h305zM1057 1614q-70 0 -118 48t-48 117t49 117q45 50 115 50t118 -48t48 -120q0 -70 -47 -117t-117 -47zM584 1614q-70 0 -117 47t-47 118t47 117q45 50 115 50t118 -48t48 -120q0 -70 -47 -117
t-117 -47z" />
    <glyph glyph-name="uni04E5" unicode="&#x4e5;" horiz-adv-x="1241" 
d="M137 0v1018h293v-592h2l375 592h297v-1018h-293v588h-2l-373 -588h-299zM1014 1342q0 -68 -48 -116t-119 -48t-117 47t-46 117t47 117q47 48 116 48t118 -49q49 -48 49 -116zM559 1342q0 -68 -48 -116t-119 -48t-117 49t-46 115t47 115q47 50 116 50t118 -49
q49 -48 49 -116z" />
    <glyph glyph-name="uni04E6" unicode="&#x4e6;" horiz-adv-x="1714" 
d="M858 1217q-126 -1 -232 -63t-166 -171t-60 -235t60 -234t165 -174q106 -64 234 -64q129 0 233 64t165 172q59 109 60 236q4 190 -133 330t-326 139zM82 745q0 155 61 301t166 246q101 100 249 162t307 62t299 -60t245 -160q103 -102 163 -244t60 -301t-62 -303
q-126 -292 -413 -409q-145 -61 -303 -62q-324 0 -548 222t-224 546zM1096 1614q-70 0 -117 48t-47 116t46 118t116 50t118 -50t50 -118q0 -68 -48 -116t-118 -48zM623 1614q-70 0 -117 48t-47 116t47 118t116 50q70 0 118 -50t48 -118t-48 -116t-117 -48z" />
    <glyph glyph-name="uni04E7" unicode="&#x4e7;" horiz-adv-x="1259" 
d="M379 510q0 -110 72 -186q74 -74 179 -74t178 72t73 188t-73 188t-178 72t-179 -74q-72 -76 -72 -186zM74 507q0 144 75 270t205 196q130 69 282 69q150 0 276 -68t200 -190t74 -272t-75 -274t-202 -192q-127 -69 -279 -69t-282 68q-126 72 -200 195t-74 267zM858 1178
q-70 0 -117 49t-47 115t46 115q46 50 116 50t119 -49q49 -48 49 -116t-48 -116t-118 -48zM569 1342q0 -66 -47 -115t-118 -49q-72 0 -118 49t-46 115t47 115q47 50 117 50t118 -49q47 -50 47 -116z" />
    <glyph glyph-name="uni04E8" unicode="&#x4e8;" horiz-adv-x="1714" 
d="M1309 616h-901q37 -154 163 -249q125 -101 287 -101t289 103q129 100 162 247zM408 883h901q-37 147 -164 244t-288 97t-287 -98t-162 -243zM82 745q0 155 61 301t166 246q101 100 249 162t307 62t299 -60t245 -160q103 -102 163 -244t60 -301t-62 -303
q-126 -292 -413 -409q-145 -61 -303 -62q-324 0 -548 222t-224 546z" />
    <glyph glyph-name="uni04E9" unicode="&#x4e9;" horiz-adv-x="1259" 
d="M632 229q88 1 158 49t97 132h-512q25 -86 96 -134q72 -47 161 -47zM373 604h516q-25 86 -95 136t-164 50q-92 0 -162 -50t-95 -136zM74 507q0 144 75 270t205 196q130 69 282 69q150 0 276 -68t200 -190t74 -272t-75 -274t-202 -192q-127 -69 -279 -69t-282 68
q-126 72 -200 195t-74 267z" />
    <glyph glyph-name="uni04EA" unicode="&#x4ea;" horiz-adv-x="1714" 
d="M1309 616h-901q37 -154 163 -249q125 -101 287 -101t289 103q129 100 162 247zM408 883h901q-37 147 -164 244t-288 97t-287 -98t-162 -243zM82 745q0 155 61 301t166 246q101 100 249 162t307 62t299 -60t245 -160q103 -102 163 -244t60 -301t-62 -303
q-126 -292 -413 -409q-145 -61 -303 -62q-324 0 -548 222t-224 546zM1096 1614q-70 0 -117 48t-47 116t46 118t116 50t118 -50t50 -118q0 -68 -48 -116t-118 -48zM623 1614q-70 0 -117 48t-47 116t47 118t116 50q70 0 118 -50t48 -118t-48 -116t-117 -48z" />
    <glyph glyph-name="uni04EB" unicode="&#x4eb;" horiz-adv-x="1259" 
d="M632 229q88 1 158 49t97 132h-512q25 -86 96 -134q72 -47 161 -47zM373 604h516q-25 86 -95 136t-164 50q-92 0 -162 -50t-95 -136zM74 507q0 144 75 270t205 196q130 69 282 69q150 0 276 -68t200 -190t74 -272t-75 -274t-202 -192q-127 -69 -279 -69t-282 68
q-126 72 -200 195t-74 267zM858 1178q-70 0 -117 49t-47 115t46 115q46 50 116 50t119 -49q49 -48 49 -116t-48 -116t-118 -48zM569 1342q0 -66 -47 -115t-118 -49q-72 0 -118 49t-46 115t47 115q47 50 117 50t118 -49q47 -50 47 -116z" />
    <glyph glyph-name="uni04EC" unicode="&#x4ec;" horiz-adv-x="1617" 
d="M762 1516q226 0 400 -98q172 -98 272 -271q100 -175 100 -373q0 -376 -223 -581q-219 -215 -549 -216q-233 0 -416 121q-70 47 -141 119q-119 131 -148 252l287 100q28 -96 136 -195q108 -100 282 -100t291 98t155 244h-598v277h592q-43 141 -158 235q-119 90 -274 91
q-211 0 -334 -138q-68 -74 -84 -139l-286 94q25 96 102 196q78 99 194 173q174 111 400 111zM1014 1614q-70 0 -117 47t-47 118t47 117q45 50 115 50t118 -48t48 -120q0 -70 -47 -117t-117 -47zM541 1614q-70 0 -117 47t-47 118t47 119t116 48q70 0 118 -50t48 -118
t-47 -116q-48 -48 -118 -48z" />
    <glyph glyph-name="uni04ED" unicode="&#x4ed;" horiz-adv-x="1187" 
d="M565 -23q-180 -1 -319 89t-189 258l262 79q29 -69 94 -113t153 -44t149 44q59 44 84 122h-332v204h332q-27 74 -87 116t-146 42t-152 -45q-65 -45 -88 -108l-263 77q29 113 111 192q158 152 393 153t394 -153q158 -155 153 -378q0 -225 -154 -380t-395 -155zM958 1342
q0 -66 -47 -115t-117 -49t-118 49q-47 49 -47 115t46 115q46 50 117 50t119 -49q47 -50 47 -116zM339 1178q-71 0 -118 48t-47 116t48 116q48 49 117 49t117 -48q48 -47 48 -117t-47 -117t-118 -47z" />
    <glyph glyph-name="uni04EE" unicode="&#x4ee;" horiz-adv-x="1390" 
d="M1063 1876v-221h-694v221h694zM131 0v289h182q184 0 240 117l-547 1087h338l379 -766l356 766h334l-530 -1063q-96 -197 -166 -276q-41 -41 -68 -62q-109 -86 -303 -92h-215z" />
    <glyph glyph-name="uni04EF" unicode="&#x4ef;" horiz-adv-x="1165" 
d="M453 109l-428 909h327l254 -582l228 582h307l-619 -1520h-317zM932 1421v-223h-694v223h694z" />
    <glyph glyph-name="uni04F0" unicode="&#x4f0;" horiz-adv-x="1390" 
d="M131 0v289h182q184 0 240 117l-547 1087h338l379 -766l356 766h334l-530 -1063q-96 -197 -166 -276q-41 -41 -68 -62q-109 -86 -303 -92h-215zM955 1614q-71 0 -117 48t-47 117q0 69 49 117q44 50 114 50t118 -48t48 -120q0 -70 -47 -117t-118 -47zM483 1614
q-69 0 -117 48t-48 117t48 117t116 50q68 0 117 -48q48 -48 48 -120q0 -70 -47 -117t-117 -47z" />
    <glyph glyph-name="uni04F1" unicode="&#x4f1;" horiz-adv-x="1165" 
d="M453 109l-428 909h327l254 -582l228 582h307l-619 -1520h-317zM812 1178q-71 0 -118 48t-47 116t49 116q45 49 115 49t118 -48q48 -47 48 -117t-47 -117t-118 -47zM357 1178q-71 0 -117 47t-45 117q0 70 46 117q45 48 115 48t118 -48q48 -47 48 -117t-47 -117t-118 -47z
" />
    <glyph glyph-name="uni04F2" unicode="&#x4f2;" horiz-adv-x="1390" 
d="M131 0v289h182q184 0 240 117l-547 1087h338l379 -766l356 766h334l-530 -1063q-96 -197 -166 -276q-41 -41 -68 -62q-109 -86 -303 -92h-215zM1004 1982h331l-301 -358h-235zM582 1982h331l-301 -358h-235z" />
    <glyph glyph-name="uni04F3" unicode="&#x4f3;" horiz-adv-x="1165" 
d="M453 109l-428 909h327l254 -582l228 582h307l-619 -1520h-317zM870 1544h334l-303 -356h-235zM451 1544h331l-301 -356h-235z" />
    <glyph glyph-name="uni04F4" unicode="&#x4f4;" horiz-adv-x="1464" 
d="M981 0v580q-213 -109 -387 -109q-236 0 -363 125q-131 123 -131 367v530h310v-440q0 -279 249 -279q95 0 181 26t141 68v625h309v-1493h-309zM932 1614q-70 0 -117 47t-47 118t47 117q45 50 115 50t118 -48t48 -120q0 -70 -47 -117t-117 -47zM459 1614q-70 0 -117 47
t-47 118t47 119t116 48q70 0 118 -50t48 -118t-47 -116q-48 -48 -118 -48z" />
    <glyph glyph-name="uni04F5" unicode="&#x4f5;" horiz-adv-x="1161" 
d="M727 0v348q-135 -68 -286 -68t-257 86t-104 255v397h299v-311q0 -170 145 -170q104 0 203 49v432h297v-1018h-297zM778 1178q-70 0 -116 49t-48 115q0 66 48 115q48 50 116 50t117 -49q49 -48 49 -116t-48 -116t-118 -48zM324 1507q70 0 118 -49q48 -48 47 -116
q0 -68 -47 -116q-48 -48 -118 -48t-117 49t-47 115t47 115q47 50 117 50z" />
    <glyph glyph-name="uni04F8" unicode="&#x4f8;" horiz-adv-x="2058" 
d="M1260 1614q-70 0 -117 48t-47 116t46 118t116 50t118 -50t49 -118t-47 -116t-118 -48zM786 1614q-70 0 -116 48t-47 116q0 68 47 118q48 50 116 50t117 -50t49 -118t-48 -116t-118 -48zM481 293h322q129 0 178 54q49 53 49 119t-39 120q-51 61 -192 61h-318v-354z
M1575 1493h309v-1493h-309v1493zM481 930h340q225 0 350 -99q53 -43 97 -104q70 -111 69 -254q2 -107 -42 -205t-132 -166q-133 -102 -360 -102h-629v1493h307v-563z" />
    <glyph glyph-name="uni04F9" unicode="&#x4f9;" horiz-adv-x="1720" 
d="M434 236h205q156 0 156 131q0 123 -156 122h-205v-253zM1284 1018h299v-1018h-299v1018zM137 1018h297v-305h232q198 0 314 -90q116 -91 116 -261t-110 -266t-304 -96h-545v1018zM1086 1178q-72 0 -118 48t-46 116t49 116q45 49 115 49t117 -48q48 -47 48 -117t-47 -117
t-118 -47zM799 1342q0 -68 -48 -116t-119 -48t-117 47t-46 117t46 117q46 48 116 48t119 -49q49 -48 49 -116z" />
    <glyph glyph-name="uni0E3F" unicode="&#xe3f;" horiz-adv-x="1425" 
d="M793 285h10q96 0 164 39q67 39 67 133t-80 131q-66 33 -161 33v-336zM641 285v336h-164v-336h164zM969 1051q0 143 -176 157v-319q176 19 176 162zM641 885v323h-166v-323h166zM803 0h-8v-195h-158v195h-463v1493h463v207h158v-207q195 0 335 -102t140 -302t-209 -311v-2
q141 -53 208 -136t67 -210t-46 -210q-79 -145 -292 -197q-91 -23 -195 -23z" />
    <glyph glyph-name="uni1E20" unicode="&#x1e20;" horiz-adv-x="1636" 
d="M1567 803v-117q0 -272 -146 -450q-70 -86 -157 -142q-174 -117 -406 -117q-170 0 -315 62q-145 57 -246 164q-215 221 -215 542q0 209 105 389t283 280q178 101 390 102q274 0 448 -136t224 -319l-301 -92q-25 100 -126 176t-237 76q-136 1 -242 -61q-104 -62 -166 -171
t-62 -241t58 -240q58 -109 165 -172q106 -66 244 -66t247 70q102 70 131 182h-455v281h779zM1208 1858v-222h-694v222h694z" />
    <glyph glyph-name="uni1E21" unicode="&#x1e21;" horiz-adv-x="1300" 
d="M872 514q0 114 -70 184t-175 70q-106 0 -177 -71t-71 -183t71 -184t175 -72q103 0 175 72t72 184zM532 1034q219 0 332 -139h4v123h293v-967q1 -279 -155 -420t-390 -141t-372 115q-137 109 -162 252l274 80q16 -79 74 -133t168 -54t188 68t78 200v117h-4
q-104 -135 -293 -135q-141 0 -254 67t-175 185t-62 262q0 199 131 356q61 76 153 120t172 44zM981 1421v-223h-694v223h694z" />
    <glyph glyph-name="uni1E30" unicode="&#x1e30;" horiz-adv-x="1406" 
d="M483 0h-309v1493h309v-649l512 649h387l-571 -715l608 -778h-399l-537 709v-709zM829 1987h342l-301 -357h-243z" />
    <glyph glyph-name="uni1E31" unicode="&#x1e31;" horiz-adv-x="1179" 
d="M786 1544h342l-301 -356h-243zM434 481v-481h-297v1554h297v-936l354 400h379l-409 -469l420 -549h-375l-361 481h-8z" />
    <glyph glyph-name="uni1E60" unicode="&#x1e60;" horiz-adv-x="1302" 
d="M668 -23q-258 0 -412 123q-152 125 -188 340l290 68q18 -121 107 -186q84 -66 203 -66t177 48t58 112t-46 106q-46 43 -124 58l-211 43q-180 33 -288 147t-109 281q0 199 156 333q158 132 389 132t372 -125q127 -121 150 -273l-281 -82q-20 94 -87 148t-167 55
q-100 0 -162 -49t-63 -115q0 -125 154 -155l209 -39q205 -37 311 -156q111 -119 111 -290q1 -171 -145 -315t-404 -143zM477 1796q0 76 53 129t127 53t131 -53q54 -57 54 -130t-54 -127t-131 -54q-76 0 -127 55q-53 51 -53 127z" />
    <glyph glyph-name="uni1E61" unicode="&#x1e61;" horiz-adv-x="987" 
d="M907 306q0 -126 -105 -228q-104 -102 -286 -101q-255 0 -375 156q-63 74 -69 158l262 55q6 -57 51 -96q43 -43 105 -43q62 1 96 27q33 26 32 61q0 66 -100 88l-127 29q-145 34 -220 110t-75 187q0 141 113 235q111 98 276 98q223 0 336 -139q61 -74 72 -153l-258 -56
q-10 57 -49 89q-40 32 -94 32q-54 -1 -86 -25t-31 -61q0 -57 80 -74l141 -30q150 -29 230 -111t81 -208zM488 1178q-77 0 -129 52t-52 129t52 129t129 52t130 -53q54 -53 54 -129t-56 -127q-51 -53 -128 -53z" />
    <glyph glyph-name="Wgrave" unicode="&#x1e80;" horiz-adv-x="2271" 
d="M807 0h-334l-436 1493h330l284 -1061l322 1061h327l324 -1069l295 1069h317l-442 -1493h-334l-323 1083h-4zM1059 1987l203 -357h-244l-301 357h342z" />
    <glyph glyph-name="wgrave" unicode="&#x1e81;" horiz-adv-x="1701" 
d="M1180 381l192 637h297l-317 -1018h-295l-207 649l-211 -649h-289l-315 1018h303l184 -631h2l191 631h274zM975 1188h-244l-301 356h342z" />
    <glyph glyph-name="Wacute" unicode="&#x1e82;" horiz-adv-x="2271" 
d="M807 0h-334l-436 1493h330l284 -1061l322 1061h327l324 -1069l295 1069h317l-442 -1493h-334l-323 1083h-4zM1223 1987h342l-303 -357h-244z" />
    <glyph glyph-name="wacute" unicode="&#x1e83;" horiz-adv-x="1701" 
d="M1180 381l192 637h297l-317 -1018h-295l-207 649l-211 -649h-289l-315 1018h303l184 -631h2l191 631h274zM930 1544h342l-301 -356h-244z" />
    <glyph glyph-name="Wdieresis" unicode="&#x1e84;" horiz-adv-x="2271" 
d="M807 0h-334l-436 1493h330l284 -1061l322 1061h327l324 -1069l295 1069h317l-442 -1493h-334l-323 1083h-4zM1372 1614q-70 0 -117 48t-47 116t47 118t116 50t118 -50t49 -118t-48 -116t-118 -48zM899 1614q-70 0 -117 48t-47 116t46 118t116 50t119 -50t49 -118
t-48 -116t-118 -48z" />
    <glyph glyph-name="wdieresis" unicode="&#x1e85;" horiz-adv-x="1701" 
d="M1180 381l192 637h297l-317 -1018h-295l-207 649l-211 -649h-289l-315 1018h303l184 -631h2l191 631h274zM1245 1342q0 -68 -48 -116t-119 -48q-70 0 -116 49t-46 115t46 115q46 50 116 50t118 -49q49 -48 49 -116zM624 1178q-70 0 -116 49q-47 49 -47 115t46 115
q46 50 116 50q71 0 119 -49q48 -48 48 -116t-48 -116t-118 -48z" />
    <glyph glyph-name="uni1E90" unicode="&#x1e90;" horiz-adv-x="1306" 
d="M111 1493h1095v-266l-741 -940h756l2 -287h-1147v272l745 936h-710v285zM649 1802l-114 -174h-254l229 332h278l232 -332h-252z" />
    <glyph glyph-name="uni1E91" unicode="&#x1e91;" horiz-adv-x="1030" 
d="M942 254v-254h-860v231l475 533h-461v254h844v-227l-481 -537h483zM512 1364l-115 -174h-254l230 332h278l230 -332h-252z" />
    <glyph glyph-name="uni1EBC" unicode="&#x1ebc;" horiz-adv-x="1263" 
d="M174 1493h977v-289h-672v-305h602v-289h-602v-321h678v-289h-983v1493zM825 1628q-98 0 -169 45t-117 45q-55 0 -60 -90h-174l-2 49q-4 113 51 180t164 66q56 2 152 -44t121 -44q47 6 57 39q6 16 10 45h168l2 -47q4 -112 -50 -178t-153 -66z" />
    <glyph glyph-name="uni1EBD" unicode="&#x1ebd;" horiz-adv-x="1196" 
d="M385 625h438q-6 61 -57 118q-52 57 -152 57t-160 -58t-69 -117zM634 -23q-152 -1 -280 65q-127 66 -204 191q-76 127 -76 275t72 269q72 122 197 194q124 72 271 71q224 0 366 -141t142 -369q0 -69 -6 -106h-737q12 -88 83 -144q70 -56 150 -56t146 38q66 39 86 98
l246 -83q-48 -141 -176 -221t-280 -81zM777 1190q-93 0 -169 45t-123 45q-53 0 -59 -88h-174l-2 47q-4 113 51 179t164 67q55 2 151 -44t123 -45t45 19q11 17 21 68h168l2 -49q6 -111 -49 -178q-56 -66 -149 -66z" />
    <glyph glyph-name="Ygrave" unicode="&#x1ef2;" horiz-adv-x="1454" 
d="M573 0v590l-546 903h356l344 -598l350 598h353l-547 -889v-604h-310zM662 1987l204 -357h-243l-304 357h343z" />
    <glyph glyph-name="ygrave" unicode="&#x1ef3;" horiz-adv-x="1165" 
d="M453 109l-428 909h327l254 -582l228 582h307l-619 -1520h-317zM723 1188h-244l-301 356h342z" />
    <glyph glyph-name="uni2000" unicode="&#x2000;" horiz-adv-x="1130" 
 />
    <glyph glyph-name="uni2001" unicode="&#x2001;" horiz-adv-x="2260" 
 />
    <glyph glyph-name="uni2002" unicode="&#x2002;" horiz-adv-x="1130" 
 />
    <glyph glyph-name="uni2003" unicode="&#x2003;" horiz-adv-x="2260" 
 />
    <glyph glyph-name="uni2004" unicode="&#x2004;" horiz-adv-x="753" 
 />
    <glyph glyph-name="uni2005" unicode="&#x2005;" horiz-adv-x="565" 
 />
    <glyph glyph-name="uni2006" unicode="&#x2006;" horiz-adv-x="376" 
 />
    <glyph glyph-name="uni2007" unicode="&#x2007;" horiz-adv-x="376" 
 />
    <glyph glyph-name="uni2008" unicode="&#x2008;" horiz-adv-x="282" 
 />
    <glyph glyph-name="uni2009" unicode="&#x2009;" horiz-adv-x="450" 
 />
    <glyph glyph-name="uni200A" unicode="&#x200a;" horiz-adv-x="124" 
 />
    <glyph glyph-name="uni2010" unicode="&#x2010;" horiz-adv-x="874" 
d="M123 471v295h629v-295h-629z" />
    <glyph glyph-name="uni2011" unicode="&#x2011;" horiz-adv-x="874" 
d="M123 471v295h629v-295h-629z" />
    <glyph glyph-name="figuredash" unicode="&#x2012;" horiz-adv-x="874" 
d="M123 471v295h629v-295h-629z" />
    <glyph glyph-name="endash" unicode="&#x2013;" horiz-adv-x="1177" 
d="M1055 762v-287h-932v287h932z" />
    <glyph glyph-name="emdash" unicode="&#x2014;" horiz-adv-x="1908" 
d="M1786 762v-287h-1663v287h1663z" />
    <glyph glyph-name="quoteleft" unicode="&#x2018;" horiz-adv-x="595" 
d="M88 1047q0 184 101 308t280 152v-141q-166 -53 -201 -211q31 6 60 6q78 0 125 -52t47 -132t-60 -128t-149 -48q-88 0 -148 69q-55 73 -55 177z" />
    <glyph glyph-name="quoteright" unicode="&#x2019;" horiz-adv-x="600" 
d="M520 1260q0 -184 -102 -312q-106 -125 -281 -151v141q168 55 201 213q-41 -8 -57 -8q-76 0 -125 51q-50 51 -50 131t60 129t149 49t147 -67t58 -176z" />
    <glyph glyph-name="quotesinglbase" unicode="&#x201a;" horiz-adv-x="612" 
d="M510 100q0 -184 -100 -308t-281 -152v141q168 53 199 211q-27 -6 -58 -6q-74 0 -123 52t-49 132t60 128t149 48q87 0 145 -70t58 -176z" />
    <glyph glyph-name="quotedblleft" unicode="&#x201c;" horiz-adv-x="1118" 
d="M608 1047q0 184 102 308t281 152v-141q-166 -53 -200 -211q29 6 57 6q76 0 125 -52t49 -131t-59 -128q-66 -49 -152 -49t-145 69q-58 71 -58 177zM88 1047q0 184 101 308t280 152v-141q-166 -53 -201 -211q31 6 60 6q78 0 125 -52t47 -132t-60 -128t-149 -48
q-88 0 -148 69q-55 73 -55 177z" />
    <glyph glyph-name="quotedblright" unicode="&#x201d;" horiz-adv-x="1120" 
d="M1040 1260q0 -184 -102 -310t-279 -153v141q168 55 201 213q-41 -8 -59 -8q-74 0 -123 51t-49 132t58 129t149 48t147 -69q57 -65 57 -174zM520 1260q0 -184 -102 -312q-106 -125 -281 -151v141q168 55 201 213q-41 -8 -57 -8q-76 0 -125 51q-50 51 -50 131t60 129
t149 49t147 -67t58 -176z" />
    <glyph glyph-name="quotedblbase" unicode="&#x201e;" horiz-adv-x="1134" 
d="M1032 100q0 -184 -102 -309t-281 -151v141q166 53 201 211q-31 -6 -57 -6q-76 0 -125 52q-50 52 -50 131t60 128q61 49 149 49q89 0 147 -70t58 -176zM510 100q0 -184 -100 -308t-281 -152v141q168 53 199 211q-27 -6 -58 -6q-74 0 -123 52t-49 132t60 128t149 48
q87 0 145 -70t58 -176z" />
    <glyph glyph-name="dagger" unicode="&#x2020;" horiz-adv-x="1335" 
d="M516 0v778h-358v273h358v362h303v-362h359v-273h-359v-778h-303z" />
    <glyph glyph-name="daggerdbl" unicode="&#x2021;" horiz-adv-x="1335" 
d="M516 -393v393h-403v272h403v476h-403v270h403v393h303v-393h406v-270h-406v-476h406v-272h-406v-393h-303z" />
    <glyph glyph-name="bullet" unicode="&#x2022;" horiz-adv-x="919" 
d="M460 1032q136 0 233 -100t97 -238t-96 -234q-98 -98 -235 -98t-233 98t-97 234q0 137 96 238q99 100 235 100z" />
    <glyph glyph-name="ellipsis" unicode="&#x2026;" horiz-adv-x="1910" 
d="M1611 -23q-85 1 -147 61t-61 145q0 85 61 147q62 59 146 59t147 -59q59 -64 59 -148t-60 -144t-145 -61zM1161 182q-1 -84 -61 -144t-145 -61q-85 1 -146 61t-61 145t61 147q63 59 146 59t147 -59q59 -64 59 -148zM508 182q0 -84 -60 -144t-148 -61q-87 0 -144 62
q-61 59 -62 143q0 84 60 148q63 59 147 59t148 -59q59 -64 59 -148z" />
    <glyph glyph-name="uni202F" unicode="&#x202f;" horiz-adv-x="450" 
 />
    <glyph glyph-name="perthousand" unicode="&#x2030;" horiz-adv-x="2422" 
d="M2021 446q-45 0 -84 -34q-33 -33 -33 -83t36 -84q34 -34 80 -34t85 35q35 35 35 83t-35 83q-39 34 -84 34zM2021 -8q-137 0 -239 98q-98 98 -98 238t98 239t239 99t239 -98t99 -239q0 -140 -98 -239q-103 -98 -240 -98zM1409 329q0 49 -35 83t-83 34t-83 -34
q-34 -34 -34 -82q0 -49 34 -84t83 -35q48 0 83 35t35 83zM1291 -8q-140 0 -239 98q-100 98 -100 238t101 239q96 99 238 99q141 0 239 -98t98 -239q0 -140 -98 -239q-99 -98 -239 -98zM405 1288q-50 0 -84 -34t-34 -81t35 -86q35 -33 84 -33q48 0 82 34t34 83t-35 82
q-32 35 -82 35zM229 0l973 1493h258l-971 -1493h-260zM68 1171q0 139 98 239t238 99q140 0 239 -99q98 -98 98 -238t-98 -239t-238 -99t-239 98q-98 100 -98 239z" />
    <glyph glyph-name="guilsinglleft" unicode="&#x2039;" horiz-adv-x="759" 
d="M500 1014l159 -158l-284 -281l287 -282l-164 -158l-445 438z" />
    <glyph glyph-name="guilsinglright" unicode="&#x203a;" horiz-adv-x="757" 
d="M98 856l162 158l445 -441l-445 -438l-162 158l285 280z" />
    <glyph glyph-name="uni203D" unicode="&#x203d;" horiz-adv-x="1126" 
d="M559 -20q-78 0 -131 54t-53 130t54 130t129 54t130 -53t55 -131t-53 -131t-131 -53zM762 1051q0 96 -55 149t-151 53t-161 -55q-63 -57 -69 -147l-263 28q2 131 74 235q139 200 416 202q186 0 334 -108t147 -298q0 -141 -63 -248q-53 -80 -117 -139t-87 -82
q-68 -71 -71 -127l-4 -47h-266l-20 596h280l-4 -174h4q33 27 54 73q22 46 22 89z" />
    <glyph glyph-name="uni2042" unicode="&#x2042;" horiz-adv-x="1753" 
d="M1229 672h184v-242l225 72l56 -166l-224 -74l138 -190l-144 -105l-141 193l-141 -193l-142 105l138 190l-226 74l58 166l219 -72v242zM338 672h182v-242l223 72l58 -166l-223 -74l137 -190l-144 -105l-141 193l-141 -193l-142 105l138 190l-226 74l56 166l223 -72v242z
M784 1493h183v-242l223 74l57 -168l-223 -72l137 -192l-143 -105l-141 193l-142 -193l-141 105l137 192l-225 72l57 168l221 -74v242z" />
    <glyph glyph-name="fraction" unicode="&#x2044;" horiz-adv-x="1236" 
d="M4 0l973 1493h258l-971 -1493h-260z" />
    <glyph glyph-name="uni2051" unicode="&#x2051;" horiz-adv-x="927" 
d="M373 672h182v-242l223 72l58 -166l-226 -74l138 -190l-142 -105l-143 193l-139 -193l-144 105l137 190l-225 74l58 166l223 -72v242zM373 1493h182v-242l223 74l58 -168l-226 -72l138 -192l-142 -105l-143 193l-139 -193l-144 105l137 192l-225 72l58 168l223 -74v242z
" />
    <glyph glyph-name="uni205F" unicode="&#x205f;" horiz-adv-x="565" 
 />
    <glyph glyph-name="lira" unicode="&#x20a4;" horiz-adv-x="1351" 
d="M891 1020q-33 194 -172 194q-78 0 -129 -45q-49 -47 -49 -109t16 -110h348v-164h-284q27 -63 38 -114h246v-162h-243q-25 -131 -119 -211h284q92 6 125 82q19 47 29 104l301 -26q-24 -207 -128 -333t-312 -126h-725v268q93 46 155 104t74 138h-221v162h203
q-25 74 -41 114h-162v164h106q-12 53 -12 105q0 133 70 235q63 102 177 158t243 57q207 0 340 -114q131 -117 149 -322z" />
    <glyph glyph-name="uni20A9" unicode="&#x20a9;" horiz-adv-x="2398" 
d="M2290 989v-196h-199l-33 -113h232v-199h-289l-143 -481h-334l-326 1083h-2l-326 -1083h-333l-142 481h-284v199h227l-33 113h-194v196h137l-148 504h330l285 -1061l319 1061h330l324 -1069l294 1069h318l-150 -504h140z" />
    <glyph glyph-name="dong" unicode="&#x20ab;" horiz-adv-x="1374" 
d="M1208 -133v-256h-1065v256h1065zM877 510q0 110 -71 184q-72 74 -180 74t-180 -73t-71 -187t73 -186t178 -72t179 74q72 76 72 186zM563 1038q190 0 303 -137h4v279h-286v202h286v172h297v-172h117v-202h-117v-1180h-290v129h-5q-100 -149 -315 -149t-350 160t-135 364
q0 205 135 366q63 78 157 123t199 45z" />
    <glyph glyph-name="Euro" unicode="&#x20ac;" horiz-adv-x="1771" 
d="M76 502v190h149q-2 22 -2 58t2 57h-149v192h188q80 231 282 373t446 144q244 0 415 -111q80 -51 137 -115q111 -115 148 -256l-293 -102q-29 119 -158 211q-105 71 -237 71q-261 -1 -396 -215h520l-61 -192h-524q-2 -18 -2 -57t2 -58h493l-61 -190h-369q58 -102 160 -160
t227 -59q178 0 293 104q94 88 121 186l293 -100q-31 -131 -141 -252q-61 -68 -140 -119q-176 -120 -428 -120q-253 0 -455 141t-276 379h-184z" />
    <glyph glyph-name="uni20AE" unicode="&#x20ae;" horiz-adv-x="1370" 
d="M848 0h-305v289l-361 -121v201l361 123v126l-361 -120v200l361 121v375h-449v299h1204v-299h-450v-272l360 122v-202l-360 -121v-127l360 121v-203l-360 -121v-391z" />
    <glyph glyph-name="uni20B1" unicode="&#x20b1;" horiz-adv-x="1546" 
d="M561 811h232q170 0 221 115h-453v-115zM561 1090h453q-43 115 -223 114h-230v-114zM1483 922h-150q-31 -193 -177 -296t-361 -100h-234v-526h-309v922h-160v172h160v399h553q209 5 356 -103t172 -296h150v-172z" />
    <glyph glyph-name="uni20B4" unicode="&#x20b4;" horiz-adv-x="1441" 
d="M483 418q-1 -78 63 -123t181 -45q221 0 346 158l236 -177q-123 -149 -263 -201t-329 -53q-262 0 -404 136q-133 123 -133 303q0 47 8 86h-92v196h1243l-2 -196h-829q-25 -37 -25 -84zM96 1016h819q19 25 19 81t-64 102t-150 46q-186 0 -278 -129l-235 172q74 106 211 168
q141 59 284 60q219 4 372 -124t151 -321q0 -18 -4 -55h116v-197h-1241v197z" />
    <glyph glyph-name="uni20B8" unicode="&#x20b8;" horiz-adv-x="1382" 
d="M537 0v784h-447v295h1202v-295h-446v-784h-309zM1292 1198h-1202v295h1202v-295z" />
    <glyph glyph-name="uni20B9" unicode="&#x20b9;" horiz-adv-x="1234" 
d="M1157 1227h-270q51 -61 65 -127h205v-176h-201q-41 -238 -270 -330l305 -594h-340l-266 537h-279v282h343q141 0 188 105h-531v176h535q-43 102 -195 102h-340v291h1051v-266z" />
    <glyph glyph-name="uni20BA" unicode="&#x20ba;" horiz-adv-x="1415" 
d="M573 0h-249v504l-211 -94v211l211 94v131l-211 -94v211l211 94v436h307v-299l444 201v-211l-444 -201v-131l444 201v-211l-444 -199v-358q240 5 327 107t99 278l293 -31q-8 -313 -204 -476t-573 -163z" />
    <glyph glyph-name="uni20BD" unicode="&#x20bd;" horiz-adv-x="1425" 
d="M598 813h221q100 0 173 49q73 48 73 148t-72 146t-176 46h-219v-389zM598 414h336v-189h-336v-225h-309v225h-176v189h176v112h-176v279h176v688h536q233 0 379 -121q156 -126 156 -364t-153 -360t-394 -122h-215v-112z" />
    <glyph glyph-name="uni2113" unicode="&#x2113;" horiz-adv-x="911" 
d="M541 1190q-70 0 -70 -103v-299q139 135 139 316q1 86 -69 86zM471 432q0 -111 42 -159t133 -48t167 31v-231q-86 -43 -199 -43q-180 0 -286 102t-113 285q-74 -25 -149 -37v246q74 16 149 49v448q0 150 86 254q86 98 239 98q152 0 236 -92t84 -225t-57 -258
q-111 -225 -332 -369v-51z" />
    <glyph glyph-name="uni2116" unicode="&#x2116;" horiz-adv-x="2551" 
d="M1704 414h731v-230h-731v230zM2202 937q0 56 -41 95q-43 39 -93 39t-91 -39q-42 -39 -42 -96t39 -96q35 -41 92 -41t99 41q37 41 37 97zM2069 567q-161 0 -269 109q-108 108 -108 260t107 259t268 107t270 -108t109 -260t-108 -260t-269 -107zM481 0h-307v1493h361
l641 -1010v1010h305v-1493h-351l-649 1026v-1026z" />
    <glyph glyph-name="trademark" unicode="&#x2122;" horiz-adv-x="2027" 
d="M1102 1202v-569h-199v860h289l199 -543l188 543h299v-860h-203v575h-6l-209 -575h-139l-213 569h-6zM315 633v672h-243v188h694v-188h-244v-672h-207z" />
    <glyph glyph-name="estimated" unicode="&#x212e;" horiz-adv-x="1642" 
d="M1251 862v377q-75 78 -191 120t-229 42q-242 0 -411 -160v-379h831zM836 -23q-346 -1 -544 225t-198 550t205 542q94 100 233 162q143 60 331 60t358 -102t261 -272q91 -171 91 -380v-17h-1153v-483q78 -78 190 -123t226 -45q391 0 548 318l101 -56q-76 -174 -250 -276
t-399 -103z" />
    <glyph glyph-name="uni2153" unicode="&#x2153;" horiz-adv-x="2136" 
d="M2032 270q0 -131 -103 -211q-100 -82 -242 -82q-143 0 -239 77t-102 214l217 33q1 -55 33 -90t85 -35t88 26t35 70t-36 67q-64 43 -148 9l-96 152l213 166h-379v194h663v-178l-198 -154q93 -24 151 -98t58 -160zM1669 1493l-971 -1493h-258l973 1493h256zM78 629v67
q0 123 88 228q53 61 133 108l119 66q96 55 96 127q0 37 -28 61t-78 25q-50 0 -78 -34q-29 -34 -29 -95l-219 32q6 127 96 216q92 86 236 86t236 -84q93 -84 93 -205q0 -82 -46 -156t-130 -121l-141 -82q-39 -23 -57 -41h379v-198h-670z" />
    <glyph glyph-name="uni2154" unicode="&#x2154;" horiz-adv-x="1986" 
d="M1884 270q0 -131 -101 -212t-243 -81t-240 77q-96 77 -102 214l215 33q2 -55 35 -90t85 -35t88 26t36 70t-36 67t-77 23t-71 -14l-97 152l213 166h-381v194h666v-178l-199 -154q90 -25 150 -96q59 -76 59 -162zM1522 1493l-969 -1493h-260l971 1493h258zM606 627h-252
v610l-198 -113l-99 181l328 188h221v-866z" />
    <glyph glyph-name="oneeighth" unicode="&#x215b;" horiz-adv-x="1927" 
d="M1495 170q55 0 95 27t40 67t-40 67t-94 27t-95 -28t-41 -68q0 -41 41 -63q39 -29 94 -29zM1380 608q0 -34 33 -60t80 -26t82 26t35 60t-33 61q-33 26 -82 26t-82 -26t-33 -61zM1495 -20q-131 0 -247 66t-115 203q0 138 141 195q-119 61 -119 185q0 125 114 191
q232 135 449 5q117 -73 117 -195t-119 -186q142 -55 142 -194q0 -138 -116 -204t-247 -66zM1530 1493l-971 -1493h-260l973 1493h258zM608 629h-252v608l-200 -113l-99 181l328 188h223v-864z" />
    <glyph glyph-name="threeeighths" unicode="&#x215c;" horiz-adv-x="2007" 
d="M1575 170q55 0 95 27t40 67t-40 67t-94 27t-95 -28t-41 -68q0 -39 41 -63q39 -29 94 -29zM1458 608q0 -34 36 -60t81 -26t80 26t36 60t-32 62q-37 25 -84 25t-82 -26t-35 -61zM1937 250q1 -138 -115 -204t-248 -66t-246 64t-114 203q0 138 140 197q-119 61 -119 182
t108 191q109 70 231 70t232 -66q110 -67 109 -191q0 -124 -119 -186q141 -55 141 -194zM1608 1493l-971 -1493h-258l973 1493h256zM762 903q0 -133 -102 -213t-246 -80q-143 0 -236 78q-96 76 -102 213l217 33q0 -55 33 -90t86 -35t88 26q35 27 35 69t-36 66q-60 40 -149 11
l-96 152l213 163h-379v197h664v-180l-199 -154q88 -20 149 -94q60 -76 60 -162z" />
    <glyph glyph-name="fiveeighths" unicode="&#x215d;" horiz-adv-x="1986" 
d="M1553 170q55 0 95 27t40 67t-40 67t-94 27t-96 -28q-41 -28 -41 -68q0 -39 41 -63q41 -29 95 -29zM1552 522q45 0 80 26t36 60t-32 62q-37 25 -84 25t-82 -25q-32 -27 -32 -62q0 -34 34 -60t80 -26zM1190 252q0 68 41 119q45 51 100 73q-119 61 -119 182t109 191t229 70
t232 -67q110 -66 110 -190t-118 -186q141 -55 141 -194q0 -138 -116 -204t-247 -66q-241 4 -327 147q-35 57 -35 125zM1587 1493l-971 -1493h-258l973 1493h256zM401 809q51 0 86 32t35 82q0 49 -34 79t-100 30t-101 -59l-191 59l111 461h510v-197h-359l-30 -125
q57 35 137 35q129 0 205 -80q78 -76 79 -206t-105 -222t-238 -88q-188 0 -285 129q-49 59 -55 152l213 41q16 -123 122 -123z" />
    <glyph glyph-name="seveneighths" unicode="&#x215e;" horiz-adv-x="1818" 
d="M1251 263q0 -37 40 -65t95 -28q56 0 96 28t40 66t-39 66q-41 28 -95 28t-96 -28q-41 -28 -41 -67zM1270 608q0 -34 36 -60t80 -26t81 26q36 26 36 60t-35 61q-36 26 -82 26t-81 -26t-35 -61zM1024 248q0 139 141 196q-119 61 -119 182t109 191t229 70t232 -66
q110 -65 110 -189t-118 -188q141 -55 141 -190t-111 -205q-111 -69 -248 -69t-243 61q-123 68 -123 207zM76 1292v201h678v-201l-363 -663h-262l367 663h-420zM1419 1493l-968 -1493h-261l971 1493h258z" />
    <glyph glyph-name="arrowleft" unicode="&#x2190;" horiz-adv-x="1265" 
d="M1198 838v-287h-717q78 -76 173 -180t122 -131l-182 -172l-557 604v43l557 606l180 -174q-223 -240 -293 -309h717z" />
    <glyph glyph-name="arrowup" unicode="&#x2191;" horiz-adv-x="1265" 
d="M776 113h-287v716q-206 -201 -313 -292l-170 182l604 557h43l607 -557l-175 -180q-223 205 -309 290v-716z" />
    <glyph glyph-name="arrowright" unicode="&#x2192;" horiz-adv-x="1265" 
d="M66 551v287h716q-145 150 -290 309l180 174l557 -606v-43l-557 -604l-183 172q33 33 76 84q108 115 217 227h-716z" />
    <glyph glyph-name="arrowdown" unicode="&#x2193;" horiz-adv-x="1265" 
d="M489 1276h287v-715q98 99 171 165t91 84t30 28t19 16l173 -182l-605 -559h-43l-606 559l172 180q188 -172 311 -291v715z" />
    <glyph glyph-name="uni2196" unicode="&#x2196;" horiz-adv-x="1265" 
d="M446 676q0 -295 -14 -428l-248 8l31 821l31 31l823 35l6 -250q-272 -12 -428 -12l508 -508l-203 -203z" />
    <glyph glyph-name="uni2197" unicode="&#x2197;" horiz-adv-x="1265" 
d="M831 248l-4 112q-8 109 -8 316l-508 -506l-200 203l505 508q-152 0 -426 12l5 250l823 -35l31 -31l32 -821z" />
    <glyph glyph-name="uni2198" unicode="&#x2198;" horiz-adv-x="1265" 
d="M195 170l-5 250q313 12 424 12l-505 508l202 203l508 -508q0 152 5 260t5 168l252 -8l-32 -819l-31 -31z" />
    <glyph glyph-name="uni2199" unicode="&#x2199;" horiz-adv-x="1265" 
d="M434 1063l10 -268q2 -51 2 -160l506 508l205 -203l-508 -508q117 0 426 -12l-6 -250l-823 35l-29 31l-33 819z" />
    <glyph glyph-name="uni21A9" unicode="&#x21a9;" horiz-adv-x="2150" 
d="M1393 545q162 0 265 93t103 242q0 150 -102 240t-273 90h-372v283h391q295 0 479 -176t184 -440q0 -263 -182 -441t-481 -178h-903q80 -80 215 -227q22 -28 78 -84l-183 -172l-557 604v43l557 606l181 -174q-146 -159 -291 -309h891z" />
    <glyph glyph-name="uni21B0" unicode="&#x21b0;" horiz-adv-x="1638" 
d="M1227 0v565q0 141 -91 217t-255 76h-379q61 -61 293 -311l-181 -172l-559 606v43l559 604l183 -172q-25 -26 -59 -64q-164 -178 -236 -247h391q299 -1 470 -147t171 -408v-590h-307z" />
    <glyph glyph-name="uni21B1" unicode="&#x21b1;" horiz-adv-x="1638" 
d="M106 0v590q0 262 170 408t469 147h392q-113 113 -173 181t-87 96q-27 26 -33 34l182 172l557 -604v-43l-557 -606l-180 172q4 9 24 29t50 52q28 32 44 48t25 27t25 27t29 32q13 14 47 47q33 33 47 49h-379q-164 0 -254 -76t-90 -217v-565h-308z" />
    <glyph glyph-name="uni21B2" unicode="&#x21b2;" horiz-adv-x="1638" 
d="M1534 1493v-588q0 -262 -170 -409q-176 -147 -471 -148h-391q82 -78 184 -190t111 -121l-183 -170l-559 604v41l559 606l181 -172q-250 -268 -293 -311h379q164 0 255 76t91 217v565h307z" />
    <glyph glyph-name="uni21B3" unicode="&#x21b3;" horiz-adv-x="1638" 
d="M412 1493v-565q0 -141 91 -217t255 -76h379q-133 137 -151 159t-43 46t-59 62t-40 44l180 172l559 -606v-41l-559 -604l-182 170q8 8 131 141t164 170h-392q-297 0 -469 148t-172 409v588h308z" />
    <glyph glyph-name="uni21B4" unicode="&#x21b4;" horiz-adv-x="1761" 
d="M78 1495h590q262 0 408 -171t147 -470v-391q111 111 178 171t85 78t32 27q12 10 18 17l170 -183l-604 -557h-43l-606 557l174 181q207 -186 309 -291v379q0 164 -76 255t-215 91h-567v307z" />
    <glyph glyph-name="partialdiff" unicode="&#x2202;" horiz-adv-x="1296" 
d="M653 686q-113 0 -188 -53q-74 -55 -74 -153t67 -158q68 -62 158 -62t154 46q121 88 121 284q-49 44 -117 70t-121 26zM604 -18q-150 0 -268 59t-189 172q-69 113 -69 256t72 254t186 168t264 57t279 -80q-23 160 -112 264t-241 105q-59 0 -140 -24t-138 -60l-115 250
q84 55 201 82q113 31 209 31q394 0 565 -353q98 -199 98 -489t-150 -492q-151 -200 -452 -200z" />
    <glyph glyph-name="uni2206" unicode="&#x2206;" horiz-adv-x="1632" 
d="M1147 287l-334 897l-332 -897h666zM1001 1493l572 -1493h-1514l572 1493h370z" />
    <glyph glyph-name="product" unicode="&#x220f;" horiz-adv-x="1525" 
d="M911 0v1210h-297v-1210h-307v1210h-235v283h1382v-283h-237v-1210h-306z" />
    <glyph glyph-name="summation" unicode="&#x2211;" horiz-adv-x="1284" 
d="M121 1493h1057v-283h-652l478 -446l-494 -481h668v-283h-1082v279l494 485l-469 450v279z" />
    <glyph glyph-name="minus" unicode="&#x2212;" horiz-adv-x="1206" 
d="M129 836h948v-277h-948v277z" />
    <glyph glyph-name="radical" unicode="&#x221a;" horiz-adv-x="1503" 
d="M31 1186h475l285 -836l456 1477h244l-563 -1827h-279l-352 948h-266v238z" />
    <glyph glyph-name="infinity" unicode="&#x221e;" horiz-adv-x="1929" 
d="M1579 620q0 74 -50 126q-51 52 -113 53q-62 0 -132 -39q-37 -27 -59 -45l-99 -94q18 -18 39 -37q27 -31 37 -39t54 -45t92 -49q23 -10 53 -11q72 0 125 54q53 52 53 126zM350 623q0 -72 53 -127t133 -56t195 105q25 20 57 57l15 12q-8 11 -64 69t-112 87q-57 28 -115 28
t-110 -51q-52 -52 -52 -124zM1407 199q-127 0 -248 84q-79 59 -107 85t-89 83q-92 -88 -158 -144q-143 -106 -293 -108h-12q-180 -1 -293 121t-113 300t122 300t304 122q142 0 291 -114q78 -62 156 -140q111 106 163 148q144 106 312 107t282 -123t113 -302
q-2 -178 -124 -298t-306 -121z" />
    <glyph glyph-name="integral" unicode="&#x222b;" horiz-adv-x="862" 
d="M829 1516v-277q-96 0 -153 -20q-39 -18 -51 -37q-43 -51 -43 -156v-1065q0 -252 -113 -359t-348 -108h-90v277q155 0 201 51q47 51 47 162v1065q-1 258 117 362t345 105h88z" />
    <glyph glyph-name="uni2236" unicode="&#x2236;" horiz-adv-x="669" 
d="M335 143q-85 -1 -145 61t-61 145q0 83 59 147q62 61 148 61t145 -61q61 -58 61 -144t-60 -148q-62 -62 -147 -61zM334 797q-84 0 -144 60t-61 144q0 83 60 145q61 62 147 62t146 -60t60 -146t-61 -146q-63 -59 -147 -59z" />
    <glyph glyph-name="approxequal" unicode="&#x2248;" horiz-adv-x="1249" 
d="M825 242q-55 0 -112 24q-59 20 -105 53q-61 37 -103 58t-81 20q-72 0 -145 -98l-158 150q117 203 303 202q120 0 236 -80q48 -33 88 -49q45 -25 77 -24q74 0 146 96l159 -150q-119 -202 -305 -202zM825 741q-92 0 -217 78q-53 35 -96 53q-49 25 -88 25q-72 0 -145 -96
l-158 149q117 203 303 203q116 0 233 -78q116 -78 168 -78q76 1 146 99l159 -150q-119 -205 -305 -205z" />
    <glyph glyph-name="notequal" unicode="&#x2260;" horiz-adv-x="1208" 
d="M1087 573v-276h-573l-162 -311l-188 100l112 211h-155v276h301l131 246h-432v275h573l156 292l190 -94l-106 -198h153v-275h-296l-129 -246h425z" />
    <glyph glyph-name="lessequal" unicode="&#x2264;" horiz-adv-x="1257" 
d="M119 264h997v-264h-997v264zM1112 1341v-280l-647 -203v-6l647 -207v-283l-993 363v258z" />
    <glyph glyph-name="greaterequal" unicode="&#x2265;" horiz-adv-x="1257" 
d="M141 264h998v-264h-998v264zM791 850v4l-646 205v282l994 -358v-258l-994 -363v281z" />
    <glyph glyph-name="filledbox" unicode="&#x25a0;" horiz-adv-x="1730" 
d="M1544 0h-1351v1356h1351v-1356z" />
    <glyph glyph-name="uni25A1" unicode="&#x25a1;" horiz-adv-x="1730" 
d="M399 201h932v954h-932v-954zM1544 1356v-1356h-1351v1356h1351z" />
    <glyph glyph-name="triagup" unicode="&#x25b2;" horiz-adv-x="1597" 
d="M803 1393l794 -1393h-1597z" />
    <glyph glyph-name="uni25B3" unicode="&#x25b3;" horiz-adv-x="1597" 
d="M1235 203l-436 766l-439 -766h875zM1593 0h-1587l793 1384z" />
    <glyph glyph-name="lozenge" unicode="&#x25ca;" horiz-adv-x="1404" 
d="M696 307l318 441l-318 440l-315 -440zM4 748l537 745h315l535 -745l-535 -748h-317z" />
    <glyph glyph-name="circle" unicode="&#x25cb;" horiz-adv-x="1550" 
d="M276 680q0 -141 67 -255q67 -113 183 -181t250 -68q201 -4 349 148t145 356q4 204 -144 356t-350 148q-135 0 -251 -68q-117 -68 -183 -182t-66 -254zM775 -27q-146 0 -273 58q-135 57 -226 149q-96 92 -151 224t-55 276q0 292 206 500q92 96 224 151t274 55t274 -55
t228 -153q203 -207 205 -498q0 -145 -56 -274q-109 -260 -373 -376q-132 -58 -277 -57z" />
    <glyph glyph-name="uni25CF" unicode="&#x25cf;" horiz-adv-x="1550" 
d="M70 679q0 286 204 501q206 206 500 206t499 -205t208 -501q1 -145 -55 -276q-56 -130 -151 -224t-224 -150t-277 -56t-274 57q-264 111 -375 375q-55 129 -55 273z" />
    <glyph glyph-name="uni25FC" unicode="&#x25fc;" horiz-adv-x="1019" 
d="M0 0v1020h1020v-1020h-1020z" />
    <glyph glyph-name="uni2605" unicode="&#x2605;" horiz-adv-x="1597" 
d="M1552 844l-467 -338l179 -547l-465 338l-467 -334l180 543l-465 338h574l178 549l178 -549h575z" />
    <glyph glyph-name="uni2611" unicode="&#x2611;" horiz-adv-x="1822" 
d="M1335 197v673l-391 -673h391zM395 1157v-960h525l-514 622l167 146l332 -406l344 598h-854zM1544 0h-1351v1356h1169l246 432l190 -115l-254 -440v-1233z" />
    <glyph glyph-name="uni2612" unicode="&#x2612;" horiz-adv-x="1730" 
d="M573 231l-147 148l295 297l-295 295l147 145l293 -291l291 291l146 -145l-289 -295l289 -289l-146 -149l-291 290zM395 1157v-960h940v960h-940zM193 1356h1351v-1356h-1351v1356z" />
    <glyph glyph-name="uni2639" unicode="&#x2639;" horiz-adv-x="1550" 
d="M775 680q140 0 249 -96q107 -90 125 -240h-148q-12 92 -77 141q-68 55 -148 55t-150 -54t-79 -142h-148q14 143 125 242q111 94 251 94zM821 864q0 53 37 91t89 38t89 -38t37 -91t-37 -86q-37 -39 -89 -39t-89 39q-37 33 -37 86zM602 993q51 0 89 -38t38 -91t-37 -86
q-39 -39 -90 -39t-90 39q-37 33 -37 86t38 91t89 38zM776 1217q-143 0 -268 -72q-121 -74 -193 -195q-71 -120 -71 -270t71 -268q68 -123 193 -196t268 -73t266 73t192 195t69 269t-71 269t-192 195t-264 73zM775 -27q-146 0 -273 58q-135 57 -226 149q-96 92 -151 224
t-55 276q0 292 206 500q92 96 224 151t274 55t274 -55t228 -153q203 -207 205 -498q0 -145 -56 -274q-109 -260 -373 -376q-132 -58 -277 -57z" />
    <glyph glyph-name="smileface" unicode="&#x263a;" horiz-adv-x="1550" 
d="M774 297q-144 0 -252 95q-109 95 -123 241h148q8 -89 77 -143q68 -54 150 -54t148 54t79 143h148q-19 -147 -125 -241t-250 -95zM821 864q0 53 37 91t89 38t89 -38t37 -91t-37 -86q-37 -39 -89 -39t-89 39q-37 33 -37 86zM602 993q51 0 89 -38t38 -91t-37 -86
q-39 -39 -90 -39t-90 39q-37 33 -37 86t38 91t89 38zM776 1217q-143 0 -268 -72q-121 -74 -193 -195q-71 -120 -71 -270t71 -268q68 -123 193 -196t268 -73t266 73t192 195t69 269t-71 269t-192 195t-264 73zM775 -27q-146 0 -273 58q-135 57 -226 149q-96 92 -151 224
t-55 276q0 292 206 500q92 96 224 151t274 55t274 -55t228 -153q203 -207 205 -498q0 -145 -56 -274q-109 -260 -373 -376q-132 -58 -277 -57z" />
    <glyph glyph-name="invsmileface" unicode="&#x263b;" horiz-adv-x="1550" 
d="M774 297q144 1 250 95q107 94 125 241h-148q-13 -90 -79 -143q-66 -54 -148 -54t-150 54t-77 143h-148q15 -145 123 -241t252 -95zM1073 864q0 53 -37 91t-89 38t-89 -38t-37 -91t37 -86q37 -39 89 -39t89 39q37 33 37 86zM729 864q0 53 -38 91t-89 38t-89 -38t-38 -91
t37 -86q39 -39 90 -39t90 39q37 33 37 86zM775 -27q-146 0 -273 58q-135 57 -226 149q-96 92 -151 224t-55 276q0 292 206 500q92 96 224 151t274 55t274 -55t228 -153q203 -207 205 -498q0 -145 -56 -274q-109 -260 -373 -376q-132 -58 -277 -57z" />
    <glyph glyph-name="heart" unicode="&#x2665;" horiz-adv-x="1660" 
d="M440 1352q115 0 205 -54t135 -149q46 98 138 150t208 53q182 0 306 -127t122 -310q0 -389 -571 -811q-94 -63 -205 -131q-170 102 -300 207t-204 185q-274 284 -268 550q0 181 125 309t309 128z" />
    <glyph glyph-name="uni2713" unicode="&#x2713;" horiz-adv-x="1796" 
d="M184 731l410 -444l989 1077l154 -152l-1149 -1243l-559 615z" />
    <glyph glyph-name="uni2715" unicode="&#x2715;" horiz-adv-x="1439" 
d="M186 -8l-149 151l530 533l-530 530l151 150l529 -527l524 527l150 -150l-525 -530l537 -533l-152 -151l-534 532z" />
    <glyph glyph-name="uni2E18" unicode="&#x2e18;" horiz-adv-x="1103" 
d="M350 -33q0 -94 56 -148q56 -55 151 -55q94 0 160 56q63 57 69 147l263 -28q-2 -131 -72 -233q-140 -202 -418 -204q-184 0 -333 109t-148 297q0 142 57 234t124 153t89 83q67 69 70 126l2 47h266l21 -594h-281l4 174h-4q-32 -27 -54 -74t-22 -90zM369 857q0 77 55 130
t130 53t129 -54t54 -129t-53 -132q-55 -55 -130 -55t-130 55t-55 132z" />
    <glyph glyph-name="zero.slash" unicode="&#xe008;" horiz-adv-x="1464" 
d="M733 274q172 0 256 166q76 143 76 286t-37 247l-448 -656q67 -43 153 -43zM718 1221q-98 0 -176 -79q-140 -141 -141 -392q0 -111 35 -220l445 650q-65 41 -163 41zM739 1516q246 0 408 -154q225 -219 225 -606q2 -180 -59 -345t-174 -274q-164 -160 -412 -160
q-187 3 -323 91t-211 239q-100 188 -101 441q0 343 181 556q182 212 466 212z" />
    <glyph glyph-name="uniE09D" unicode="&#xe09d;" horiz-adv-x="1609" 
d="M1274 766v-391q0 -131 143 -131q41 0 105 8v-242q-74 -25 -176 -24q-369 0 -369 372v408h-434v-766h-297v766h-195v252h195v100q-4 248 164 372q94 69 212 69t193 -23v-244q-31 10 -92 11q-180 0 -180 -168v-117h438v319h293v-319h252v-252h-252z" />
    <glyph glyph-name="at.case" unicode="&#xf633;" horiz-adv-x="1650" 
d="M801 573q66 0 118 65t52 134t-35 106q-36 37 -102 37t-117 -63q-55 -59 -51 -141q0 -53 34 -95t101 -43zM1184 365q-68 1 -128 31t-85 79q-41 -51 -105 -82t-138 -31t-142 50q-74 49 -112 122t-38 154q-4 174 111 306t278 130q55 0 105 -28t71 -76l19 96h219l-80 -475
q-10 -104 60 -104q78 0 149 94q70 98 70 231q0 219 -156 367t-408 147q-170 0 -317 -86t-234 -236t-87 -317q0 -256 166 -435t460 -179q94 0 209 38t189 95l75 -115q-74 -67 -217 -113t-256 -46q-219 0 -401 100q-172 100 -273 274q-96 174 -96 358t64 326q58 138 166 244
t250 168t320 61t340 -83q163 -82 257 -232q92 -152 92 -358q-1 -206 -119 -340q-118 -135 -278 -135z" />
    <glyph glyph-name="dollar.lowercase" unicode="&#xf653;" horiz-adv-x="991" 
d="M903 318q0 -114 -74 -205q-76 -90 -215 -119v-189h-245v193q-135 33 -209 122t-82 173l260 55q2 -53 48 -95t108 -42t93 27q32 27 31 59q0 63 -98 86l-127 29q-291 68 -291 295q0 111 75 197t192 118v192h245v-190q86 -23 148 -72q115 -82 129 -204l-256 -56
q-25 119 -146 119q-47 0 -79 -25t-31 -59q0 -55 78 -74l141 -28q147 -33 226 -113t79 -194z" />
    <glyph glyph-name="uniF730" unicode="&#xf730;" horiz-adv-x="1259" 
d="M385 510q0 -115 70 -190q70 -74 174 -74t176 73q68 74 67 191q0 116 -70 190t-174 74q-105 0 -174 -74t-69 -190zM82 508q0 148 75 272t201 193t277 69q153 0 275 -68t194 -191q72 -122 72 -271q0 -229 -159 -382t-390 -153q-152 0 -277 68q-124 72 -196 191
q-72 124 -72 272z" />
    <glyph glyph-name="uniF731" unicode="&#xf731;" horiz-adv-x="827" 
d="M672 1018v-1018h-299v717l-234 -133l-116 213l387 221h262z" />
    <glyph glyph-name="uniF732" unicode="&#xf732;" horiz-adv-x="978" 
d="M88 0v80q0 100 55 199q59 111 207 194l139 80q113 66 113 147q0 45 -32 75t-91 30t-93 -41t-36 -113l-256 39q6 152 112 252t278 100q170 0 278 -96t108 -241q0 -97 -54 -183t-152 -143l-166 -96q-47 -29 -68 -47h447v-236h-789z" />
    <glyph glyph-name="uniF733" unicode="&#xf733;" horiz-adv-x="993" 
d="M895 323q0 -105 -57 -183q-117 -162 -346 -160q-168 0 -283 90q-113 92 -119 249l254 41q0 -66 40 -106t100 -41q60 0 102 30t43 82q0 53 -42 79t-90 26t-83 -16l-115 180l252 194h-449v230h783v-211l-234 -182q106 -25 175 -111t69 -191z" />
    <glyph glyph-name="uniF734" unicode="&#xf734;" horiz-adv-x="1089" 
d="M584 418v330l-277 -330h277zM584 0v184h-514v289l448 545h326v-600h168v-234h-168v-184h-260z" />
    <glyph glyph-name="uniF735" unicode="&#xf735;" horiz-adv-x="964" 
d="M471 -20q-159 0 -275 89t-124 242l250 45q20 -143 145 -143q61 0 101 39t40 96t-38 92t-116 35t-122 -67l-223 67l129 543h600v-230h-422l-35 -149q66 41 162 41q147 0 239 -94t92 -240q0 -100 -57 -190q-55 -82 -147 -129t-199 -47z" />
    <glyph glyph-name="uniF736" unicode="&#xf736;" horiz-adv-x="1009" 
d="M506 471q-64 0 -106 -35t-42 -92t45 -98q49 -39 103 -39t101 40q46 40 46 99t-42 92t-105 33zM510 -23q-212 -1 -318 139t-106 362t138 394q138 170 382 170q154 0 283 -61l-74 -219q-103 51 -201 51t-174 -61q-74 -66 -92 -162q91 100 240 99q148 -1 242 -97t94 -222
t-58 -216q-61 -90 -151 -131q-90 -46 -205 -46z" />
    <glyph glyph-name="uniF737" unicode="&#xf737;" horiz-adv-x="927" 
d="M68 782v236h798v-236l-428 -782h-309l434 782h-495z" />
    <glyph glyph-name="uniF738" unicode="&#xf738;" horiz-adv-x="1024" 
d="M354 312q0 -46 46 -76t112 -31q66 0 113 31q45 30 45 76t-45 79q-47 31 -113 31t-113 -31q-45 -33 -45 -79zM375 717q0 -41 40 -71t96 -30t97 29q39 31 39 72t-39 71q-41 29 -96 29q-55 1 -96 -29t-41 -71zM88 286q0 96 47 154q51 57 117 82q-139 72 -139 218t139 229
q129 73 267 73t265 -80t127 -222t-141 -216q74 -27 120 -85t46 -138q0 -168 -141 -250q-131 -72 -283 -71q-234 0 -356 134q-68 76 -68 172z" />
    <glyph glyph-name="uniF739" unicode="&#xf739;" horiz-adv-x="1005" 
d="M352 676q0 -57 42 -93t101 -36q58 0 105 37q45 37 45 96t-43 96t-101 37t-104 -39q-45 -41 -45 -98zM500 1042q205 0 312 -141q108 -141 108 -365t-130 -390t-374 -166q-172 0 -289 57l74 219q98 -47 198 -47t172 59t95 166q-39 -49 -106 -74t-126 -24q-156 0 -250 94
q-98 92 -98 224t57 218t151 128t206 42z" />
    <glyph glyph-name="uniF8FF" unicode="&#xf8ff;" horiz-adv-x="3053" 
d="M1710 510q0 112 -73 185t-181 73t-176 -72q-74 -72 -74 -186t73 -188q73 -72 178 -72t179 74t74 186zM532 1018h250v-258h-250v-385q0 -131 144 -131q41 0 104 8v-242q-74 -25 -176 -24q-369 0 -368 372v402h-199v258h203v319h292v-319zM1700 901v651h297v-1552h-287v129
h-4q-102 -149 -318 -149t-350 158t-135 368q0 209 139 371q139 161 341 161t315 -137h2zM2906 766h-264v-766h-297v766h-195v252h195v100q0 168 87 297q44 66 125 105t183 39t174 -23v-244q-29 10 -90 11q-182 0 -182 -168v-117h264v-252z" />
    <glyph glyph-name="_1" horiz-adv-x="0" 
 />
    <glyph glyph-name="Aring.alt" horiz-adv-x="1509" 
d="M969 606l-217 588l-217 -588h434zM432 319l-119 -319h-315l571 1493h371l573 -1493h-319l-119 319h-643zM874 1868q0 45 -36 80q-36 34 -88 34q-51 0 -86 -32t-35 -80q0 -47 34 -83t88 -36t89 33q34 39 34 84zM1047 1865q0 -118 -85 -199t-209 -81t-210 82t-86 200
q0 117 90 199t206 82t208 -82q86 -83 86 -201z" />
    <glyph glyph-name="Ccedilla.alt" horiz-adv-x="1609" 
d="M782 -510q-160 0 -256 113l95 125q85 -80 161 -80t76 53q0 23 -21 37q-22 14 -54 14t-54 -8l-74 104l93 138q-282 34 -474 242t-192 517q0 158 63 310q134 286 418 403q147 57 295 58q242 0 412 -113q74 -43 135 -113q111 -121 147 -258l-292 -100q-10 47 -52 106
q-125 178 -354 176q-129 0 -231 -63q-105 -61 -163 -169t-58 -234t56 -235q58 -109 164 -173t241 -64q187 0 319 146q64 73 84 153l295 -102q-27 -117 -127 -235q-187 -225 -502 -256l-74 -107q88 -4 143 -52t55 -135t-73 -143q-78 -55 -201 -55z" />
    <glyph glyph-name="OE.alt" horiz-adv-x="2138" 
d="M1067 1200h-149q-228 0 -372 -118t-144 -330t142 -336q142 -123 378 -123h145v907zM1372 899h584v-289h-584v-321h660v-289h-1098q-392 0 -620 205t-228 547t225 542t617 199h1097v-289h-653v-305z" />
    <glyph glyph-name="Q.alt" horiz-adv-x="1716" 
d="M846 297q124 0 227 62q104 62 166 171q59 109 59 234q0 124 -60 228t-166 165t-226 61t-225 -60q-105 -62 -165 -168t-60 -228q0 -123 60 -232q62 -109 162 -172q104 -61 228 -61zM1710 0h-848q-160 0 -308 59q-287 114 -411 402q-61 141 -61 299t61 297t163 239t242 160
t302 60t300 -58q284 -120 400 -395q59 -137 60 -297q0 -330 -275 -494v-4h375v-268z" />
    <glyph glyph-name="O.slash" horiz-adv-x="1714" 
d="M858 276q186 -4 326 138t135 334q0 141 -72 256l-590 -682q97 -46 201 -46zM858 1217q-186 3 -326 -139t-137 -330q0 -139 74 -256l588 682q-97 43 -199 43zM864 1516q158 0 298 -60t245 -160q101 -102 163 -243t62 -301t-62 -304q-123 -286 -413 -409q-147 -59 -307 -59
t-299 58t-245 162t-164 245q-60 140 -60 298q0 157 61 303t166 246q101 100 249 162t306 62z" />
    <glyph glyph-name="a.alt" horiz-adv-x="1306" 
d="M881 510q0 110 -72 184t-179 74t-180 -73t-73 -185t74 -186q70 -74 177 -74t181 74q72 76 72 186zM874 119h-4q-98 -139 -312 -139t-348 158t-134 364q0 204 137 370t341 166t316 -137h4v117h295v-1018h-295v119z" />
    <glyph glyph-name="aacute.alt" horiz-adv-x="1306" 
d="M881 510q0 110 -72 184t-179 74t-180 -73t-73 -185t74 -186q70 -74 177 -74t181 74q72 76 72 186zM874 1018h295v-1018h-295v119h-4q-98 -139 -312 -139t-348 158t-134 364q0 204 137 370t341 166t316 -137h4v117zM666 1544h340l-301 -356h-244z" />
    <glyph glyph-name="abreve.alt" horiz-adv-x="1306" 
d="M881 510q0 110 -72 184t-179 74t-180 -73t-73 -185t74 -186q70 -74 177 -74t181 74q72 76 72 186zM874 901v117h295v-1018h-295v119h-4q-98 -139 -312 -139t-348 158t-134 364q0 204 137 370t341 166t316 -137h4zM624 1182q-146 0 -248 95t-116 245h223q23 -137 140 -138
q57 0 94 37t47 101h223q-17 -154 -117 -247t-246 -93z" />
    <glyph glyph-name="acaron.alt" horiz-adv-x="1306" 
d="M881 510q0 110 -72 184t-179 74t-180 -73t-73 -185t74 -186q70 -74 177 -74t181 74q72 76 72 186zM874 119h-4q-98 -139 -312 -139t-348 158t-134 364q0 204 137 370t341 166t316 -137h4v117h295v-1018h-295v119zM266 1522h256l115 -174l117 174h252l-230 -332h-278z" />
    <glyph glyph-name="acircumflex.alt" horiz-adv-x="1306" 
d="M881 510q0 110 -72 184t-179 74t-180 -73t-73 -185t74 -186q70 -74 177 -74t181 74q72 76 72 186zM874 119h-4q-98 -139 -312 -139t-348 158t-134 364q0 204 137 370t341 166t316 -137h4v117h295v-1018h-295v119zM655 1364l-114 -174h-254l229 332h279l229 -332h-252z
" />
    <glyph glyph-name="adieresis.alt" horiz-adv-x="1306" 
d="M881 510q0 110 -72 184t-179 74t-180 -73t-73 -185t74 -186q70 -74 177 -74t181 74q72 76 72 186zM874 901v117h295v-1018h-295v119h-4q-98 -139 -312 -139t-348 158t-134 364q0 204 137 370t341 166t316 -137h4zM860 1178q-70 0 -117 49t-47 115t47 115q47 50 116 50
t118 -49q49 -48 49 -116t-48 -116t-118 -48zM406 1507q70 0 118 -49q48 -48 47 -116q0 -68 -47 -116q-48 -48 -118 -48t-117 49t-47 115t47 115q47 50 117 50z" />
    <glyph glyph-name="agrave.alt" horiz-adv-x="1306" 
d="M881 510q0 110 -72 184t-179 74t-180 -73t-73 -185t74 -186q70 -74 177 -74t181 74q72 76 72 186zM874 119h-4q-98 -139 -312 -139t-348 158t-134 364q0 204 137 370t341 166t316 -137h4v117h295v-1018h-295v119zM772 1188h-244l-301 356h342z" />
    <glyph glyph-name="amacron.alt" horiz-adv-x="1306" 
d="M881 510q0 110 -72 184t-179 74t-180 -73t-73 -185t74 -186q70 -74 177 -74t181 74q72 76 72 186zM874 901v117h295v-1018h-295v119h-4q-98 -139 -312 -139t-348 158t-134 364q0 204 137 370t341 166t316 -137h4zM983 1421v-223h-694v223h694z" />
    <glyph glyph-name="aogonek.alt" horiz-adv-x="1306" 
d="M628 250q108 0 181 74q72 76 72 186t-72 184t-179 74t-180 -73t-73 -185t74 -186q69 -74 177 -74zM721 -291q0 141 211 291h-58v119h-4q-98 -139 -312 -139t-348 158t-134 364q0 204 137 370t341 166t316 -137h4v117h295v-1018q-74 -45 -130 -105q-56 -59 -56 -109
t45 -77t94 -26l41 2v-174q-55 -16 -145 -17q-170 0 -252 94q-45 51 -45 121z" />
    <glyph glyph-name="aring.alt" horiz-adv-x="1306" 
d="M881 510q0 110 -72 184t-179 74t-180 -73t-73 -185t74 -186q70 -74 177 -74t181 74q72 76 72 186zM874 901v117h295v-1018h-295v119h-4q-98 -139 -312 -139t-348 158t-134 364q0 204 137 370t341 166t316 -137h4zM758 1431q0 43 -37 79t-87 36t-86 -33t-36 -81t35 -84
q35 -35 86 -35t90 35q35 39 35 83zM634 1710q122 0 209 -80t87 -200q0 -119 -87 -201t-207 -82t-208 83t-88 201t88 197q84 82 206 82z" />
    <glyph glyph-name="atilde.alt" horiz-adv-x="1306" 
d="M881 510q0 110 -72 184t-179 74t-180 -73t-73 -185t74 -186q70 -74 177 -74t181 74q72 76 72 186zM874 901v117h295v-1018h-295v119h-4q-98 -139 -312 -139t-348 158t-134 364q0 204 137 370t341 166t316 -137h4zM804 1190q-96 0 -169 45q-74 45 -121 45q-55 0 -59 -88
h-176l-3 47q-4 113 52 179t166 67q55 2 151 -44t123 -45t45 19q15 31 18 68h170l3 -49q4 -112 -50 -178t-150 -66z" />
    <glyph glyph-name="ccedilla.alt" horiz-adv-x="1189" 
d="M565 -510q-160 0 -256 113l94 125q86 -80 162 -80t76 53q0 23 -21 37q-22 14 -54 14t-54 -8l-72 104l90 136q-207 31 -329 176q-125 143 -125 348q0 147 74 270q68 119 198 195q133 69 292 69t298 -88q147 -88 188 -260l-272 -82q-18 64 -78 110t-156 46q-97 0 -168 -71
t-71 -187t70 -184q68 -74 165 -74t158 44t86 114l273 -82q-39 -143 -154 -234q-117 -86 -262 -110l-76 -109q88 -4 143 -52q56 -48 56 -135q0 -86 -74 -142t-201 -56z" />
    <glyph glyph-name="l.alt" horiz-adv-x="688" 
d="M428 1554v-1179q0 -131 135 -131q41 0 105 8v-242q-74 -25 -176 -24q-362 0 -363 372v1196h299z" />
    <glyph glyph-name="lslash.alt" horiz-adv-x="866" 
d="M258 1554h297v-653l223 117v-281l-223 -114v-248q0 -131 137 -131q41 0 105 8v-242q-74 -25 -176 -24q-362 0 -363 372v109l-195 -100v282l195 99v806z" />
    <glyph glyph-name="y.alt" horiz-adv-x="1183" 
d="M176 -246q172 0 246 187l22 59l-417 1018h315l258 -686l248 686h311l-463 -1157q-143 -362 -479 -363q-74 0 -141 21v245q39 -10 100 -10z" />
    <glyph glyph-name="aring.alt2" horiz-adv-x="1126" 
d="M504 197q92 0 147 57t56 139v25h-179q-55 0 -102 -31t-47 -83t35 -80t90 -27zM418 -20q-137 0 -238 83q-100 86 -100 222v8q0 199 205 270q109 41 243 41h99q80 0 80 70q0 55 -43 91t-114 36t-120 -37t-65 -102l-263 59q18 106 88 180q135 143 371 141q195 2 317 -106
t121 -305v-467q0 -70 9 -164h-277q-6 41 -6 127h-4q-106 -147 -303 -147zM686 1431q0 48 -37 78q-37 37 -88 37t-86 -33t-35 -79t35 -86q39 -35 88 -35t88 35q35 35 35 83zM860 1430q0 -117 -88 -200t-208 -83t-208 83t-88 201q0 119 88 199t210 80t206 -82q88 -81 88 -198z
" />
    <glyph glyph-name="i.loclTRK" horiz-adv-x="573" 
d="M436 0h-299v1018h299v-1018zM471 1374q0 -74 -53 -131q-55 -55 -131 -55t-130 54q-55 54 -55 132t54 131q57 53 131 53t131 -53q53 -57 53 -131z" />
    <glyph glyph-name="uni0414.alt" horiz-adv-x="1724" 
d="M1214 287l-354 889l-358 -889h712zM1675 -313h-307v313h-1012v-313h-305v600h127l502 1206h367l499 -1206h129v-600z" />
    <glyph glyph-name="uni041B.alt" horiz-adv-x="1490" 
d="M1493 0h-336l-414 1143l-413 -1143h-330l563 1493h365z" />
    <glyph glyph-name="uni0434.alt" horiz-adv-x="1374" 
d="M494 256h405l-203 461zM1307 256v-569h-275v313h-688v-313h-276v569h120l357 762h305l354 -762h103z" />
    <glyph glyph-name="uni0438.alt" 
d="M127 1018h297v-567q0 -91 45 -143t134 -52t135 56t46 139v567h297v-1018h-293v127h-4q-100 -147 -284 -147t-278 118t-95 281v639z" />
    <glyph glyph-name="uni0439.alt" 
d="M127 1018h297v-567q0 -91 45 -143t134 -52t135 56t46 139v567h297v-1018h-293v127h-4q-100 -147 -284 -147t-278 118t-95 281v639zM604 1178q-148 0 -244 93t-124 257l174 31q55 -177 196 -177t195 177l172 -31q-27 -164 -123 -257q-98 -93 -246 -93z" />
    <glyph glyph-name="uni043B.alt" horiz-adv-x="1187" 
d="M1159 0h-313l-252 678l-252 -678h-315l417 1018h304z" />
    <glyph glyph-name="uni043F.alt" 
d="M795 0v565q0 93 -45 145q-46 52 -134 52t-135 -57t-47 -140v-565h-297v1018h295v-133h2q54 96 148 125t141 28q182 0 275 -116t94 -289v-633h-297z" />
    <glyph glyph-name="uni0446.alt" horiz-adv-x="1294" 
d="M934 -313v313h-146v127h-4q-100 -147 -285 -147t-279 118t-93 281v639h297v-567q0 -91 45 -143t134 -52t135 56t46 139v567h297v-762h129v-569h-276z" />
    <glyph glyph-name="uni0448.alt" horiz-adv-x="1851" 
d="M590 256q88 0 135 51t47 142v569h297v-565q0 -197 166 -197q88 0 135 52t47 145v565h295v-1018h-291v133h-2q-45 -76 -125 -116t-174 -40q-211 0 -297 162q-141 -162 -329 -162t-278 111q-89 111 -89 293v637h297v-569q0 -193 166 -193z" />
    <glyph glyph-name="uni0449.alt" horiz-adv-x="1925" 
d="M1567 -313v313h-146v133h-2q-45 -76 -125 -116t-172 -40q-215 0 -297 162q-75 -86 -153 -124t-187 -38q-178 0 -268 112t-90 292v637h297v-569q0 -193 166 -193q88 0 135 51t47 142v569h297v-565q0 -197 166 -197q88 0 135 52t47 145v565h295v-762h131v-569h-276z" />
    <glyph glyph-name="one.alt" horiz-adv-x="1126" 
d="M109 283h342v712h-342v215q193 6 311 136q61 61 72 147h262v-1210h331v-283h-976v283z" />
    <glyph glyph-name="colon.case" horiz-adv-x="694" 
d="M553 423q1 -85 -59 -147t-146 -61q-86 0 -147 61q-61 62 -61 146t61 145q57 61 144 61t147 -60t61 -145zM553 1074q-1 -84 -61 -146q-60 -60 -144 -60t-147 60q-61 61 -62 145q-1 83 61 145t146 62t148 -59q59 -63 59 -147z" />
    <glyph glyph-name="exclamdown.case" horiz-adv-x="653" 
d="M492 0h-328v301l29 676h270l29 -676v-301zM508 1330q0 -77 -54 -131t-131 -54t-130 55t-53 130t54 130t130 55t130 -54t54 -131z" />
    <glyph glyph-name="uni2E18.case" horiz-adv-x="1126" 
d="M571 242q95 0 159 54t71 146l262 -26q-2 -132 -71 -234t-179 -151q-106 -53 -240 -54q-185 0 -333 110t-148 298q0 143 58 237t143 166q47 46 67 66q66 68 70 127l4 45h266l21 -594h-281l4 174h-4q-32 -27 -54 -74t-21 -90q0 -94 55 -147t151 -53zM383 1331q0 76 54 130
q54 55 130 55t130 -54q55 -54 55 -131q0 -76 -54 -130t-131 -54q-76 0 -130 54t-54 130z" />
    <glyph glyph-name="questiondown.case" horiz-adv-x="1122" 
d="M745 932q0 -92 -56 -168t-123 -121t-123 -109t-56 -135q0 -69 50 -107t131 -38q82 0 136 58t54 153q0 33 -6 70l295 -25q8 -41 8 -94q1 -203 -147 -320q-148 -116 -342 -116t-343 108q-147 108 -147 310t207 352q82 59 125 115t51 126h282q4 -45 4 -59zM776 1331
q0 -74 -53 -131q-57 -53 -131 -53t-131 53q-53 57 -53 131t53 129t131 55t131 -55t53 -129z" />
    <glyph glyph-name="semicolon.case" horiz-adv-x="673" 
d="M545 338q0 -188 -103 -309q-100 -123 -278 -152v141q166 53 201 211q-31 -6 -58 -6q-76 0 -125 52q-49 51 -49 131t60 126q61 52 149 52t147 -70q56 -72 56 -176zM340 866q-86 0 -145 62q-61 59 -61 144q0 84 60 146t146 62t145 -60t59 -148t-59 -144q-59 -62 -145 -62z
" />
    <glyph glyph-name="braceleft.case" horiz-adv-x="899" 
d="M823 -201h-143q-236 -1 -346 99t-74 348l29 203q14 100 -33 137t-156 41l-32 2v237h32q106 0 154 39q51 37 35 139l-29 205q-33 250 84 353q109 92 336 92h143v-238h-114q-145 0 -177 -63t0 -215l25 -168q12 -88 -32 -163t-175 -99q90 -16 142 -64t62 -98q11 -49 3 -103
l-25 -168q-31 -152 0 -215t177 -63h114v-238z" />
    <glyph glyph-name="braceright.case" horiz-adv-x="899" 
d="M76 37h112q147 0 180 63q32 63 -1 215l-25 168q-14 88 31 164t176 101q-92 16 -143 63t-62 95q-10 48 -2 104l25 168q33 152 1 215t-180 63h-112v238h143q233 0 344 -100t76 -345l-31 -205q-16 -102 37 -139q45 -39 154 -39h30v-237l-30 -2q-109 -4 -158 -40t-33 -138
l31 -203q37 -258 -79 -352t-341 -95h-143v238z" />
    <glyph glyph-name="bracketleft.case" horiz-adv-x="864" 
d="M791 1694v-238h-359v-1419h359v-238h-617v1895h617z" />
    <glyph glyph-name="bracketright.case" horiz-adv-x="864" 
d="M432 37v1419h-358v238h616v-1895h-616v238h358z" />
    <glyph glyph-name="parenleft.case" horiz-adv-x="796" 
d="M360 780v-69q0 -467 394 -752l-131 -176q-258 145 -396 381q-137 236 -137 547v71q0 311 137 547t396 381l131 -176q-394 -285 -394 -754z" />
    <glyph glyph-name="parenright.case" horiz-adv-x="796" 
d="M436 711v69q0 469 -393 754l131 176q258 -145 395 -381t138 -547v-71q1 -311 -137 -547t-396 -381l-131 176q393 285 393 752z" />
    <glyph glyph-name="emdash.case" horiz-adv-x="1918" 
d="M1792 895v-287h-1663v287h1663z" />
    <glyph glyph-name="endash.case" horiz-adv-x="1187" 
d="M1061 895v-287h-932v287h932z" />
    <glyph glyph-name="hyphen.case" horiz-adv-x="884" 
d="M758 903v-295h-629v295h629z" />
    <glyph glyph-name="guillemotleft.case" horiz-adv-x="1318" 
d="M1049 1180l159 -158l-284 -283l284 -278l-161 -158l-443 438zM522 1180l162 -158l-285 -283l285 -278l-162 -158l-444 438z" />
    <glyph glyph-name="guillemotright.case" horiz-adv-x="1318" 
d="M635 1022l162 158l444 -439l-444 -438l-162 158l285 278zM111 1022l159 158l447 -439l-445 -438l-163 158l286 278z" />
    <glyph glyph-name="guilsinglleft.case" horiz-adv-x="792" 
d="M522 1180l162 -158l-287 -283l287 -278l-164 -158l-442 438z" />
    <glyph glyph-name="guilsinglright.case" horiz-adv-x="792" 
d="M109 1022l161 158l445 -439l-445 -438l-161 158l284 278z" />
    <glyph glyph-name="cent.alt" 
d="M760 -195h-262v189q-180 39 -295 179q-115 139 -115 329t112 332t298 190v190h262v-184q135 -27 244 -112q104 -86 135 -224l-271 -82q-23 68 -81 112t-155 44t-167 -71t-70 -185t68 -188q68 -72 166 -72q181 0 245 158l273 -82q-39 -135 -143 -224q-106 -88 -244 -114
v-185z" />
    <glyph glyph-name="dollar.alt" horiz-adv-x="1298" 
d="M524 -215v207q-387 63 -454 450l288 68q18 -120 106 -186t204 -66q114 0 174 49q61 45 61 109t-45 108q-45 43 -123 58l-213 41q-178 33 -288 149t-110 280q0 166 116 290q115 124 284 161v197h287v-199q172 -37 267 -142t114 -239l-281 -84q-18 96 -86 150t-168 55
q-100 0 -162 -49t-63 -117q0 -123 156 -153l207 -39q201 -37 313 -158t111 -283q0 -211 -187 -352q-90 -68 -221 -94v-211h-287z" />
    <glyph glyph-name="cedilla.alt" horiz-adv-x="907" 
d="M449 -510q-160 0 -256 113l94 125q85 -80 161 -80t76 53q0 23 -22 37q-24 14 -54 14t-53 -8l-73 104l100 152h186l-86 -125q86 -4 144 -51q57 -49 57 -135q-1 -87 -75 -143t-199 -56z" />
    <glyph glyph-name="brevecyr" horiz-adv-x="1062" 
d="M546 1178q-148 0 -249 94q-92 92 -121 256l174 31q54 -177 196 -177t195 177l172 -31q-27 -164 -123 -257t-244 -93z" />
    </font>
</defs>
</svg>
