<?xml version="1.0" standalone="no"?>
<!DOCTYPE svg PUBLIC "-//W3C//DTD SVG 1.1//EN" "http://www.w3.org/Graphics/SVG/1.1/DTD/svg11.dtd" >
<svg xmlns="http://www.w3.org/2000/svg">
<metadata>
Created by FontPrep 20130207 at Sat Nov 10 00:09:22 2018
 By Ridwan Sanusi
Copyright (c) 2016 by THOMAS GILLETT. All rights reserved.
</metadata>
<defs>
<font id="c91729199f846ba02a7621345254efa4" horiz-adv-x='1024' >
  <font-face 
    font-family="Gordita-Regular"
    font-weight="400"
    font-stretch="normal"
    units-per-em="2048"
    panose-1="0 0 0 0 0 0 0 0 0 0"
    ascent="1638"
    descent="-410"
    x-height="1018"
    cap-height="1493"
    bbox="-358 -614 2615 2140"
    underline-thickness="94"
    underline-position="-96"
    unicode-range="U+000D-FB04"
  />
<missing-glyph horiz-adv-x="1523" 
d="M1346 1409h-1100l1100 -1333v1333zM172 0v1493l1258 2v-1495h-1258z" />
    <glyph glyph-name="ff" unicode="ff" horiz-adv-x="1306" 
d="M1180 1425q-66 0 -115 -41q-57 -51 -57 -174v-192h266v-129h-266v-889h-148v889h-469v-889h-147v889h-197v129h197v188q0 168 84 262q86 88 227 88q59 0 111 -18v-125q-36 12 -102 12t-119 -46t-54 -169v-192h469v188q0 170 86 260t225 90q61 0 111 -18v-125
q-36 12 -102 12z" />
    <glyph glyph-name="fi" unicode="fi" horiz-adv-x="1177" 
d="M823 1382q0 46 33 80q33 33 79 33t79 -35t33 -78q0 -44 -33 -78t-79 -34t-79 33t-33 79zM244 889h-197v129h197v188q0 168 84 262q86 88 227 88q59 0 111 -18v-125q-36 12 -102 12t-119 -46t-54 -169v-192h619v-1018h-150v889h-469v-889h-147v889z" />
    <glyph glyph-name="fl" unicode="fl" horiz-adv-x="1177" 
d="M244 889h-197v129h197v188q0 168 84 262q86 88 227 88q59 0 111 -18v-125q-36 12 -102 12t-119 -46t-54 -169v-192h469v536h150v-1554h-150v889h-469v-889h-147v889z" />
    <glyph glyph-name="ffi" unicode="ffi" horiz-adv-x="1796" 
d="M1442 1382q0 46 33 80q33 33 77 33t80 -33q33 -37 33 -80t-33 -79q-36 -33 -80 -33t-77 33t-33 79zM860 889h-469v-889h-147v889h-197v129h197v188q0 168 84 262q86 88 227 88q59 0 111 -18v-125q-36 12 -102 12t-119 -46t-54 -169v-192h469v188q0 170 86 260t225 90
q61 0 113 -18v-125q-41 12 -103 12t-116 -41q-57 -51 -57 -174v-192h620v-1018h-149v889h-471v-889h-148v889z" />
    <glyph glyph-name="ffl" unicode="ffl" horiz-adv-x="1796" 
d="M562 1425q-68 0 -120 -47t-53 -168v-192h471v188q0 170 86 260t225 90q61 0 113 -18v-125q-41 12 -103 12t-116 -41q-57 -51 -57 -174v-192h471v536h149v-1554h-149v889h-471v-889h-148v889h-471v-889h-145v889h-197v129h197v188q0 168 84 262q86 88 227 88q59 0 111 -18
v-125q-37 12 -104 12z" />
    <glyph glyph-name=".notdef" horiz-adv-x="1523" 
d="M1346 1409h-1100l1100 -1333v1333zM172 0v1493l1258 2v-1495h-1258z" />
    <glyph glyph-name=".null" horiz-adv-x="0" 
 />
    <glyph glyph-name="nonmarkingreturn" horiz-adv-x="634" 
 />
    <glyph glyph-name="NULL" horiz-adv-x="0" 
 />
    <glyph glyph-name="NULL" horiz-adv-x="0" 
 />
    <glyph glyph-name="CR" unicode="&#xd;" horiz-adv-x="532" 
 />
    <glyph glyph-name="space" unicode=" " horiz-adv-x="532" 
 />
    <glyph glyph-name="exclam" unicode="!" horiz-adv-x="544" 
d="M272 -17q-46 0 -78 32t-32 80t33 80t77 32t78 -33q35 -33 35 -79t-33 -79q-34 -33 -80 -33zM195 1493h155v-262l-8 -799h-139l-8 799v262z" />
    <glyph glyph-name="quotedbl" unicode="&#x22;" horiz-adv-x="768" 
d="M473 1337q0 145 88 146q86 0 86 -146q0 -10 -4 -59l-49 -393h-68l-47 393q-6 32 -6 59zM121 1337q0 145 86 146q88 0 88 -146q0 -23 -6 -59l-47 -393h-68l-49 393q-4 45 -4 59z" />
    <glyph glyph-name="numbersign" unicode="#" horiz-adv-x="1581" 
d="M612 987l-98 -448h455l98 448h-455zM1378 539v-125h-299l-90 -414h-139l90 414h-453l-90 -414h-141l92 414h-272v125h299l98 448h-270v125h299l82 381h141l-84 -381h455l82 381h139l-84 -381h272v-125h-299l-100 -448h272z" />
    <glyph glyph-name="dollar" unicode="$" horiz-adv-x="1198" 
d="M942 408q0 147 -139 219q-33 16 -94 37q-15 0 -27 6h-4l-4 2v-533q116 14 192 83t76 186zM496 864l49 -10v506q-111 -14 -189 -85t-78 -168t56 -160t162 -83zM1102 422q0 -178 -119 -295t-307 -135v-187h-131v187q-125 12 -228 78q-104 59 -163 153q-59 86 -72 187
l145 41q20 -113 111 -203q92 -88 207 -107v555l-64 13q-156 31 -257 127t-101 264t125 280q123 106 297 123v197h131v-201q188 -23 295 -131q92 -98 114 -219l-141 -43q-18 78 -82 152t-188 96v-525q205 -41 299 -133q69 -63 99 -139t30 -135z" />
    <glyph glyph-name="percent" unicode="%" horiz-adv-x="1648" 
d="M1026 325q0 -87 61 -149t149 -61q88 0 150 61q62 62 62 148t-62 149t-149 63q-88 0 -150 -61q-61 -63 -61 -150zM1575 326q0 -140 -98 -238q-97 -98 -239 -98t-240 97t-97 239q0 142 98 238q97 98 237 98t240 -98t99 -238zM411 1382q-87 0 -149 -61t-63 -149
q0 -88 62 -150q61 -61 149 -61t151 61q61 61 62 149q0 88 -62 150q-63 61 -150 61zM412 0h-152l975 1493h149zM748 1171q0 -139 -98 -237t-239 -98q-140 0 -239 98q-98 98 -98 237t98 237t238 99q140 -1 240 -99q98 -98 98 -237z" />
    <glyph glyph-name="ampersand" unicode="&#x26;" horiz-adv-x="1363" 
d="M258 355q0 -95 79 -163t219 -67q140 0 304 143l-350 408q-72 -41 -137 -94q-45 -41 -60 -62q-55 -70 -55 -165zM600 1372q-96 0 -167 -66t-71 -159q0 -61 41 -125q68 -95 129 -156l17 -18l149 90q135 82 136 211q0 92 -68 160q-70 63 -166 63zM1145 657h153
q-32 -93 -100 -199t-147 -192l231 -266h-188l-146 168q-213 -180 -424 -180q-178 -4 -302 99t-122 265q0 109 70 207q37 47 76 84q66 57 180 131l-109 125q-104 119 -104 248q-2 154 118 259t273 101q143 4 261 -101q118 -104 117 -250t-99 -234q-49 -45 -115 -84l-137 -86
l332 -383q125 147 182 288z" />
    <glyph glyph-name="quotesingle" unicode="'" horiz-adv-x="415" 
d="M121 1337q0 145 86 146q88 0 88 -146q0 -23 -6 -59l-47 -393h-68l-49 393q-4 45 -4 59z" />
    <glyph glyph-name="parenleft" unicode="(" horiz-adv-x="757" 
d="M102 682v49q0 295 144 537q141 244 399 391l62 -96q-453 -291 -453 -834v-45q0 -539 453 -831l-62 -101q-258 150 -399 393q-144 242 -144 537z" />
    <glyph glyph-name="parenright" unicode=")" horiz-adv-x="757" 
d="M655 731v-49q0 -297 -142 -539t-400 -391l-62 101q453 293 453 831v45q0 543 -453 834l62 96q258 -145 400 -389t142 -539z" />
    <glyph glyph-name="asterisk" unicode="*" horiz-adv-x="966" 
d="M426 1493h115v-319l297 96l34 -105l-292 -98l180 -252l-90 -67l-189 253l-184 -251l-88 65l180 252l-295 98l35 105l297 -96v319z" />
    <glyph glyph-name="plus" unicode="+" horiz-adv-x="1126" 
d="M635 649v-395h-143v395h-398v139h398v392h143v-392h397v-139h-397z" />
    <glyph glyph-name="comma" unicode="," horiz-adv-x="546" 
d="M242 -14q-41 0 -75 36t-34 89t39 90q40 37 102 37t99 -54q39 -47 39 -123q0 -131 -70 -225q-65 -97 -192 -115v78q61 13 106 71t47 128q-20 -12 -61 -12z" />
    <glyph glyph-name="hyphen" unicode="-" horiz-adv-x="831" 
d="M143 518v158h545v-158h-545z" />
    <glyph glyph-name="period" unicode="." horiz-adv-x="532" 
d="M266 -16q-57 0 -97 42t-40 96t40 94t97 40t97 -40t40 -94t-40 -96t-97 -42z" />
    <glyph glyph-name="slash" unicode="/" horiz-adv-x="937" 
d="M223 -10h-157l651 1562h157z" />
    <glyph glyph-name="zero" unicode="0" horiz-adv-x="1464" 
d="M731 1364q-94 0 -172 -38t-129 -101q-109 -127 -141 -310q-53 -264 53 -499q78 -178 219 -248q78 -39 171 -39t173 40q208 104 271 404q53 266 -54 502q-78 178 -221 250q-76 39 -170 39zM731 -16q-238 0 -397 159q-223 247 -223 598q-2 168 58 331t169 274
q158 162 398 162q340 -1 517 -330q98 -190 99 -428q4 -170 -56 -332t-170 -271q-157 -163 -395 -163z" />
    <glyph glyph-name="one" unicode="1" horiz-adv-x="817" 
d="M610 0h-155v1327l-361 -213l-69 119l434 260h151v-1493z" />
    <glyph glyph-name="two" unicode="2" horiz-adv-x="1220" 
d="M1110 0h-1008v47q0 309 347 524l225 140q57 33 94 61t90 82q78 88 78 208t-94 211t-220 91t-204 -55t-117 -135q-25 -66 -31 -148l-155 23q0 98 48 193t136 165q125 102 321 102t341 -133q137 -134 137 -294t-79 -268t-235 -204l-235 -147q-248 -154 -256 -320h817v-143z
" />
    <glyph glyph-name="three" unicode="3" horiz-adv-x="1241" 
d="M614 -14q-225 0 -364 133t-158 301l152 29q12 -127 113 -223t257 -97q115 0 229 72q56 35 92 101t36 149q1 129 -97 207t-258 79q-78 0 -139 -22l-74 125l490 510h-766v143h967v-137l-463 -475q184 6 321 -93q176 -121 176 -331q0 -141 -68 -247t-186 -166
q-117 -58 -260 -58z" />
    <glyph glyph-name="four" unicode="4" horiz-adv-x="1298" 
d="M834 494v837l-637 -837h637zM985 358v-358h-151v358h-777v172l731 963h197v-999h252v-136h-252z" />
    <glyph glyph-name="five" unicode="5" horiz-adv-x="1210" 
d="M1055 1346h-631l-115 -496q61 57 151 82t161 24q215 0 352 -131t137 -359t-161 -354t-361 -126q-268 0 -420 192q-76 96 -90 215l151 35q23 -135 121 -213q98 -84 244 -84q189 0 299 144q61 81 61 196q0 180 -110 264t-250 84q-80 0 -172 -41q-86 -43 -143 -112l-146 57
l176 770h746v-147z" />
    <glyph glyph-name="six" unicode="6" horiz-adv-x="1286" 
d="M672 834q-152 0 -268 -94t-115 -255q0 -109 55 -191q108 -162 315 -163q152 0 262 94q109 95 109 249t-102 257q-104 103 -256 103zM848 1360q-258 0 -406 -174t-172 -430q70 113 188 164t224 51q234 -1 368 -141t134 -336q0 -120 -45 -220t-123 -161
q-160 -127 -361 -127q-131 0 -259 70t-189 180q-51 98 -74 184q-20 98 -20 227q0 360 186 608q93 119 235 186t321 67t298 -70l-59 -142q-103 64 -246 64z" />
    <glyph glyph-name="seven" unicode="7" horiz-adv-x="1124" 
d="M53 1348v145h1016v-145l-688 -1348h-174l694 1348h-848z" />
    <glyph glyph-name="eight" unicode="8" horiz-adv-x="1277" 
d="M638 127q132 0 243 68q123 72 123 214t-117 215q-117 72 -248 72t-249 -72t-118 -214q0 -143 123 -215q111 -68 243 -68zM639 1368q-115 0 -225 -68t-109 -194q1 -88 59 -154q107 -121 275 -121q104 0 219 70t115 201t-113 198q-106 68 -221 68zM115 408q0 123 82 218
t231 144q-131 37 -205 136t-73 206q0 180 153 288q154 108 339 108t336 -106q151 -105 150 -290q0 -113 -76 -209t-202 -133q147 -43 230 -140q83 -98 83 -238t-104 -246t-266 -144q-242 -55 -449 49q-104 51 -166 143t-63 214z" />
    <glyph glyph-name="nine" unicode="9" horiz-adv-x="1288" 
d="M260 1018q0 -158 98 -261q98 -104 256 -104q156 0 265 92q117 99 117 281q0 94 -55 176q-54 82 -138 122t-176 40q-145 0 -254 -90q-113 -98 -113 -256zM600 516q-232 0 -364 148t-132 333q-2 240 157 376t374 136q127 -1 251 -69t187 -183q101 -174 101 -419
q0 -375 -178 -614t-519 -238q-76 0 -176 22t-170 68l57 141q148 -82 283 -82q244 0 388 169t165 437q-70 -111 -192 -168t-232 -57z" />
    <glyph glyph-name="colon" unicode=":" horiz-adv-x="561" 
d="M143 121q0 57 40 96q39 39 97 39t98 -40t40 -94t-40 -96t-98 -42t-97 40q-40 40 -40 97zM143 897q0 57 41 97q40 40 96 40t97 -41t41 -95t-40 -96t-98 -42t-97 40q-40 40 -40 97z" />
    <glyph glyph-name="semicolon" unicode=";" horiz-adv-x="575" 
d="M259 -14q-42 0 -76 36q-33 36 -33 89t38 90q41 37 103 37t98 -54q39 -47 39 -123q0 -131 -70 -225q-65 -97 -192 -115v78q63 12 108 70q43 59 45 129q-18 -12 -60 -12zM286 1034q56 0 96 -40t40 -97t-39 -97t-97 -40t-98 40q-39 40 -38 97q0 57 40 97t96 40z" />
    <glyph glyph-name="less" unicode="&#x3c;" horiz-adv-x="1220" 
d="M76 651v137l989 472v-150l-825 -387l825 -389v-150z" />
    <glyph glyph-name="equal" unicode="=" horiz-adv-x="1179" 
d="M147 430v145h885v-145h-885zM147 860v148h885v-148h-885z" />
    <glyph glyph-name="greater" unicode="&#x3e;" horiz-adv-x="1220" 
d="M158 184v148l823 389l-823 387v152l987 -472v-137z" />
    <glyph glyph-name="question" unicode="?" horiz-adv-x="1036" 
d="M596 95q0 -46 -32 -79q-32 -32 -80 -32t-80 32t-31 79q0 48 33 80q32 32 78 32t79 -33t33 -79zM563 432h-145q-2 16 -2 64t26 108q26 59 69 110q57 68 79 88l59 58q13 12 27 28t23 24q67 67 89 145q8 41 9 61q0 102 -71 173t-210 71t-216 -90t-71 -232l-151 7
q-2 18 -2 45q0 121 61 215q57 96 161 149t218 53q195 0 322 -116q117 -113 116 -273q0 -111 -54 -185q-89 -122 -180 -206q-18 -16 -38 -38t-27 -27l-16 -23q-18 -23 -29 -37q-47 -70 -47 -172z" />
    <glyph glyph-name="at" unicode="@" horiz-adv-x="1648" 
d="M846 858q-113 0 -187 -89q-73 -89 -73 -189t53 -164q55 -62 134 -62t139 46t92 117t30 147q0 76 -53 134q-53 60 -135 60zM880 -49q198 0 384 131l55 -88q-82 -66 -208 -107t-247 -41q-324 0 -540 212t-218 538q0 158 62 299q127 292 410 414q141 61 299 61
q285 0 487 -174q96 -84 152 -207t55 -257q0 -134 -55 -261q-54 -127 -150 -182q-173 -100 -281 -18q-49 38 -69 100q-104 -135 -266 -135q-119 -2 -212 98t-91 214t49 211t134 157t179 60q177 1 250 -138l22 133h140l-80 -477q0 -20 -2 -52q-1 -32 21 -58t65 -26
q74 0 132 68q109 127 107 299q0 244 -174 395q-172 145 -413 146q-141 0 -263 -56t-204 -143q-195 -187 -195 -497q0 -162 83 -306q84 -144 234 -229q150 -84 348 -84z" />
    <glyph glyph-name="A" unicode="A" horiz-adv-x="1478" 
d="M1083 524l-348 807l-346 -807h694zM1307 0l-164 381h-813l-164 -381h-160l643 1493h178l646 -1493h-166z" />
    <glyph glyph-name="B" unicode="B" horiz-adv-x="1396" 
d="M737 690h-375v-547h406q145 0 254 67t108 210q0 172 -180 235q-90 35 -213 35zM731 1350h-369v-521h357q176 0 261 76t85 199q-1 122 -97 184t-237 62zM764 0h-557v1493h536q209 4 345 -97t137 -278q1 -112 -57 -201t-171 -141q157 -40 225 -152t68 -214
q0 -209 -157 -314q-150 -96 -369 -96z" />
    <glyph glyph-name="C" unicode="C" horiz-adv-x="1599" 
d="M848 -16q-313 0 -529 211q-100 100 -158 243q-59 143 -59 307q0 163 62 309t162 242q219 213 528 213q233 0 397 -114q70 -45 131 -115q102 -119 140 -262l-150 -53q-23 86 -88 180q-47 63 -100 108t-140 74q-86 33 -194 33q-242 0 -413 -171t-171 -437q0 -178 75 -318
t212 -221q131 -80 313 -80t314 105q59 45 98 102q53 70 98 192l150 -53q-61 -218 -266 -375q-170 -120 -412 -120z" />
    <glyph glyph-name="D" unicode="D" horiz-adv-x="1542" 
d="M365 1346v-1199h280q185 0 331 78t222 211q80 135 80 309q0 257 -171 429t-462 172h-280zM207 0v1493h444q349 0 569 -213t220 -535t-230 -538q-227 -207 -559 -207h-444z" />
    <glyph glyph-name="E" unicode="E" 
d="M207 0v1493h934v-145h-776v-517h710v-145h-710v-541h784v-145h-942z" />
    <glyph glyph-name="F" unicode="F" horiz-adv-x="1210" 
d="M365 1346v-537h702v-143h-702v-666h-158v1493h926v-147h-768z" />
    <glyph glyph-name="G" unicode="G" horiz-adv-x="1634" 
d="M857 1362q-179 0 -313 -85t-207 -224t-73 -303q0 -258 159 -438t429 -181q206 0 360 119t166 328h-622v145h790v-57q0 -287 -184 -482q-192 -198 -522 -198t-534 216t-204 539q0 213 99 389q98 176 269 276t384 101q270 0 438 -135q158 -123 221 -307l-149 -53
q-35 98 -102 176q-51 53 -99 86q-127 88 -306 88z" />
    <glyph glyph-name="H" unicode="H" horiz-adv-x="1579" 
d="M1214 0v684h-849v-684h-158v1493h158v-662h849v662h158v-1493h-158z" />
    <glyph glyph-name="I" unicode="I" horiz-adv-x="571" 
d="M207 0v1493h158v-1493h-158z" />
    <glyph glyph-name="J" unicode="J" horiz-adv-x="1187" 
d="M840 1493h155v-1028q0 -207 -127 -343q-126 -136 -332 -136t-333 130t-127 345v147h155v-141q-1 -170 93 -252t219 -82t211 93t86 235v1032z" />
    <glyph glyph-name="K" unicode="K" horiz-adv-x="1290" 
d="M365 0h-158v1493h158v-659h10l669 659h218l-732 -715l766 -778h-221l-700 719h-10v-719z" />
    <glyph glyph-name="L" unicode="L" horiz-adv-x="1112" 
d="M207 0v1493h158v-1346h708v-147h-866z" />
    <glyph glyph-name="M" unicode="M" horiz-adv-x="1974" 
d="M1765 1493v-1493h-155v1280l-555 -1280h-142l-551 1270v-1270h-155v1493h223l557 -1280l553 1280h225z" />
    <glyph glyph-name="N" unicode="N" horiz-adv-x="1632" 
d="M1270 1493h153v-1493h-170l-891 1270v-1270h-155v1493h182l881 -1255v1255z" />
    <glyph glyph-name="O" unicode="O" horiz-adv-x="1705" 
d="M1442 741q0 257 -166 439t-426 182q-162 0 -301 -82q-135 -86 -209 -225t-74 -305q0 -258 166 -438t424 -181q164 0 301 84q135 78 210 219t75 307zM1604 724q0 -186 -98 -360q-98 -176 -271 -278q-174 -102 -385 -102q-154 0 -296 59t-239 162q-96 96 -154 241t-59 295
q0 213 99 387q96 178 268 278t387 101q158 0 297 -59t238 -158q101 -108 157 -244t56 -322z" />
    <glyph glyph-name="P" unicode="P" horiz-adv-x="1298" 
d="M694 1346h-329v-617h321q201 0 297 100q88 88 88 213q0 124 -88 214t-289 90zM682 584h-317v-584h-158v1493h500q258 2 391 -129t133 -323q1 -193 -141 -325t-408 -132z" />
    <glyph glyph-name="Q" unicode="Q" horiz-adv-x="1710" 
d="M266 750q0 -166 74 -308t209 -227q137 -84 319 -84t330 111l-285 250l105 114l289 -262q135 168 135 410t-166 426q-166 182 -426 182q-162 0 -301 -82q-135 -86 -209 -225t-74 -305zM854 1507q316 0 537 -217q96 -102 154 -241t59 -299q0 -291 -183 -506l189 -162
l-103 -119l-194 176q-203 -156 -463 -155q-156 0 -297 59t-238 162q-96 96 -154 241t-59 295q0 215 99 387q96 178 267 278t386 101z" />
    <glyph glyph-name="R" unicode="R" horiz-adv-x="1372" 
d="M365 1346v-598h346q197 0 288 91t91 215t-90 208t-285 84h-350zM365 604v-604h-158v1493h518q268 0 396 -128t128 -308q-1 -180 -117 -292t-292 -134l460 -631h-190l-442 604h-303z" />
    <glyph glyph-name="S" unicode="S" horiz-adv-x="1222" 
d="M621 133q137 0 235 69t98 206t-125 210q-57 35 -141 52l-196 39q-58 12 -132 45t-122 82q-104 102 -104 242t66 234q67 95 174 146t232 51q219 -1 343 -109t151 -249l-144 -45q-23 100 -109 179q-87 79 -243 79q-123 4 -219 -74t-94 -190q0 -88 55 -152t162 -84l188 -37
q195 -37 291 -131q65 -59 97 -136t32 -138q2 -196 -141 -318t-357 -120t-360 130t-166 294l148 41q24 -131 134 -223t247 -93z" />
    <glyph glyph-name="T" unicode="T" horiz-adv-x="1236" 
d="M696 1346v-1346h-155v1346h-500v147h1155v-147h-500z" />
    <glyph glyph-name="U" unicode="U" horiz-adv-x="1497" 
d="M1153 1493h158v-909q1 -281 -147 -440q-148 -158 -415 -158t-413 160t-148 427v920h156v-911q0 -238 115 -343t303 -105t289 116q102 117 102 323v920z" />
    <glyph glyph-name="V" unicode="V" horiz-adv-x="1464" 
d="M1419 1493l-600 -1493h-174l-600 1493h172l516 -1317l518 1317h168z" />
    <glyph glyph-name="W" unicode="W" horiz-adv-x="2187" 
d="M692 0h-172l-467 1493h164l391 -1268h4l394 1268h178l397 -1274h2l393 1274h158l-469 -1493h-174l-397 1282z" />
    <glyph glyph-name="X" unicode="X" horiz-adv-x="1361" 
d="M1165 0l-485 653l-481 -653h-185l574 764l-547 729h182l461 -614l457 614h182l-547 -727l572 -766h-183z" />
    <glyph glyph-name="Y" unicode="Y" horiz-adv-x="1413" 
d="M786 0h-159v629l-578 864h189l471 -715l477 715h178l-578 -862v-631z" />
    <glyph glyph-name="Z" unicode="Z" horiz-adv-x="1226" 
d="M1147 143v-143h-1077v143l888 1207h-858v143h1043v-143l-893 -1207h897z" />
    <glyph glyph-name="bracketleft" unicode="[" horiz-adv-x="788" 
d="M197 -231v1873h522v-126h-377v-1618h377v-129h-522z" />
    <glyph glyph-name="backslash" unicode="\" horiz-adv-x="937" 
d="M63 1552h158l649 -1562h-153z" />
    <glyph glyph-name="bracketright" unicode="]" horiz-adv-x="788" 
d="M72 -231v129h377v1618h-377v126h522v-1873h-522z" />
    <glyph glyph-name="asciicircum" unicode="^" horiz-adv-x="1122" 
d="M846 860l-285 483l-285 -483h-174l396 633h127l395 -633h-174z" />
    <glyph glyph-name="underscore" unicode="_" horiz-adv-x="1017" 
d="M1018 -291h-1018v125h1018v-125z" />
    <glyph glyph-name="grave" unicode="`" horiz-adv-x="454" 
d="M424 1192h-143l-244 328h180z" />
    <glyph glyph-name="a" unicode="a" horiz-adv-x="1083" 
d="M782 430v35h-284q-94 0 -166 -35q-86 -37 -86 -128t62 -140t157 -49q133 0 225 88t92 229zM500 588h282v67q0 248 -260 248q-125 0 -189 -64t-77 -143l-143 31q2 43 41 109q118 200 385 200q266 0 358 -211q31 -72 31 -168v-286q0 -250 16 -371h-147q-14 78 -15 178
q-129 -197 -344 -196q-154 0 -245 86q-96 84 -97 215v10q0 151 122 223t282 72z" />
    <glyph glyph-name="b" unicode="b" horiz-adv-x="1282" 
d="M681 115q159 0 259 112q96 115 96 279q0 231 -166 342q-80 55 -190 55q-152 2 -260 -117q-108 -118 -107 -278t105 -276t263 -117zM1188 510q0 -139 -60 -258t-168 -193q-110 -74 -251 -73q-252 0 -396 229v-215h-145v1552h149v-753q153 237 381 237t359 -162t131 -364z
" />
    <glyph glyph-name="c" unicode="c" horiz-adv-x="1171" 
d="M246 514q0 -229 172 -342q84 -57 202 -57q162 0 267 125q45 59 67 118l138 -45q-35 -123 -156 -221q-131 -111 -324 -110q-220 -4 -370 148t-148 376q0 147 72 271t190 192q118 67 276 67t290 -94q133 -100 163 -231l-135 -45q-24 82 -110 160t-236 77q-150 1 -254 -113
t-104 -276z" />
    <glyph glyph-name="d" unicode="d" horiz-adv-x="1282" 
d="M602 903q-164 1 -260 -113t-96 -284q0 -223 166 -336q84 -55 190 -55q154 -1 262 119t105 278q0 100 -47 189t-131 147q-86 55 -189 55zM94 507q0 209 132 369t345 160q141 0 235 -66t161 -165v747h147v-1552h-145v217q-139 -231 -398 -231q-213 0 -348 157
q-129 156 -129 364z" />
    <glyph glyph-name="e" unicode="e" horiz-adv-x="1157" 
d="M596 905q-135 0 -234 -92q-98 -96 -116 -223h674q-14 139 -102 227t-222 88zM592 115q260 0 332 217l131 -41q-43 -143 -166 -228q-127 -81 -275 -81t-268 72q-121 72 -184 192q-68 119 -68 261t64 261q59 121 176 195q118 73 264 73t256 -68q216 -135 215 -456
q0 -26 -2 -49h-823q8 -150 111 -249t237 -99z" />
    <glyph glyph-name="f" unicode="f" horiz-adv-x="690" 
d="M564 1425q-66 0 -119 -46t-54 -169v-192h266v-129h-266v-889h-147v889h-197v129h197v188q0 168 84 262q86 88 227 88q59 0 111 -18v-125q-36 12 -102 12z" />
    <glyph glyph-name="g" unicode="g" horiz-adv-x="1284" 
d="M603 126q159 1 262 116q103 114 105 270t-106 274q-110 118 -268 118t-253 -110t-97 -277t98 -279t259 -112zM967 14v213q-137 -231 -394 -231q-139 0 -249 71t-169 189t-59 256q0 139 58 257t169 193q109 74 249 74t234 -64t163 -167v213h147v-993q0 -260 -143 -398
q-147 -137 -387 -137q-188 0 -324 100q-135 104 -162 250l136 45q26 -100 110 -182t243 -82t263 90q115 94 115 303z" />
    <glyph glyph-name="h" unicode="h" horiz-adv-x="1206" 
d="M1051 0h-150v592q0 141 -72 225q-73 84 -207 84t-221 -92q-84 -94 -84 -229v-580h-149v1552h149v-716q119 201 349 200q180 0 284 -110q100 -117 101 -297v-629z" />
    <glyph glyph-name="i" unicode="i" horiz-adv-x="485" 
d="M168 0v1018h149v-1018h-149zM243 1270q-46 0 -79 35t-33 77t33 78q33 35 79 35t79 -33q32 -33 32 -80q0 -48 -32 -80t-79 -32z" />
    <glyph glyph-name="j" unicode="j" horiz-adv-x="501" 
d="M184 1018h148v-1235q0 -291 -289 -291q-39 0 -94 14v123q31 -6 90 -6t102 42t43 120v1233zM145 1382q0 47 34 80t78 33t81 -33q31 -33 31 -80t-31 -79q-37 -33 -82 -33t-76 35q-35 30 -35 77z" />
    <glyph glyph-name="k" unicode="k" horiz-adv-x="1038" 
d="M317 510v-510h-149v1554h149v-950l484 414h211l-537 -457l561 -561h-207l-505 510h-7z" />
    <glyph glyph-name="l" unicode="l" horiz-adv-x="485" 
d="M168 0v1554h149v-1554h-149z" />
    <glyph glyph-name="m" unicode="m" horiz-adv-x="1857" 
d="M1008 0h-146v598q0 131 -65 219q-68 84 -198 84t-206 -94t-76 -227v-580h-149v1018h145v-176q68 100 146 147t184 47q231 0 326 -205q129 205 358 205q178 0 279 -112q96 -113 96 -295v-629h-148v592q0 139 -66 224t-196 85q-129 0 -207 -91t-77 -224v-586z" />
    <glyph glyph-name="n" unicode="n" horiz-adv-x="1206" 
d="M1051 0h-150v592q0 141 -72 225q-73 84 -207 84t-221 -92q-84 -94 -84 -229v-580h-149v1018h145v-187q123 205 353 205q180 0 284 -110q100 -117 101 -297v-629z" />
    <glyph glyph-name="o" unicode="o" horiz-adv-x="1239" 
d="M993 507q0 163 -106 281q-109 117 -271 117q-162 -1 -266 -115t-106 -277t107 -282q110 -118 270 -117t268 115q104 115 104 278zM94 506q0 227 152 379t375 151q217 4 373 -152t153 -372q4 -222 -154 -378t-377 -152q-141 0 -264 69q-121 72 -188 191q-70 119 -70 264z
" />
    <glyph glyph-name="p" unicode="p" horiz-adv-x="1282" 
d="M681 115q159 0 259 112q96 115 96 279q0 231 -166 342q-80 55 -190 55q-152 2 -260 -117q-108 -118 -107 -278t105 -276t263 -117zM1188 510q0 -139 -60 -258t-168 -193q-110 -74 -251 -73q-250 0 -392 223v-711h-149v1520h145v-221q157 239 385 239t359 -162t131 -364z
" />
    <glyph glyph-name="q" unicode="q" horiz-adv-x="1282" 
d="M602 903q-164 1 -260 -113t-96 -284q0 -223 166 -336q84 -55 190 -55q154 -1 262 119t105 278q0 100 -47 189t-131 147q-86 55 -189 55zM94 507q0 209 132 369t345 160q143 0 237 -68t161 -167v217h145v-1520h-147v717q-137 -229 -396 -229q-213 0 -348 157
q-129 156 -129 364z" />
    <glyph glyph-name="r" unicode="r" horiz-adv-x="724" 
d="M168 1018h145v-201q72 145 209 197q56 20 108 20t62 -4v-158q-16 4 -57 5q-166 0 -242 -111t-76 -268v-498h-149v1018z" />
    <glyph glyph-name="s" unicode="s" horiz-adv-x="935" 
d="M840 277q0 -125 -105 -207q-104 -86 -256 -86q-223 0 -325 147q-51 70 -62 156l135 35q15 -84 77 -146t160 -63q98 0 160 45q64 44 64 114t-47 107t-119 53l-155 35q-254 55 -254 266q0 158 127 236q109 68 219 67q209 -2 305 -135q47 -68 61 -137l-135 -39
q-14 59 -64 120t-150 61t-158 -47q-56 -46 -56 -116q0 -102 148 -139l163 -37q113 -27 190 -96t77 -194z" />
    <glyph glyph-name="t" unicode="t" horiz-adv-x="724" 
d="M524 -8q-289 0 -288 272v623h-189v131h189v293h147v-293h258v-131h-258v-621q0 -143 166 -143q39 0 92 8v-123q-54 -16 -117 -16z" />
    <glyph glyph-name="u" unicode="u" horiz-adv-x="1204" 
d="M156 1018h147v-592q0 -143 74 -225q70 -84 205 -84t221 92t86 229v580h147v-1018h-145v186q-123 -207 -350 -206q-178 0 -285 112q-100 113 -100 297v629z" />
    <glyph glyph-name="v" unicode="v" horiz-adv-x="1114" 
d="M635 0h-158l-432 1018h164l348 -854l354 854h158z" />
    <glyph glyph-name="w" unicode="w" horiz-adv-x="1650" 
d="M823 827l-270 -827h-164l-340 1018h156l268 -844l277 844h151l277 -846h2l270 846h154l-344 -1018h-164l-271 827h-2z" />
    <glyph glyph-name="x" unicode="x" horiz-adv-x="1050" 
d="M840 0l-316 414l-315 -414h-174l403 518l-387 500h174l301 -395l301 395h172l-385 -498l402 -520h-176z" />
    <glyph glyph-name="y" unicode="y" horiz-adv-x="1132" 
d="M401 -502h-161l264 572l-463 948h170l373 -787l354 787h160z" />
    <glyph glyph-name="z" unicode="z" horiz-adv-x="980" 
d="M895 127v-127h-815v127l635 764h-621v127h799v-127l-637 -764h639z" />
    <glyph glyph-name="braceleft" unicode="{" horiz-adv-x="804" 
d="M659 1645h74v-129h-61q-138 0 -200 -33t-70 -107t10 -172l26 -174q19 -57 -22 -179q-16 -48 -66 -89t-125 -55v-2q76 -13 126 -51q51 -38 67 -83q41 -111 22 -178l-28 -184q-16 -98 -10 -172t70 -107q65 -33 200 -32h61v-129h-74q-231 0 -331 87t-68 314l31 213
q35 250 -250 258v131q115 4 193 58t57 200l-31 213q-32 227 68 315t331 87z" />
    <glyph glyph-name="bar" unicode="|" horiz-adv-x="538" 
d="M197 -221v1921h145v-1921h-145z" />
    <glyph glyph-name="braceright" unicode="}" horiz-adv-x="804" 
d="M72 -231v129h63q135 0 199 32q63 33 70 101t-11 178l-26 184q-19 65 22 177q17 44 67 82t126 53v2q-76 14 -126 55t-67 89q-40 119 -20 179l24 174q18 110 11 178t-68 101q-70 33 -201 33h-63v129h75q231 0 331 -87t67 -315l-31 -213q-18 -146 58 -200t192 -58v-131
q-285 -8 -250 -258l31 -213q33 -236 -71 -319t-327 -82h-75z" />
    <glyph glyph-name="asciitilde" unicode="~" horiz-adv-x="1220" 
d="M821 438q-101 0 -226 84q-129 86 -202 85q-74 -1 -149 -83l-92 88q94 145 249 146q55 0 129 -27q72 -31 110 -59q119 -86 191 -85t150 89l92 -88q-90 -150 -252 -150z" />
    <glyph glyph-name="uni00A0" unicode="&#xa0;" horiz-adv-x="532" 
 />
    <glyph glyph-name="exclamdown" unicode="&#xa1;" horiz-adv-x="503" 
d="M330 -473h-156v262l8 797h140l8 -797v-262zM252 813q-47 0 -79 32t-32 80t33 80q33 31 79 31t79 -32t33 -77q0 -44 -33 -79t-80 -35z" />
    <glyph glyph-name="cent" unicode="&#xa2;" horiz-adv-x="1187" 
d="M256 512q0 -145 81 -256t214 -135v776q-133 -25 -214 -133t-81 -252zM672 -195h-123v183q-193 20 -320 168t-127 350q0 203 127 352q129 145 320 172v184h123v-180q160 -12 276 -106t148 -217l-138 -45q-20 68 -92 144t-196 91v-784q156 23 231 133q37 47 62 108l137 -45
q-31 -115 -139 -209q-115 -104 -289 -120v-179z" />
    <glyph glyph-name="sterling" unicode="&#xa3;" horiz-adv-x="1234" 
d="M676 1364q-130 0 -213 -78q-80 -80 -80 -194q0 -64 21 -135t24 -75q2 -5 6 -17t8 -23q11 -33 15 -39h417v-144h-372q16 -72 16 -129q0 -238 -188 -385h436q139 0 190 78q45 66 45 144l148 -17q0 -197 -166 -299q-86 -51 -197 -51h-671v145q106 53 174 157t67 220
q0 63 -18 137h-217v144h170q-70 187 -70 293q-2 172 129 294t307 117q197 0 307 -100t115 -260l-149 -27q-6 94 -65 169t-189 75z" />
    <glyph glyph-name="currency" unicode="&#xa4;" horiz-adv-x="1263" 
d="M317 514q0 -133 91 -217q86 -86 223 -86t228 85t91 218t-90 222t-228 89t-226 -89t-89 -222zM1090 516q0 -152 -99 -272l160 -162l-92 -92l-166 166q-115 -78 -261 -78t-261 78l-166 -166l-92 92l161 164q-96 114 -96 268t94 272l-159 160l92 94l164 -166q115 82 260 82
t266 -79l164 163l92 -94l-160 -160q99 -118 99 -270z" />
    <glyph glyph-name="yen" unicode="&#xa5;" horiz-adv-x="1404" 
d="M1243 385v-127h-463v-258h-157v258h-461v127h461v188h-461v127h416l-506 793h190l443 -723l448 723h180l-508 -793h418v-127h-463v-188h463z" />
    <glyph glyph-name="brokenbar" unicode="&#xa6;" horiz-adv-x="532" 
d="M195 -221v743h143v-743h-143zM338 954h-143v746h143v-746z" />
    <glyph glyph-name="section" unicode="&#xa7;" horiz-adv-x="1239" 
d="M774 565q96 0 160 42q64 41 65 101t-65 104t-220 80t-246 36q-93 0 -157 -43q-63 -43 -63 -101t70 -103q70 -46 214 -81q146 -35 242 -35zM217 1222q0 136 115 212t266 75q203 0 328 -106q111 -98 129 -205l-135 -33q-18 81 -104 145t-213 64q-126 0 -191 -63
q-37 -37 -37 -93t61 -96t189 -73l184 -48q197 -47 271 -115q73 -68 73 -164t-82 -156q-82 -62 -194 -81q153 -76 153 -217t-125 -219q-111 -74 -256 -74q-217 0 -339 116t-144 239l135 35q23 -98 114 -176t221 -78t200 71q39 39 38 90q0 68 -86 113q-45 24 -206 70l-99 24
q-12 4 -32 9q-160 40 -236 90q-123 76 -122 186t89 169q88 60 189 75q-154 77 -154 214z" />
    <glyph glyph-name="dieresis" unicode="&#xa8;" horiz-adv-x="636" 
d="M498 1188q-42 0 -78 35q-35 35 -35 82t35 79t78 33q44 0 78 -33q34 -34 34 -80t-35 -81t-77 -35zM134 1188q-44 0 -79 35t-35 82t35 79t79 33q44 0 78 -33q34 -34 34 -80t-34 -81t-78 -35z" />
    <glyph glyph-name="copyright" unicode="&#xa9;" horiz-adv-x="1720" 
d="M859 1092q-132 0 -224 -99q-90 -102 -90 -244q0 -143 87 -243t228 -100t215 79q59 61 84 131l135 -45q-38 -119 -152 -207t-298 -88t-315 134q-132 134 -133 334q0 202 140 340t334 135q152 0 271 -82q121 -88 147 -209l-131 -43q-18 63 -92 135t-206 72zM860 1417
q-184 0 -334 -90t-236 -246q-86 -155 -85 -315q0 -160 49 -280q102 -249 348 -357q125 -53 258 -53q271 0 467 196q189 196 189 494q0 160 -86 315q-86 156 -238 246q-148 90 -332 90zM860 -14q-156 0 -295 60q-274 118 -401 405q-123 298 0 591q127 291 403 406
q137 61 293 61t293 -61q135 -54 239 -158t162 -244q60 -140 60 -300q1 -309 -219 -539q-101 -101 -240 -161t-295 -60z" />
    <glyph glyph-name="ordfeminine" unicode="&#xaa;" horiz-adv-x="1079" 
d="M154 524h725v-125h-725v125zM542 850q100 0 162 71q64 71 64 170t-66 171t-164 72t-160 -68q-64 -68 -64 -171t64 -174t164 -71zM768 856h-4q-34 -59 -100 -95t-146 -36q-152 0 -248 109q-96 104 -96 254t96 260t255 110t239 -135h4v123h135v-711h-135v121z" />
    <glyph glyph-name="guillemotleft" unicode="&#xab;" horiz-adv-x="1081" 
d="M510 573l344 347l90 -91l-242 -251l242 -252l-90 -90zM90 573l344 347l90 -91l-241 -251l241 -252l-90 -90z" />
    <glyph glyph-name="logicalnot" unicode="&#xac;" horiz-adv-x="1255" 
d="M956 502v354h-837v139h979v-493h-142z" />
    <glyph glyph-name="uni00AD" unicode="&#xad;" horiz-adv-x="831" 
d="M143 518v158h545v-158h-545z" />
    <glyph glyph-name="registered" unicode="&#xae;" horiz-adv-x="1173" 
d="M487 1219v-185h101q67 4 92 31q47 41 22 99t-114 55h-101zM391 1311h201q100 0 156 -50q56 -49 57 -123q0 -141 -139 -177l163 -242h-112l-154 225h-76v-225h-96v592zM586 1434q-168 0 -287 -122t-121 -294t121 -299t287 -123q164 -4 288 123t119 297q0 170 -119 295
q-120 123 -288 123zM586 522q-131 0 -244 68q-109 63 -174 177t-66 249q0 207 142 348q139 143 339 145t346 -146t142 -347q4 -198 -142 -348t-343 -146z" />
    <glyph glyph-name="degree" unicode="&#xb0;" horiz-adv-x="870" 
d="M432 1380q-84 0 -143 -59t-59 -146t58 -147q60 -60 146 -61q86 0 148 61q59 62 59 146t-61 145q-64 61 -148 61zM434 840q-139 0 -235 98q-97 98 -97 236t98 234q98 97 236 97q139 0 236 -96q96 -100 96 -237q0 -136 -98 -234t-236 -98z" />
    <glyph glyph-name="plusminus" unicode="&#xb1;" horiz-adv-x="1241" 
d="M139 156h965v-138h-965v138zM549 778v344h145v-344h412v-139h-412v-350h-145v350h-414v139h414z" />
    <glyph glyph-name="uni00B2" unicode="&#xb2;" horiz-adv-x="890" 
d="M127 811v41q2 94 47 158q29 47 70 80q37 37 80 63q43 27 49 31l12 8t18 10t27 16t26 15q11 4 13 6q145 88 145 184q0 63 -45 109q-49 43 -123 43q-168 0 -182 -170l-127 18q6 117 87 196q80 79 218 79t222 -78t84 -193q0 -73 -46 -145t-120 -119l-150 -92
q-131 -82 -137 -139h459v-121h-627z" />
    <glyph glyph-name="uni00B3" unicode="&#xb3;" horiz-adv-x="860" 
d="M745 1077q0 -94 -49 -157q-43 -62 -120 -96t-154 -33q-131 1 -218 75t-100 207l125 21q9 -86 59 -134t130 -49q80 0 137 45q55 47 55 117t-53 111q-57 41 -117 41t-94 -21l-63 101l295 254h-449v120h602v-141l-237 -203q106 -16 180 -88q71 -76 71 -170z" />
    <glyph glyph-name="acute" unicode="&#xb4;" horiz-adv-x="456" 
d="M246 1520h182l-246 -328h-141z" />
    <glyph glyph-name="uni00B5" unicode="&#xb5;" horiz-adv-x="1259" 
d="M338 1018v-592q0 -145 72 -225q70 -84 204 -84t224 92q84 94 84 229v580h147v-1018h-145v186q-121 -207 -351 -206q-145 0 -237 73v-366h-148v1331h150z" />
    <glyph glyph-name="paragraph" unicode="&#xb6;" horiz-adv-x="966" 
d="M598 727h-143q-158 0 -271 113q-112 112 -112 272t112 270t271 111h295v-1493h-152v727z" />
    <glyph glyph-name="middot" unicode="&#xb7;" horiz-adv-x="559" 
d="M143 603q0 58 39 97q38 39 96 39t98 -39t40 -97t-40 -97t-98 -39t-96 39q-39 39 -39 97z" />
    <glyph glyph-name="uni00B9" unicode="&#xb9;" horiz-adv-x="579" 
d="M422 1679v-868h-133v725l-178 -102l-60 98l252 147h119z" />
    <glyph glyph-name="ordmasculine" unicode="&#xba;" horiz-adv-x="1058" 
d="M168 524h723v-125h-723v125zM530 1333q-100 1 -166 -67t-65 -170q0 -102 67 -174q66 -72 164 -72t166 70q63 70 64 170q0 100 -65 172t-165 71zM529 725q-157 0 -263 106q-108 105 -108 261t107 261t263 105t265 -104q109 -110 109 -264t-108 -260t-265 -105z" />
    <glyph glyph-name="guillemotright" unicode="&#xbb;" horiz-adv-x="1069" 
d="M635 236l-90 90l243 247l-243 256l90 91l344 -347zM227 236l-92 90l244 247l-244 256l92 91l344 -347z" />
    <glyph glyph-name="onequarter" unicode="&#xbc;" horiz-adv-x="1644" 
d="M1274 311v408l-340 -408h340zM1405 870v-559h158v-121h-158v-190h-131v190h-475v148l444 532h162zM1313 1493l-975 -1493h-152l975 1493h152zM305 625v725l-180 -105l-57 98l249 150h121v-868h-133z" />
    <glyph glyph-name="onehalf" unicode="&#xbd;" horiz-adv-x="1662" 
d="M1565 121v-121h-629v41q6 100 54 169t149 134q17 9 49 30t51 31t39 25q145 84 145 184q0 61 -45 105q-51 45 -121 45q-168 0 -182 -170l-129 18q10 119 88 197q82 78 218 78t221 -80q84 -80 83 -191q0 -76 -45 -146t-120 -120l-150 -90q-127 -76 -137 -139h461zM322 0
h-152l973 1493h151zM307 625v725l-180 -105l-57 98l249 150h121v-868h-133z" />
    <glyph glyph-name="threequarters" unicode="&#xbe;" horiz-adv-x="1845" 
d="M1483 311v408l-340 -408h340zM1614 870v-559h158v-121h-158v-190h-131v190h-475v148l444 532h162zM1370 1493h152l-975 -1493h-152zM727 892q0 -93 -48 -159q-94 -129 -273 -129q-132 0 -220 75t-100 208l125 20q18 -182 197 -182q76 0 131 45t55 115q0 71 -54 111
t-112 40t-100 -18l-62 100l295 254h-448v121h600v-141l-238 -205q111 -12 181 -87t71 -168z" />
    <glyph glyph-name="questiondown" unicode="&#xbf;" horiz-adv-x="1013" 
d="M459 586h145q2 -14 2 -62t-33 -124q-33 -75 -100 -139q-14 -13 -26 -26l-23 -23t-17 -19q-7 -8 -20 -20t-34 -34t-30 -31q-94 -94 -96 -201t72 -179t211 -72t214 92t69 232l151 -7q2 -20 2 -45q0 -119 -58 -214t-163 -152q-109 -51 -219 -51q-195 0 -322 116
q-117 113 -116 273q0 111 63 196q63 94 158 180l14 15q17 16 37 38t27 27q27 31 45 62q47 66 47 168zM649 925q0 -46 -32 -79q-33 -33 -79 -33t-79 33t-33 79t33 79q33 32 79 32t78 -32t33 -79z" />
    <glyph glyph-name="Agrave" unicode="&#xc0;" horiz-adv-x="1478" 
d="M1083 524l-348 807l-346 -807h694zM827 1493l646 -1493h-166l-164 381h-813l-164 -381h-160l643 1493h178zM811 1630h-141l-246 328h180z" />
    <glyph glyph-name="Aacute" unicode="&#xc1;" horiz-adv-x="1478" 
d="M1083 524l-348 807l-346 -807h694zM827 1493l646 -1493h-166l-164 381h-813l-164 -381h-160l643 1493h178zM872 1958h183l-246 -328h-143z" />
    <glyph glyph-name="Acircumflex" unicode="&#xc2;" horiz-adv-x="1478" 
d="M1083 524l-348 807l-346 -807h694zM827 1493l646 -1493h-166l-164 381h-813l-164 -381h-160l643 1493h178zM659 1956h150l262 -328h-160l-172 225h-4l-172 -225h-157z" />
    <glyph glyph-name="Atilde" unicode="&#xc3;" horiz-adv-x="1478" 
d="M1083 524l-348 807l-346 -807h694zM827 1493l646 -1493h-166l-164 381h-813l-164 -381h-160l643 1493h178zM616 1761q-62 0 -77 -92h-109q2 97 46 159t138 62q41 2 128 -46t124 -46q63 0 84 88h94q-9 -217 -180 -217q-70 0 -128 46t-120 46z" />
    <glyph glyph-name="Adieresis" unicode="&#xc4;" horiz-adv-x="1478" 
d="M1083 524l-348 807l-346 -807h694zM827 1493l646 -1493h-166l-164 381h-813l-164 -381h-160l643 1493h178zM926 1634q-45 0 -78 35t-33 82t33 80t78 33t79 -34t34 -80t-34 -81t-79 -35zM545 1634q-45 0 -79 35t-34 82t34 80t79 33t78 -33t33 -80t-33 -82t-78 -35z" />
    <glyph glyph-name="Aring" unicode="&#xc5;" horiz-adv-x="1478" 
d="M389 524h694l-348 807zM735 1466q63 0 109 44t45 106q1 62 -45 105q-46 44 -110 44t-108 -43q-42 -43 -42 -105q0 -63 44 -107t107 -44zM471 1618q0 106 79 180q78 74 186 74t188 -75t80 -179q0 -68 -36 -127t-98 -94l603 -1397h-166l-164 381h-813l-164 -381h-160
l600 1393q-61 35 -98 94t-37 131z" />
    <glyph glyph-name="AE" unicode="&#xc6;" horiz-adv-x="1996" 
d="M942 524v828h-20l-471 -828h491zM1874 1348h-778v-517h710v-145h-710v-541h786l-2 -145h-938v381h-571l-217 -381h-170l856 1493h1034v-145z" />
    <glyph glyph-name="Ccedilla" unicode="&#xc7;" horiz-adv-x="1599" 
d="M977 -184q0 -129 -89 -205t-224 -76q-76 0 -144 23v116q57 -16 140 -16t134 47q50 47 50 132t-64 151q-290 24 -484 230t-194 523q0 168 62 315t164 240q100 98 236 156t292 57q231 0 395 -114q70 -45 131 -115q102 -119 140 -262l-150 -53q-23 86 -88 180
q-47 63 -100 108t-140 74q-86 33 -192 33q-240 0 -413 -171t-175 -435t169 -444t419 -177q197 0 328 105q59 45 98 102q59 77 98 192l150 -53q-33 -123 -125 -239q-49 -63 -119 -117q-152 -121 -371 -135q66 -80 66 -172z" />
    <glyph glyph-name="Egrave" unicode="&#xc8;" 
d="M1075 831v-145h-710v-541h784v-145h-942v1493h936v-145h-778v-517h710zM778 1630h-143l-244 328h182z" />
    <glyph glyph-name="Eacute" unicode="&#xc9;" 
d="M365 1348v-517h710v-145h-710v-541h784v-145h-942v1493h936v-145h-778zM784 1958h181l-244 -328h-143z" />
    <glyph glyph-name="Ecircumflex" unicode="&#xca;" 
d="M1075 831v-145h-710v-541h784v-145h-942v1493h936v-145h-778v-517h710zM602 1956h148l262 -328h-158l-174 225h-4l-170 -225h-160z" />
    <glyph glyph-name="Edieresis" unicode="&#xcb;" 
d="M1075 831v-145h-710v-541h784v-145h-942v1493h934v-145h-776v-517h710zM864 1634q-45 0 -78 35t-32 82q0 47 32 80q33 33 78 33t79 -34t34 -80t-34 -81t-79 -35zM483 1634q-45 0 -79 35t-33 82q0 47 34 80q35 33 79 33t77 -33t33 -80t-33 -82t-78 -35z" />
    <glyph glyph-name="Igrave" unicode="&#xcc;" horiz-adv-x="571" 
d="M365 1493v-1493h-158v1493h158zM358 1630h-143l-244 328h181z" />
    <glyph glyph-name="Iacute" unicode="&#xcd;" horiz-adv-x="571" 
d="M207 0v1493h158v-1493h-158zM420 1958h180l-244 -328h-143z" />
    <glyph glyph-name="Icircumflex" unicode="&#xce;" horiz-adv-x="571" 
d="M365 1493v-1493h-158v1493h158zM209 1956h147l262 -328h-157l-174 225h-4l-170 -225h-160z" />
    <glyph glyph-name="Idieresis" unicode="&#xcf;" horiz-adv-x="571" 
d="M365 1493v-1493h-158v1493h158zM477 1634q-43 0 -78 35t-34 82q0 47 34 80q35 33 78 33t78 -33t35 -80t-35 -82t-78 -35zM94 1634q-45 0 -78 35t-32 82q0 47 32 80q33 33 78 33t80 -33t35 -80t-35 -82t-80 -35z" />
    <glyph glyph-name="Eth" unicode="&#xd0;" horiz-adv-x="1564" 
d="M387 147h281q184 0 328 77t225 212q79 135 79 308t-77 310q-79 136 -221 214t-336 78h-279v-515h365v-145h-365v-539zM229 1493h445q348 0 568 -213t220 -530q0 -215 -106 -392q-106 -172 -284 -265t-398 -93h-445v686h-200v145h200v662z" />
    <glyph glyph-name="Ntilde" unicode="&#xd1;" horiz-adv-x="1634" 
d="M207 0v1493h184l881 -1255v1255h155v-1493h-172l-890 1270v-1270h-158zM731 1761q-59 0 -76 -92h-106q0 97 45 159t137 62q41 2 128 -46t124 -46q66 0 84 88h94q-9 -217 -178 -217q-72 0 -130 46t-122 46z" />
    <glyph glyph-name="Ograve" unicode="&#xd2;" horiz-adv-x="1708" 
d="M1442 741q0 257 -166 439t-424 182t-422 -178t-164 -434q0 -166 74 -306t211 -229q137 -84 304 -84t304 84q133 78 208 219t75 307zM1606 724q0 -186 -96 -360t-272 -277q-175 -103 -386 -103q-156 0 -296 58t-239 163q-98 94 -156 240t-59 296q0 213 100 389t269 276
q170 100 385 101q311 0 537 -217q213 -226 213 -566zM936 1630h-143l-244 328h180z" />
    <glyph glyph-name="Oacute" unicode="&#xd3;" horiz-adv-x="1708" 
d="M1442 741q0 257 -166 439t-424 182t-422 -178t-164 -434q0 -166 74 -306t211 -229q137 -84 304 -84t304 84q133 78 208 219t75 307zM1606 724q0 -186 -96 -360t-272 -277q-175 -103 -386 -103q-156 0 -296 58t-239 163q-98 94 -156 240t-59 296q0 213 100 389t269 276
q170 100 385 101q311 0 537 -217q213 -226 213 -566zM979 1958h180l-246 -328h-141z" />
    <glyph glyph-name="Ocircumflex" unicode="&#xd4;" horiz-adv-x="1708" 
d="M1442 741q0 257 -166 439t-424 182t-422 -178t-164 -434q0 -166 74 -306t211 -229q137 -84 304 -84t304 84q133 78 208 219t75 307zM1606 724q0 -186 -96 -360t-272 -277q-175 -103 -386 -103q-156 0 -296 58t-239 163q-98 94 -156 240t-59 296q0 213 100 389t269 276
q170 100 385 101q311 0 537 -217q213 -226 213 -566zM776 1956h148l262 -328h-158l-174 225h-4l-170 -225h-158z" />
    <glyph glyph-name="Otilde" unicode="&#xd5;" horiz-adv-x="1708" 
d="M1442 741q0 257 -166 439t-424 182t-422 -178t-164 -434q0 -166 74 -306t211 -229q137 -84 304 -84t304 84q133 78 208 219t75 307zM1606 724q0 -186 -96 -360t-272 -277q-175 -103 -386 -103q-156 0 -296 58t-239 163q-98 94 -156 240t-59 296q0 213 100 389t269 276
q170 100 385 101q311 0 537 -217q213 -226 213 -566zM1159 1886q0 -96 -43 -156t-123 -61q-80 0 -140 46q-61 46 -121 46t-77 -92h-108q2 97 46 159t136 62q41 2 129 -46t125 -46q63 0 84 88h92z" />
    <glyph glyph-name="Odieresis" unicode="&#xd6;" horiz-adv-x="1705" 
d="M1442 741q0 257 -166 439t-426 182q-162 0 -301 -82q-135 -86 -209 -225t-74 -305q0 -258 166 -438t424 -181q164 0 301 84q135 78 210 219t75 307zM1604 724q0 -186 -98 -360q-98 -176 -271 -278q-174 -102 -385 -102q-154 0 -296 59t-239 162q-96 96 -154 241t-59 295
q0 213 99 387q96 178 268 278t387 101q158 0 297 -59t238 -158q101 -108 157 -244t56 -322zM1046 1634q-42 0 -77 35t-35 82t35 80t78 33t77 -33t35 -80q0 -47 -35 -82q-36 -35 -78 -35zM664 1634q-44 0 -78 35q-33 35 -33 82t33 80q35 33 79 33q45 0 79 -33t34 -80t-35 -82
t-79 -35z" />
    <glyph glyph-name="multiply" unicode="&#xd7;" horiz-adv-x="1185" 
d="M231 1145l363 -367l360 367l97 -98l-363 -361l363 -362l-97 -99l-360 365l-363 -365l-94 99l363 362l-363 361z" />
    <glyph glyph-name="Oslash" unicode="&#xd8;" horiz-adv-x="1716" 
d="M1446 741q0 233 -133 400l-811 -889q156 -121 340 -121t321 84q133 78 208 216t75 310zM270 750q0 -229 138 -404l811 891q-152 125 -363 125q-162 0 -303 -82q-133 -84 -208 -226t-75 -304zM856 -16q-258 0 -457 151l-196 -211l-97 92l193 211q-190 213 -190 514
q0 211 98 388t268 278q174 100 385 100q262 0 463 -155l195 213l96 -92l-193 -213q188 -215 189 -510q0 -212 -98 -388t-271 -277q-174 -101 -385 -101z" />
    <glyph glyph-name="Ugrave" unicode="&#xd9;" horiz-adv-x="1499" 
d="M1311 1493v-909q1 -285 -147 -442q-148 -156 -415 -156t-413 160t-148 427v920h158v-911q0 -240 115 -344t303 -104t289 115q102 116 102 324v920h156zM831 1630h-143l-244 328h181z" />
    <glyph glyph-name="Uacute" unicode="&#xda;" horiz-adv-x="1499" 
d="M1155 573v920h156v-909q1 -285 -147 -442q-148 -156 -415 -156t-413 160t-148 427v920h158v-911q0 -240 115 -344t303 -104t289 114q102 116 102 325zM874 1958h181l-246 -328h-141z" />
    <glyph glyph-name="Ucircumflex" unicode="&#xdb;" horiz-adv-x="1499" 
d="M1311 1493v-909q1 -285 -147 -442q-148 -156 -415 -156t-413 160t-148 427v920h158v-911q0 -240 115 -344t303 -104t289 115q102 116 102 324v920h156zM672 1956h147l262 -328h-157l-174 225h-5l-170 -225h-157z" />
    <glyph glyph-name="Udieresis" unicode="&#xdc;" horiz-adv-x="1497" 
d="M1311 1493v-909q1 -281 -147 -440q-148 -158 -415 -158t-413 160t-148 427v920h156v-911q0 -238 115 -343t303 -105t289 116q102 117 102 323v920h158zM940 1634q-43 0 -78 35t-35 82t35 80t78 33t78 -34t35 -80t-35 -81t-78 -35zM559 1634q-43 0 -78 35t-35 82t35 80
t78 33t78 -33t35 -80t-35 -82t-78 -35z" />
    <glyph glyph-name="Yacute" unicode="&#xdd;" horiz-adv-x="1413" 
d="M786 0h-157v629l-580 864h189l473 -715l475 715h180l-580 -862v-631zM831 1958h183l-246 -328h-143z" />
    <glyph glyph-name="Thorn" unicode="&#xde;" horiz-adv-x="1296" 
d="M1071 754q0 156 -117 241q-92 66 -260 66h-329v-621h321q197 0 291 96t94 218zM1229 752q0 -188 -139 -322q-139 -133 -410 -133h-315v-297h-158v1493h158v-285l342 -2q264 0 393 -133t129 -321z" />
    <glyph glyph-name="germandbls" unicode="&#xdf;" horiz-adv-x="1214" 
d="M1151 264q0 -116 -98 -199q-98 -81 -248 -81t-233 89t-83 191l136 33q4 -70 49 -128t131 -58t140 41q54 42 54 118t-61 121l-55 39q-6 4 -40 20t-38 19l-19 8q-78 39 -129 72q-80 68 -79 174q-6 105 98 192q26 26 38 32q13 7 44 30l20 16q57 37 95 80t38 113
q0 109 -83 174t-199 65q-150 -1 -232 -109t-82 -259v-1057h-147v1071q0 221 125 352q121 133 336 133q168 0 297 -88q137 -100 137 -278q0 -106 -59 -182q-47 -57 -121 -107l-21 -14q-84 -59 -100 -80q-29 -29 -29 -81t45 -81q30 -25 117 -61l18 -9q102 -43 170 -119
t68 -192z" />
    <glyph glyph-name="agrave" unicode="&#xe0;" horiz-adv-x="1083" 
d="M782 465h-284q-94 0 -166 -35q-86 -37 -86 -128t62 -140t157 -49q133 0 225 88t92 229v35zM782 588v67q0 248 -260 248q-125 0 -189 -64t-77 -143l-143 31q2 43 41 109q118 200 385 200q266 0 358 -211q31 -72 31 -168v-286q0 -250 16 -371h-147q-14 78 -15 178
q-129 -197 -344 -196q-154 0 -245 86q-96 84 -97 215v10q0 151 122 223t282 72h282zM618 1192h-143l-244 328h181z" />
    <glyph glyph-name="aacute" unicode="&#xe1;" horiz-adv-x="1083" 
d="M782 465h-284q-94 0 -166 -35q-86 -37 -86 -128t62 -140t157 -49q133 0 225 88t92 229v35zM782 588v67q0 248 -260 248q-125 0 -189 -64t-77 -143l-143 31q2 43 41 109q118 200 385 200q266 0 358 -211q31 -72 31 -168v-286q0 -250 16 -371h-147q-14 78 -15 178
q-129 -197 -344 -196q-154 0 -245 86q-96 84 -97 215v10q0 151 122 223t282 72h282zM641 1520h180l-243 -328h-144z" />
    <glyph glyph-name="acircumflex" unicode="&#xe2;" horiz-adv-x="1083" 
d="M782 465h-284q-94 0 -166 -35q-86 -37 -86 -128t62 -140t157 -49q133 0 225 88t92 229v35zM782 588v67q0 248 -260 248q-125 0 -189 -64t-77 -143l-143 31q2 43 41 109q118 200 385 200q266 0 358 -211q31 -72 31 -168v-286q0 -250 16 -371h-147q-14 78 -15 178
q-129 -197 -344 -196q-154 0 -245 86q-96 84 -97 215v10q0 151 122 223t282 72h282zM459 1520h147l262 -328h-157l-174 225h-5l-170 -225h-159z" />
    <glyph glyph-name="atilde" unicode="&#xe3;" horiz-adv-x="1083" 
d="M782 465h-284q-94 0 -166 -35q-86 -37 -86 -128t62 -140t157 -49q133 0 225 88t92 229v35zM782 588v67q0 248 -260 248q-125 0 -189 -64t-77 -143l-143 31q2 43 41 109q118 200 385 200q266 0 358 -211q31 -72 31 -168v-286q0 -250 16 -371h-147q-14 78 -15 178
q-129 -197 -344 -196q-154 0 -245 86q-96 84 -97 215v10q0 151 122 223t282 72h282zM823 1409q0 -97 -43 -157t-124 -60t-141 46q-61 46 -121 46t-77 -90h-106q0 98 45 158t137 61q43 2 130 -45t124 -47q61 0 84 88h92z" />
    <glyph glyph-name="adieresis" unicode="&#xe4;" horiz-adv-x="1083" 
d="M782 430v35h-284q-94 0 -166 -35q-86 -37 -86 -128t62 -140t157 -49q133 0 225 88t92 229zM500 588h282v67q0 248 -260 248q-125 0 -189 -64t-77 -143l-143 31q2 43 41 109q118 200 385 200q266 0 358 -211q31 -72 31 -168v-286q0 -250 16 -371h-147q-14 78 -15 178
q-129 -197 -344 -196q-154 0 -245 86q-96 84 -97 215v10q0 151 122 223t282 72zM710 1188q-42 0 -77 35t-35 82t35 79t78 33q43 0 77 -33q34 -34 35 -80q0 -46 -35 -81q-36 -35 -78 -35zM347 1188q-44 0 -79 35t-35 82t35 79t79 33q44 0 78 -33q34 -34 34 -80t-34 -81
t-78 -35z" />
    <glyph glyph-name="aring" unicode="&#xe5;" horiz-adv-x="1083" 
d="M782 465h-284q-94 0 -166 -35q-86 -37 -86 -128t62 -140t157 -49q133 0 225 88t92 229v35zM524 1327q-64 0 -108 -44t-43 -104q0 -61 45 -105q46 -44 110 -44t108 43t44 105t-46 105q-46 44 -110 44zM928 657v-286q0 -250 16 -371h-147q-14 78 -15 178
q-129 -197 -344 -196q-154 0 -245 86q-96 84 -97 215v10q0 151 122 223t282 72h282v67q0 248 -260 248q-125 0 -189 -64t-77 -143l-143 31q8 88 102 186q51 53 125 86q-80 73 -80 179t80 181t188 75t186 -75q79 -75 79 -178t-74 -177q123 -53 178 -179q31 -72 31 -168z" />
    <glyph glyph-name="ae" unicode="&#xe6;" horiz-adv-x="1843" 
d="M786 465h-288q-94 0 -166 -35q-86 -37 -86 -127t63 -140t158 -50q135 0 227 88t92 229v35zM1284 905q-135 0 -240 -94q-102 -96 -114 -221h676q-12 141 -100 228t-222 87zM786 586v69q0 248 -260 248q-124 0 -190 -59t-82 -148l-141 31q2 43 41 109t104 116
q106 84 256 84t244 -57t131 -156q57 97 165 155t224 58q229 0 353 -145t124 -379q0 -27 -2 -49h-825q6 -143 110 -245t238 -103q261 0 334 217l131 -41q-43 -143 -166 -228q-129 -81 -273 -81t-257 64q-114 64 -181 175q-139 -240 -413 -239h-5q-156 0 -251 86
q-98 84 -99 215v10q0 158 135 229q115 63 269 64h286z" />
    <glyph glyph-name="ccedilla" unicode="&#xe7;" horiz-adv-x="1171" 
d="M430 -465q-72 0 -143 23v116q57 -16 141 -16t133 47t49 131t-59 150q-203 23 -328 166q-129 143 -129 354q0 147 72 271t190 192q118 67 276 67t290 -94q133 -100 163 -231l-135 -45q-24 82 -110 160t-236 77q-150 1 -254 -113t-104 -276q0 -231 172 -342q82 -57 202 -57
t201 63q84 55 131 180l140 -45q-37 -115 -144 -211t-268 -116q66 -82 65 -170q0 -129 -89 -205t-226 -76z" />
    <glyph glyph-name="egrave" unicode="&#xe8;" horiz-adv-x="1157" 
d="M596 905q-135 0 -234 -92q-98 -96 -116 -223h674q-14 139 -102 227t-222 88zM592 115q260 0 332 217l131 -41q-43 -143 -166 -228q-127 -81 -275 -81t-268 72q-121 72 -184 192q-68 119 -68 261t64 261q59 121 176 195q118 73 264 73t256 -68q216 -135 215 -456
q0 -26 -2 -49h-823q8 -150 111 -249t237 -99zM672 1192h-144l-243 328h180z" />
    <glyph glyph-name="eacute" unicode="&#xe9;" horiz-adv-x="1157" 
d="M596 905q-135 0 -234 -92q-98 -96 -116 -223h674q-14 139 -102 227t-222 88zM592 115q260 0 332 217l131 -41q-43 -143 -166 -228q-127 -81 -275 -81t-268 72q-121 72 -184 192q-68 119 -68 261t64 261q59 121 176 195q118 73 264 73t256 -68q216 -135 215 -456
q0 -26 -2 -49h-823q8 -150 111 -249t237 -99zM713 1520h180l-246 -328h-141z" />
    <glyph glyph-name="ecircumflex" unicode="&#xea;" horiz-adv-x="1157" 
d="M596 905q-135 0 -234 -92q-98 -96 -116 -223h674q-14 139 -102 227t-222 88zM592 115q260 0 332 217l131 -41q-43 -143 -166 -228q-127 -81 -275 -81t-268 72q-121 72 -184 192q-68 119 -68 261t64 261q59 121 176 195q118 73 264 73t256 -68q216 -135 215 -456
q0 -26 -2 -49h-823q8 -150 111 -249t237 -99zM518 1520h148l262 -328h-158l-174 225h-4l-170 -225h-160z" />
    <glyph glyph-name="edieresis" unicode="&#xeb;" horiz-adv-x="1157" 
d="M596 905q-135 0 -234 -92q-98 -96 -116 -223h674q-14 139 -102 227t-222 88zM592 115q260 0 332 217l131 -41q-43 -143 -166 -228q-127 -81 -275 -81t-268 72q-121 72 -184 192q-68 119 -68 261t64 261q59 121 176 195q118 73 264 73t256 -68q216 -135 215 -456
q0 -26 -2 -49h-823q8 -150 111 -249t237 -99zM769 1188q-44 0 -79 35t-35 82t35 79t79 33q44 0 78 -33q34 -34 34 -80t-34 -81t-78 -35zM406 1417q44 0 78 -33q34 -34 34 -80t-34 -81t-78 -35t-78 35q-33 35 -33 82t33 79t78 33z" />
    <glyph glyph-name="igrave" unicode="&#xec;" horiz-adv-x="485" 
d="M317 1018v-1018h-149v1018h149zM315 1192h-143l-244 328h181z" />
    <glyph glyph-name="iacute" unicode="&#xed;" horiz-adv-x="485" 
d="M168 0v1018h149v-1018h-149zM379 1520h180l-246 -328h-141z" />
    <glyph glyph-name="icircumflex" unicode="&#xee;" horiz-adv-x="485" 
d="M317 1018v-1018h-149v1018h149zM164 1520h149l262 -328h-157l-174 225h-4l-170 -225h-160z" />
    <glyph glyph-name="idieresis" unicode="&#xef;" horiz-adv-x="485" 
d="M317 1018v-1018h-149v1018h149zM421 1188q-44 0 -79 35t-35 82t35 79t79 33q44 0 78 -33q34 -34 34 -80t-34 -81t-78 -35zM66 1417q44 0 78 -33q34 -34 34 -80t-34 -81t-78 -35t-78 35q-33 35 -33 82t33 79t78 33z" />
    <glyph glyph-name="eth" unicode="&#xf0;" horiz-adv-x="1249" 
d="M606 856q-156 0 -258 -106t-102 -265q0 -98 47 -183t132 -137t191 -52q147 -2 262 114q114 117 109 260q0 96 -35 160q-47 93 -139 151t-207 58zM1139 569q0 -262 -148 -426q-152 -159 -379 -159t-372 150q-146 150 -146 355q0 206 144 349q147 143 356 143q68 0 178 -38
t201 -150l4 2q-55 254 -262 428l-330 -156l-45 111l270 122q-135 88 -309 140l57 119q217 -63 390 -191l245 117l47 -113l-192 -92q291 -285 291 -711z" />
    <glyph glyph-name="ntilde" unicode="&#xf1;" horiz-adv-x="1208" 
d="M903 0v592q0 141 -72 225q-73 84 -207 84t-221 -92q-86 -96 -86 -229v-580h-149v1018h147v-187q123 205 351 205q182 0 286 -110q100 -117 101 -297v-629h-150zM488 1284q-60 0 -76 -90h-107q0 98 44 158t138 61q43 2 130 -45t122 -47q61 0 84 88h95q-9 -217 -181 -217
q-72 0 -127 47q-62 45 -122 45z" />
    <glyph glyph-name="ograve" unicode="&#xf2;" horiz-adv-x="1239" 
d="M993 507q0 163 -106 281q-109 117 -271 117q-162 -1 -266 -115t-106 -277t107 -282q110 -118 270 -117t268 115q104 115 104 278zM94 506q0 227 152 379t375 151q217 4 373 -152t153 -372q4 -222 -154 -378t-377 -152q-141 0 -264 69q-121 72 -188 191q-70 119 -70 264z
M696 1192h-143l-246 328h182z" />
    <glyph glyph-name="oacute" unicode="&#xf3;" horiz-adv-x="1239" 
d="M993 507q0 163 -106 281q-109 117 -271 117q-162 -1 -266 -115t-106 -277t107 -282q110 -118 270 -117t268 115q104 115 104 278zM94 506q0 227 152 379t375 151q217 4 373 -152t153 -372q4 -222 -154 -378t-377 -152q-141 0 -264 69q-121 72 -188 191q-70 119 -70 264z
M756 1520h180l-246 -328h-141z" />
    <glyph glyph-name="ocircumflex" unicode="&#xf4;" horiz-adv-x="1239" 
d="M993 507q0 163 -106 281q-109 117 -271 117q-162 -1 -266 -115t-106 -277t107 -282q110 -118 270 -117t268 115q104 115 104 278zM94 506q0 227 152 379t375 151q217 4 373 -152t153 -372q4 -222 -154 -378t-377 -152q-141 0 -264 69q-121 72 -188 191q-70 119 -70 264z
M545 1520h147l262 -328h-157l-172 225h-7l-169 -225h-158z" />
    <glyph glyph-name="otilde" unicode="&#xf5;" horiz-adv-x="1239" 
d="M993 507q0 163 -106 281q-109 117 -271 117q-162 -1 -266 -115t-106 -277t107 -282q110 -118 270 -117t268 115q104 115 104 278zM94 506q0 227 152 379t375 151q217 4 373 -152t153 -372q4 -222 -154 -378t-377 -152q-141 0 -264 69q-121 72 -188 191q-70 119 -70 264z
M502 1284q-60 0 -78 -90h-107q0 98 44 158t139 61q43 2 129 -45t123 -47q61 0 84 88h94q-9 -217 -180 -217q-72 0 -127 47q-61 45 -121 45z" />
    <glyph glyph-name="odieresis" unicode="&#xf6;" horiz-adv-x="1239" 
d="M993 507q0 163 -106 281q-109 117 -271 117q-162 -1 -266 -115t-106 -277t107 -282q110 -118 270 -117t268 115q104 115 104 278zM94 506q0 227 152 379t375 151q217 4 373 -152t153 -372q4 -222 -154 -378t-377 -152q-141 0 -264 69q-121 72 -188 191q-70 119 -70 264z
M803 1188q-45 0 -79 35t-34 82t34 79t79 33q45 0 78 -33q33 -34 33 -80t-33 -81t-78 -35zM439 1188q-44 0 -79 35q-33 35 -32 82q0 47 34 79t77 33q44 0 79 -33q35 -34 35 -80t-35 -81t-79 -35z" />
    <glyph glyph-name="divide" unicode="&#xf7;" horiz-adv-x="1173" 
d="M471 357q0 48 34 82t82 34t82 -36q33 -36 33 -81t-34 -80q-34 -34 -81 -34q-48 0 -82 34t-34 81zM133 651v146h907v-146h-907zM587 975q-46 0 -81 35t-35 83t34 82t82 34t82 -35q33 -35 33 -80t-34 -84q-35 -35 -81 -35z" />
    <glyph glyph-name="oslash" unicode="&#xf8;" horiz-adv-x="1247" 
d="M999 492q0 150 -75 256l-518 -564q100 -72 219 -71q160 0 268 114q106 115 106 265zM248 512q0 -135 78 -244l516 566q-96 72 -219 71q-160 2 -270 -114q-109 -117 -105 -279zM98 521q0 212 152 364t375 151q172 0 309 -100l131 141l86 -80l-129 -141q127 -150 127 -344
q4 -221 -153 -378t-375 -152q-172 0 -306 100l-129 -141l-88 79l129 142q-129 147 -129 359z" />
    <glyph glyph-name="ugrave" unicode="&#xf9;" horiz-adv-x="1206" 
d="M156 389v629h149v-592q0 -145 72 -225q70 -84 206 -84t222 94t86 227v580h145v-1018h-145v186q-121 -207 -348 -206q-180 0 -287 112q-100 113 -100 297zM678 1192h-141l-246 328h180z" />
    <glyph glyph-name="uacute" unicode="&#xfa;" horiz-adv-x="1206" 
d="M305 1018v-592q0 -145 72 -225q70 -84 206 -84t222 94t86 227v580h145v-1018h-145v186q-121 -207 -348 -206q-180 0 -287 112q-100 113 -100 297v629h149zM731 1520h180l-245 -328h-142z" />
    <glyph glyph-name="ucircumflex" unicode="&#xfb;" horiz-adv-x="1206" 
d="M156 389v629h149v-592q0 -145 72 -225q70 -84 206 -84t222 94t86 227v580h145v-1018h-145v186q-121 -207 -348 -206q-180 0 -287 112q-100 113 -100 297zM518 1520h148l264 -328h-160l-172 225h-4l-172 -225h-158z" />
    <glyph glyph-name="udieresis" unicode="&#xfc;" horiz-adv-x="1204" 
d="M156 389v629h147v-592q0 -143 74 -225q70 -84 205 -84t221 92t86 229v580h147v-1018h-145v186q-123 -207 -350 -206q-182 0 -285 112q-100 113 -100 297zM777 1188q-44 0 -79 35t-34 82q0 47 34 79t79 33q44 0 78 -33q34 -34 34 -80t-34 -81t-78 -35zM414 1188
q-45 0 -78 35t-33 82t33 79t78 33q45 0 79 -33q34 -34 34 -80t-34 -81t-79 -35z" />
    <glyph glyph-name="yacute" unicode="&#xfd;" horiz-adv-x="1134" 
d="M940 1018h160l-697 -1520h-161l264 572l-465 948h172l373 -787zM584 1520h180l-244 -328h-143z" />
    <glyph glyph-name="thorn" unicode="&#xfe;" horiz-adv-x="1208" 
d="M299 510q0 -219 152 -332q78 -55 178 -55q154 0 244 122q90 123 90 269t-86 256q-90 121 -246 121q-156 -1 -244 -107t-88 -274zM315 1552v-692q49 78 141 126t183 48q213 0 343 -159t130 -367t-129 -368q-129 -159 -344 -158q-96 0 -182 47t-142 133v-572h-147v1962h147
z" />
    <glyph glyph-name="ydieresis" unicode="&#xff;" horiz-adv-x="1132" 
d="M401 -502h-161l264 572l-463 948h170l373 -787l354 787h160zM759 1188q-44 0 -79 35q-33 35 -33 82t34 79t78 33q44 0 79 -33q35 -34 35 -80t-35 -81t-79 -35zM395 1188q-43 0 -78 35t-34 82t35 79t77 33q43 0 78 -33q35 -34 35 -80t-35 -81t-78 -35z" />
    <glyph glyph-name="Amacron" unicode="&#x100;" horiz-adv-x="1478" 
d="M1083 524l-348 807l-346 -807h694zM827 1493l646 -1493h-166l-164 381h-813l-164 -381h-160l643 1493h178zM1059 1686h-641v135h641v-135z" />
    <glyph glyph-name="amacron" unicode="&#x101;" horiz-adv-x="1083" 
d="M782 465h-284q-94 0 -166 -35q-86 -37 -86 -128t62 -140t157 -49q133 0 225 88t92 229v35zM782 588v67q0 248 -260 248q-125 0 -189 -64t-77 -143l-143 31q2 43 41 109q118 200 385 200q266 0 358 -211q31 -72 31 -168v-286q0 -250 16 -371h-147q-14 78 -15 178
q-129 -197 -344 -196q-154 0 -245 86q-96 84 -97 215v10q0 151 122 223t282 72h282zM840 1221h-645v133h645v-133z" />
    <glyph glyph-name="Abreve" unicode="&#x102;" horiz-adv-x="1478" 
d="M1083 524l-348 807l-346 -807h694zM827 1493l646 -1493h-166l-164 381h-813l-164 -381h-160l643 1493h178zM739 1630q-172 0 -260 144q-45 74 -49 178h117q4 -92 56 -148t136 -55q84 0 135 54t58 149h115q-3 -142 -91 -232t-217 -90z" />
    <glyph glyph-name="abreve" unicode="&#x103;" horiz-adv-x="1083" 
d="M782 465h-284q-94 0 -166 -35q-86 -37 -86 -128t62 -140t157 -49q133 0 225 88t92 229v35zM782 588v67q0 248 -260 248q-125 0 -189 -64t-77 -143l-143 31q2 43 41 109q118 200 385 200q266 0 358 -211q31 -72 31 -168v-286q0 -250 16 -371h-147q-14 78 -15 178
q-129 -197 -344 -196q-154 0 -245 86q-96 84 -97 215v10q0 151 122 223t282 72h282zM520 1188q-174 0 -262 143q-45 76 -51 178h119q4 -92 57 -147t137 -55t135 54t58 148h114q-4 -145 -94 -233t-213 -88z" />
    <glyph glyph-name="Aogonek" unicode="&#x104;" horiz-adv-x="1478" 
d="M1083 524l-348 807l-346 -807h694zM1341 -219q0 -131 164 -127v-115q-29 -4 -53 -4q-106 0 -180 55t-74 156q0 123 164 254h-55l-164 381h-813l-164 -381h-160l643 1493h178l646 -1493q-132 -118 -132 -219z" />
    <glyph glyph-name="aogonek" unicode="&#x105;" horiz-adv-x="1083" 
d="M782 465h-284q-94 0 -166 -35q-86 -37 -86 -128t62 -140t157 -49q133 0 225 88t92 229v35zM813 -219q0 -131 166 -127v-115q-33 -4 -55 -4q-106 0 -181 55q-74 55 -73 156q0 123 166 254h-39q-14 78 -15 178q-129 -197 -344 -196q-154 0 -245 86q-96 84 -97 215v10
q0 151 122 223t282 72h282v67q0 248 -260 248q-125 0 -189 -64t-77 -143l-143 31q2 43 41 109q118 200 385 200q266 0 358 -211q31 -72 31 -168v-286q0 -256 16 -371q-131 -117 -131 -219z" />
    <glyph glyph-name="Cacute" unicode="&#x106;" horiz-adv-x="1601" 
d="M848 -16q-311 0 -526 211q-100 98 -160 242t-60 308t62 311t164 240q100 98 236 156t292 57q330 0 526 -229q104 -119 140 -262l-150 -53q-23 92 -88 180q-89 131 -240 182q-84 33 -192 33q-244 0 -415 -173t-171 -435q0 -172 76 -318q78 -141 212 -221t316 -80
q262 0 408 207q53 70 98 192l152 -53q-38 -133 -118 -229t-150 -146q-170 -120 -412 -120zM987 1958h180l-245 -328h-142z" />
    <glyph glyph-name="cacute" unicode="&#x107;" horiz-adv-x="1181" 
d="M629 115q121 0 202 63q84 55 132 180l139 -45q-39 -125 -156 -221q-131 -111 -323 -110q-225 0 -377 147q-152 152 -152 377q0 150 74 272q70 123 192 191q122 67 279 67q158 0 293 -94q133 -100 164 -231l-138 -45q-22 82 -108 160t-236 78q-150 1 -258 -114
q-108 -116 -104 -276q0 -231 174 -342q82 -57 203 -57zM752 1520h180l-246 -328h-143z" />
    <glyph glyph-name="Ccircumflex" unicode="&#x108;" horiz-adv-x="1601" 
d="M848 -16q-311 0 -526 211q-100 98 -160 242t-60 308t62 311t164 240q100 98 236 156t292 57q330 0 526 -229q104 -119 140 -262l-150 -53q-23 92 -88 180q-89 131 -240 182q-84 33 -192 33q-244 0 -415 -173t-171 -435q0 -172 76 -318q78 -141 212 -221t316 -80
q262 0 408 207q53 70 98 192l152 -53q-38 -133 -118 -229t-150 -146q-170 -120 -412 -120zM776 1956h148l264 -328h-160l-172 225h-6l-170 -225h-158z" />
    <glyph glyph-name="ccircumflex" unicode="&#x109;" horiz-adv-x="1181" 
d="M629 115q121 0 202 63q39 29 64 64q45 53 68 116l139 -45q-39 -125 -156 -221q-131 -111 -323 -110q-225 0 -377 147q-152 152 -152 377q0 150 74 272q70 123 192 191q122 67 279 67q158 0 293 -94q133 -100 164 -231l-138 -45q-23 72 -96 149q-92 88 -244 89t-262 -114
q-108 -116 -104 -276q0 -231 174 -342q82 -57 203 -57zM551 1520h147l265 -328h-160l-172 225h-6l-170 -225h-160z" />
    <glyph glyph-name="Cdotaccent" unicode="&#x10a;" horiz-adv-x="1601" 
d="M848 -16q-311 0 -526 211q-100 98 -160 242t-60 308t62 311t164 240q100 98 236 156t292 57q330 0 526 -229q104 -119 140 -262l-150 -53q-23 92 -88 180q-89 131 -240 182q-84 33 -192 33q-244 0 -415 -173t-171 -435q0 -172 76 -318q78 -141 212 -221t316 -80
q262 0 408 207q53 70 98 192l152 -53q-38 -133 -118 -229t-150 -146q-170 -120 -412 -120zM969 1751q0 -49 -35 -83t-79 -34t-80 35t-36 82t35 82t81 35t80 -34t34 -83z" />
    <glyph glyph-name="cdotaccent" unicode="&#x10b;" horiz-adv-x="1179" 
d="M628 115q120 0 201 63q75 50 134 180l137 -45q-39 -125 -156 -221q-131 -111 -323 -110q-225 0 -376 148t-151 376q0 147 72 272q74 123 196 191q122 67 277 67q156 0 291 -94q133 -100 164 -231l-138 -45q-22 82 -108 160t-236 78q-150 1 -258 -114q-108 -116 -104 -276
q0 -231 174 -342q84 -57 204 -57zM625 1188q-43 0 -78 35t-35 83t35 83t78 35t82 -35q33 -35 33 -83t-33 -83q-39 -35 -82 -35z" />
    <glyph glyph-name="Ccaron" unicode="&#x10c;" horiz-adv-x="1601" 
d="M848 -16q-311 0 -526 211q-100 98 -160 242t-60 308t62 311t164 240q100 98 236 156t292 57q330 0 526 -229q104 -119 140 -262l-150 -53q-23 92 -88 180q-89 131 -240 182q-84 33 -192 33q-244 0 -415 -173t-171 -435q0 -172 76 -318q78 -141 212 -221t316 -80
q262 0 408 207q53 70 98 192l152 -53q-38 -133 -118 -229t-150 -146q-170 -120 -412 -120zM1030 1962h158l-262 -330h-148l-256 330h160l170 -225h4z" />
    <glyph glyph-name="ccaron" unicode="&#x10d;" horiz-adv-x="1179" 
d="M628 115q120 0 201 63q75 50 134 180l137 -45q-39 -125 -156 -221q-131 -111 -323 -110q-225 0 -376 148t-151 376q0 147 72 272q74 123 196 191q122 67 277 67q156 0 291 -94q133 -100 164 -231l-138 -45q-22 82 -108 160t-236 78q-150 1 -258 -114q-108 -116 -104 -276
q0 -231 174 -342q84 -57 204 -57zM633 1294l174 226h158l-263 -328h-149l-256 328h160l172 -226h4z" />
    <glyph glyph-name="Dcaron" unicode="&#x10e;" horiz-adv-x="1542" 
d="M647 1346h-278v-1199h280q185 0 329 77t223 210t79 311q0 261 -170 431t-463 170zM651 0h-444v1493h444q349 0 569 -213t220 -535t-230 -538q-227 -207 -559 -207zM840 1962h157l-262 -330h-149l-254 330h160l170 -225h4z" />
    <glyph glyph-name="dcaron" unicode="&#x10f;" horiz-adv-x="1320" 
d="M602 903q-164 1 -260 -113t-96 -284q0 -223 166 -336q84 -55 190 -55q154 -1 262 119t105 278q0 100 -47 189t-131 147q-86 55 -189 55zM94 507q0 209 132 369t345 160q141 0 235 -66t161 -165v747h147v-1552h-145v217q-139 -231 -398 -231q-213 0 -348 157
q-129 156 -129 364zM1282 1554h164l-66 -428h-127z" />
    <glyph glyph-name="Dcroat" unicode="&#x110;" horiz-adv-x="1564" 
d="M387 147h281q184 0 328 77t225 212q79 135 79 308t-77 310q-79 136 -221 214t-336 78h-279v-515h365v-145h-365v-539zM229 1493h445q348 0 568 -213t220 -530q0 -215 -106 -392q-106 -172 -284 -265t-398 -93h-445v686h-200v145h200v662z" />
    <glyph glyph-name="dslash" unicode="&#x111;" horiz-adv-x="1282" 
d="M602 903q-162 1 -261 -113t-95 -284q0 -223 166 -336q84 -55 190 -55q154 -1 262 119t105 278q0 100 -47 189t-131 147q-86 55 -189 55zM1241 1341v-133h-127v-1208h-145v217q-139 -231 -398 -231q-141 0 -252 74t-165 192q-60 119 -60 254t58 256t169 198q109 76 245 76
t232 -62t167 -169v403h-371v133h371v211h149v-211h127z" />
    <glyph glyph-name="Emacron" unicode="&#x112;" horiz-adv-x="1267" 
d="M367 1348v-517h710v-145h-710v-541h784v-145h-944v1493h938v-145h-778zM1001 1686h-643v135h643v-135z" />
    <glyph glyph-name="emacron" unicode="&#x113;" horiz-adv-x="1157" 
d="M596 905q-135 0 -234 -92q-98 -96 -116 -223h674q-14 139 -102 227t-222 88zM592 115q260 0 332 217l131 -41q-43 -143 -166 -228q-127 -81 -275 -81t-268 72q-121 72 -184 192q-68 119 -68 261t64 261q59 121 176 195q118 73 264 73t256 -68q216 -135 215 -456
q0 -26 -2 -49h-823q8 -150 111 -249t237 -99zM909 1221h-643v133h643v-133z" />
    <glyph glyph-name="Edotaccent" unicode="&#x116;" 
d="M1075 831v-145h-710v-541h784v-145h-942v1493h936v-145h-778v-517h710zM680 1634q-45 0 -81 35t-36 82t35 82t81 35t80 -34t34 -83t-34 -83t-79 -34z" />
    <glyph glyph-name="edotaccent" unicode="&#x117;" horiz-adv-x="1157" 
d="M596 905q-135 0 -234 -92q-98 -96 -116 -223h674q-14 139 -102 227t-222 88zM592 115q260 0 332 217l131 -41q-43 -143 -166 -228q-127 -81 -275 -81t-268 72q-121 72 -184 192q-68 119 -68 261t64 261q59 121 176 195q118 73 264 73t256 -68q216 -135 215 -456
q0 -26 -2 -49h-823q8 -150 111 -249t237 -99zM598 1188q-45 0 -80 37t-35 81t35 83q39 35 82 35t78 -35q35 -39 35 -83t-35 -81t-80 -37z" />
    <glyph glyph-name="Eogonek" unicode="&#x118;" horiz-adv-x="1267" 
d="M1130 -465q-104 0 -179 55t-74 156q0 123 165 254h-835v1493h936v-145h-776v-517h710v-145h-710v-541h784v-145q-53 -45 -92 -104q-39 -66 -39 -115q0 -131 166 -127v-115q-33 -4 -56 -4z" />
    <glyph glyph-name="eogonek" unicode="&#x119;" horiz-adv-x="1157" 
d="M596 905q-135 0 -234 -92q-98 -96 -116 -223h674q-14 139 -102 227t-222 88zM592 115q260 0 332 217l131 -41q-31 -109 -114 -185t-196 -106q-131 -116 -131 -219q0 -131 166 -127v-115q-29 -4 -55 -4q-104 0 -179 56t-75 163t145 228h-6q-143 0 -264 72t-184 192
q-68 119 -68 261t64 261q59 121 176 195q118 73 264 73t256 -68q216 -135 215 -456q0 -26 -2 -49h-823q8 -150 111 -249t237 -99z" />
    <glyph glyph-name="Ecaron" unicode="&#x11a;" horiz-adv-x="1267" 
d="M367 1348v-517h710v-145h-710v-541h784v-145h-944v1493h938v-145h-778zM854 1962h158l-262 -330h-148l-254 330h156l172 -225h4z" />
    <glyph glyph-name="ecaron" unicode="&#x11b;" horiz-adv-x="1157" 
d="M596 905q-135 0 -234 -92q-98 -96 -116 -223h674q-14 139 -102 227t-222 88zM592 115q260 0 332 217l131 -41q-43 -143 -166 -228q-127 -81 -275 -81t-268 72q-121 72 -184 192q-68 119 -68 261t64 261q59 121 176 195q118 73 264 73t256 -68q216 -135 215 -456
q0 -26 -2 -49h-823q8 -150 111 -249t237 -99zM594 1294l174 226h158l-262 -328h-148l-256 328h160l170 -226h4z" />
    <glyph glyph-name="Gcircumflex" unicode="&#x11c;" horiz-adv-x="1638" 
d="M852 1362q-123 0 -234 -49t-188 -133q-164 -180 -164 -436t162 -434t428 -179q206 0 360 119t166 328h-624v145h790v-57q0 -291 -186 -486q-186 -194 -517 -194t-537 216t-206 539q0 213 98 388t273 277q174 102 385 101q270 0 434 -131t226 -311l-150 -53
q-33 94 -102 176q-51 53 -99 86q-127 88 -315 88zM782 1956h150l262 -328h-160l-172 225h-4l-172 -225h-158z" />
    <glyph glyph-name="gcircumflex" unicode="&#x11d;" horiz-adv-x="1284" 
d="M603 126q159 1 262 116q103 114 105 270t-106 274q-110 118 -268 118t-253 -110t-97 -277t98 -279t259 -112zM967 14v213q-137 -231 -394 -231q-139 0 -249 71t-169 189t-59 256q0 139 58 257t169 193q109 74 249 74t234 -64t163 -167v213h147v-993q0 -260 -143 -398
q-147 -137 -387 -137q-188 0 -324 100q-135 104 -162 250l136 45q26 -100 110 -182t243 -82t263 90q115 94 115 303zM532 1520h148l262 -328h-158l-174 225h-4l-172 -225h-158z" />
    <glyph glyph-name="Gbreve" unicode="&#x11e;" horiz-adv-x="1638" 
d="M852 1362q-123 0 -234 -49t-188 -133q-164 -180 -164 -436t162 -434t428 -179q206 0 360 119t166 328h-624v145h790v-57q0 -291 -186 -486q-186 -194 -517 -194t-537 216t-206 539q0 213 98 388t273 277q174 102 385 101q270 0 434 -131t226 -311l-150 -53
q-33 94 -102 176q-51 53 -99 86q-127 88 -315 88zM862 1630q-172 0 -260 144q-45 74 -49 178h117q4 -92 56 -148t136 -55q84 0 135 54t58 149h114q-2 -142 -90 -232t-217 -90z" />
    <glyph glyph-name="gbreve" unicode="&#x11f;" horiz-adv-x="1284" 
d="M603 126q159 1 262 116q103 114 105 270t-106 274q-110 118 -268 118t-253 -110t-97 -277t98 -279t259 -112zM967 14v213q-137 -231 -394 -231q-139 0 -249 71t-169 189t-59 256q0 139 58 257t169 193q109 74 249 74t234 -64t163 -167v213h147v-993q0 -260 -143 -398
q-147 -137 -387 -137q-188 0 -324 100q-135 104 -162 250l136 45q26 -100 110 -182t243 -82t263 90q115 94 115 303zM610 1188q-172 0 -262 143q-45 78 -49 178h117q4 -92 57 -147t137 -55t136 54t59 148h115q-6 -145 -93 -233q-92 -88 -217 -88z" />
    <glyph glyph-name="Gdotaccent" unicode="&#x120;" horiz-adv-x="1634" 
d="M857 1362q-179 0 -313 -85t-207 -224t-73 -303q0 -258 159 -438t429 -181q206 0 360 119t166 328h-622v145h790v-57q0 -287 -184 -482q-192 -198 -522 -198t-534 216t-204 539q0 213 99 389q98 176 269 276t384 101q270 0 438 -135q158 -123 221 -307l-149 -53
q-35 98 -102 176q-51 53 -99 86q-127 88 -306 88zM870 1634q-46 0 -80 35t-34 82t35 82t81 35t79 -35q34 -35 34 -82t-35 -82t-80 -35z" />
    <glyph glyph-name="gdotaccent" unicode="&#x121;" horiz-adv-x="1284" 
d="M603 126q159 1 262 116q103 114 105 270t-106 274q-110 118 -268 118t-253 -110t-97 -277t98 -279t259 -112zM967 14v213q-137 -231 -394 -231q-139 0 -249 71t-169 189t-59 256q0 139 58 257t169 193q109 74 249 74t234 -64t163 -167v213h147v-993q0 -260 -143 -398
q-147 -137 -387 -137q-188 0 -324 100q-135 104 -162 250l136 45q26 -100 110 -182t243 -82t263 90q115 94 115 303zM606 1188q-45 0 -80 37q-34 37 -34 81t34 83q39 35 82 35t78 -35q35 -39 35 -83t-35 -81t-80 -37z" />
    <glyph glyph-name="Gcommaaccent" unicode="&#x122;" horiz-adv-x="1634" 
d="M795 -397q-33 -1 -61 29t-27 77q0 47 32 74q31 31 83 31t84 -42t32 -125t-57 -169q-62 -80 -162 -92v63q53 10 89 57t40 107q-20 -10 -53 -10zM857 1362q-179 0 -313 -85t-207 -224t-73 -303q0 -258 159 -438t429 -181q206 0 360 119t166 328h-622v145h790v-57
q0 -287 -184 -482q-192 -198 -522 -198t-534 216t-204 539q0 213 99 389q98 176 269 276t384 101q270 0 438 -135q158 -123 221 -307l-149 -53q-35 98 -102 176q-51 53 -99 86q-127 88 -306 88z" />
    <glyph glyph-name="gcommaaccent" unicode="&#x123;" horiz-adv-x="1284" 
d="M603 126q159 1 262 116q103 114 105 270t-106 274q-110 118 -268 118t-253 -110t-97 -277t98 -279t259 -112zM967 14v213q-137 -231 -394 -231q-139 0 -249 71t-169 189t-59 256q0 139 58 257t169 193q109 74 249 74t234 -64t163 -167v213h147v-993q0 -260 -143 -398
q-147 -137 -387 -137q-188 0 -324 100q-135 104 -162 250l136 45q26 -100 110 -182t243 -82t263 90q115 94 115 303zM632 1380q34 0 62 -30t29 -77q0 -46 -34 -75t-83 -29t-82 44t-32 104q0 106 56 186t161 96v-63q-51 -12 -88 -61q-39 -45 -39 -105q16 10 50 10z" />
    <glyph glyph-name="Hbar" unicode="&#x126;" horiz-adv-x="1593" 
d="M1223 1108h-852v-277h852v277zM371 684v-684h-156v1108h-168v139h168v246h156v-246h852v246h155v-246h168v-139h-168v-1108h-155v684h-852z" />
    <glyph glyph-name="hbar" unicode="&#x127;" horiz-adv-x="1206" 
d="M901 0v592q0 141 -72 225q-73 84 -207 84t-221 -92q-84 -94 -84 -229v-580h-149v1208h-127v133h127v211h149v-211h371v-133h-371v-372q119 201 349 200q180 0 284 -110q100 -117 101 -297v-629h-150z" />
    <glyph glyph-name="Itilde" unicode="&#x128;" horiz-adv-x="571" 
d="M207 0v1493h158v-1493h-158zM166 1761q-62 0 -78 -92h-108q0 93 45 157t139 64q41 2 128 -46t124 -46q63 0 84 88h94q-9 -217 -180 -217q-70 0 -128 46t-120 46z" />
    <glyph glyph-name="itilde" unicode="&#x129;" horiz-adv-x="485" 
d="M168 0v1018h149v-1018h-149zM373 1321q61 0 84 88h92q0 -92 -43 -158q-43 -59 -124 -59t-141 46q-61 46 -121 46t-77 -90h-106q9 219 182 219q43 2 130 -45t124 -47z" />
    <glyph glyph-name="Imacron" unicode="&#x12a;" horiz-adv-x="571" 
d="M207 0v1493h158v-1493h-158zM569 1686h-567v135h567v-135z" />
    <glyph glyph-name="imacron" unicode="&#x12b;" horiz-adv-x="485" 
d="M168 0v1018h149v-1018h-149zM524 1221h-563v133h563v-133z" />
    <glyph glyph-name="Ibreve" unicode="&#x12c;" horiz-adv-x="571" 
d="M207 0v1493h158v-1493h-158zM287 1630q-84 0 -146 35q-69 35 -115 111t-49 176h117q4 -92 56 -148t137 -55q84 0 135 54t59 149h113q-2 -142 -90 -232t-217 -90z" />
    <glyph glyph-name="ibreve" unicode="&#x12d;" horiz-adv-x="485" 
d="M168 0v1018h149v-1018h-149zM246 1188q-176 0 -264 146q-46 76 -50 175h119q3 -92 57 -147t138 -55t135 54t57 148h115q-4 -145 -94 -233t-213 -88z" />
    <glyph glyph-name="Iogonek" unicode="&#x12e;" horiz-adv-x="571" 
d="M344 -465q-102 0 -180 55q-74 55 -74 156q0 123 166 254h-49v1493h158v-1493q-53 -45 -93 -104t-39 -115q0 -129 166 -127v-115q-33 -4 -55 -4z" />
    <glyph glyph-name="iogonek" unicode="&#x12f;" horiz-adv-x="485" 
d="M186 -219q0 -129 166 -127v-115q-29 -4 -55 -4q-104 0 -179 56t-75 155q0 123 166 254h-41v1018h149v-1018q-131 -116 -131 -219zM243 1270q-46 0 -79 35t-33 77t33 78q33 35 79 35t79 -33q33 -34 33 -80t-33 -79t-79 -33z" />
    <glyph glyph-name="Idot" unicode="&#x130;" horiz-adv-x="571" 
d="M365 1493v-1493h-158v1493h158zM287 1634q-45 0 -80 35t-35 82t34 82t80 35t80 -34t34 -83t-34 -83t-79 -34z" />
    <glyph glyph-name="dotlessi" unicode="&#x131;" horiz-adv-x="485" 
d="M317 1018v-1018h-149v1018h149z" />
    <glyph glyph-name="IJ" unicode="&#x132;" horiz-adv-x="1300" 
d="M346 754h-158v739h158v-739zM1110 1493v-1028q0 -207 -127 -344q-129 -135 -335 -135t-333 131t-127 344v71h158v-65q0 -170 93 -252t217 -82t212 94q84 94 84 234v1032h158z" />
    <glyph glyph-name="Kcommaaccent" unicode="&#x136;" horiz-adv-x="1290" 
d="M642 -397q-34 -1 -62 29t-29 76q0 46 34 76t85 30t83 -42t31 -104q0 -104 -57 -190q-62 -80 -162 -92v63q53 10 90 57t37 107q-16 -10 -50 -10zM365 719v-719h-158v1493h158v-659h10l669 659h218l-732 -715l766 -778h-221l-700 719h-10z" />
    <glyph glyph-name="kcommaaccent" unicode="&#x137;" horiz-adv-x="1038" 
d="M518 -397q-32 -1 -60 29t-28 77t33 74q31 31 83 31t84 -43t32 -103q0 -109 -58 -190q-62 -80 -160 -92v63q49 8 88 59q39 45 39 105q-20 -10 -53 -10zM317 510v-510h-149v1554h149v-950l484 414h211l-537 -457l561 -561h-207l-505 510h-7z" />
    <glyph glyph-name="Lacute" unicode="&#x139;" horiz-adv-x="1112" 
d="M1073 147v-147h-866v1493h158v-1346h708zM426 1958h180l-244 -328h-143z" />
    <glyph glyph-name="lacute" unicode="&#x13a;" horiz-adv-x="487" 
d="M168 0v1554h149v-1554h-149zM381 2013h180l-244 -327h-143z" />
    <glyph glyph-name="Lcommaaccent" unicode="&#x13b;" horiz-adv-x="1112" 
d="M592 -397q-33 -1 -61 29t-27 77q0 47 33 76t83 29t84 -43q32 -43 31 -103q0 -109 -57 -190q-62 -80 -160 -92v63q49 8 88 59q39 45 39 105q-20 -10 -53 -10zM207 0v1493h158v-1346h708v-147h-866z" />
    <glyph glyph-name="lcommaaccent" unicode="&#x13c;" horiz-adv-x="485" 
d="M205 -397q-33 -1 -61 29t-27 77q0 47 34 76q35 29 85 29t81 -43t31 -103q0 -109 -57 -190q-58 -80 -160 -92v63q49 8 88 56t39 108q-20 -10 -53 -10zM317 1554v-1554h-149v1554h149z" />
    <glyph glyph-name="Lcaron" unicode="&#x13d;" horiz-adv-x="1153" 
d="M1073 147v-147h-866v1493h158v-1346h708zM918 1536h163l-65 -428h-125z" />
    <glyph glyph-name="lcaron" unicode="&#x13e;" horiz-adv-x="522" 
d="M457 1126l26 428h164l-65 -428h-125zM317 1554v-1554h-149v1554h149z" />
    <glyph glyph-name="Ldot" unicode="&#x13f;" horiz-adv-x="1142" 
d="M848 721q0 47 33 80t77 33t80 -33q33 -37 33 -81t-33 -77q-34 -33 -80 -33t-78 32t-32 79zM207 0v1493h158v-1346h708v-147h-866z" />
    <glyph glyph-name="ldot" unicode="&#x140;" horiz-adv-x="708" 
d="M592 610q-47 0 -79 32t-32 78t31 81q37 33 80 33t80 -33q33 -37 33 -81t-33 -77t-80 -33zM317 1554v-1554h-149v1554h149z" />
    <glyph glyph-name="Lslash" unicode="&#x141;" horiz-adv-x="1144" 
d="M238 1493h157v-627l422 215v-151l-422 -215v-568h707v-147h-864v635l-199 -103v152l199 102v707z" />
    <glyph glyph-name="lslash" unicode="&#x142;" horiz-adv-x="677" 
d="M268 1554h152v-727l194 146v-156l-194 -143v-674h-152v563l-192 -145v155l192 144v837z" />
    <glyph glyph-name="Nacute" unicode="&#x143;" horiz-adv-x="1632" 
d="M207 0v1493h182l881 -1255v1255h155v-1493h-172l-891 1270v-1270h-155zM829 1958h181l-244 -328h-143z" />
    <glyph glyph-name="nacute" unicode="&#x144;" horiz-adv-x="1208" 
d="M905 0v592q0 137 -71 225q-72 84 -207 84t-223 -92t-87 -229v-580h-149v1018h145v-187q129 205 355 205q184 0 285 -112t102 -295v-629h-150zM745 1520h181l-244 -328h-143z" />
    <glyph glyph-name="Ncommaaccent" unicode="&#x145;" horiz-adv-x="1632" 
d="M790 -397q-34 -1 -63 29t-29 76t35 75q31 31 83 31t84 -42t32 -104q0 -106 -58 -188t-161 -94v63q53 10 90 57t37 107q-16 -10 -50 -10zM207 0v1493h182l881 -1255v1255h153v-1493h-170l-891 1270v-1270h-155z" />
    <glyph glyph-name="ncommaaccent" unicode="&#x146;" horiz-adv-x="1206" 
d="M582 -397q-33 -1 -62 29q-28 30 -28 76t34 75q31 31 83 31t84 -42t32 -104q-1 -106 -59 -188t-160 -94v63q53 10 89 57t40 107q-20 -10 -53 -10zM901 0v592q0 141 -72 225q-73 84 -207 84t-221 -92q-84 -94 -84 -229v-580h-149v1018h145v-187q123 205 353 205
q180 0 284 -110q100 -117 101 -297v-629h-150z" />
    <glyph glyph-name="Ncaron" unicode="&#x147;" horiz-adv-x="1632" 
d="M207 0v1493h182l881 -1255v1255h155v-1493h-172l-891 1270v-1270h-155zM991 1958h158l-262 -330h-150l-254 330h160l170 -225h4z" />
    <glyph glyph-name="ncaron" unicode="&#x148;" horiz-adv-x="1208" 
d="M905 0v592q0 137 -71 225q-72 84 -207 84t-223 -92t-87 -229v-580h-149v1018h145v-187q129 205 355 205q184 0 285 -112t102 -295v-629h-150zM614 1294l172 226h158l-262 -328h-147l-259 328h162l170 -226h6z" />
    <glyph glyph-name="Eng" unicode="&#x14a;" horiz-adv-x="1632" 
d="M362 0h-155v1493h182l881 -1239v1239h153v-1731q1 -122 -67 -196t-228 -74q-66 0 -114 16v123q49 -8 92 -8q164 0 164 144v231l-908 1276v-1274z" />
    <glyph glyph-name="eng" unicode="&#x14b;" horiz-adv-x="1206" 
d="M901 -233v825q0 141 -72 225q-73 84 -207 84t-221 -92q-84 -94 -84 -229v-580h-149v1018h145v-187q123 205 353 205q180 0 284 -110q100 -117 101 -297v-867q0 -270 -289 -270q-63 0 -117 16v123q49 -8 92 -8q164 1 164 144z" />
    <glyph glyph-name="Omacron" unicode="&#x14c;" horiz-adv-x="1708" 
d="M1442 741q0 257 -166 439t-424 182q-164 0 -303 -82q-135 -86 -209 -225t-74 -305t74 -306t211 -229q137 -84 304 -84t304 84q133 78 208 219t75 307zM1606 724q0 -186 -96 -360t-272 -277q-175 -103 -386 -103q-156 0 -296 58t-239 163q-98 94 -156 240t-59 296
q0 213 100 389t269 276q170 100 385 101q311 0 537 -217q213 -226 213 -566zM1176 1686h-644v135h644v-135z" />
    <glyph glyph-name="omacron" unicode="&#x14d;" horiz-adv-x="1239" 
d="M993 507q0 163 -106 281q-109 117 -271 117q-162 -1 -266 -115t-106 -277t107 -282q110 -118 270 -117t268 115q104 115 104 278zM94 506q0 227 152 379t375 151q217 4 373 -152t153 -372q4 -222 -154 -378t-377 -152q-141 0 -264 69q-121 72 -188 191q-70 119 -70 264z
M944 1221h-645v133h645v-133z" />
    <glyph glyph-name="Ohungarumlaut" unicode="&#x150;" horiz-adv-x="1705" 
d="M1442 741q0 257 -166 439t-426 182q-162 0 -301 -82q-135 -86 -209 -225t-74 -305q0 -258 166 -438t424 -181q164 0 301 84q135 78 210 219t75 307zM1604 724q0 -186 -98 -360q-98 -176 -271 -278q-174 -102 -385 -102q-154 0 -296 59t-239 162q-96 96 -154 241t-59 295
q0 213 99 387q96 178 268 278t387 101q158 0 297 -59t238 -158q101 -108 157 -244t56 -322zM1153 1958h180l-243 -328h-142zM825 1958h181l-246 -328h-142z" />
    <glyph glyph-name="ohungarumlaut" unicode="&#x151;" horiz-adv-x="1239" 
d="M993 507q0 163 -106 281q-109 117 -271 117q-162 -1 -266 -115t-106 -277t107 -282q110 -118 270 -117t268 115q104 115 104 278zM94 506q0 227 152 379t375 151q217 4 373 -152t153 -372q4 -222 -154 -378t-377 -152q-141 0 -264 69q-121 72 -188 191q-70 119 -70 264z
M922 1520h180l-244 -328h-141zM594 1520h180l-246 -328h-141z" />
    <glyph glyph-name="OE" unicode="&#x152;" horiz-adv-x="2498" 
d="M266 739q0 -252 165 -429t422 -177t427 176q164 178 164 424v21q0 248 -165 427t-423 179q-172 0 -307 -83t-209 -221t-74 -302v-15zM852 -14q-156 0 -295 58q-282 118 -395 398q-59 141 -60 295v17q0 154 60 293q122 284 401 401q141 59 293 59q369 0 584 -313h2v299
h934v-145h-779v-517h713v-145h-713v-541h787v-145h-942v299h-4q-213 -313 -586 -313z" />
    <glyph glyph-name="oe" unicode="&#x153;" horiz-adv-x="2048" 
d="M1487 905q-135 0 -234 -92q-96 -96 -114 -223h671q-14 139 -101 227t-222 88zM989 506q0 162 -104 280q-103 118 -267 119q-164 -1 -268 -115t-106 -277t107 -282q110 -118 270 -117q160 2 264 116t104 276zM1482 115q260 0 333 217l131 -41q-43 -143 -166 -228
q-126 -81 -272 -81t-265 71q-117 72 -180 191q-73 -121 -189 -192q-116 -70 -258 -70t-264 69q-121 72 -188 191q-70 119 -70 264q0 227 152 379t375 151q145 0 262 -72t182 -190q63 123 171 193q108 69 253 69t255 -68q216 -135 216 -456q0 -26 -2 -49h-821
q6 -150 109 -249q102 -99 236 -99z" />
    <glyph glyph-name="Racute" unicode="&#x154;" horiz-adv-x="1372" 
d="M365 748h346q197 0 288 91t91 215t-90 208t-285 84h-350v-598zM207 1493h518q268 0 396 -128t128 -308q-1 -180 -117 -292t-292 -134l460 -631h-190l-442 604h-303v-604h-158v1493zM537 1630l206 328h181l-244 -328h-143z" />
    <glyph glyph-name="racute" unicode="&#x155;" horiz-adv-x="724" 
d="M317 498v-498h-149v1018h145v-201q72 145 209 197q56 20 108 20t62 -4v-158q-16 4 -57 5q-166 -1 -242 -111t-76 -268zM555 1520h182l-245 -328h-144z" />
    <glyph glyph-name="Rcommaaccent" unicode="&#x156;" horiz-adv-x="1372" 
d="M602 -397q-34 -1 -62 29t-28 76t35 75q31 31 83 31t84 -42t31 -104q-1 -106 -59 -188t-160 -94v63q53 10 89 57t40 107q-20 -10 -53 -10zM365 748h346q197 0 288 91t91 215t-90 208t-285 84h-350v-598zM207 1493h518q268 0 396 -128t128 -308q-1 -180 -117 -292
t-292 -134l460 -631h-190l-442 604h-303v-604h-158v1493z" />
    <glyph glyph-name="rcommaaccent" unicode="&#x157;" horiz-adv-x="724" 
d="M244 -397q-33 -1 -62 29t-28 77q0 47 34 76t84 29q51 0 83 -42t32 -104q-1 -106 -59 -188t-160 -94v63q53 10 89 57t40 107q-20 -10 -53 -10zM313 1018v-201q72 145 209 197q56 20 108 20t62 -4v-158q-16 4 -57 5q-166 0 -242 -111t-76 -268v-498h-149v1018h145z" />
    <glyph glyph-name="Rcaron" unicode="&#x158;" horiz-adv-x="1372" 
d="M365 748h346q197 0 288 91t91 215t-90 208t-285 84h-350v-598zM207 1493h518q268 0 396 -128t128 -308q-1 -180 -117 -292t-292 -134l460 -631h-190l-442 604h-303v-604h-158v1493zM905 1962h160l-264 -330h-148l-254 330h158l170 -225h6z" />
    <glyph glyph-name="rcaron" unicode="&#x159;" horiz-adv-x="724" 
d="M317 498v-498h-149v1018h145v-201q72 145 209 197q56 20 108 20t62 -4v-158q-16 4 -57 5q-166 -1 -242 -111t-76 -268zM432 1294l174 226h158l-262 -328h-148l-258 328h162l170 -226h4z" />
    <glyph glyph-name="Sacute" unicode="&#x15a;" horiz-adv-x="1226" 
d="M625 133q137 0 235 69t98 206t-124 210q-57 35 -142 52l-198 39q-152 31 -256 128t-104 239t67 236q68 95 175 146t234 51q219 -1 343 -109t151 -249l-143 -45q-25 100 -111 179t-226 79t-237 -74q-94 -76 -94 -177q0 -206 219 -249l188 -37q301 -59 390 -268
q29 -80 28 -137q2 -196 -140 -318t-356 -120t-366 133q-145 129 -164 291l150 41q25 -131 135 -224q111 -92 248 -92zM618 1958h181l-244 -328h-143z" />
    <glyph glyph-name="sacute" unicode="&#x15b;" horiz-adv-x="940" 
d="M842 278q0 -126 -105 -208q-104 -86 -258 -86t-252 73q-118 103 -135 230l137 35q15 -84 77 -146t160 -63q98 0 163 47q63 42 63 112q0 121 -168 160l-155 35q-256 59 -256 266q0 158 119 231t229 72q213 -2 305 -135q47 -61 61 -137l-135 -39q-14 59 -64 120t-150 61
t-156 -48t-56 -110t37 -94t109 -50l166 -37q112 -27 188 -95t76 -194zM592 1520h180l-246 -328h-141z" />
    <glyph glyph-name="Scircumflex" unicode="&#x15c;" horiz-adv-x="1226" 
d="M625 133q137 0 235 69t98 206t-124 210q-57 35 -142 52l-198 39q-152 31 -256 128t-104 239t67 236q68 95 175 146t234 51q219 -1 343 -109t151 -249l-143 -45q-25 100 -111 179t-226 79t-237 -74q-94 -76 -94 -177q0 -206 219 -249l188 -37q301 -59 390 -268
q29 -80 28 -137q2 -196 -140 -318t-356 -120t-366 133q-145 129 -164 291l150 41q25 -131 135 -224q111 -92 248 -92zM528 1956h148l264 -328h-160l-172 225h-4l-172 -225h-158z" />
    <glyph glyph-name="scircumflex" unicode="&#x15d;" horiz-adv-x="940" 
d="M842 278q0 -126 -105 -208q-104 -86 -256 -86q-223 0 -325 147q-53 72 -64 156l137 35q15 -84 77 -146t160 -63q98 0 163 47q63 42 63 112q0 121 -168 160l-155 35q-256 59 -256 266q0 158 119 231t229 72q213 -2 305 -135q47 -61 61 -137l-135 -39q-14 59 -64 120
t-150 61t-156 -48t-56 -110t37 -94t109 -50l166 -37q112 -27 188 -95t76 -194zM397 1520h148l264 -328h-160l-172 225h-6l-170 -225h-160z" />
    <glyph glyph-name="Scedilla" unicode="&#x15e;" horiz-adv-x="1222" 
d="M764 -184q0 -127 -89 -204t-226 -77q-76 0 -144 23v116q57 -16 140 -16t134 47q50 47 50 132t-64 151q-193 18 -325 144t-148 276l148 41q24 -131 134 -223t247 -93q137 0 235 69t98 206t-125 210q-57 35 -141 52l-196 39q-58 12 -132 45t-122 82q-104 102 -104 242
t66 234q67 95 174 146t232 51q219 -1 343 -109t151 -249l-144 -45q-23 100 -109 179q-87 79 -243 79q-123 4 -219 -74t-94 -190q0 -88 55 -152t162 -84l188 -37q195 -37 291 -131q65 -59 97 -136t32 -138q0 -176 -119 -295t-303 -137q70 -84 70 -174z" />
    <glyph glyph-name="scedilla" unicode="&#x15f;" horiz-adv-x="935" 
d="M621 -184q1 -129 -89 -205t-225 -76q-76 0 -143 23v116q55 -16 139 -16t134 47t50 132t-61 149q-110 10 -188 65q-132 93 -146 236l135 35q15 -84 77 -146t160 -63q98 0 160 45q64 44 64 114t-47 107t-119 53l-155 35q-254 55 -254 266q0 158 127 236q109 68 219 67
q209 -2 305 -135q47 -68 61 -137l-135 -39q-14 59 -64 120t-150 61t-158 -47q-56 -46 -56 -116q0 -102 148 -139l163 -37q113 -27 190 -97t77 -186t-82 -192q-80 -84 -205 -102q68 -82 68 -174z" />
    <glyph glyph-name="Scaron" unicode="&#x160;" horiz-adv-x="1222" 
d="M621 133q137 0 235 69t98 206t-125 210q-57 35 -141 52l-196 39q-58 12 -132 45t-122 82q-104 102 -104 242t66 234q67 95 174 146t232 51q219 -1 343 -109t151 -249l-144 -45q-23 100 -109 179q-87 79 -243 79q-123 4 -219 -74t-94 -190q0 -88 55 -152t162 -84l188 -37
q188 -37 289 -131q67 -59 99 -136t32 -138q2 -196 -141 -318t-357 -120t-360 130t-166 294l148 41q24 -131 134 -223t247 -93zM778 1962h158l-262 -330h-148l-254 330h158l170 -225h4z" />
    <glyph glyph-name="scaron" unicode="&#x161;" horiz-adv-x="937" 
d="M840 278q0 -126 -105 -208q-104 -86 -256 -86q-221 0 -323 147q-53 72 -64 156l135 35q15 -84 77 -146t160 -63q98 0 163 47q63 42 63 112q0 121 -168 160l-153 35q-102 20 -174 78q-82 61 -82 199q1 138 113 216q112 76 233 76q213 -2 305 -135q51 -68 61 -137l-135 -39
q-16 63 -65 122t-149 59t-156 -48t-56 -110t37 -94t109 -50l165 -37q113 -27 189 -95t76 -194zM471 1294l172 226h158l-262 -328h-148l-256 328h160l170 -226h6z" />
    <glyph glyph-name="uni0162" unicode="&#x162;" horiz-adv-x="1239" 
d="M778 -196q0 -114 -89 -192q-89 -77 -226 -77q-72 0 -144 23v116q57 -16 141 -16t134 47q51 47 51 137t-78 158h-24v1346h-502v147h1157v-147h-498v-1346q78 -82 78 -196z" />
    <glyph glyph-name="uni0163" unicode="&#x163;" horiz-adv-x="724" 
d="M268 -342q193 0 193 185q0 91 -90 177q-135 57 -135 244v623h-189v131h189v293h147v-293h258v-131h-258v-621q0 -143 166 -143q39 0 92 8v-123q-53 -16 -117 -16q72 -82 72 -176q0 -127 -89 -204t-224 -77q-53 0 -107 12v119q47 -8 92 -8z" />
    <glyph glyph-name="Tcaron" unicode="&#x164;" horiz-adv-x="1239" 
d="M700 1346v-1346h-157v1346h-502v147h1157v-147h-498zM795 1962h157l-262 -328h-147l-256 328h159l170 -225h7z" />
    <glyph glyph-name="tcaron" unicode="&#x165;" horiz-adv-x="724" 
d="M524 -8q-289 0 -288 272v623h-189v131h189v293h147v-293h258v-131h-258v-621q0 -143 166 -143q39 0 92 8v-123q-54 -16 -117 -16zM541 1554h164l-66 -428h-127z" />
    <glyph glyph-name="Tbar" unicode="&#x166;" 
d="M272 686v145h281v515h-498v147h1153v-147h-497v-515h284v-145h-284v-686h-158v686h-281z" />
    <glyph glyph-name="tbar" unicode="&#x167;" horiz-adv-x="735" 
d="M621 631v-131h-230v-234q0 -143 166 -143q43 0 92 8v-123q-53 -16 -117 -16q-289 0 -288 272v236h-172v131h172v256h-189v131h189v293h147v-293h258v-131h-258v-256h230z" />
    <glyph glyph-name="Utilde" unicode="&#x168;" horiz-adv-x="1499" 
d="M1155 573v920h156v-909q1 -285 -147 -442q-148 -156 -415 -156t-413 160t-148 427v920h158v-911q0 -240 115 -344t303 -104t289 114q102 116 102 325zM1055 1886q0 -96 -43 -156t-123 -61q-80 0 -140 46q-59 46 -121 46t-77 -92h-109q2 97 46 159t137 62q41 2 129 -46
t125 -46q63 0 84 88h92z" />
    <glyph glyph-name="utilde" unicode="&#x169;" horiz-adv-x="1206" 
d="M305 1018v-592q0 -145 72 -225q70 -84 206 -84t222 94t86 227v580h145v-1018h-145v186q-121 -207 -348 -206q-180 0 -287 112q-100 113 -100 297v629h149zM903 1409q-9 -217 -171 -217q-81 0 -136 47q-62 45 -122 45t-77 -90h-106q0 94 45 156t137 63q43 2 130 -45
t124 -47q63 0 82 88h94z" />
    <glyph glyph-name="Umacron" unicode="&#x16a;" horiz-adv-x="1501" 
d="M1157 573v920h156v-909q1 -285 -147 -442q-148 -156 -415 -156t-415 159q-147 160 -148 428v920h158v-911q0 -240 115 -344t303 -104t290 114q103 116 103 325zM1073 1686h-643v135h643v-135z" />
    <glyph glyph-name="umacron" unicode="&#x16b;" horiz-adv-x="1206" 
d="M305 1018v-592q0 -145 72 -225q70 -84 206 -84t222 94t86 227v580h145v-1018h-145v186q-121 -207 -348 -206q-180 0 -287 112q-100 113 -100 297v629h149zM918 1221h-644v133h644v-133z" />
    <glyph glyph-name="Uring" unicode="&#x16e;" horiz-adv-x="1501" 
d="M1157 573v920h156v-909q1 -285 -147 -442q-148 -156 -415 -156t-415 159q-147 160 -148 428v920h158v-911q0 -240 115 -344t303 -104t290 114q103 116 103 325zM749 1993q-63 0 -107 -43q-44 -44 -44 -106t44 -105t109 -43t109 43q43 43 43 104t-45 107q-47 43 -109 43z
M752 1589q-108 0 -188 75t-79 180q0 105 79 180t188 75q110 0 188 -75t78 -180t-78 -180q-80 -75 -188 -75z" />
    <glyph glyph-name="uring" unicode="&#x16f;" horiz-adv-x="1206" 
d="M305 1018v-592q0 -145 72 -225q70 -84 206 -84t222 94t86 227v580h145v-1018h-145v186q-121 -207 -348 -206q-180 0 -287 112q-100 113 -100 297v629h149zM593 1554q-63 0 -107 -43t-44 -105t44 -106t109 -43q65 0 110 43q43 42 43 104t-46 107q-47 43 -109 43zM598 1659
q110 0 188 -74q76 -74 76 -179t-78 -180t-186 -75t-188 75t-80 180t78 179q80 74 190 74z" />
    <glyph glyph-name="Uhungarumlaut" unicode="&#x170;" horiz-adv-x="1497" 
d="M1153 573v920h158v-909q1 -281 -147 -440q-148 -158 -415 -158t-413 160t-148 427v920h156v-911q0 -238 115 -343t303 -105t289 116q102 116 102 323zM1049 1958h180l-244 -328h-141zM721 1958h180l-246 -328h-141z" />
    <glyph glyph-name="uhungarumlaut" unicode="&#x171;" horiz-adv-x="1204" 
d="M303 1018v-592q0 -143 74 -225q70 -84 205 -84t221 92t86 229v580h147v-1018h-145v186q-123 -207 -350 -206q-182 0 -285 112q-100 113 -100 297v629h147zM889 1520h180l-244 -328h-141zM561 1520h180l-245 -328h-142z" />
    <glyph glyph-name="Uogonek" unicode="&#x172;" horiz-adv-x="1497" 
d="M881 -465q-105 0 -181 56t-76 161t148 234h-24q-266 0 -412 160t-148 427v920h156v-911q0 -238 115 -343t303 -105t289 116q102 117 102 323v920h158v-909q-1 -236 -107 -388t-303 -196q-133 -119 -133 -219q0 -131 166 -127v-115q-29 -4 -53 -4z" />
    <glyph glyph-name="uogonek" unicode="&#x173;" horiz-adv-x="1204" 
d="M905 -219q0 -131 166 -127v-115q-33 -4 -55 -4q-104 0 -179 56t-75 155q0 123 166 254h-37v186q-123 -207 -350 -206q-182 0 -285 112q-100 113 -100 297v629h147v-592q0 -143 74 -225q70 -84 205 -84t221 92t86 229v580h147v-1018q-53 -45 -92 -104q-39 -66 -39 -115z
" />
    <glyph glyph-name="Wcircumflex" unicode="&#x174;" horiz-adv-x="2187" 
d="M1006 1493h178l397 -1274h2l393 1274h158l-469 -1493h-174l-397 1282l-402 -1282h-172l-467 1493h164l391 -1268h4zM1016 1956h149l262 -328h-157l-174 225h-4l-170 -225h-160z" />
    <glyph glyph-name="wcircumflex" unicode="&#x175;" horiz-adv-x="1650" 
d="M473 174l277 844h151l277 -846h2l270 846h154l-344 -1018h-164l-271 827h-2l-270 -827h-164l-340 1018h156zM748 1520h147l262 -328h-158l-172 225h-6l-170 -225h-157z" />
    <glyph glyph-name="Ycircumflex" unicode="&#x176;" horiz-adv-x="1413" 
d="M786 0h-159v629l-578 864h189l471 -715l477 715h178l-578 -862v-631zM629 1956h149l262 -328h-159l-172 225h-4l-173 -225h-157z" />
    <glyph glyph-name="ycircumflex" unicode="&#x177;" horiz-adv-x="1132" 
d="M938 1018h160l-697 -1520h-161l264 572l-463 948h170l373 -787zM498 1520h147l264 -328h-159l-172 225h-5l-172 -225h-157z" />
    <glyph glyph-name="Ydieresis" unicode="&#x178;" horiz-adv-x="1413" 
d="M786 0h-159v629l-578 864h189l471 -715l477 715h178l-578 -862v-631zM898 1634q-44 0 -79 35q-33 35 -33 82t33 80q35 33 79 33t79 -33t35 -80t-35 -82t-79 -35zM516 1634q-45 0 -78 35t-32 82q0 47 32 80q33 33 78 33t79 -34t34 -80t-34 -81t-79 -35z" />
    <glyph glyph-name="Zacute" unicode="&#x179;" horiz-adv-x="1228" 
d="M98 1493h1047v-143l-893 -1207h897v-143h-1079v143l893 1207h-865v143zM623 1958h180l-246 -328h-141z" />
    <glyph glyph-name="zacute" unicode="&#x17a;" horiz-adv-x="980" 
d="M895 0h-815v127l637 764h-623v127h799v-127l-635 -764h637v-127zM612 1520h181l-246 -328h-141z" />
    <glyph glyph-name="Zdotaccent" unicode="&#x17b;" horiz-adv-x="1228" 
d="M70 0v143l893 1207h-863v143h1045v-143l-893 -1207h897v-143h-1079zM723 1751q0 -49 -35 -83t-79 -34t-80 35t-35 82q0 47 34 82t81 35q46 0 80 -34t34 -83z" />
    <glyph glyph-name="zdotaccent" unicode="&#x17c;" horiz-adv-x="980" 
d="M94 891v127h799v-127l-635 -764h637v-127h-815v127l637 764h-623zM487 1188q-45 0 -79 37t-35 81q0 44 35 81q36 37 78 37t81 -35q35 -39 35 -83t-35 -81t-80 -37z" />
    <glyph glyph-name="Zcaron" unicode="&#x17d;" horiz-adv-x="1228" 
d="M100 1493h1043v-143l-891 -1207h895v-143h-1077v143l891 1207h-861v143zM782 1962h158l-262 -330h-148l-254 330h158l170 -225h4z" />
    <glyph glyph-name="zcaron" unicode="&#x17e;" horiz-adv-x="978" 
d="M893 0h-813v127l635 764h-621v127h797v-127l-635 -764h637v-127zM487 1294l175 226h157l-262 -328h-147l-256 328h159l170 -226h4z" />
    <glyph glyph-name="florin" unicode="&#x192;" horiz-adv-x="1112" 
d="M971 1497q18 0 84 -4v-129q-18 2 -58 2q-233 0 -278 -238l-21 -110h265v-129h-289l-111 -557q-27 -144 -125 -246t-272 -102q-47 0 -84 6v127q33 -4 55 -4q233 0 279 239l106 537h-221v129h244l26 125q25 135 117 239q98 115 283 115z" />
    <glyph glyph-name="uni01B5" unicode="&#x1b5;" horiz-adv-x="1239" 
d="M111 688v141h471l385 521h-863v143h1043v-143l-387 -521h383v-141h-486l-403 -545h897v-143h-1077v143l403 545h-366z" />
    <glyph glyph-name="uni01B6" unicode="&#x1b6;" horiz-adv-x="983" 
d="M100 451v122h355l262 318h-623v127h799v-127l-268 -318h262v-122h-365l-270 -324h643v-127h-815v127l274 324h-254z" />
    <glyph glyph-name="uni01CD" unicode="&#x1cd;" horiz-adv-x="1478" 
d="M1083 524l-348 807l-346 -807h694zM827 1493l646 -1493h-166l-164 381h-813l-164 -381h-160l643 1493h178zM911 1960h160l-262 -328h-150l-253 328h157l172 -225h4z" />
    <glyph glyph-name="uni01CE" unicode="&#x1ce;" horiz-adv-x="1083" 
d="M782 465h-284q-94 0 -166 -35q-86 -37 -86 -128t62 -140t157 -49q133 0 225 88t92 229v35zM782 588v67q0 248 -260 248q-125 0 -189 -64t-77 -143l-143 31q2 43 41 109q118 200 385 200q266 0 358 -211q31 -72 31 -168v-286q0 -250 16 -371h-147q-14 78 -15 178
q-129 -197 -344 -196q-154 0 -245 86q-96 84 -97 215v10q0 151 122 223t282 72h282zM520 1294l172 226h158l-262 -328h-148l-256 328h160l170 -226h6z" />
    <glyph glyph-name="uni01CF" unicode="&#x1cf;" horiz-adv-x="571" 
d="M207 0v1493h158v-1493h-158zM461 1962h157l-262 -330h-149l-254 330h160l170 -225h4z" />
    <glyph glyph-name="uni01D0" unicode="&#x1d0;" horiz-adv-x="485" 
d="M168 0v1018h149v-1018h-149zM246 1294l172 226h157l-262 -328h-147l-256 328h160l170 -226h6z" />
    <glyph glyph-name="uni01D1" unicode="&#x1d1;" horiz-adv-x="1705" 
d="M1442 741q0 257 -166 439t-426 182q-162 0 -301 -82q-135 -86 -209 -225t-74 -305q0 -258 166 -438t424 -181q164 0 301 84q135 78 210 219t75 307zM1604 724q0 -186 -98 -360q-98 -176 -271 -278q-174 -102 -385 -102q-154 0 -296 59t-239 162q-96 96 -154 241t-59 295
q0 213 99 387q96 178 268 278t387 101q158 0 297 -59t238 -158q101 -108 157 -244t56 -322zM854 1731l172 225h160l-264 -328h-148l-254 328h158l172 -225h4z" />
    <glyph glyph-name="uni01D2" unicode="&#x1d2;" horiz-adv-x="1239" 
d="M993 507q0 163 -106 281q-109 117 -271 117q-162 -1 -266 -115t-106 -277t107 -282q110 -118 270 -117t268 115q104 115 104 278zM94 506q0 227 152 379t375 151q217 4 373 -152t153 -372q4 -222 -154 -378t-377 -152q-141 0 -264 69q-121 72 -188 191q-70 119 -70 264z
M621 1294l174 226h157l-262 -328h-147l-256 328h159l170 -226h5z" />
    <glyph glyph-name="uni01D3" unicode="&#x1d3;" horiz-adv-x="1499" 
d="M1311 1493v-909q1 -285 -147 -442q-148 -156 -415 -156t-413 160t-148 427v920h158v-911q0 -240 115 -344t303 -104t289 115q102 116 102 324v920h156zM750 1731l174 225h157l-262 -328h-147l-254 328h157l170 -225h5z" />
    <glyph glyph-name="uni01D4" unicode="&#x1d4;" horiz-adv-x="1204" 
d="M303 1018v-592q0 -143 74 -225q70 -84 205 -84t221 92t86 229v580h147v-1018h-145v186q-123 -207 -350 -206q-182 0 -285 112q-100 113 -100 297v629h147zM596 1294l174 226h158l-262 -328h-148l-254 328h158l170 -226h4z" />
    <glyph glyph-name="uni01D5" unicode="&#x1d5;" horiz-adv-x="1497" 
d="M940 1550q-45 0 -79 35t-34 80t35 80t78 35t78 -35t35 -80t-34 -80t-79 -35zM558 1550q-44 0 -78 34t-34 81t35 81t78 34t78 -35t35 -80t-35 -80t-79 -35zM1071 1894h-641v136h641v-136zM1311 1493v-909q1 -281 -147 -440q-148 -158 -415 -158t-413 160t-148 427v920h156
v-911q0 -238 115 -343t303 -105t289 116q102 117 102 323v920h158z" />
    <glyph glyph-name="uni01D6" unicode="&#x1d6;" horiz-adv-x="1204" 
d="M156 389v629h147v-592q0 -143 74 -225q70 -84 205 -84t221 92t86 229v580h147v-1018h-145v186q-123 -207 -350 -206q-182 0 -285 112q-100 113 -100 297zM777 1161q-44 0 -79 34t-34 81q0 47 34 80q35 33 79 33t78 -33t34 -80t-34 -81t-78 -34zM414 1161q-43 0 -77 34
t-34 81t33 80t78 33t79 -33t34 -80t-35 -81t-78 -34zM918 1518h-644v133h644v-133z" />
    <glyph glyph-name="uni01D7" unicode="&#x1d7;" horiz-adv-x="1497" 
d="M872 2140h179l-232 -309h-139zM940 1550q-45 0 -79 35t-34 80t35 80t78 35t78 -35t35 -80t-34 -80t-79 -35zM558 1550q-44 0 -78 34t-34 81t35 81t78 34t78 -35t35 -80t-35 -80t-79 -35zM1311 1493v-909q1 -281 -147 -440q-148 -158 -415 -158t-413 160t-148 427v920h156
v-911q0 -238 115 -343t303 -105t289 116q102 117 102 323v920h158z" />
    <glyph glyph-name="uni01D8" unicode="&#x1d8;" horiz-adv-x="1204" 
d="M729 1808h182l-245 -329h-140zM777 1161q-44 0 -78 34t-33 81q0 47 34 81t78 34q43 0 78 -35t35 -80t-35 -80t-79 -35zM414 1161q-45 0 -79 35t-34 80t35 80t78 35t78 -35q34 -35 34 -80t-34 -80t-78 -35zM156 389v629h147v-592q0 -143 74 -225q70 -84 205 -84t221 92
t86 229v580h147v-1018h-145v186q-123 -207 -350 -206q-182 0 -285 112q-100 113 -100 297z" />
    <glyph glyph-name="uni01D9" unicode="&#x1d9;" horiz-adv-x="1497" 
d="M756 1935l190 205h139l-262 -307h-147l-254 307h141l189 -205h4zM940 1550q-45 0 -79 35t-34 80t35 80t78 35t78 -35t35 -80t-34 -80t-79 -35zM558 1550q-44 0 -78 34t-34 81t35 81t78 34t78 -35t35 -80t-35 -80t-79 -35zM1311 1493v-909q1 -281 -147 -440
q-148 -158 -415 -158t-413 160t-148 427v920h156v-911q0 -238 115 -343t303 -105t289 116q102 117 102 323v920h158z" />
    <glyph glyph-name="uni01DA" unicode="&#x1da;" horiz-adv-x="1204" 
d="M600 1585l188 225h144l-262 -329h-150l-254 329h144l184 -225h6zM777 1161q-44 0 -78 34t-33 81q0 47 34 81t78 34q43 0 78 -35t35 -80t-35 -80t-79 -35zM414 1161q-45 0 -79 35t-34 80t35 80t78 35t78 -35q34 -35 34 -80t-34 -80t-78 -35zM156 389v629h147v-592
q0 -143 74 -225q70 -84 205 -84t221 92t86 229v580h147v-1018h-145v186q-123 -207 -350 -206q-182 0 -285 112q-100 113 -100 297z" />
    <glyph glyph-name="uni01DB" unicode="&#x1db;" horiz-adv-x="1497" 
d="M446 1665q0 47 35 81t78 34t78 -35t35 -80t-35 -80t-79 -35t-78 34t-34 81zM827 1665q0 45 35 80t78 35t78 -35t35 -80t-34 -80t-79 -35t-79 35t-34 80zM823 1831h-139l-231 309h178zM1311 1493v-909q1 -281 -147 -440q-148 -158 -415 -158t-413 160t-148 427v920h156
v-911q0 -238 115 -343t303 -105t289 116q102 117 102 323v920h158z" />
    <glyph glyph-name="uni01DC" unicode="&#x1dc;" horiz-adv-x="1204" 
d="M414 1161q-45 0 -79 35t-34 80t35 80t78 35t78 -35q34 -35 34 -80t-34 -80t-78 -35zM777 1161q-44 0 -78 34t-33 81q0 47 34 81t78 34q43 0 78 -35t35 -80t-35 -80t-79 -35zM666 1479h-138l-247 329h180zM156 389v629h147v-592q0 -143 74 -225q70 -84 205 -84t221 92
t86 229v580h147v-1018h-145v186q-123 -207 -350 -206q-182 0 -285 112q-100 113 -100 297z" />
    <glyph glyph-name="Gcaron" unicode="&#x1e6;" horiz-adv-x="1638" 
d="M852 1362q-123 0 -234 -49t-188 -133q-164 -180 -164 -436t162 -434t428 -179q206 0 360 119t166 328h-624v145h790v-57q0 -291 -186 -486q-186 -194 -517 -194t-537 216t-206 539q0 213 98 388t273 277q174 102 385 101q270 0 434 -131t226 -311l-150 -53
q-33 94 -102 176q-51 53 -99 86q-127 88 -315 88zM1034 1962h160l-262 -330h-150l-254 330h158l172 -225h4z" />
    <glyph glyph-name="gcaron" unicode="&#x1e7;" horiz-adv-x="1284" 
d="M603 126q159 1 262 116q103 114 105 270t-106 274q-110 118 -268 118t-253 -110t-97 -277t98 -279t259 -112zM967 14v213q-137 -231 -394 -231q-139 0 -249 71t-169 189t-59 256q0 139 58 257t169 193q109 74 249 74t234 -64t163 -167v213h147v-993q0 -260 -143 -398
q-147 -137 -387 -137q-188 0 -324 100q-135 104 -162 250l136 45q26 -100 110 -182t243 -82t263 90q115 94 115 303zM610 1294l174 226h158l-262 -328h-148l-256 328h158l172 -226h4z" />
    <glyph glyph-name="uni01E8" unicode="&#x1e8;" horiz-adv-x="1292" 
d="M365 719v-719h-158v1493h158v-659h10l669 659h218l-732 -715l768 -778h-223l-698 719h-12zM926 1962h159l-264 -330h-147l-254 330h158l170 -225h6z" />
    <glyph glyph-name="uni01E9" unicode="&#x1e9;" horiz-adv-x="1038" 
d="M838 1192h-148l-254 328h158l170 -226h4l174 226h158zM317 510v-510h-149v1554h149v-950l484 414h211l-537 -457l561 -561h-207l-505 510h-7z" />
    <glyph glyph-name="uni01F4" unicode="&#x1f4;" horiz-adv-x="1638" 
d="M852 1362q-123 0 -234 -49t-188 -133q-164 -180 -164 -436t162 -434t428 -179q206 0 360 119t166 328h-624v145h790v-57q0 -291 -186 -486q-186 -194 -517 -194t-537 216t-206 539q0 213 98 388t273 277q174 102 385 101q270 0 434 -131t226 -311l-150 -53
q-33 94 -102 176q-51 53 -99 86q-127 88 -315 88zM987 1958h180l-243 -328h-144z" />
    <glyph glyph-name="uni01F5" unicode="&#x1f5;" horiz-adv-x="1284" 
d="M603 126q159 1 262 116q103 114 105 270t-106 274q-110 118 -268 118t-253 -110t-97 -277t98 -279t259 -112zM967 14v213q-137 -231 -394 -231q-139 0 -249 71t-169 189t-59 256q0 139 58 257t169 193q109 74 249 74t234 -64t163 -167v213h147v-993q0 -260 -143 -398
q-147 -137 -387 -137q-188 0 -324 100q-135 104 -162 250l136 45q26 -100 110 -182t243 -82t263 90q115 94 115 303zM743 1520h181l-244 -328h-145z" />
    <glyph glyph-name="Aringacute" unicode="&#x1fa;" horiz-adv-x="1478" 
d="M735 1331l-346 -807h694zM735 1466q63 0 109 44t45 106q1 62 -45 105q-46 44 -110 44t-108 -43q-42 -43 -42 -105q0 -63 44 -107t107 -44zM471 1618q0 106 79 180t185 74q19 0 64 -8l143 229h180l-211 -285q92 -74 93 -190q0 -68 -36 -127t-98 -94l603 -1397h-166
l-164 381h-813l-164 -381h-160l600 1393q-61 35 -98 94t-37 131z" />
    <glyph glyph-name="aringacute" unicode="&#x1fb;" horiz-adv-x="1083" 
d="M782 465h-284q-94 0 -166 -35q-86 -37 -86 -128t62 -140t157 -49q133 0 225 88t92 229v35zM524 1327q-64 0 -108 -44t-43 -104q0 -61 45 -105q46 -44 110 -44t108 43t44 105t-46 105q-46 44 -110 44zM928 657v-286q0 -250 16 -371h-147q-14 78 -15 178
q-129 -197 -344 -196q-154 0 -245 86q-96 84 -97 215v10q0 151 122 223t282 72h282v67q0 248 -260 248q-125 0 -189 -64t-77 -143l-143 31q8 88 102 186q51 53 125 86q-80 73 -80 179t80 181t186 75q31 -1 62 -9l145 230h180l-213 -285q92 -74 92 -183t-73 -183
q123 -53 178 -179q31 -72 31 -168z" />
    <glyph glyph-name="AEacute" unicode="&#x1fc;" horiz-adv-x="1996" 
d="M942 524v828h-20l-471 -828h491zM1874 1348h-778v-517h710v-145h-710v-541h786l-2 -145h-938v381h-571l-217 -381h-170l856 1493h1034v-145zM1307 1958h180l-246 -328h-141z" />
    <glyph glyph-name="aeacute" unicode="&#x1fd;" horiz-adv-x="1843" 
d="M786 465h-288q-94 0 -166 -35q-86 -37 -86 -127t63 -140t158 -50q135 0 227 88t92 229v35zM1284 905q-135 0 -240 -94q-102 -96 -114 -221h676q-12 141 -100 228t-222 87zM786 586v69q0 248 -260 248q-124 0 -190 -59t-82 -148l-141 31q2 43 41 109t104 116
q106 84 256 84t244 -57t131 -156q57 97 165 155t224 58q229 0 353 -145t124 -379q0 -27 -2 -49h-825q6 -143 110 -245t238 -103q261 0 334 217l131 -41q-43 -143 -166 -228q-129 -81 -273 -81t-257 64q-114 64 -181 175q-139 -240 -413 -239h-5q-156 0 -251 86
q-98 84 -99 215v10q0 158 135 229q115 63 269 64h286zM1034 1520h180l-245 -328h-142z" />
    <glyph glyph-name="Oslashacute" unicode="&#x1fe;" horiz-adv-x="1716" 
d="M1446 741q0 233 -133 400l-811 -889q156 -121 340 -121t321 84q133 78 208 216t75 310zM270 750q0 -229 138 -404l811 891q-152 125 -363 125q-162 0 -303 -82q-133 -84 -208 -226t-75 -304zM856 -16q-258 0 -457 151l-196 -211l-97 92l193 211q-190 213 -190 514
q0 211 98 388t268 278q174 100 385 100q262 0 463 -155l195 213l96 -92l-193 -213q188 -215 189 -510q0 -212 -98 -388t-271 -277q-174 -101 -385 -101zM983 1958h180l-243 -328h-144z" />
    <glyph glyph-name="oslashacute" unicode="&#x1ff;" horiz-adv-x="1247" 
d="M999 492q0 150 -75 256l-518 -564q100 -72 219 -71q160 0 268 114q106 115 106 265zM248 512q0 -135 78 -244l516 566q-96 72 -219 71q-160 2 -270 -114q-109 -117 -105 -279zM98 521q0 212 152 364t375 151q172 0 309 -100l131 141l86 -80l-129 -141q127 -150 127 -344
q4 -221 -153 -378t-375 -152q-172 0 -306 100l-129 -141l-88 79l129 142q-129 147 -129 359zM760 1520h180l-244 -328h-143z" />
    <glyph glyph-name="Scommaaccent" unicode="&#x218;" horiz-adv-x="1222" 
d="M595 -397q-34 -1 -63 29q-28 30 -28 76t35 75q31 31 83 31t84 -42t31 -104q-1 -106 -59 -188t-160 -94v63q53 10 90 57t37 107q-16 -10 -50 -10zM621 133q137 0 235 69t98 206t-125 210q-57 35 -141 52l-196 39q-58 12 -132 45t-122 82q-104 102 -104 242t66 234
q67 95 174 146t232 51q219 -1 343 -109t151 -249l-144 -45q-23 100 -109 179q-87 79 -243 79q-123 4 -219 -74t-94 -190q0 -88 55 -152t162 -84l188 -37q195 -37 291 -131q65 -59 97 -136t32 -138q2 -196 -141 -318t-357 -120t-360 130t-166 294l148 41q24 -131 134 -223
t247 -93z" />
    <glyph glyph-name="scommaaccent" unicode="&#x219;" horiz-adv-x="935" 
d="M449 -397q-33 -1 -61 29t-28 77t33 76t84 29t83 -43t32 -103q0 -109 -57 -190q-62 -80 -160 -92v63q49 8 88 59q39 45 39 105q-20 -10 -53 -10zM840 277q0 -125 -105 -207q-104 -86 -256 -86q-223 0 -325 147q-51 70 -62 156l135 35q15 -84 77 -146t160 -63q98 0 160 45
q64 44 64 114t-47 107t-119 53l-155 35q-254 55 -254 266q0 158 127 236q109 68 219 67q209 -2 305 -135q47 -68 61 -137l-135 -39q-14 59 -64 120t-150 61t-158 -47q-56 -46 -56 -116q0 -102 148 -139l163 -37q113 -27 190 -96t77 -194z" />
    <glyph glyph-name="uni021A" unicode="&#x21a;" horiz-adv-x="1236" 
d="M591 -397q-32 -1 -61 29t-28 77q0 47 34 76t82 29t82 -43q33 -43 33 -103q0 -109 -57 -190q-58 -80 -160 -92v63q49 8 88 59q39 45 39 105q-20 -10 -52 -10zM1196 1493v-147h-500v-1346h-155v1346h-500v147h1155z" />
    <glyph glyph-name="uni021B" unicode="&#x21b;" horiz-adv-x="724" 
d="M365 -397q-33 -1 -61 29t-28 77t33 74q31 31 83 31t84 -42t32 -125t-57 -169q-62 -80 -162 -92v63q53 10 89 57t40 107q-20 -10 -53 -10zM524 -8q-289 0 -288 272v623h-189v131h189v293h147v-293h258v-131h-258v-621q0 -143 166 -143q39 0 92 8v-123q-54 -16 -117 -16z
" />
    <glyph glyph-name="uni0237" unicode="&#x237;" horiz-adv-x="501" 
d="M332 1018v-1235q0 -291 -289 -291q-39 0 -94 14v123q31 -6 90 -6t102 42t43 120v1233h148z" />
    <glyph glyph-name="gravecomb" unicode="&#x300;" horiz-adv-x="0" 
d="M195 1192h-144l-246 328h183z" />
    <glyph glyph-name="acutecomb" unicode="&#x301;" horiz-adv-x="0" 
d="M12 1520h183l-246 -328h-144z" />
    <glyph glyph-name="uni0302" unicode="&#x302;" horiz-adv-x="0" 
d="M-78 1520h148l262 -328h-158l-174 225h-4l-170 -225h-158z" />
    <glyph glyph-name="tildecomb" unicode="&#x303;" horiz-adv-x="0" 
d="M-123 1284q-59 0 -76 -90h-108q9 219 184 219q43 2 129 -45t123 -47q61 0 84 88h94q-9 -217 -180 -217q-70 0 -128 46t-122 46z" />
    <glyph glyph-name="uni0304" unicode="&#x304;" horiz-adv-x="0" 
d="M322 1221h-644v133h644v-133z" />
    <glyph glyph-name="uni0306" unicode="&#x306;" horiz-adv-x="0" 
d="M0 1188q-172 0 -260 143q-47 78 -49 178h116q5 -92 57 -147t136 -55t136 54t59 148h114q-2 -145 -93 -233t-216 -88z" />
    <glyph glyph-name="uni0307" unicode="&#x307;" horiz-adv-x="0" 
d="M0 1188q-45 0 -80 37t-35 81t35 81t80 37t80 -35q35 -39 35 -83t-35 -81t-80 -37z" />
    <glyph glyph-name="uni0308" unicode="&#x308;" horiz-adv-x="0" 
d="M181 1188q-44 0 -79 35q-33 35 -32 82q0 47 34 79t77 33q44 0 79 -33q35 -34 35 -80t-35 -81t-79 -35zM-181 1188q-44 0 -79 35t-35 82t35 79t79 33q44 0 78 -33q34 -34 34 -80t-34 -81t-78 -35z" />
    <glyph glyph-name="uni030A" unicode="&#x30a;" horiz-adv-x="0" 
d="M154 1404q0 60 -48 105t-110 45t-106 -43t-44 -105t43 -106q45 -43 109 -43t111 43q45 44 45 104zM2 1659q110 0 186 -74q78 -74 78 -179t-78 -180t-186 -75t-188 75t-80 180t78 179q80 74 190 74z" />
    <glyph glyph-name="uni030B" unicode="&#x30b;" horiz-adv-x="0" 
d="M176 1520h182l-245 -328h-142zM-152 1520h181l-244 -328h-143z" />
    <glyph glyph-name="uni030C" unicode="&#x30c;" horiz-adv-x="0" 
d="M0 1294l174 226h158l-262 -328h-148l-254 328h158l170 -226h4z" />
    <glyph glyph-name="uni0312" unicode="&#x312;" horiz-adv-x="0" 
d="M25 1380q34 0 63 -30t29 -75q0 -46 -34 -76t-84 -30t-83 43t-33 125t58 168q57 80 161 94v-63q-49 -12 -88 -59t-39 -107q16 10 50 10z" />
    <glyph glyph-name="uni0326" unicode="&#x326;" horiz-adv-x="0" 
d="M-25 -397q-34 -1 -63 29t-29 76t33 76t85 30t84 -42t32 -125t-58 -169q-61 -80 -161 -92v63q49 8 88 56t39 108q-16 -10 -50 -10z" />
    <glyph glyph-name="uni0327" unicode="&#x327;" horiz-adv-x="0" 
d="M229 -196q0 -114 -89 -192q-89 -77 -226 -77q-72 0 -143 23v116q57 -16 140 -16t133 47t50 137t-76 158h134q77 -82 77 -196z" />
    <glyph glyph-name="uni0328" unicode="&#x328;" horiz-adv-x="0" 
d="M-10 -219q0 -131 164 -127v-115q-29 -4 -54 -4q-106 0 -180 55t-74 156q0 123 164 254h111q-131 -117 -131 -219z" />
    <glyph glyph-name="Theta" unicode="&#x398;" horiz-adv-x="1705" 
d="M1274 831v-145h-842v145h842zM1442 741q0 257 -166 439t-426 182q-162 0 -301 -82q-135 -86 -209 -225t-74 -305q0 -258 166 -438t424 -181q164 0 301 84q135 78 210 219t75 307zM1604 724q0 -186 -98 -360q-98 -176 -271 -278q-174 -102 -385 -102q-154 0 -296 59
t-239 162q-96 96 -154 241t-59 295q0 213 99 387q96 178 268 278t387 101q158 0 297 -59t238 -158q101 -108 157 -244t56 -322z" />
    <glyph glyph-name="uni03A9" unicode="&#x3a9;" horiz-adv-x="1662" 
d="M942 0v311q205 23 326 184t121 318t-72 283q-74 122 -203 194t-285 72t-280 -72q-129 -70 -202 -192t-73 -286q0 -163 119 -314q123 -164 328 -187v-311h-596v137h459v78q-304 113 -410 358q-57 125 -57 265t58 266q58 125 153 209q208 188 504 188t505 -188
q97 -88 153 -213t56 -260t-47 -241t-94 -161q-113 -145 -326 -223v-78h459v-137h-596z" />
    <glyph glyph-name="theta" unicode="&#x3b8;" horiz-adv-x="1382" 
d="M692 115q248 0 365 268q63 150 69 326h-868q19 -295 152 -463q106 -131 282 -131zM330 1163q-57 -135 -72 -323h868q-12 178 -75 323q-116 264 -364 263q-249 -1 -357 -263zM690 -18q-234 0 -383 165q-66 70 -112 177q-90 193 -91 442q-2 178 53 345q54 167 154 280
q149 165 385 165t379 -163q205 -233 205 -619q0 -178 -53 -344t-154 -278q-149 -170 -383 -170z" />
    <glyph glyph-name="pi" unicode="&#x3c0;" horiz-adv-x="1329" 
d="M981 883v-617q0 -143 166 -143q39 0 92 8v-123q-53 -16 -117 -16q-289 0 -288 272v619h-385v-883h-150v883h-268v135h1208v-135h-258z" />
    <glyph glyph-name="uni0401" unicode="&#x401;" 
d="M1075 831v-145h-710v-541h784v-145h-942v1493h934v-145h-776v-517h710zM864 1634q-45 0 -78 35t-32 82q0 47 32 80q33 33 78 33t79 -34t34 -80t-34 -81t-79 -35zM483 1634q-45 0 -79 35t-33 82q0 47 34 80q35 33 79 33t77 -33t33 -80t-33 -82t-78 -35z" />
    <glyph glyph-name="uni0402" unicode="&#x402;" horiz-adv-x="1615" 
d="M1051 989q215 0 350 -132t135 -378t-132 -383t-349 -137q-111 0 -215 43l34 137q72 -33 162 -33q129 0 228 84q111 90 110 289q0 160 -94 260q-90 102 -246 103q-262 0 -467 -187v-655h-157v1348h-369v145h1036v-145h-510v-529q131 100 246 135t238 35z" />
    <glyph glyph-name="uni0403" unicode="&#x403;" horiz-adv-x="1107" 
d="M207 0v1493h856v-145h-698v-1348h-158zM741 1956h181l-244 -328h-143z" />
    <glyph glyph-name="uni0404" unicode="&#x404;" horiz-adv-x="1607" 
d="M856 1509q229 0 395 -112q72 -51 131 -117q106 -125 140 -262l-150 -51q-14 55 -54 129t-114 141q-143 125 -357 125t-380 -148q-164 -150 -193 -383h715v-145h-717q23 -244 181 -399q162 -154 399 -154q148 0 244 50t172 139q54 68 76 122t34 88l148 -53
q-55 -184 -197 -317q-197 -180 -495 -179t-512 212q-100 98 -160 242t-60 308t62 311t164 240q100 98 236 156t292 57z" />
    <glyph glyph-name="uni0405" unicode="&#x405;" horiz-adv-x="1222" 
d="M621 133q137 0 235 69t98 206t-125 210q-57 35 -141 52l-196 39q-58 12 -132 45t-122 82q-104 102 -104 242t66 234q67 95 174 146t232 51q219 -1 343 -109t151 -249l-144 -45q-23 100 -109 179q-87 79 -243 79q-123 4 -219 -74t-94 -190q0 -88 55 -152t162 -84l188 -37
q195 -37 291 -131q65 -59 97 -136t32 -138q2 -196 -141 -318t-357 -120t-360 130t-166 294l148 41q24 -131 134 -223t247 -93z" />
    <glyph glyph-name="uni0406" unicode="&#x406;" horiz-adv-x="571" 
d="M365 1493v-1493h-158v1493h158z" />
    <glyph glyph-name="uni0407" unicode="&#x407;" horiz-adv-x="571" 
d="M365 1493v-1493h-158v1493h158zM477 1634q-43 0 -78 35t-34 82q0 47 34 80q35 33 78 33t78 -33t35 -80t-35 -82t-78 -35zM94 1634q-45 0 -78 35t-32 82q0 47 32 80q33 33 78 33t80 -33t35 -80t-35 -82t-80 -35z" />
    <glyph glyph-name="uni0408" unicode="&#x408;" horiz-adv-x="1187" 
d="M840 1493h155v-1028q0 -207 -127 -343q-126 -136 -332 -136t-333 130t-127 345v147h155v-141q-1 -170 93 -252t219 -82t211 93t86 235v1032z" />
    <glyph glyph-name="uni0409" unicode="&#x409;" horiz-adv-x="2297" 
d="M1321 145h354q117 0 211 39q51 16 96 56q92 82 92 225t-108 223q-109 80 -301 80h-344v-623zM1321 911h336q170 0 311 -55q84 -37 135 -80q127 -108 127 -308t-139 -334t-410 -134h-516v1348h-583l-82 -760q-20 -188 -70 -299t-94 -164q-111 -129 -297 -129h-8v143
q125 0 208 120t107 351l94 883h881v-582z" />
    <glyph glyph-name="uni040A" unicode="&#x40a;" horiz-adv-x="2347" 
d="M1372 145h365q199 0 297 88q86 73 86 215t-100 216t-291 73h-357v-592zM365 879h847v614h160v-614h369q265 0 424 -136q115 -105 115 -299t-138 -319q-137 -125 -389 -125h-541v731h-847v-731h-158v1493h158v-614z" />
    <glyph glyph-name="uni040B" unicode="&#x40b;" horiz-adv-x="1640" 
d="M1038 825q-260 0 -471 -192v-633h-155v1348h-371v145h1036v-145h-510v-545q125 92 239 131t245 39q219 0 352 -116t133 -339v-518h-154v479q0 156 -95 251t-249 95z" />
    <glyph glyph-name="uni040C" unicode="&#x40c;" horiz-adv-x="1290" 
d="M365 719v-719h-158v1493h158v-659h10l669 659h218l-732 -715l766 -778h-221l-700 719h-10zM803 1956h180l-246 -328h-141z" />
    <glyph glyph-name="uni040E" unicode="&#x40e;" horiz-adv-x="1325" 
d="M119 0v145h151q80 0 181 45q98 51 170 199l-598 1104h178l501 -942l459 942h172l-553 -1112q-39 -76 -65 -125q-71 -115 -142 -170q-127 -88 -348 -86h-106zM679 1630q-120 0 -202 76q-84 72 -108 197l106 20q49 -172 205 -172t201 172l106 -20q-22 -125 -106 -197
q-82 -76 -202 -76z" />
    <glyph glyph-name="uni040F" unicode="&#x40f;" horiz-adv-x="1568" 
d="M207 0v1493h158v-1348h841v1348h156v-1493h-500v-311h-155v311h-500z" />
    <glyph glyph-name="uni0410" unicode="&#x410;" horiz-adv-x="1478" 
d="M1083 524l-348 807l-346 -807h694zM827 1493l646 -1493h-166l-164 381h-813l-164 -381h-160l643 1493h178z" />
    <glyph glyph-name="uni0411" unicode="&#x411;" horiz-adv-x="1372" 
d="M365 145h364q123 0 199 28t112 58q94 77 94 219t-107 217q-108 75 -306 74h-356v-596zM365 883h360q176 0 309 -54q74 -33 131 -79q127 -109 127 -308t-141 -321q-143 -121 -401 -121h-543v1493h977v-145h-819v-465z" />
    <glyph glyph-name="uni0412" unicode="&#x412;" horiz-adv-x="1396" 
d="M362 143h406q145 0 254 67t108 210q0 172 -180 235q-90 35 -213 35h-375v-547zM362 829h357q176 0 261 76t85 199t-96 184t-238 62h-369v-521zM207 1493h536q209 4 345 -97t137 -278q1 -112 -57 -201t-171 -141q157 -40 225 -152t68 -214q0 -209 -157 -314
q-150 -96 -369 -96h-557v1493z" />
    <glyph glyph-name="uni0413" unicode="&#x413;" horiz-adv-x="1107" 
d="M1063 1493v-145h-698v-1348h-158v1493h856z" />
    <glyph glyph-name="uni0414" unicode="&#x414;" horiz-adv-x="1617" 
d="M1208 145v1203h-612l-74 -662q-44 -379 -217 -541h903zM176 -313h-145v463h2q145 -6 246 217q61 125 92 368l86 758h907v-1348h162v-458h-148v313h-1202v-313z" />
    <glyph glyph-name="uni0415" unicode="&#x415;" 
d="M1075 831v-145h-710v-541h784v-145h-942v1493h934v-145h-776v-517h710z" />
    <glyph glyph-name="uni0416" unicode="&#x416;" horiz-adv-x="1906" 
d="M1032 725v-725h-158v725h-10l-653 -725h-213l698 764l-667 729h204l631 -700h10v700h158v-700h10l631 700h205l-668 -729l699 -764h-213l-654 725h-10z" />
    <glyph glyph-name="uni0417" unicode="&#x417;" horiz-adv-x="1243" 
d="M600 -16q-215 0 -364 135q-139 131 -162 301l151 29q20 -176 193 -273q88 -47 204 -47t236 82q121 82 121 240q0 125 -100 205t-261 81q-94 0 -155 -22l-74 125l512 510h-790v143h989v-137l-475 -475q195 6 333 -93q178 -122 178 -338t-175 -354q-146 -112 -361 -112z
" />
    <glyph glyph-name="uni0418" unicode="&#x418;" horiz-adv-x="1603" 
d="M207 0v1493h158v-1282l849 1282h183v-1493h-156v1290l-852 -1290h-182z" />
    <glyph glyph-name="uni0419" unicode="&#x419;" horiz-adv-x="1603" 
d="M1397 1493v-1493h-156v1290l-852 -1290h-182v1493h158v-1282l849 1282h183zM802 1630q-120 0 -202 76q-84 72 -106 197l106 20q49 -172 202 -172t204 172l106 -20q-25 -125 -108 -197q-82 -76 -202 -76z" />
    <glyph glyph-name="uni041A" unicode="&#x41a;" horiz-adv-x="1290" 
d="M365 719v-719h-158v1493h158v-659h10l669 659h218l-732 -715l766 -778h-221l-700 719h-10z" />
    <glyph glyph-name="uni041B" unicode="&#x41b;" horiz-adv-x="1546" 
d="M39 -4h-8v143q129 0 212 123t103 346l94 885h899v-1493h-155v1348h-602l-82 -760q-20 -188 -70 -299t-94 -164q-111 -129 -297 -129z" />
    <glyph glyph-name="uni041C" unicode="&#x41c;" horiz-adv-x="1974" 
d="M362 0h-155v1493h223l557 -1280l553 1280h225v-1493h-155v1280l-555 -1280h-142l-551 1270v-1270z" />
    <glyph glyph-name="uni041D" unicode="&#x41d;" horiz-adv-x="1579" 
d="M365 1493v-662h849v662h158v-1493h-158v684h-849v-684h-158v1493h158z" />
    <glyph glyph-name="uni041E" unicode="&#x41e;" horiz-adv-x="1705" 
d="M1442 741q0 257 -166 439t-426 182q-162 0 -301 -82q-135 -86 -209 -225t-74 -305q0 -258 166 -438t424 -181q164 0 301 84q135 78 210 219t75 307zM1604 724q0 -186 -98 -360q-98 -176 -271 -278q-174 -102 -385 -102q-154 0 -296 59t-239 162q-96 96 -154 241t-59 295
q0 213 99 387q96 178 268 278t387 101q158 0 297 -59t238 -158q101 -108 157 -244t56 -322z" />
    <glyph glyph-name="uni041F" unicode="&#x41f;" horiz-adv-x="1560" 
d="M207 1493h1147v-1493h-156v1348h-833v-1348h-158v1493z" />
    <glyph glyph-name="uni0420" unicode="&#x420;" horiz-adv-x="1298" 
d="M365 729h321q201 0 297 100q88 88 88 213t-88 214t-289 90h-329v-617zM207 1493h500q258 2 391 -129t133 -323q0 -193 -141 -325t-408 -132h-317v-584h-158v1493z" />
    <glyph glyph-name="uni0421" unicode="&#x421;" horiz-adv-x="1599" 
d="M848 -16q-313 0 -529 211q-100 100 -158 243q-59 143 -59 307q0 163 62 309t162 242q219 213 528 213q233 0 397 -114q70 -45 131 -115q102 -119 140 -262l-150 -53q-23 86 -88 180q-47 63 -100 108t-140 74q-86 33 -194 33q-242 0 -413 -171t-171 -437q0 -178 75 -318
t212 -221q131 -80 313 -80t314 105q59 45 98 102q53 70 98 192l150 -53q-61 -218 -266 -375q-170 -120 -412 -120z" />
    <glyph glyph-name="uni0422" unicode="&#x422;" horiz-adv-x="1234" 
d="M1194 1493v-147h-498v-1346h-157v1346h-498v147h1153z" />
    <glyph glyph-name="uni0423" unicode="&#x423;" horiz-adv-x="1325" 
d="M119 0v145h151q80 0 181 45q98 51 170 199l-598 1104h178l501 -942l459 942h172l-553 -1112q-39 -76 -65 -125q-71 -115 -142 -170q-127 -88 -348 -86h-106z" />
    <glyph glyph-name="uni0424" unicode="&#x424;" horiz-adv-x="1812" 
d="M983 1247v-975q276 0 430 123q152 123 152 361t-154 364t-428 127zM827 272v975q-272 0 -426 -127q-153 -128 -153 -366t152 -360t427 -122zM827 -47v172q-347 4 -545 175t-199 464t203 462t541 165v149h156v-149q340 4 543 -165q204 -169 202 -463t-198 -466
q-197 -170 -547 -172v-172h-156z" />
    <glyph glyph-name="uni0425" unicode="&#x425;" horiz-adv-x="1361" 
d="M223 1493l461 -614l457 614h182l-547 -727l572 -766h-183l-485 653l-481 -653h-185l574 764l-547 729h182z" />
    <glyph glyph-name="uni0426" unicode="&#x426;" horiz-adv-x="1615" 
d="M1362 1493v-1348h160v-458h-148v313h-1167v1493h158v-1348h841v1348h156z" />
    <glyph glyph-name="uni0427" unicode="&#x427;" horiz-adv-x="1404" 
d="M1040 0v637q-96 -57 -228 -100t-224 -43q-242 0 -371 135q-102 106 -102 295v569h155v-551q0 -129 82 -214t246 -85q110 0 228 42t214 99v709h158v-1493h-158z" />
    <glyph glyph-name="uni0428" unicode="&#x428;" horiz-adv-x="2293" 
d="M1067 1493h158v-1348h704v1348h156v-1493h-1878v1493h158v-1348h702v1348z" />
    <glyph glyph-name="uni0429" unicode="&#x429;" horiz-adv-x="2338" 
d="M1225 1493v-1348h704v1348h156v-1348h160v-458h-146v313h-1892v1493h158v-1348h702v1348h158z" />
    <glyph glyph-name="uni042A" unicode="&#x42a;" horiz-adv-x="1529" 
d="M553 145h354q117 0 211 39q47 16 94 56q92 82 92 226t-107 223q-108 79 -302 79h-342v-623zM553 911h334q172 0 313 -55q86 -37 133 -80q129 -108 129 -308t-139 -334t-412 -134h-514v1348h-364v145h520v-582z" />
    <glyph glyph-name="uni042B" unicode="&#x42b;" horiz-adv-x="1787" 
d="M365 145h352q194 0 307 95q92 82 92 226t-108 223t-301 79h-342v-623zM1423 1493h156v-1493h-156v1493zM365 911h333q172 0 314 -55q80 -35 133 -80q129 -108 129 -308t-140 -334t-411 -134h-516v1493h158v-582z" />
    <glyph glyph-name="uni042C" unicode="&#x42c;" horiz-adv-x="1341" 
d="M365 145h352q194 0 307 95q92 82 92 226t-108 223t-301 79h-342v-623zM365 911h333q172 0 314 -55q80 -35 133 -80q129 -108 129 -308t-140 -334t-411 -134h-516v1493h158v-582z" />
    <glyph glyph-name="uni042D" unicode="&#x42d;" horiz-adv-x="1607" 
d="M770 1509q315 0 525 -212q210 -213 210 -549t-213 -553q-215 -211 -532 -211q-150 0 -276 50t-204 130q-155 157 -198 315l147 53q33 -88 62 -133q47 -84 125 -149q140 -117 364 -117t380 156t175 397h-717v145h715q-23 233 -185 384q-163 151 -384 147q-274 0 -438 -215
q-72 -98 -90 -180l-150 51q23 98 97 201q75 102 190 178q168 112 397 112z" />
    <glyph glyph-name="uni042E" unicode="&#x42e;" horiz-adv-x="2189" 
d="M1364 131q172 0 297 84q129 80 194 221q68 137 68 305q1 261 -151 441t-411 180t-409 -182t-149 -436t153 -434q152 -179 408 -179zM2085 750q0 -322 -201 -544t-514 -222t-508 196t-217 498h-280v-678h-158v1493h158v-670h280q25 293 221 489t498 195q188 2 343 -81
t247 -224q131 -195 131 -452z" />
    <glyph glyph-name="uni042F" unicode="&#x42f;" horiz-adv-x="1376" 
d="M1014 1350h-350q-156 0 -270 -75t-114 -229t114 -234t272 -81h348v619zM123 1051q1 217 153 329t377 113h516v-1493h-155v596h-309l-439 -596h-188l457 621q-178 20 -295 135t-117 295z" />
    <glyph glyph-name="uni0430" unicode="&#x430;" horiz-adv-x="1083" 
d="M782 465h-284q-94 0 -166 -35q-86 -37 -86 -128t62 -140t157 -49q133 0 225 88t92 229v35zM782 588v67q0 248 -260 248q-125 0 -189 -64t-77 -143l-143 31q2 43 41 109q118 200 385 200q266 0 358 -211q31 -72 31 -168v-286q0 -250 16 -371h-147q-14 78 -15 178
q-129 -197 -344 -196q-154 0 -245 86q-96 84 -97 215v10q0 151 122 223t282 72h282z" />
    <glyph glyph-name="uni0431" unicode="&#x431;" horiz-adv-x="1251" 
d="M644 901q-159 1 -258 -103t-99 -284t98 -291t258 -111t260 113q103 109 103 288t-102 283t-260 105zM676 1028q195 0 337 -137t142 -375t-144 -385q-145 -147 -367 -147t-363 143q-147 154 -148 465q0 305 47 434q20 55 62 123q70 117 239 203q78 43 197 71l385 97
l41 -125l-367 -95q-160 -43 -256 -101q-174 -105 -202 -318q-1 -13 -5 -47t-6 -48h2q123 242 406 242z" />
    <glyph glyph-name="uni0432" unicode="&#x432;" horiz-adv-x="1150" 
d="M905 301q0 158 -254 158h-334v-330h355q88 0 160 37t73 135zM317 578h328q71 0 139 34t68 128q0 92 -74 122q-61 27 -131 27h-330v-311zM168 1018h500q137 0 235 -64t98 -190q0 -162 -172 -236q227 -57 228 -249q0 -141 -110 -210t-261 -69h-518v1018z" />
    <glyph glyph-name="uni0433" unicode="&#x433;" horiz-adv-x="886" 
d="M850 887h-533v-887h-149v1018h682v-131z" />
    <glyph glyph-name="uni0434" unicode="&#x434;" horiz-adv-x="1263" 
d="M901 131v756h-434l-39 -346q-37 -319 -145 -410h618zM55 129h4q179 0 224 424l53 465h715v-887h118v-446h-143v315h-825v-315h-146v444z" />
    <glyph glyph-name="uni0435" unicode="&#x435;" horiz-adv-x="1157" 
d="M596 905q-135 0 -234 -92q-98 -96 -116 -223h674q-14 139 -102 227t-222 88zM592 115q260 0 332 217l131 -41q-43 -143 -166 -228q-127 -81 -275 -81t-268 72q-121 72 -184 192q-68 119 -68 261t64 261q59 121 176 195q118 73 264 73t256 -68q216 -135 215 -456
q0 -26 -2 -49h-823q8 -150 111 -249t237 -99z" />
    <glyph glyph-name="uni0436" unicode="&#x436;" horiz-adv-x="1556" 
d="M852 494v-494h-147v494h-15l-463 -494h-202l497 524l-485 494h190l463 -469h15v469h147v-469h16l463 469h191l-488 -494l498 -524h-201l-465 494h-14z" />
    <glyph glyph-name="uni0437" unicode="&#x437;" horiz-adv-x="1007" 
d="M909 309q1 -151 -121 -239t-276 -88t-281 79q-119 80 -155 222l135 41q27 -100 105 -158t184 -57q104 0 183 51t79 145q0 63 -41 107q-74 78 -215 80q-68 0 -111 -13l-67 107l372 305h-598v127h781v-127l-351 -283q205 -4 320 -139q57 -70 57 -160z" />
    <glyph glyph-name="uni0438" unicode="&#x438;" horiz-adv-x="1230" 
d="M168 0v1018h149v-813l594 813h152v-1018h-150v807l-596 -807h-149z" />
    <glyph glyph-name="uni0439" unicode="&#x439;" horiz-adv-x="1230" 
d="M168 0v1018h149v-813l594 813h152v-1018h-150v807h-2l-594 -807h-149zM615 1188q-120 0 -201 76q-84 72 -107 196l105 21q50 -172 204 -172t203 172l105 -21q-21 -120 -105 -196t-204 -76z" />
    <glyph glyph-name="uni043A" unicode="&#x43a;" horiz-adv-x="1056" 
d="M317 569h11l493 449h205l-557 -494l586 -524h-209l-518 475h-11v-475h-149v1018h149v-449z" />
    <glyph glyph-name="uni043B" unicode="&#x43b;" horiz-adv-x="1208" 
d="M47 127q105 0 151 94t58 201l68 596h714v-1018h-147v887h-432l-58 -490q-20 -170 -107 -291t-243 -112l-4 2v131z" />
    <glyph glyph-name="uni043C" unicode="&#x43c;" horiz-adv-x="1536" 
d="M315 860v-860h-147v1018h219l381 -825l381 825h219v-1018h-149v862h-2l-402 -862h-96l-402 860h-2z" />
    <glyph glyph-name="uni043D" unicode="&#x43d;" horiz-adv-x="1218" 
d="M317 1018v-428h584v428h150v-1018h-150v457h-584v-457h-149v1018h149z" />
    <glyph glyph-name="uni043E" unicode="&#x43e;" horiz-adv-x="1239" 
d="M993 507q0 163 -106 281q-109 117 -271 117q-162 -1 -266 -115t-106 -277t107 -282q110 -118 270 -117t268 115q104 115 104 278zM94 506q0 227 152 379t375 151q217 4 373 -152t153 -372q4 -222 -154 -378t-377 -152q-141 0 -264 69q-121 72 -188 191q-70 119 -70 264z
" />
    <glyph glyph-name="uni043F" unicode="&#x43f;" horiz-adv-x="1208" 
d="M893 887h-576v-887h-149v1018h872v-1018h-147v887z" />
    <glyph glyph-name="uni0440" unicode="&#x440;" horiz-adv-x="1282" 
d="M681 115q159 0 259 112q96 115 96 279q0 231 -166 342q-80 55 -190 55q-152 2 -260 -117q-108 -118 -107 -278t105 -276t263 -117zM1188 510q0 -139 -60 -258t-168 -193q-110 -74 -251 -73q-250 0 -392 223v-711h-149v1520h145v-221q157 239 385 239t359 -162t131 -364z
" />
    <glyph glyph-name="uni0441" unicode="&#x441;" horiz-adv-x="1171" 
d="M246 514q0 -229 172 -342q84 -57 202 -57q162 0 267 125q45 59 67 118l138 -45q-35 -123 -156 -221q-131 -111 -324 -110q-220 -4 -370 148t-148 376q0 147 72 271t190 192q118 67 276 67t290 -94q133 -100 163 -231l-135 -45q-24 82 -110 160t-236 77q-150 1 -254 -113
t-104 -276z" />
    <glyph glyph-name="uni0442" unicode="&#x442;" horiz-adv-x="948" 
d="M911 1018v-131h-362v-887h-150v887h-362v131h874z" />
    <glyph glyph-name="uni0443" unicode="&#x443;" horiz-adv-x="1132" 
d="M938 1018h160l-697 -1520h-161l264 572l-463 948h170l373 -787z" />
    <glyph glyph-name="uni0444" unicode="&#x444;" horiz-adv-x="1675" 
d="M1133 115q291 0 290 395q0 174 -70 284q-71 110 -211 110t-231 -99v-592q96 -98 222 -98zM254 506q0 -391 289 -391q125 0 219 98v592q-92 98 -234 98q-142 -1 -208 -113t-66 -284zM762 -465v551q-121 -102 -251 -102t-226 72q-185 140 -185 456q-4 227 110 377t302 147
q129 0 250 -110v567h149v-567q121 110 249 110t223 -68t143 -191q48 -122 49 -269q1 -217 -105 -371t-309 -153q-135 0 -250 102v-551h-149z" />
    <glyph glyph-name="uni0445" unicode="&#x445;" horiz-adv-x="1050" 
d="M225 1018l301 -395l301 395h172l-385 -498l402 -520h-176l-316 414l-315 -414h-174l403 518l-387 500h174z" />
    <glyph glyph-name="uni0446" unicode="&#x446;" horiz-adv-x="1247" 
d="M168 1018h149v-887h568v887h149v-887h119v-446h-143v315h-842v1018z" />
    <glyph glyph-name="uni0447" unicode="&#x447;" horiz-adv-x="1083" 
d="M446 459q191 0 322 94v465h147v-1018h-147v420q-68 -37 -164 -65t-174 -27q-148 0 -242 77t-94 226v387h150v-365q0 -94 55 -144t147 -50z" />
    <glyph glyph-name="uni0448" unicode="&#x448;" horiz-adv-x="1751" 
d="M168 1018h149v-887h484v887h149v-887h484v887h149v-1018h-1415v1018z" />
    <glyph glyph-name="uni0449" unicode="&#x449;" horiz-adv-x="1796" 
d="M168 1018h149v-887h484v887h149v-887h484v887h149v-887h121v-446h-143v315h-1393v1018z" />
    <glyph glyph-name="uni044A" unicode="&#x44a;" horiz-adv-x="1280" 
d="M485 131h328q106 0 180 48q74 49 74 151t-76 145t-184 43h-322v-387zM485 647h324q172 0 290 -75q118 -74 118 -236t-112 -249t-278 -87h-489v887h-299v131h446v-371z" />
    <glyph glyph-name="uni044B" unicode="&#x44b;" horiz-adv-x="1599" 
d="M317 131h328q106 0 180 48q74 49 74 151t-76 145t-186 43h-320v-387zM1282 1018h150v-1018h-150v1018zM317 647h322q174 0 292 -75q118 -74 118 -236t-113 -249t-279 -87h-489v1018h149v-371z" />
    <glyph glyph-name="uni044C" unicode="&#x44c;" horiz-adv-x="1112" 
d="M317 131h328q106 0 180 48q74 49 74 151t-76 145t-186 43h-320v-387zM317 647h322q174 0 292 -75q118 -74 118 -236t-113 -249t-279 -87h-489v1018h149v-371z" />
    <glyph glyph-name="uni044D" unicode="&#x44d;" horiz-adv-x="1169" 
d="M548 1036q315 0 458 -252q70 -119 69 -270q1 -227 -149 -382t-369 -150q-199 0 -326 110q-119 96 -153 219l133 47q41 -109 137 -182q90 -63 228 -63t237 98q94 98 111 250h-484v129h480q-25 139 -122 227t-244 88t-232 -81t-107 -156l-131 45q35 133 173 228
q137 95 291 95z" />
    <glyph glyph-name="uni044E" unicode="&#x44e;" horiz-adv-x="1646" 
d="M1043 113q155 -1 255 113t100 279t-100 283t-257 120q-157 1 -258 -120q-101 -120 -99 -280t103 -278t256 -117zM317 449v-449h-149v1018h149v-445h222q20 199 161 331t350 134t358 -153q148 -156 144 -377q4 -217 -146 -373q-150 -157 -358 -155q-207 2 -350 135
q-141 133 -159 334h-222z" />
    <glyph glyph-name="uni044F" unicode="&#x44f;" horiz-adv-x="1118" 
d="M801 887h-297q-100 0 -171 -47q-71 -46 -71 -138t62 -149q68 -57 184 -57h293v391zM498 1018h452v-1018h-149v369h-279l-266 -369h-180l297 397q-117 29 -189 107t-72 202t97 218q96 94 289 94z" />
    <glyph glyph-name="uni0451" unicode="&#x451;" horiz-adv-x="1157" 
d="M596 905q-135 0 -234 -92q-98 -96 -116 -223h674q-14 139 -102 227t-222 88zM592 115q260 0 332 217l131 -41q-43 -143 -166 -228q-127 -81 -275 -81t-268 72q-121 72 -184 192q-68 119 -68 261t64 261q59 121 176 195q118 73 264 73t256 -68q216 -135 215 -456
q0 -26 -2 -49h-823q8 -150 111 -249t237 -99zM769 1188q-44 0 -79 35t-35 82t35 79t79 33q44 0 78 -33q34 -34 34 -80t-34 -81t-78 -35zM406 1417q44 0 78 -33q34 -34 34 -80t-34 -81t-78 -35t-78 35q-33 35 -33 82t33 79t78 33z" />
    <glyph glyph-name="uni0452" unicode="&#x452;" horiz-adv-x="1173" 
d="M909 590q0 139 -71 227q-74 84 -210 84t-222 -94q-88 -90 -89 -232v-575h-149v1208h-127v133h127v211h149v-211h371v-133h-371v-377q123 205 355 205q184 0 284 -110t101 -297v-735q1 -178 -101 -287t-280 -109q-109 0 -197 27l29 127l65 -14q43 -6 74 -7q115 0 189 82
t73 215v662z" />
    <glyph glyph-name="uni0453" unicode="&#x453;" horiz-adv-x="886" 
d="M168 1018h682v-131h-533v-887h-149v1018zM596 1520h180l-244 -328h-143z" />
    <glyph glyph-name="uni0454" unicode="&#x454;" horiz-adv-x="1171" 
d="M600 113q263 0 358 245l136 -47q-35 -121 -159 -225t-335 -104t-356 147q-150 147 -151 373t153 383q154 156 375 151q166 0 301 -94q133 -100 163 -229l-131 -45q-18 72 -94 149q-92 88 -238 88t-246 -87q-101 -87 -126 -228h479v-129h-483q14 -147 114 -247t240 -101z
" />
    <glyph glyph-name="uni0455" unicode="&#x455;" horiz-adv-x="935" 
d="M840 277q0 -125 -105 -207q-104 -86 -256 -86q-223 0 -325 147q-51 70 -62 156l135 35q15 -84 77 -146t160 -63q98 0 160 45q64 44 64 114t-47 107t-119 53l-155 35q-254 55 -254 266q0 158 127 236q109 68 219 67q209 -2 305 -135q47 -68 61 -137l-135 -39
q-14 59 -64 120t-150 61t-158 -47q-56 -46 -56 -116q0 -102 148 -139l163 -37q113 -27 190 -96t77 -194z" />
    <glyph glyph-name="uni0456" unicode="&#x456;" horiz-adv-x="485" 
d="M317 1018v-1018h-149v1018h149zM243 1270q-46 0 -79 35t-33 77t33 78q33 35 79 35t79 -33q32 -33 32 -80q0 -48 -32 -80t-79 -32z" />
    <glyph glyph-name="uni0457" unicode="&#x457;" horiz-adv-x="485" 
d="M317 1018v-1018h-149v1018h149zM421 1188q-44 0 -79 35t-35 82t35 79t79 33q44 0 78 -33q34 -34 34 -80t-34 -81t-78 -35zM66 1417q44 0 78 -33q34 -34 34 -80t-34 -81t-78 -35t-78 35q-33 35 -33 82t33 79t78 33z" />
    <glyph glyph-name="uni0458" unicode="&#x458;" horiz-adv-x="501" 
d="M332 1018v-1235q0 -291 -289 -291q-39 0 -94 14v123q31 -6 90 -6t102 42t43 120v1233h148zM145 1382q0 47 34 80t78 33t81 -33q31 -33 31 -80t-31 -79q-37 -33 -82 -33t-76 35q-35 30 -35 77z" />
    <glyph glyph-name="uni0459" unicode="&#x459;" horiz-adv-x="1835" 
d="M1038 131h328q110 0 182 48q72 49 72 153t-78 145t-182 41h-322v-387zM1038 647h324q174 0 292 -75q118 -74 118 -236t-113 -249t-279 -87h-489v887h-434l-56 -490q-16 -159 -103 -285t-247 -118l-4 2v131q105 0 151 94t58 201l68 596h714v-371z" />
    <glyph glyph-name="uni045A" unicode="&#x45a;" horiz-adv-x="1843" 
d="M1051 131h329q106 0 180 46q72 45 72 149t-77 144t-181 40h-323v-379zM317 637h584v381h150v-381h325q174 0 289 -74q115 -73 115 -233t-110 -245t-275 -85h-494v508h-584v-508h-149v1018h149v-381z" />
    <glyph glyph-name="uni045B" unicode="&#x45b;" horiz-adv-x="1206" 
d="M901 0v592q0 141 -72 225q-73 84 -207 84t-221 -92q-84 -94 -84 -229v-580h-149v1208h-127v133h127v211h149v-211h371v-133h-371v-372q119 201 349 200q180 0 284 -110q100 -117 101 -297v-629h-150z" />
    <glyph glyph-name="uni045C" unicode="&#x45c;" horiz-adv-x="1056" 
d="M317 1018v-449h11l495 449h205l-559 -494l586 -524h-207l-520 475h-11v-475h-149v1018h149zM680 1520h180l-246 -328h-141z" />
    <glyph glyph-name="uni045E" unicode="&#x45e;" horiz-adv-x="1132" 
d="M938 1018h160l-697 -1520h-161l264 572l-463 948h170l373 -787zM570 1188q-120 0 -201 76q-84 72 -109 196l107 21q49 -172 203 -172t202 172l107 -21q-23 -124 -107 -196q-82 -76 -202 -76z" />
    <glyph glyph-name="uni045F" unicode="&#x45f;" horiz-adv-x="1202" 
d="M168 0v1018h149v-887h568v887h149v-1018h-362v-315h-144v315h-360z" />
    <glyph glyph-name="uni0490" unicode="&#x490;" horiz-adv-x="1105" 
d="M1063 1780v-430l-698 -2v-1348h-158v1493h708v287h148z" />
    <glyph glyph-name="uni0491" unicode="&#x491;" horiz-adv-x="886" 
d="M707 1292h143v-405h-533v-887h-149v1018h539v274z" />
    <glyph glyph-name="uni0496" unicode="&#x496;" horiz-adv-x="1937" 
d="M1909 145v-458h-148v313h-65l-654 725h-10v-725h-158v725h-10l-653 -725h-213l698 764l-667 729h204l631 -700h10v700h158v-700h10l631 700h205l-668 -729l566 -619h133z" />
    <glyph glyph-name="uni0497" unicode="&#x497;" horiz-adv-x="1585" 
d="M1389 -315v315h-58l-465 494h-14v-494h-147v494h-15l-463 -494h-202l497 524l-485 494h190l463 -469h15v469h147v-469h16l463 469h191l-488 -494l373 -393h125v-446h-143z" />
    <glyph glyph-name="uni0498" unicode="&#x498;" horiz-adv-x="1243" 
d="M532 -311v301q-253 31 -387 235q-59 94 -71 195l151 29q20 -176 193 -273q88 -47 204 -47t236 82q121 82 121 240q0 125 -100 205t-261 81q-94 0 -155 -22l-74 125l512 510h-790v143h989v-137l-475 -475q195 6 333 -93q178 -122 178 -338t-175 -354q-117 -88 -273 -106
v-301h-156z" />
    <glyph glyph-name="uni0499" unicode="&#x499;" horiz-adv-x="1007" 
d="M432 -315v303q-125 14 -226 94t-130 201l135 41q27 -100 105 -158t184 -57q104 0 183 51t79 145q0 63 -41 107q-74 78 -215 80q-68 0 -111 -13l-67 107l372 305h-598v127h781v-127l-351 -283q205 -4 320 -139q57 -70 57 -160q0 -152 -125 -243q-82 -59 -209 -78v-303
h-143z" />
    <glyph glyph-name="uni049A" unicode="&#x49a;" horiz-adv-x="1325" 
d="M1296 145v-458h-147v313h-74l-700 719h-10v-719h-158v1493h158v-659h10l669 659h218l-732 -715l623 -633h143z" />
    <glyph glyph-name="uni049B" unicode="&#x49b;" horiz-adv-x="1087" 
d="M911 -315v315h-65l-518 475h-11v-475h-149v1018h149v-449h11l493 449h205l-557 -494l438 -393h148v-446h-144z" />
    <glyph glyph-name="uni04A2" unicode="&#x4a2;" horiz-adv-x="1624" 
d="M1382 0h-168v684h-849v-684h-158v1493h158v-662h849v662h158v-1348h158v-458h-148v313z" />
    <glyph glyph-name="uni04A3" unicode="&#x4a3;" horiz-adv-x="1263" 
d="M1026 -315v315h-125v457h-584v-457h-149v1018h149v-428h584v428h150v-887h118v-446h-143z" />
    <glyph glyph-name="uni04AA" unicode="&#x4aa;" horiz-adv-x="1599" 
d="M774 -311v299q-288 24 -480 232t-192 521q0 168 62 315t164 240q100 98 236 156t292 57q231 0 395 -114q70 -45 131 -115q102 -119 140 -262l-150 -53q-23 86 -88 180q-47 63 -100 108t-140 74q-86 33 -192 33q-240 0 -413 -171t-175 -435t169 -444t419 -177
q197 0 328 105q59 45 98 102q53 70 98 192l150 -53q-54 -196 -236 -352q-152 -119 -358 -137v-301h-158z" />
    <glyph glyph-name="uni04AB" unicode="&#x4ab;" horiz-adv-x="1171" 
d="M543 -315v303q-195 20 -322 164t-127 354q0 147 72 271t190 192q118 67 276 67t290 -94q133 -100 163 -231l-135 -45q-24 82 -110 160t-236 77q-150 1 -254 -113t-104 -276q0 -231 172 -342q82 -57 202 -57t201 63q85 56 131 180l140 -45q-37 -119 -144 -213t-262 -112
v-303h-143z" />
    <glyph glyph-name="uni04AC" unicode="&#x4ac;" horiz-adv-x="1241" 
d="M709 0h-170v1346h-498v147h1153v-147h-498v-1201h160v-458h-147v313z" />
    <glyph glyph-name="uni04AD" unicode="&#x4ad;" horiz-adv-x="954" 
d="M37 1018h874v-131h-362v-756h119v-446h-144v315h-125v887h-362v131z" />
    <glyph glyph-name="uni04B2" unicode="&#x4b2;" horiz-adv-x="1425" 
d="M1399 145v-458h-148v313h-86l-485 653l-481 -653h-185l574 764l-547 729h182l461 -614l457 614h182l-547 -727l463 -621h160z" />
    <glyph glyph-name="uni04B3" unicode="&#x4b3;" horiz-adv-x="1075" 
d="M872 -315v315h-32l-316 414l-315 -414h-174l403 518l-387 500h174l301 -395l301 395h172l-385 -498l299 -389h103v-446h-144z" />
    <glyph glyph-name="uni04B6" unicode="&#x4b6;" horiz-adv-x="1449" 
d="M1208 0h-168v637q-96 -57 -228 -100t-224 -43q-242 0 -371 135q-102 106 -102 295v569h155v-551q0 -129 82 -214t246 -85q110 0 228 42t214 99v709h158v-1348h158v-458h-148v313z" />
    <glyph glyph-name="uni04B7" unicode="&#x4b7;" horiz-adv-x="1128" 
d="M446 459q191 0 322 94v465h147v-887h119v-446h-143v315h-123v420q-68 -37 -164 -65t-174 -27q-148 0 -242 77t-94 226v387h150v-365q0 -94 55 -144t147 -50z" />
    <glyph glyph-name="uni04C0" unicode="&#x4c0;" horiz-adv-x="571" 
d="M365 1493v-1493h-158v1493h158z" />
    <glyph glyph-name="uni04C1" unicode="&#x4c1;" horiz-adv-x="1906" 
d="M1032 725v-725h-158v725h-10l-653 -725h-213l698 764l-667 729h204l631 -700h10v700h158v-700h10l631 700h205l-668 -729l699 -764h-213l-654 725h-10zM952 1630q-119 0 -200 76q-84 72 -107 197l105 20q48 -172 202 -172t205 172l105 -20q-23 -125 -107 -199t-203 -74z
" />
    <glyph glyph-name="uni04C2" unicode="&#x4c2;" horiz-adv-x="1556" 
d="M852 494v-494h-147v494h-15l-463 -494h-202l497 524l-485 494h190l463 -469h15v469h147v-469h16l463 469h191l-488 -494l498 -524h-201l-465 494h-14zM779 1188q-120 0 -201 76q-84 72 -107 196l104 21q49 -172 204 -172t204 172l104 -21q-22 -122 -105 -197t-203 -75z
" />
    <glyph glyph-name="uni04CF" unicode="&#x4cf;" horiz-adv-x="485" 
d="M317 1018v-1018h-149v1018h149z" />
    <glyph glyph-name="uni04D0" unicode="&#x4d0;" horiz-adv-x="1478" 
d="M1083 524l-348 807l-346 -807h694zM827 1493l646 -1493h-166l-164 381h-813l-164 -381h-160l643 1493h178zM735 1630q-119 0 -204 76t-105 197l106 20q49 -172 202 -172t204 172l106 -20q-20 -121 -105 -197t-204 -76z" />
    <glyph glyph-name="uni04D1" unicode="&#x4d1;" horiz-adv-x="1083" 
d="M782 465h-284q-94 0 -166 -35q-86 -37 -86 -128t62 -140t157 -49q133 0 225 88t92 229v35zM782 588v67q0 248 -260 248q-125 0 -189 -64t-77 -143l-143 31q2 43 41 109q118 200 385 200q266 0 358 -211q31 -72 31 -168v-286q0 -250 16 -371h-147q-14 78 -15 178
q-129 -197 -344 -196q-154 0 -245 86q-96 84 -97 215v10q0 151 122 223t282 72h282zM527 1188q-120 0 -201 76q-84 72 -109 196l107 21q48 -172 202 -172t203 172l107 -21q-23 -124 -107 -196q-82 -76 -202 -76z" />
    <glyph glyph-name="uni04D2" unicode="&#x4d2;" horiz-adv-x="1478" 
d="M1083 524l-348 807l-346 -807h694zM827 1493l646 -1493h-166l-164 381h-813l-164 -381h-160l643 1493h178zM926 1634q-45 0 -78 35t-33 82t33 80t78 33t79 -34t34 -80t-34 -81t-79 -35zM545 1634q-45 0 -79 35t-34 82t34 80t79 33t78 -33t33 -80t-33 -82t-78 -35z" />
    <glyph glyph-name="uni04D3" unicode="&#x4d3;" horiz-adv-x="1083" 
d="M782 430v35h-284q-94 0 -166 -35q-86 -37 -86 -128t62 -140t157 -49q133 0 225 88t92 229zM500 588h282v67q0 248 -260 248q-125 0 -189 -64t-77 -143l-143 31q2 43 41 109q118 200 385 200q266 0 358 -211q31 -72 31 -168v-286q0 -250 16 -371h-147q-14 78 -15 178
q-129 -197 -344 -196q-154 0 -245 86q-96 84 -97 215v10q0 151 122 223t282 72zM710 1188q-42 0 -77 35t-35 82t35 79t78 33q43 0 77 -33q34 -34 35 -80q0 -46 -35 -81q-36 -35 -78 -35zM347 1188q-44 0 -79 35t-35 82t35 79t79 33q44 0 78 -33q34 -34 34 -80t-34 -81
t-78 -35z" />
    <glyph glyph-name="uni04D4" unicode="&#x4d4;" horiz-adv-x="1996" 
d="M942 524v828h-20l-471 -828h491zM1874 1348h-778v-517h710v-145h-710v-541h786l-2 -145h-938v381h-571l-217 -381h-170l856 1493h1034v-145z" />
    <glyph glyph-name="uni04D5" unicode="&#x4d5;" horiz-adv-x="1843" 
d="M786 465h-288q-94 0 -166 -35q-86 -37 -86 -127t63 -140t158 -50q135 0 227 88t92 229v35zM1284 905q-135 0 -240 -94q-102 -96 -114 -221h676q-12 141 -100 228t-222 87zM786 586v69q0 248 -260 248q-124 0 -190 -59t-82 -148l-141 31q2 43 41 109t104 116
q106 84 256 84t244 -57t131 -156q57 97 165 155t224 58q229 0 353 -145t124 -379q0 -27 -2 -49h-825q6 -143 110 -245t238 -103q261 0 334 217l131 -41q-43 -143 -166 -228q-129 -81 -273 -81t-257 64q-114 64 -181 175q-139 -240 -413 -239h-5q-156 0 -251 86
q-98 84 -99 215v10q0 158 135 229q115 63 269 64h286z" />
    <glyph glyph-name="uni04D6" unicode="&#x4d6;" 
d="M1075 831v-145h-710v-541h784v-145h-942v1493h934v-145h-776v-517h710zM678 1630q-119 0 -201 76q-84 72 -108 197l106 20q49 -172 203 -172t203 172l106 -20q-23 -125 -107 -199t-202 -74z" />
    <glyph glyph-name="uni04D7" unicode="&#x4d7;" horiz-adv-x="1157" 
d="M596 905q-135 0 -234 -92q-98 -96 -116 -223h674q-14 139 -102 227t-222 88zM592 115q260 0 332 217l131 -41q-43 -143 -166 -228q-127 -81 -275 -81t-268 72q-121 72 -184 192q-68 119 -68 261t64 261q59 121 176 195q118 73 264 73t256 -68q216 -135 215 -456
q0 -26 -2 -49h-823q8 -150 111 -249t237 -99zM591 1188q-120 0 -202 76q-84 72 -106 196l106 21q47 -172 202 -172t204 172l106 -21q-24 -124 -107 -198t-203 -74z" />
    <glyph glyph-name="uni04DC" unicode="&#x4dc;" horiz-adv-x="1906" 
d="M1032 725v-725h-158v725h-10l-653 -725h-213l698 764l-667 729h204l631 -700h10v700h158v-700h10l631 700h205l-668 -729l699 -764h-213l-654 725h-10zM1247 1750q0 -46 -34 -81q-35 -35 -79 -35t-77 35t-33 82t33 80t78 33t79 -34t33 -80zM772 1634q-43 0 -78 35t-35 82
t35 80t78 33t78 -33t35 -80t-35 -82t-78 -35z" />
    <glyph glyph-name="uni04DD" unicode="&#x4dd;" horiz-adv-x="1556" 
d="M852 494v-494h-147v494h-15l-463 -494h-202l497 524l-485 494h190l463 -469h15v469h147v-469h16l463 469h191l-488 -494l498 -524h-201l-465 494h-14zM960 1188q-42 0 -77 35t-35 82t35 79t78 33q43 0 77 -33q34 -34 35 -80q0 -46 -35 -81q-36 -35 -78 -35zM598 1188
q-45 0 -79 35t-34 82t34 79t79 33q45 0 78 -33q33 -34 33 -80t-33 -81t-78 -35z" />
    <glyph glyph-name="uni04DE" unicode="&#x4de;" horiz-adv-x="1243" 
d="M600 -16q-215 0 -364 135q-139 131 -162 301l151 29q20 -176 193 -273q88 -47 204 -47t236 82q121 82 121 240q0 125 -100 205t-261 81q-94 0 -155 -22l-74 125l512 510h-790v143h989v-137l-475 -475q195 6 333 -93q178 -122 178 -338t-175 -354q-146 -112 -361 -112z
M796 1634q-42 0 -77 35t-35 82t35 80t78 33t77 -34t35 -80q0 -46 -35 -81q-36 -35 -78 -35zM416 1634q-43 0 -78 35t-35 82t35 80t78 33t78 -33t35 -80t-35 -82t-78 -35z" />
    <glyph glyph-name="uni04DF" unicode="&#x4df;" horiz-adv-x="1007" 
d="M909 309q1 -151 -121 -239t-276 -88t-281 79q-119 80 -155 222l135 41q27 -100 105 -158t184 -57q104 0 183 51t79 145q0 63 -41 107q-74 78 -215 80q-68 0 -111 -13l-67 107l372 305h-598v127h781v-127l-351 -283q205 -4 320 -139q57 -70 57 -160zM674 1188
q-43 0 -78 35t-35 82t35 79t78 33q43 0 78 -33q35 -34 35 -80t-35 -81t-78 -35zM311 1188q-45 0 -79 35t-33 82q-1 47 33 79t79 33q45 0 78 -33q33 -34 33 -80t-33 -81t-78 -35z" />
    <glyph glyph-name="uni04E2" unicode="&#x4e2;" horiz-adv-x="1603" 
d="M207 0v1493h158v-1282l849 1282h183v-1493h-156v1290l-852 -1290h-182zM1124 1686h-643v135h643v-135z" />
    <glyph glyph-name="uni04E3" unicode="&#x4e3;" horiz-adv-x="1230" 
d="M168 0v1018h149v-813l594 813h152v-1018h-150v807l-596 -807h-149zM936 1221h-643v133h643v-133z" />
    <glyph glyph-name="uni04E4" unicode="&#x4e4;" horiz-adv-x="1603" 
d="M207 0v1493h158v-1282l849 1282h183v-1493h-156v1290l-852 -1290h-182zM993 1634q-43 0 -78 35t-34 82q0 47 34 80q35 33 78 33t78 -33t35 -80t-35 -82t-78 -35zM611 1634q-44 0 -79 35q-33 35 -32 82q0 47 32 80q35 33 79 33t79 -33t35 -80t-35 -82t-79 -35z" />
    <glyph glyph-name="uni04E5" unicode="&#x4e5;" horiz-adv-x="1230" 
d="M168 0v1018h149v-813l594 813h152v-1018h-150v807l-596 -807h-149zM796 1188q-42 0 -77 35t-35 82t35 79t78 33q43 0 77 -33q34 -34 35 -80q0 -46 -35 -81q-36 -35 -78 -35zM434 1188q-45 0 -79 35t-33 82q0 47 34 79t78 33q45 0 78 -33q33 -34 33 -80t-33 -81t-78 -35z
" />
    <glyph glyph-name="uni04E6" unicode="&#x4e6;" horiz-adv-x="1705" 
d="M1442 741q0 257 -166 439t-426 182q-162 0 -301 -82q-135 -86 -209 -225t-74 -305q0 -258 166 -438t424 -181q164 0 301 84q135 78 210 219t75 307zM1604 724q0 -186 -98 -360q-98 -176 -271 -278q-174 -102 -385 -102q-154 0 -296 59t-239 162q-96 96 -154 241t-59 295
q0 213 99 387q96 178 268 278t387 101q158 0 297 -59t238 -158q101 -108 157 -244t56 -322zM1046 1634q-42 0 -77 35t-35 82t35 80t78 33t77 -33t35 -80q0 -47 -35 -82q-36 -35 -78 -35zM664 1634q-44 0 -78 35q-33 35 -33 82t33 80q35 33 79 33q45 0 79 -33t34 -80t-35 -82
t-79 -35z" />
    <glyph glyph-name="uni04E7" unicode="&#x4e7;" horiz-adv-x="1239" 
d="M993 507q0 163 -106 281q-109 117 -271 117q-162 -1 -266 -115t-106 -277t107 -282q110 -118 270 -117t268 115q104 115 104 278zM94 506q0 227 152 379t375 151q217 4 373 -152t153 -372q4 -222 -154 -378t-377 -152q-141 0 -264 69q-121 72 -188 191q-70 119 -70 264z
M803 1188q-45 0 -79 35t-34 82t34 79t79 33q45 0 78 -33q33 -34 33 -80t-33 -81t-78 -35zM439 1188q-44 0 -79 35q-33 35 -32 82q0 47 34 79t77 33q44 0 79 -33q35 -34 35 -80t-35 -81t-79 -35z" />
    <glyph glyph-name="uni04E8" unicode="&#x4e8;" horiz-adv-x="1705" 
d="M856 131q240 0 406 162q162 162 180 393h-1176q23 -233 186 -394q164 -161 404 -161zM851 1362q-157 0 -283 -70t-204 -192t-96 -269h1170q-20 151 -98 271t-205 190t-284 70zM850 -16q-154 0 -296 59t-239 162q-96 96 -154 241t-59 295q0 213 99 387q96 178 268 278
t387 101q158 0 297 -59t238 -158q211 -226 213 -540q0 -210 -98 -386t-271 -278q-174 -102 -385 -102z" />
    <glyph glyph-name="uni04E9" unicode="&#x4e9;" horiz-adv-x="1239" 
d="M620 113q148 -1 254 99t119 241h-747q20 -143 123 -242q103 -98 251 -98zM617 907q-146 0 -246 -93t-123 -234h743q-25 139 -127 233t-247 94zM94 506q0 227 152 379t375 151q217 4 373 -152t153 -372q4 -222 -154 -378t-377 -152q-141 0 -264 69q-121 72 -188 191
q-70 119 -70 264z" />
    <glyph glyph-name="uni04EA" unicode="&#x4ea;" horiz-adv-x="1705" 
d="M856 131q240 0 406 162q162 162 180 393h-1176q23 -233 186 -394q164 -161 404 -161zM851 1362q-157 0 -283 -70t-204 -192t-96 -269h1170q-20 151 -98 271t-205 190t-284 70zM850 -16q-154 0 -296 59t-239 162q-96 96 -154 241t-59 295q0 213 99 387q96 178 268 278
t387 101q158 0 297 -59t238 -158q211 -226 213 -540q0 -210 -98 -386t-271 -278q-174 -102 -385 -102zM1159 1751q0 -47 -35 -82q-36 -35 -78 -35t-77 35t-35 82t35 80t77 33t78 -33q35 -33 35 -80zM778 1751q0 -47 -35 -82t-79 -35t-78 35q-33 35 -33 82t33 80q34 33 78 33
t79 -33t35 -80z" />
    <glyph glyph-name="uni04EB" unicode="&#x4eb;" horiz-adv-x="1239" 
d="M620 113q148 -1 254 99t119 241h-747q20 -143 123 -242q103 -98 251 -98zM617 907q-146 0 -246 -93t-123 -234h743q-25 139 -127 233t-247 94zM94 506q0 227 152 379t375 151q217 4 373 -152t153 -372q4 -222 -154 -378t-377 -152q-141 0 -264 69q-121 72 -188 191
q-70 119 -70 264zM803 1188q-45 0 -79 35t-34 82t34 79t79 33q45 0 78 -33q33 -34 33 -80t-34 -81q-32 -35 -77 -35zM553 1304q0 -46 -35 -81t-79 -35t-79 35q-33 35 -32 82q0 47 34 79t77 33q44 0 79 -33q35 -34 35 -80z" />
    <glyph glyph-name="uni04EC" unicode="&#x4ec;" horiz-adv-x="1607" 
d="M770 1509q315 0 525 -212q210 -213 210 -549t-213 -553q-215 -211 -532 -211q-150 0 -276 50t-204 130q-155 157 -198 315l147 53q33 -88 62 -133q47 -84 125 -149q140 -117 364 -117t380 156t175 397h-717v145h715q-23 233 -185 384q-163 151 -384 147q-274 0 -438 -215
q-72 -98 -90 -180l-150 51q23 98 97 201q75 102 190 178q168 112 397 112zM982 1634q-44 0 -79 35t-35 82t35 80t79 33t78 -33t34 -80t-34 -82t-78 -35zM600 1634q-43 0 -78 35t-35 82t35 80t78 33t78 -34t35 -80t-35 -81t-78 -35z" />
    <glyph glyph-name="uni04ED" unicode="&#x4ed;" horiz-adv-x="1169" 
d="M548 1036q315 0 458 -252q70 -119 69 -270q1 -227 -149 -382t-369 -150q-199 0 -326 110q-119 96 -153 219l133 47q41 -109 137 -182q90 -63 228 -63t237 98q94 98 111 250h-484v129h480q-25 139 -122 227t-244 88t-232 -81t-107 -156l-131 45q35 133 173 228
q137 95 291 95zM758 1188q-45 0 -78 35t-33 82t33 79t78 33q45 0 78 -33q33 -34 33 -80t-33 -81t-78 -35zM395 1188q-43 0 -78 35t-34 82t35 79t77 33q43 0 78 -33q35 -34 35 -80t-35 -81t-78 -35z" />
    <glyph glyph-name="uni04EE" unicode="&#x4ee;" horiz-adv-x="1325" 
d="M119 0v145h151q80 0 181 45q98 51 170 199l-598 1104h178l501 -942l459 942h172l-553 -1112q-39 -76 -65 -125q-71 -115 -142 -170q-127 -88 -348 -86h-106zM1008 1686h-643v135h643v-135z" />
    <glyph glyph-name="uni04EF" unicode="&#x4ef;" horiz-adv-x="1132" 
d="M938 1018h160l-697 -1520h-161l264 572l-463 948h170l373 -787zM891 1221h-641v133h641v-133z" />
    <glyph glyph-name="uni04F0" unicode="&#x4f0;" horiz-adv-x="1325" 
d="M119 0v145h151q80 0 181 45q98 51 170 199l-598 1104h178l501 -942l459 942h172l-553 -1112q-39 -76 -65 -125q-71 -115 -142 -170q-127 -88 -348 -86h-106zM897 1634q-45 0 -78 35t-33 82t33 80t78 33t79 -34t34 -80t-34 -81t-79 -35zM516 1634q-45 0 -79 35t-34 82
t34 80t79 33t78 -33t33 -80t-33 -82t-78 -35z" />
    <glyph glyph-name="uni04F1" unicode="&#x4f1;" horiz-adv-x="1132" 
d="M401 -502h-161l264 572l-463 948h170l373 -787l354 787h160zM759 1188q-44 0 -79 35q-33 35 -33 82t34 79t78 33q44 0 79 -33q35 -34 35 -80t-35 -81t-79 -35zM395 1188q-43 0 -78 35t-34 82t35 79t77 33q43 0 78 -33q35 -34 35 -80t-35 -81t-78 -35z" />
    <glyph glyph-name="uni04F2" unicode="&#x4f2;" horiz-adv-x="1325" 
d="M119 0v145h151q80 0 181 45q98 51 170 199l-598 1104h178l501 -942l459 942h172l-553 -1112q-39 -76 -65 -125q-71 -115 -142 -170q-127 -88 -348 -86h-106zM981 1958h180l-243 -328h-142zM653 1958h181l-246 -328h-142z" />
    <glyph glyph-name="uni04F3" unicode="&#x4f3;" horiz-adv-x="1132" 
d="M938 1018h160l-697 -1520h-161l264 572l-463 948h170l373 -787zM879 1520h180l-244 -328h-141zM551 1520h180l-246 -328h-141z" />
    <glyph glyph-name="uni04F4" unicode="&#x4f4;" horiz-adv-x="1404" 
d="M1040 0v637q-96 -57 -228 -100t-224 -43q-242 0 -371 135q-102 106 -102 295v569h155v-551q0 -129 82 -214t246 -85q110 0 228 42t214 99v709h158v-1493h-158zM848 1634q-45 0 -80 35t-35 82t35 80t80 33t78 -33t33 -80t-33 -82t-78 -35zM465 1634q-43 0 -78 35t-35 82
t35 80t78 33t78 -34t35 -80t-35 -81t-78 -35z" />
    <glyph glyph-name="uni04F5" unicode="&#x4f5;" horiz-adv-x="1083" 
d="M446 459q191 0 322 94v465h147v-1018h-147v420q-68 -37 -164 -65t-174 -27q-148 0 -242 77t-94 226v387h150v-365q0 -94 55 -144t147 -50zM687 1188q-44 0 -79 35t-35 82t35 79t79 33q44 0 78 -33q34 -34 34 -80t-34 -81t-78 -35zM324 1417q44 0 78 -33q34 -34 34 -80
t-34 -81t-78 -35t-78 35q-33 35 -33 82t33 79t78 33z" />
    <glyph glyph-name="uni04F8" unicode="&#x4f8;" horiz-adv-x="1787" 
d="M365 145h352q194 0 307 95q92 82 92 226t-108 223t-301 79h-342v-623zM1423 1493h156v-1493h-156v1493zM365 911h333q172 0 314 -55q80 -35 133 -80q129 -108 129 -308t-140 -334t-411 -134h-516v1493h158v-582zM1084 1634q-44 0 -78 35t-35 82q0 47 35 80q34 33 78 33
t78 -33t34 -80t-34 -82t-78 -35zM702 1634q-44 0 -78 35t-34 82t35 80t77 33t78 -34q35 -34 35 -80t-35 -81t-78 -35z" />
    <glyph glyph-name="uni04F9" unicode="&#x4f9;" horiz-adv-x="1599" 
d="M317 131h328q106 0 180 48q74 49 74 151t-76 145t-186 43h-320v-387zM1282 1018h150v-1018h-150v1018zM317 647h322q174 0 292 -75q118 -74 118 -236t-113 -249t-279 -87h-489v1018h149v-371zM982 1188q-44 0 -79 35t-35 82t35 79t79 33q44 0 78 -33q34 -34 34 -80
t-34 -81t-78 -35zM618 1188q-46 0 -78 35t-32 82t33 79t77 33q44 0 79 -33q34 -34 34 -80t-34 -81t-79 -35z" />
    <glyph glyph-name="uni0E3F" unicode="&#xe3f;" horiz-adv-x="1400" 
d="M758 143h10q145 0 254 67t108 210q0 166 -167 231q-80 33 -205 39v-547zM629 143v547h-267v-547h267zM1065 1105q0 118 -86 178t-221 67v-521q156 10 232 84t75 192zM629 829v521h-267v-521h267zM1290 410q0 -209 -157 -314q-150 -96 -369 -96h-6v-195h-129v195h-422
v1493h422v207h129v-207q205 -2 336 -102t131 -273q1 -112 -57 -201q-58 -90 -171 -141q157 -40 225 -152t68 -214z" />
    <glyph glyph-name="uni1E20" unicode="&#x1e20;" horiz-adv-x="1638" 
d="M852 1362q-123 0 -234 -49t-188 -133q-164 -180 -164 -436t162 -434t428 -179q206 0 360 119t166 328h-624v145h790v-57q0 -291 -186 -486q-186 -194 -517 -194t-537 216t-206 539q0 213 98 388t273 277q174 102 385 101q270 0 434 -131t226 -311l-150 -53
q-33 94 -102 176q-51 53 -99 86q-127 88 -315 88zM1182 1686h-641v135h641v-135z" />
    <glyph glyph-name="uni1E21" unicode="&#x1e21;" horiz-adv-x="1284" 
d="M603 126q159 1 262 116q103 114 105 270t-106 274q-110 118 -268 118t-253 -110t-97 -277t98 -279t259 -112zM967 14v213q-137 -231 -394 -231q-139 0 -249 71t-169 189t-59 256q0 139 58 257t169 193q109 74 249 74t234 -64t163 -167v213h147v-993q0 -260 -143 -398
q-147 -137 -387 -137q-188 0 -324 100q-135 104 -162 250l136 45q26 -100 110 -182t243 -82t263 90q115 94 115 303zM932 1221h-645v133h645v-133z" />
    <glyph glyph-name="uni1E30" unicode="&#x1e30;" horiz-adv-x="1294" 
d="M367 719v-719h-160v1493h160v-659h10l670 659h217l-732 -715l768 -778h-223l-698 719h-12zM813 1958h180l-245 -328h-142z" />
    <glyph glyph-name="uni1E31" unicode="&#x1e31;" horiz-adv-x="1038" 
d="M514 1192l207 328h180l-246 -328h-141zM317 510v-510h-149v1554h149v-950l484 414h211l-537 -457l561 -561h-207l-505 510h-7z" />
    <glyph glyph-name="uni1E60" unicode="&#x1e60;" horiz-adv-x="1226" 
d="M625 133q137 0 235 69t98 206t-124 210q-57 35 -142 52l-198 39q-152 31 -256 128t-104 239t67 236q68 95 175 146t234 51q219 -1 343 -109t151 -249l-143 -45q-25 100 -111 179t-226 79t-237 -74q-94 -76 -94 -177q0 -206 219 -249l188 -37q301 -59 390 -268
q29 -80 28 -137q2 -196 -140 -318t-356 -120t-366 133q-145 129 -164 291l150 41q25 -131 135 -224q111 -92 248 -92zM608 1634q-43 0 -82 35q-35 35 -34 82q0 47 34 82q35 35 81 35t80 -35t34 -82t-35 -82t-78 -35z" />
    <glyph glyph-name="uni1E61" unicode="&#x1e61;" horiz-adv-x="937" 
d="M840 278q0 -126 -105 -208q-104 -86 -256 -86q-221 0 -323 147q-53 72 -64 156l135 35q15 -84 77 -146t160 -63q98 0 163 47q63 42 63 112q0 121 -168 160l-153 35q-102 20 -174 78q-82 61 -82 199q1 138 113 216q112 76 233 76q213 -2 305 -135q51 -68 61 -137l-135 -39
q-16 63 -65 122t-149 59t-156 -48t-56 -110t37 -94t109 -50l165 -37q113 -27 189 -95t76 -194zM465 1188q-45 0 -80 35t-35 83t35 83t80 35t80 -35q35 -39 35 -83t-35 -81t-80 -37z" />
    <glyph glyph-name="Wgrave" unicode="&#x1e80;" horiz-adv-x="2187" 
d="M1006 1493h178l397 -1274h2l393 1274h158l-469 -1493h-174l-397 1282l-402 -1282h-172l-467 1493h164l391 -1268h4zM1167 1630h-143l-246 328h183z" />
    <glyph glyph-name="wgrave" unicode="&#x1e81;" horiz-adv-x="1650" 
d="M473 174l277 844h151l277 -846h2l270 846h154l-344 -1018h-164l-271 827h-2l-270 -827h-164l-340 1018h156zM897 1192h-143l-244 328h180z" />
    <glyph glyph-name="Wacute" unicode="&#x1e82;" horiz-adv-x="2187" 
d="M1006 1493h178l397 -1274h2l393 1274h158l-469 -1493h-174l-397 1282l-402 -1282h-172l-467 1493h164l391 -1268h4zM1024 1630l205 328h182l-246 -328h-141z" />
    <glyph glyph-name="wacute" unicode="&#x1e83;" horiz-adv-x="1650" 
d="M473 174l277 844h151l277 -846h2l270 846h154l-344 -1018h-164l-271 827h-2l-270 -827h-164l-340 1018h156zM963 1520h180l-246 -328h-141z" />
    <glyph glyph-name="Wdieresis" unicode="&#x1e84;" horiz-adv-x="2187" 
d="M1006 1493h178l397 -1274h2l393 1274h158l-469 -1493h-174l-397 1282l-402 -1282h-172l-467 1493h164l391 -1268h4zM1276 1634q-43 0 -78 35t-35 82t35 80t78 33t78 -33t35 -80t-35 -82t-78 -35zM912 1634q-44 0 -78 35t-35 82q0 47 35 80q34 33 78 33t78 -33t34 -80
t-34 -82t-78 -35z" />
    <glyph glyph-name="wdieresis" unicode="&#x1e85;" horiz-adv-x="1650" 
d="M473 174l277 844h151l277 -846h2l270 846h154l-344 -1018h-164l-271 827h-2l-270 -827h-164l-340 1018h156zM1008 1188q-44 0 -79 34q-34 34 -34 82t34 80t79 33q46 0 78 -33q32 -34 32 -80t-33 -81t-77 -35zM644 1188q-44 0 -79 35q-33 35 -33 82t34 79t78 33
q44 0 79 -33q35 -34 35 -80t-35 -81t-79 -35z" />
    <glyph glyph-name="uni1E90" unicode="&#x1e90;" horiz-adv-x="1228" 
d="M70 0v143l893 1207h-863v143h1045v-143l-893 -1207h897v-143h-1079zM532 1960h148l262 -330h-158l-174 225h-4l-170 -225h-160z" />
    <glyph glyph-name="uni1E91" unicode="&#x1e91;" horiz-adv-x="980" 
d="M94 891v127h799v-127l-635 -764h637v-127h-815v127l637 764h-623zM410 1520h147l262 -328h-157l-175 225h-4l-170 -225h-159z" />
    <glyph glyph-name="uni1EBC" unicode="&#x1ebc;" 
d="M365 1348v-517h710v-145h-710v-541h784v-145h-942v1493h936v-145h-778zM555 1761q-59 0 -76 -92h-106q0 92 45 160q45 61 137 61q41 2 129 -46t125 -46q63 0 82 88h94q-9 -217 -178 -217q-72 0 -130 46t-122 46z" />
    <glyph glyph-name="uni1EBD" unicode="&#x1ebd;" horiz-adv-x="1157" 
d="M596 905q-135 0 -234 -92q-98 -96 -116 -223h674q-14 139 -102 227t-222 88zM592 115q260 0 332 217l131 -41q-43 -143 -166 -228q-127 -81 -275 -81t-268 72q-121 72 -184 192q-68 119 -68 261t64 261q59 121 176 195q118 73 264 73t256 -68q216 -135 215 -456
q0 -26 -2 -49h-823q8 -150 111 -249t237 -99zM893 1409q-9 -217 -171 -217q-81 0 -136 47q-60 45 -122 45t-79 -90h-106q0 94 45 156t139 63q43 2 130 -45t124 -47q63 0 82 88h94z" />
    <glyph glyph-name="Ygrave" unicode="&#x1ef2;" horiz-adv-x="1413" 
d="M786 0h-159v629l-578 864h189l471 -715l477 715h178l-578 -862v-631zM799 1630h-144l-245 328h182z" />
    <glyph glyph-name="ygrave" unicode="&#x1ef3;" horiz-adv-x="1132" 
d="M938 1018h160l-697 -1520h-161l264 572l-463 948h170l373 -787zM670 1192h-142l-245 328h180z" />
    <glyph glyph-name="uni2000" unicode="&#x2000;" horiz-adv-x="1069" 
 />
    <glyph glyph-name="uni2001" unicode="&#x2001;" horiz-adv-x="2140" 
 />
    <glyph glyph-name="uni2002" unicode="&#x2002;" horiz-adv-x="1069" 
 />
    <glyph glyph-name="uni2003" unicode="&#x2003;" horiz-adv-x="2140" 
 />
    <glyph glyph-name="uni2004" unicode="&#x2004;" horiz-adv-x="712" 
 />
    <glyph glyph-name="uni2005" unicode="&#x2005;" horiz-adv-x="534" 
 />
    <glyph glyph-name="uni2006" unicode="&#x2006;" horiz-adv-x="356" 
 />
    <glyph glyph-name="uni2007" unicode="&#x2007;" horiz-adv-x="356" 
 />
    <glyph glyph-name="uni2008" unicode="&#x2008;" horiz-adv-x="266" 
 />
    <glyph glyph-name="uni2009" unicode="&#x2009;" horiz-adv-x="428" 
 />
    <glyph glyph-name="uni200A" unicode="&#x200a;" horiz-adv-x="118" 
 />
    <glyph glyph-name="uni2010" unicode="&#x2010;" horiz-adv-x="831" 
d="M143 518v158h545v-158h-545z" />
    <glyph glyph-name="uni2011" unicode="&#x2011;" horiz-adv-x="831" 
d="M143 518v158h545v-158h-545z" />
    <glyph glyph-name="figuredash" unicode="&#x2012;" horiz-adv-x="831" 
d="M143 518v158h545v-158h-545z" />
    <glyph glyph-name="endash" unicode="&#x2013;" horiz-adv-x="1161" 
d="M1018 672v-150h-875v150h875z" />
    <glyph glyph-name="emdash" unicode="&#x2014;" horiz-adv-x="1947" 
d="M1806 672v-150h-1663v150h1663z" />
    <glyph glyph-name="quoteleft" unicode="&#x2018;" horiz-adv-x="522" 
d="M286 1243q41 0 76 -37t35 -88t-39 -90q-42 -37 -102 -37t-100 52t-39 124q0 127 69 226q70 96 193 114v-77q-61 -12 -107 -70q-45 -59 -47 -129q20 12 61 12z" />
    <glyph glyph-name="quoteright" unicode="&#x2019;" horiz-adv-x="524" 
d="M137 1378q0 55 39 90q38 35 100 35t101 -51t39 -125q0 -131 -68 -227t-194 -113v78q63 13 108 73t45 126q-20 -12 -61 -12t-75 35q-34 36 -34 91z" />
    <glyph glyph-name="quotesinglbase" unicode="&#x201a;" horiz-adv-x="546" 
d="M242 -14q-41 0 -75 36t-34 89t39 90q40 37 102 37t99 -54q39 -47 39 -123q0 -131 -70 -225q-65 -97 -192 -115v78q61 13 106 71t47 128q-20 -12 -61 -12z" />
    <glyph glyph-name="quotedblleft" unicode="&#x201c;" horiz-adv-x="888" 
d="M655 1243q41 0 75 -36t34 -89t-40 -90t-102 -37t-98 53q-39 47 -39 123q0 131 70 226q66 96 193 114v-77q-66 -12 -110 -72t-44 -127q20 12 61 12zM286 1243q41 0 76 -37t35 -88t-39 -90q-42 -37 -102 -37t-100 52t-39 124q0 127 69 226q70 96 193 114v-77
q-61 -12 -107 -70q-45 -59 -47 -129q20 12 61 12z" />
    <glyph glyph-name="quotedblright" unicode="&#x201d;" horiz-adv-x="890" 
d="M504 1378q0 53 41 89t101 36t99 -51q39 -55 39 -125q0 -127 -69 -225q-70 -97 -193 -115v78q62 11 106 69t48 130q-20 -12 -61 -12t-76 36q-35 37 -35 90zM137 1378q0 55 39 90q38 35 100 35t101 -51t39 -125q0 -131 -68 -227t-194 -113v78q63 13 108 73t45 126
q-20 -12 -61 -12t-75 35q-34 36 -34 91z" />
    <glyph glyph-name="quotedblbase" unicode="&#x201e;" horiz-adv-x="913" 
d="M608 -14q-38 0 -73 37t-35 90t41 88q37 37 99 37t100 -52t38 -125q0 -131 -68 -227t-192 -113v78q61 12 107 70q45 59 45 129q-24 -12 -62 -12zM242 -14q-41 0 -75 36t-34 89t39 90q40 37 102 37t99 -54q39 -47 39 -123q0 -131 -70 -225q-65 -97 -192 -115v78
q61 13 106 71t47 128q-20 -12 -61 -12z" />
    <glyph glyph-name="dagger" unicode="&#x2020;" horiz-adv-x="1198" 
d="M530 985v428h146v-428h368v-135h-368v-850h-146v850h-376v135h376z" />
    <glyph glyph-name="daggerdbl" unicode="&#x2021;" horiz-adv-x="1198" 
d="M526 137v748h-403v135h403v393h146v-393h405v-135h-405v-748h405v-137h-405v-393h-146v393h-403v137h403z" />
    <glyph glyph-name="bullet" unicode="&#x2022;" horiz-adv-x="960" 
d="M480 1032q136 0 234 -100t97 -238q1 -138 -97 -234q-98 -98 -236 -98t-232 99q-96 96 -96 233t96 238q98 100 234 100z" />
    <glyph glyph-name="ellipsis" unicode="&#x2026;" horiz-adv-x="1630" 
d="M1227 121q0 57 40 96t97 39t97 -40t40 -94t-40 -96t-97 -42t-97 40t-40 97zM680 121q0 57 39 96q41 39 98 39t96 -39t39 -96t-39 -97t-96 -40t-98 39q-39 41 -39 98zM266 -16q-57 0 -97 42t-40 96t40 94t97 40t97 -40t40 -94t-40 -96t-97 -42z" />
    <glyph glyph-name="uni202F" unicode="&#x202f;" horiz-adv-x="428" 
 />
    <glyph glyph-name="perthousand" unicode="&#x2030;" horiz-adv-x="2387" 
d="M1978 115q88 0 150 61q61 61 61 147t-61 152q-62 61 -150 61t-149 -62t-61 -149t60 -149q62 -62 150 -61zM1978 -10q-142 0 -239 98q-99 98 -99 238t100 237q100 99 238 99q140 0 238 -98t98 -238q0 -142 -97 -239t-239 -97zM1237 115q86 0 152 61q61 61 61 147t-61 152
q-66 61 -152 61t-147 -62q-62 -62 -62 -149t62 -149t147 -61zM1575 326q0 -140 -97 -238q-98 -98 -240 -98t-240 98t-97 238q0 140 98 237q99 99 239 99t238 -98t99 -238zM412 1382q-88 0 -150 -61t-61 -149q0 -88 61 -150q62 -61 150 -61t149 61q61 62 61 150t-61 149
t-149 61zM1231 1493h151l-972 -1493h-154zM412 836q-138 0 -238 98t-100 237t99 237t239 99q140 0 237 -97q98 -96 98 -238t-98 -239t-237 -97z" />
    <glyph glyph-name="guilsinglleft" unicode="&#x2039;" horiz-adv-x="661" 
d="M90 573l344 347l90 -91l-241 -251l241 -252l-90 -90z" />
    <glyph glyph-name="guilsinglright" unicode="&#x203a;" horiz-adv-x="661" 
d="M227 236l-92 90l244 247l-244 256l92 91l344 -347z" />
    <glyph glyph-name="uni203D" unicode="&#x203d;" horiz-adv-x="1040" 
d="M373 95q0 46 33 79q36 33 80 33t77 -32t33 -80t-32 -80t-78 -32t-80 33q-33 33 -33 79zM521 1509q121 0 225 -55t156 -143q52 -89 52 -179t-34 -167q-35 -60 -72 -105l-19 -22q-73 -84 -120 -131q-73 -88 -87 -107q-14 -18 -31 -64t-20 -104h-147l-12 715h157l-10 -426
q27 41 78 101t82 106q31 37 55 96t25 100q0 98 -72 169t-212 71t-218 -92t-70 -232l-151 7l-2 45q0 121 60 215t162 148t225 54z" />
    <glyph glyph-name="uni2042" unicode="&#x2042;" horiz-adv-x="1746" 
d="M381 674h108v-303l279 92l35 -98l-277 -95l170 -237l-86 -64l-176 240l-174 -240l-84 64l170 237l-278 95l34 98l279 -92v303zM1257 676h107v-303l281 92l34 -100l-278 -93l170 -237l-86 -64l-174 240l-174 -240l-86 64l170 237l-279 95l35 98l280 -92v303zM819 1493h107
v-301l280 92l35 -100l-278 -92l170 -238l-84 -63l-177 239l-174 -239l-84 63l170 238l-278 92l33 98l280 -90v301z" />
    <glyph glyph-name="fraction" unicode="&#x2044;" horiz-adv-x="1163" 
d="M993 1493h152l-973 -1493h-152z" />
    <glyph glyph-name="uni2051" unicode="&#x2051;" horiz-adv-x="958" 
d="M426 674h106v-303l281 92l35 -98l-279 -95l170 -237l-84 -64l-176 240l-174 -240l-86 64l170 237l-276 95l32 98l281 -92v303zM426 1493h106v-301l281 92l35 -100l-279 -92l170 -238l-84 -63l-176 239l-174 -239l-86 63l170 238l-276 92l32 98l281 -90v301z" />
    <glyph glyph-name="uni205F" unicode="&#x205f;" horiz-adv-x="534" 
 />
    <glyph glyph-name="lira" unicode="&#x20a4;" horiz-adv-x="1245" 
d="M797 0h-670v145q102 53 171 155t71 214h-236v129h219q-10 45 -59 186h-160v129h119q-66 270 108 432q131 122 308 117q197 0 305 -100q111 -98 117 -260l-150 -27q-4 94 -57 162q-61 82 -193 82t-215 -79q-82 -79 -82 -193q0 -55 23 -134h518v-129h-475q49 -141 57 -186
h418v-129h-404q-10 -227 -190 -369h436q142 0 190 72t48 150l147 -17q0 -197 -166 -299q-90 -51 -198 -51z" />
    <glyph glyph-name="uni20A9" unicode="&#x20a9;" horiz-adv-x="2252" 
d="M1464 700l150 -481h2l147 481h-299zM496 700l145 -475h4l148 475h-297zM977 809h295l-146 473zM104 700v109h195l-213 684h164l211 -684h364l213 684h179l213 -684h368l211 684h158l-215 -684h196v-109h-231l-219 -700h-174l-217 700h-363l-219 -700h-172l-219 700h-230z
" />
    <glyph glyph-name="dong" unicode="&#x20ab;" horiz-adv-x="1335" 
d="M1108 -221v-131h-971v131h971zM598 115q156 -1 260 117t106 275t-106 277q-110 120 -268 120t-253 -114t-95 -284q0 -225 166 -336q79 -55 190 -55zM963 0v217q-137 -231 -398 -231q-213 0 -348 157q-127 154 -127 364q0 209 131 369t344 160q139 0 244 -71
q84 -61 152 -160v403h-353v133h353v211h147v-211h121v-133h-121v-1208h-145z" />
    <glyph glyph-name="Euro" unicode="&#x20ac;" horiz-adv-x="1744" 
d="M90 522v131h141q-10 88 2 187h-143v131h168q72 246 270 392t440 146t406 -114q70 -45 131 -115q104 -119 140 -262l-150 -53q-23 92 -88 180q-89 131 -240 182q-84 33 -192 33q-187 0 -337 -104t-214 -285h688l-43 -131h-674q-6 -43 -6 -91t6 -96h627l-41 -131h-555
q58 -174 206 -281t346 -107t325 104q59 45 98 102q53 70 98 192l150 -53q-33 -131 -136 -254q-204 -241 -550 -241q-250 0 -446 146t-261 392h-166z" />
    <glyph glyph-name="uni20AE" unicode="&#x20ae;" horiz-adv-x="1327" 
d="M752 0h-156v389l-422 -160v140l422 161v195l-422 -160v142l422 159v480h-500v147h1153v-147h-497v-420l419 159v-141l-419 -160v-194l419 158v-140l-419 -159v-449z" />
    <glyph glyph-name="uni20B1" unicode="&#x20b1;" horiz-adv-x="1495" 
d="M428 729h305q166 0 260 70q92 72 117 176h-682v-246zM428 1102h684q-18 100 -102 172t-271 72h-311v-244zM1425 973h-155q-25 -172 -166 -281t-377 -108h-299v-584h-156v973h-170v131h170v389h480q248 0 376 -117q125 -109 144 -272h153v-131z" />
    <glyph glyph-name="uni20B4" unicode="&#x20b4;" horiz-adv-x="1378" 
d="M1253 537h-854q-51 -57 -51 -148q0 -137 108 -197t228 -59q121 1 227 63t154 162l133 -73q-62 -137 -206 -217t-304 -80q-258 0 -395 135q-104 98 -105 264q0 86 35 150h-102v131h1132v-131zM121 985h864q31 51 31 123q0 112 -82 184t-242 72q-109 0 -209 -64
q-102 -61 -147 -159l-133 71q63 135 200 215t289 80q240 0 369 -121q113 -100 113 -276q0 -70 -21 -125h100v-131h-1132v131z" />
    <glyph glyph-name="uni20B8" unicode="&#x20b8;" horiz-adv-x="1339" 
d="M748 1014v-1014h-156v1014h-500v147h1155v-147h-499zM1247 1346h-1155v147h1155v-147z" />
    <glyph glyph-name="uni20B9" unicode="&#x20b9;" horiz-adv-x="1310" 
d="M1225 1362h-381q137 -78 160 -250h221v-129h-224q-23 -141 -125 -248t-253 -127l362 -608h-186l-357 604h-319v148h399q123 0 205 60t111 171h-715v129h717q-25 111 -103 171t-196 60h-418v150h1102v-131z" />
    <glyph glyph-name="uni20BA" unicode="&#x20ba;" horiz-adv-x="1329" 
d="M465 0h-133v547l-209 -109v148l209 108v205l-209 -108v147l209 109v446h155v-367l457 238v-147l-457 -238v-203l457 236v-148l-457 -237v-484q364 11 510 217q78 111 109 281l151 -16q-45 -340 -303 -502q-193 -123 -489 -123z" />
    <glyph glyph-name="uni20BD" unicode="&#x20bd;" horiz-adv-x="1376" 
d="M455 729h303q201 0 294 95t93 219t-88 213t-289 90h-313v-617zM455 0h-156v266h-182v131h182v187h-182v137h182v772h479q268 0 396 -134t129 -324q1 -191 -141 -321t-408 -130h-299v-187h448v-131h-448v-266z" />
    <glyph glyph-name="uni2113" unicode="&#x2113;" horiz-adv-x="866" 
d="M524 1300q-88 0 -117 -63t-28 -125v-467q287 188 287 483q-1 172 -142 172zM379 328q0 -219 225 -219q86 0 154 24v-123q-80 -29 -170 -28q-170 0 -260 88t-90 247v119q-82 -31 -164 -49v121q72 23 164 65v533q0 139 73 231q74 88 210 88q136 1 209 -79t73 -242
t-119 -324t-305 -274v-178z" />
    <glyph glyph-name="uni2116" unicode="&#x2116;" horiz-adv-x="2494" 
d="M1653 338h719v-133h-719v133zM1782 925q0 -101 66 -169t166 -68t164 68t64 169t-63 171q-66 70 -167 70t-167 -70q-63 -70 -63 -171zM2014 1292q154 0 260 -106q108 -106 108 -261t-109 -259q-106 -106 -261 -106t-261 106q-109 104 -109 261t109 261t263 104zM1272 1493
h151v-1493h-168l-897 1276v-1276h-151v1493h180l885 -1260v1260z" />
    <glyph glyph-name="trademark" unicode="&#x2122;" horiz-adv-x="1966" 
d="M985 1348v-715h-117v860h187l276 -696l268 696h197v-860h-121v729h-6l-285 -729h-106l-287 715h-6zM719 1493v-115h-258v-745h-127v745h-258v115h643z" />
    <glyph glyph-name="estimated" unicode="&#x212e;" horiz-adv-x="1650" 
d="M1257 860v377q-75 78 -191 120t-226 42q-240 0 -412 -160v-379h829zM428 748v-484q74 -78 190 -123t224 -45q389 0 547 316l96 -54q-80 -172 -248 -272t-395 -100q-342 0 -538 222t-196 544t203 538q91 100 229 158t301 59q163 0 300 -57t231 -160q201 -213 201 -528v-14
h-1145z" />
    <glyph glyph-name="uni2153" unicode="&#x2153;" horiz-adv-x="1722" 
d="M1292 -18q-135 0 -221 76t-98 206l125 21q20 -182 196 -183q72 0 129 44t57 115t-54 112t-115 41t-94 -19l-64 101l295 254h-449v120h600v-141l-237 -203q112 -16 182 -90t70 -167t-49 -159q-94 -128 -273 -128zM326 0h-152l973 1493h151zM440 1493v-868h-133v725
l-180 -105l-57 98l249 150h121z" />
    <glyph glyph-name="uni2154" unicode="&#x2154;" horiz-adv-x="1984" 
d="M1552 -18q-131 0 -220 76t-97 206l125 21q8 -86 58 -134q50 -49 130 -49t136 44t57 115q0 71 -53 112q-58 41 -116 41t-95 -19l-64 101l295 254h-448v120h602v-141l-238 -203q110 -16 180 -88t70 -169t-49 -161q-95 -126 -273 -126zM1403 1493h149l-972 -1493h-152z
M98 625v41q4 94 41 148t59 74t42 37q45 43 151 100q193 104 195 214q0 63 -48 106t-120 44q-168 0 -182 -170l-130 18q8 115 89 197q82 78 220 78t221 -80q83 -78 83 -191q0 -164 -168 -266l-148 -90q-131 -78 -137 -140h459v-120h-627z" />
    <glyph glyph-name="oneeighth" unicode="&#x215b;" horiz-adv-x="1630" 
d="M1407 252q0 54 -64 94q-67 37 -151 37t-148 -64q-30 -33 -30 -77t32 -80q56 -62 162 -63t166 61q33 38 33 92zM1209 770q-67 0 -121 -37t-54 -101t56 -102q56 -36 120 -36q66 0 120 36t54 100q0 66 -53 103q-55 37 -122 37zM1538 236q0 -122 -105 -188t-229 -66t-223 66
q-100 66 -100 188q0 76 49 126q49 55 125 80q-152 57 -152 197q0 78 47 134t117 87q76 27 143 27q121 0 213 -66t93 -182q0 -66 -42 -118t-110 -79q76 -24 125 -78t49 -128zM326 0h-152l973 1493h151zM440 1493v-868h-133v725l-180 -105l-57 98l249 150h121z" />
    <glyph glyph-name="threeeighths" unicode="&#x215c;" horiz-adv-x="1923" 
d="M1706 252q0 54 -64 94q-66 37 -150 37t-149 -64q-33 -37 -33 -79t32 -78q32 -35 79 -49q88 -29 176 0q45 14 77 49q32 36 32 90zM1333 632q1 -64 55 -102q54 -37 122 -37t120 36q53 36 53 103q0 66 -54 102t-122 36t-121 -37t-53 -101zM1837 236q0 -122 -105 -188
q-104 -66 -228 -66t-224 66t-100 188q0 76 51 128t123 78q-152 57 -152 197q0 76 47 135q49 55 117 86q76 27 143 27q121 0 213 -66t93 -182q0 -66 -42 -118t-110 -79q76 -24 125 -78t49 -128zM1370 1493h152l-973 -1493h-152zM406 725q76 0 129 45q57 43 57 114t-55 111
q-49 41 -111 41t-98 -18l-64 100l295 254h-448v121h600v-141l-238 -205q111 -12 181 -87t71 -168q0 -93 -48 -159q-94 -129 -274 -129q-135 0 -219 76q-88 74 -100 207l125 20q18 -182 197 -182z" />
    <glyph glyph-name="fiveeighths" unicode="&#x215d;" horiz-adv-x="1892" 
d="M1675 240q0 68 -62 106t-135 38q-72 1 -134 -38t-63 -94t31 -90t79 -49q88 -29 176 0q45 14 77 49q31 35 31 78zM1303 632q0 -64 54 -102q53 -37 121 -37t122 37q54 38 54 102t-54 101q-56 37 -124 37t-120 -37q-53 -37 -53 -101zM1806 236q0 -122 -105 -188t-228 -66
t-224 66q-100 67 -100 188q0 76 51 128t123 78q-152 57 -152 197q0 76 48 135q49 55 116 86q76 27 144 27q168 0 260 -111q47 -60 47 -130t-43 -124t-111 -80q76 -24 125 -78t49 -128zM1341 1493h150l-973 -1493h-151zM381 1079q-84 0 -150 -69l-122 43l92 440h475v-121
h-381l-49 -233h2q74 55 182 55t194 -83q85 -83 85 -209t-95 -214q-96 -84 -226 -84t-214 73t-98 179l123 27q12 -76 62 -117t127 -41t133 49t57 131q0 82 -56 129q-57 45 -141 45z" />
    <glyph glyph-name="seveneighths" unicode="&#x215e;" horiz-adv-x="1683" 
d="M1466 240q0 68 -62 106t-134 38q-72 1 -134 -38t-62 -94t31 -90q32 -35 77 -49q88 -29 176 0q45 14 77 49q31 35 31 78zM1446 632q0 64 -55 101t-123 37t-121 -37t-53 -101t54 -102q54 -37 122 -37t123 37q53 38 53 102zM1116 442q-153 57 -153 202q0 73 47 129t116 87
q76 27 144 27q168 0 260 -111q47 -59 47 -131t-42 -124t-112 -79q74 -20 124 -76t50 -130q0 -122 -105 -188t-227 -66t-224 66q-101 67 -101 188q0 76 51 126q49 55 125 80zM1130 1493h152l-973 -1493h-151zM78 1372v121h620v-127l-370 -741h-150l375 747h-475z" />
    <glyph glyph-name="arrowleft" unicode="&#x2190;" 
d="M1200 768v-145h-936l420 -437l-92 -88l-555 578v37l555 577l92 -88l-418 -434h934z" />
    <glyph glyph-name="arrowup" unicode="&#x2191;" 
d="M707 113h-146v936l-436 -418l-88 92l577 553h37l578 -553l-88 -92l-434 418v-936z" />
    <glyph glyph-name="arrowright" unicode="&#x2192;" 
d="M66 623v145h935l-419 434l92 88l555 -577v-37l-555 -578l-92 88l419 437h-935z" />
    <glyph glyph-name="arrowdown" unicode="&#x2193;" 
d="M559 1276h146v-936l436 420l88 -92l-578 -555h-37l-579 555l90 92l434 -418v934z" />
    <glyph glyph-name="uni2196" unicode="&#x2196;" 
d="M358 893l-10 -604l-129 2l17 801l26 26l801 17l2 -127l-604 -13l663 -661l-104 -103z" />
    <glyph glyph-name="uni2197" unicode="&#x2197;" 
d="M803 995l-604 13l2 127l803 -17l24 -26l16 -801l-126 -2l-13 604l-661 -662l-103 103z" />
    <glyph glyph-name="uni2198" unicode="&#x2198;" 
d="M907 473l13 604l127 -2l-17 -801l-26 -26l-801 -17l-2 127l604 13l-662 661l103 103z" />
    <glyph glyph-name="uni2199" unicode="&#x2199;" 
d="M461 371l604 -13l-4 -127l-801 17l-24 26l-19 801l129 2l12 -604l660 662l104 -103z" />
    <glyph glyph-name="uni21A9" unicode="&#x21a9;" horiz-adv-x="2056" 
d="M1341 461q205 0 338 122q133 123 133 323t-130 318t-349 117h-352v144h369q274 2 446 -166t170 -420t-170 -418t-446 -166h-1061l418 -436l-93 -88l-553 578v37l553 577l93 -88l-418 -434h1052z" />
    <glyph glyph-name="uni21B0" unicode="&#x21b0;" horiz-adv-x="1474" 
d="M1202 0v557q0 190 -107 277q-108 86 -325 86h-479l420 -435l-95 -88l-553 578v37l553 577l95 -88l-420 -436h502q563 0 563 -502v-563h-154z" />
    <glyph glyph-name="uni21B1" unicode="&#x21b1;" horiz-adv-x="1474" 
d="M121 0v563q0 502 563 502h502l-420 436l92 88l555 -577v-37l-555 -578l-92 88l418 435h-479q-217 0 -325 -86t-108 -277v-557h-151z" />
    <glyph glyph-name="uni21B2" unicode="&#x21b2;" horiz-adv-x="1474" 
d="M1354 1493v-563q0 -502 -563 -502h-502l420 -436l-93 -88l-553 577v37l553 580l93 -90l-418 -435h479q217 0 325 87t107 276v557h152z" />
    <glyph glyph-name="uni21B3" unicode="&#x21b3;" horiz-adv-x="1474" 
d="M272 1493v-557q0 -188 108 -276t325 -87h479l-418 435l92 90l553 -580v-37l-553 -577l-92 88l418 436h-500q-563 0 -563 502v563h151z" />
    <glyph glyph-name="uni21B4" unicode="&#x21b4;" horiz-adv-x="1724" 
d="M72 1493h563q502 0 502 -563v-502l436 420l88 -92l-578 -553h-36l-580 553l90 92l434 -418v479q0 217 -87 325t-275 107h-557v152z" />
    <glyph glyph-name="partialdiff" unicode="&#x2202;" horiz-adv-x="1255" 
d="M623 813q-135 0 -252 -80t-117 -243t99 -261t227 -97t216 66q87 66 138 184t51 265q-159 166 -362 166zM502 1364q-137 0 -279 -61l-59 133q168 74 344 73q317 0 475 -219q158 -220 158 -558q-1 -338 -145 -543t-416 -205q-203 -2 -346 144q-142 146 -138 353
q-4 199 148 339t370 138q115 0 212 -46q98 -46 161 -103q-37 289 -151 422q-115 133 -334 133z" />
    <glyph glyph-name="uni2206" unicode="&#x2206;" horiz-adv-x="1595" 
d="M795 1329l-506 -1184h1011zM887 1493l643 -1493h-1464l643 1493h178z" />
    <glyph glyph-name="product" unicode="&#x220f;" horiz-adv-x="1316" 
d="M315 1341h-243v152h1173v-152h-241v-1341h-158v1341h-375v-1341h-156v1341z" />
    <glyph glyph-name="summation" unicode="&#x2211;" horiz-adv-x="1183" 
d="M111 1493h962v-150h-754l558 -585l-582 -608h780v-150h-989v150l584 610l-559 588v145z" />
    <glyph glyph-name="minus" unicode="&#x2212;" horiz-adv-x="1204" 
d="M1055 795v-146h-905v146h905z" />
    <glyph glyph-name="radical" unicode="&#x221a;" horiz-adv-x="1419" 
d="M39 1040v134h338l348 -981l528 1634h142l-596 -1827h-162l-375 1040h-223z" />
    <glyph glyph-name="infinity" unicode="&#x221e;" horiz-adv-x="1912" 
d="M510 967q-114 0 -183 -74t-69 -173t70 -171t189 -72t310 201l39 39l-90 92q-152 158 -266 158zM1402 967q-112 0 -263 -152l-41 -41q-37 -41 -51 -55q27 -25 92 -92q150 -150 272 -150q98 0 171 70t73 171t-68 175q-73 74 -185 74zM1425 1108q167 0 271 -110t104 -278
t-116 -276q-116 -110 -270 -110q-156 0 -339 166q-47 47 -119 116q-47 -47 -73 -71l-54 -53q-168 -158 -337 -158t-274 108t-105 277q-1 169 113 279t275 110t345 -176q31 -29 112 -111l127 127q172 160 340 160z" />
    <glyph glyph-name="integral" unicode="&#x222b;" horiz-adv-x="737" 
d="M295 -72v1133q0 207 108 328q109 119 314 118v-135q-272 -12 -273 -301v-1130q0 -207 -108 -328q-109 -119 -313 -119v135q272 12 272 299z" />
    <glyph glyph-name="uni2236" unicode="&#x2236;" horiz-adv-x="583" 
d="M430 287q0 -55 -41 -97t-95 -41q-54 0 -96 40q-42 39 -42 97t42 98t96 40t95 -41t41 -96zM156 1063q0 57 40 97t97 40t97 -41t40 -96t-41 -96t-95 -41t-96 40t-42 97z" />
    <glyph glyph-name="approxequal" unicode="&#x2248;" horiz-adv-x="1206" 
d="M813 371q-57 1 -123 29t-106 57t-96 57q-58 28 -103 27q-78 0 -152 -84l-86 86q43 63 109 101t133 38q109 0 242 -84q118 -84 193 -84t151 86l84 -84q-86 -145 -246 -145zM824 729q-62 0 -130 28q-68 29 -116 63t-95 52q-53 27 -98 27q-78 0 -152 -84l-86 86
q94 141 246 141q63 0 129 -26q72 -33 108 -59q118 -85 192 -85q75 0 153 89l84 -87q-41 -68 -107 -106t-128 -39z" />
    <glyph glyph-name="notequal" unicode="&#x2260;" horiz-adv-x="1179" 
d="M150 430v145h290l154 287h-444v146h522l127 235l112 -55l-98 -180h217v-146h-293l-153 -287h446v-145h-526l-107 -203l-112 60l75 143h-210z" />
    <glyph glyph-name="lessequal" unicode="&#x2264;" horiz-adv-x="1280" 
d="M1116 137v-137h-987v137h987zM1116 236l-987 401v154l987 401v-148l-829 -329l829 -328v-151z" />
    <glyph glyph-name="greaterequal" unicode="&#x2265;" horiz-adv-x="1280" 
d="M1151 137v-137h-987v137h987zM1151 637l-987 -401v151l829 328l-829 329v148l987 -401v-154z" />
    <glyph glyph-name="filledbox" unicode="&#x25a0;" horiz-adv-x="1730" 
d="M1544 0h-1351v1356h1351v-1356z" />
    <glyph glyph-name="uni25A1" unicode="&#x25a1;" horiz-adv-x="1730" 
d="M332 133h1065v1088h-1065v-1088zM1544 1356v-1356h-1351v1356h1351z" />
    <glyph glyph-name="triagup" unicode="&#x25b2;" horiz-adv-x="1597" 
d="M1597 0h-1597l803 1393z" />
    <glyph glyph-name="uni25B3" unicode="&#x25b3;" horiz-adv-x="1597" 
d="M799 1092l-547 -959h1091zM14 0l785 1372l786 -1372h-1571z" />
    <glyph glyph-name="lozenge" unicode="&#x25ca;" horiz-adv-x="1363" 
d="M674 154l438 594l-438 593l-436 -593zM756 0h-162l-551 748l553 745h160l549 -745z" />
    <glyph glyph-name="circle" unicode="&#x25cb;" horiz-adv-x="1550" 
d="M775 1249q-157 1 -285 -75t-204 -209q-77 -133 -77 -285t77 -286t206 -208q132 -78 284 -78t282 78q130 76 204 207t73 287q1 156 -73 287t-202 207t-285 75zM775 -27q-146 0 -273 58q-135 57 -226 149q-96 92 -151 224t-55 276q0 292 206 500q92 96 224 151t274 55
t274 -55t228 -153q203 -207 205 -498q0 -145 -56 -274q-109 -260 -373 -376q-132 -58 -277 -57z" />
    <glyph glyph-name="uni25CF" unicode="&#x25cf;" horiz-adv-x="1550" 
d="M70 679q0 286 204 501q206 206 500 206t499 -205t208 -501q1 -145 -55 -276q-56 -130 -151 -224t-224 -150t-277 -56t-274 57q-264 111 -375 375q-55 129 -55 273z" />
    <glyph glyph-name="uni25FC" unicode="&#x25fc;" horiz-adv-x="1019" 
d="M0 0v1020h1020v-1020h-1020z" />
    <glyph glyph-name="uni2605" unicode="&#x2605;" horiz-adv-x="1597" 
d="M332 -37l180 543l-465 338h574l178 549l178 -549h575l-467 -338l179 -547l-465 338z" />
    <glyph glyph-name="uni2611" unicode="&#x2611;" horiz-adv-x="1822" 
d="M328 1225v-1094h1073v918l-483 -836l-488 590l107 92l364 -440l445 770h-1018zM1544 0h-1351v1356h1228l238 411l117 -69l-232 -404v-1294z" />
    <glyph glyph-name="uni2612" unicode="&#x2612;" horiz-adv-x="1730" 
d="M549 1098l317 -322l316 322l96 -97l-315 -325l315 -320l-96 -98l-316 320l-319 -328l-94 98l319 328l-319 325zM328 1225v-1094h1073v1094h-1073zM193 1356h1351v-1356h-1351v1356z" />
    <glyph glyph-name="uni2639" unicode="&#x2639;" horiz-adv-x="1550" 
d="M775 561q-87 0 -162 -54t-97 -149h-100q29 131 129 213q104 82 231 82q128 0 228 -82t129 -213h-101q-22 94 -96 148t-161 55zM821 864q0 53 37 91t89 38t89 -38t37 -91t-37 -86q-37 -39 -89 -39t-89 39q-37 33 -37 86zM602 993q51 0 89 -38t38 -91t-37 -86
q-39 -39 -90 -39t-90 39q-37 33 -37 86t38 91t89 38zM776 1284q-166 0 -305 -82t-218 -221t-79 -301t79 -301t220 -222t303 -83q248 0 421 178t173 427t-172 427q-174 178 -422 178zM70 680q0 292 206 500q92 96 224 151t274 55t274 -55t228 -153q203 -207 205 -498
q-1 -145 -57 -277q-111 -260 -373 -372q-129 -55 -273 -55t-278 56q-133 56 -224 148q-96 92 -151 224t-55 276z" />
    <glyph glyph-name="smileface" unicode="&#x263a;" horiz-adv-x="1550" 
d="M773 297q-132 0 -236 92t-134 244h103q20 -105 100 -169t169 -64t166 62q77 64 99 171h105q-27 -145 -131 -244q-109 -92 -241 -92zM821 864q0 53 37 91t89 38t89 -38t37 -91t-37 -86q-37 -39 -89 -39t-89 39q-37 33 -37 86zM602 993q51 0 89 -38t38 -91t-37 -86
q-39 -39 -90 -39t-90 39q-37 33 -37 86t38 91t89 38zM776 1284q-166 0 -305 -82t-218 -221t-79 -301t79 -301t220 -222t303 -83q248 0 422 180q82 83 125 192q72 168 35 352t-160 308q-174 178 -422 178zM70 680q0 145 55 274q113 264 377 377q129 55 272 55q142 0 274 -55
t228 -151q203 -214 205 -501q0 -144 -56 -273q-111 -262 -374 -375q-129 -55 -273 -55t-278 56q-133 56 -224 148q-96 92 -151 224t-55 276z" />
    <glyph glyph-name="invsmileface" unicode="&#x263b;" horiz-adv-x="1550" 
d="M775 399q-89 -1 -169 63t-100 171h-103q29 -152 133 -244t237 -92q132 0 241 92q104 99 131 244h-105q-24 -106 -100 -170t-165 -64zM1073 864q0 53 -37 91t-89 38t-89 -38t-37 -91t37 -86q37 -39 89 -39t89 39q37 33 37 86zM729 864q0 53 -38 91t-89 38t-89 -38t-38 -91
t37 -86q39 -39 90 -39t90 39q37 33 37 86zM70 680q0 292 206 500q92 96 224 151t274 55t274 -55t228 -151q203 -214 205 -501q1 -144 -55 -274q-112 -261 -375 -374q-129 -57 -275 -57t-274 57q-135 57 -226 149q-96 92 -151 224t-55 276z" />
    <glyph glyph-name="heart" unicode="&#x2665;" horiz-adv-x="1660" 
d="M440 1352q115 0 205 -54t135 -149q46 98 138 150t208 53q182 0 306 -127t122 -310q0 -389 -571 -811q-94 -63 -205 -131q-170 102 -300 207t-204 185q-274 284 -268 550q0 181 125 309t309 128z" />
    <glyph glyph-name="uni2713" unicode="&#x2713;" horiz-adv-x="1796" 
d="M575 -10l-532 588l107 100l432 -471l1036 1139l104 -105z" />
    <glyph glyph-name="uni2715" unicode="&#x2715;" horiz-adv-x="1439" 
d="M158 1341l559 -561l555 561l102 -102l-555 -563l567 -563l-102 -105l-567 565l-561 -565l-103 105l561 563l-561 563z" />
    <glyph glyph-name="uni2E18" unicode="&#x2e18;" horiz-adv-x="1013" 
d="M225 -104q0 -96 72 -172q76 -70 213 -70t215 91t72 235l149 -7q2 -20 2 -45q0 -121 -60 -216t-163 -150q-106 -51 -227 -51q-120 0 -220 53t-154 141q-54 87 -54 185t33 165t92 127q8 8 28 31q21 23 33 36t35 38l22 26q91 103 114 161t24 112h149l10 -713h-157l12 424
q-39 -51 -84 -105t-76 -100q-31 -37 -55 -92t-25 -104zM540 1037q44 0 76 -32q33 -32 33 -80t-32 -80q-33 -32 -79 -32t-79 33t-33 79t33 79q37 33 81 33z" />
    <glyph glyph-name="uniE09D" unicode="&#xe09d;" horiz-adv-x="1349" 
d="M1149 -8q-289 0 -289 272v625h-469v-889h-147v889h-197v129h197v188q0 168 84 262q86 88 227 88q59 0 111 -18v-125q-36 12 -102 12t-119 -46t-54 -169v-192h469v293h148v-293h258v-129h-258v-623q0 -143 166 -143q39 0 92 8v-123q-54 -16 -117 -16z" />
    <glyph glyph-name="dollar.lowercase" unicode="&#xf653;" horiz-adv-x="954" 
d="M535 432v-313q73 10 117 54t43 119t-91 116q-44 20 -69 24zM272 743q0 -118 160 -141v299q-70 -8 -115 -53t-45 -105zM848 286q0 -122 -89 -204t-220 -96v-181h-109v181q-158 18 -238 109t-92 192l136 35q14 -72 62 -129t134 -74v336l-57 12q-41 9 -85 25t-89 55
q-78 63 -78 197t106 210q88 68 201 80v180h109v-182q137 -18 209 -100t86 -168l-136 -39q-16 76 -73 127q-39 33 -90 45v-317l49 -13q104 -23 184 -91t80 -190z" />
    <glyph glyph-name="uniF730" unicode="&#xf730;" horiz-adv-x="1236" 
d="M618 113q100 0 188 56t132 146q45 84 45 191q0 221 -174 342q-85 57 -193 57t-192 -55t-128 -144t-44 -194q0 -158 102 -278t264 -121zM614 -18q-219 0 -365 156t-147 368q0 147 66 267t184 192q121 72 266 71q219 0 369 -155q147 -158 148 -369q0 -141 -67 -263
q-67 -123 -187 -195t-267 -72z" />
    <glyph glyph-name="uniF731" unicode="&#xf731;" horiz-adv-x="645" 
d="M467 1018v-1018h-148v860l-213 -125l-63 109l289 174h135z" />
    <glyph glyph-name="uniF732" unicode="&#xf732;" horiz-adv-x="931" 
d="M100 0v41q0 211 254 365l144 88q178 111 178 225q0 78 -60 133t-154 55q-96 0 -152 -54t-64 -146l-133 20q8 127 100 219q94 90 252 90t254 -92t96 -221q0 -86 -52 -169t-142 -138l-175 -109q-58 -33 -98 -69q-68 -55 -67 -111h540v-127h-721z" />
    <glyph glyph-name="uniF733" unicode="&#xf733;" horiz-adv-x="946" 
d="M831 307v-8q0 -129 -104 -223t-266 -94t-259 93t-106 226l131 23q9 -100 71 -158t160 -57q98 0 167 57q68 57 67 137v4q0 84 -66 135q-66 52 -140 52t-111 -21l-68 107l359 311h-541v127h692v-156l-291 -252q121 -8 213 -89t92 -214z" />
    <glyph glyph-name="uniF734" unicode="&#xf734;" horiz-adv-x="1017" 
d="M631 352v516l-426 -516h426zM776 1018v-666h152v-127h-152v-225h-145v225h-559v164l520 629h184z" />
    <glyph glyph-name="uniF735" unicode="&#xf735;" horiz-adv-x="909" 
d="M440 113q129 0 195 98q37 51 37 135t-70 146q-72 59 -172 59t-172 -80l-133 47l102 500h541v-131h-440l-60 -289q82 68 214 68t230 -96t98 -240q1 -146 -111 -249t-254 -101t-241 85t-120 199l133 23q11 -80 75 -127t148 -47z" />
    <glyph glyph-name="uniF736" unicode="&#xf736;" horiz-adv-x="960" 
d="M254 330q0 -94 74 -156q70 -63 164 -63q123 0 198 100q37 51 37 117q-1 102 -69 158t-166 57q-84 5 -161 -57t-77 -156zM489 -16q-168 0 -268 112q-63 68 -90 164t-27 186q0 254 146 421t352 167q139 0 227 -41l-45 -127q-86 37 -168 37q-199 0 -307 -168
q-55 -96 -67 -211q51 70 128 107t150 37q150 0 248 -95q96 -96 96 -235q0 -203 -176 -305q-86 -49 -199 -49z" />
    <glyph glyph-name="uniF737" unicode="&#xf737;" horiz-adv-x="847" 
d="M778 1018v-141l-430 -877h-160l441 889h-563v129h712z" />
    <glyph glyph-name="uniF738" unicode="&#xf738;" horiz-adv-x="983" 
d="M258 282q0 -70 66 -120q66 -49 166 -49t168 49t69 120q0 72 -69 120t-169 48q-99 0 -165 -49t-66 -119zM700 740q0 68 -59 117q-59 48 -151 48t-148 -47q-57 -47 -57 -118t59 -115q58 -49 146 -49t151 47q59 49 59 117zM135 752q0 88 58 153q108 133 302 132t302 -130
q53 -71 53 -155t-55 -147t-129 -85q84 -25 146 -88q62 -64 62 -156t-61 -162q-116 -133 -321 -132q-147 0 -266 76q-118 77 -117 218q0 90 63 154t147 90q-78 25 -131 84q-53 60 -53 148z" />
    <glyph glyph-name="uniF739" unicode="&#xf739;" horiz-adv-x="962" 
d="M707 684q0 102 -72 164t-166 61q-123 0 -197 -100q-39 -51 -39 -119q0 -100 71 -160t163 -55q125 0 203 98q37 45 37 111zM438 350q-150 0 -246 98t-96 238t102 244t272 104q169 0 267 -112q63 -66 91 -166t28 -193q0 -279 -140 -429t-345 -150q-53 0 -130 11t-108 32
l43 127q80 -39 176 -39q160 0 257 98t114 283q-47 -66 -127 -106t-158 -40z" />
    <glyph glyph-name="uniF8FF" unicode="&#xf8ff;" horiz-adv-x="2703" 
d="M1309 903q-162 1 -261 -113t-96 -284q0 -104 42 -192t124 -144q82 -55 191 -55q153 -3 261 119t103 278q0 213 -178 336q-82 55 -186 55zM549 -8q-289 0 -289 272v623h-188v131h188v293h150v-293h256v-131h-256v-621q0 -143 163 -143q43 0 93 8v-123q-54 -16 -117 -16z
M1671 1552h148v-1552h-146v217q-137 -231 -395 -231q-141 0 -251 72t-168 192q-58 119 -58 258t59 259t168 195t250 74q236 0 393 -231v747zM2510 1425q-64 0 -114 -41q-57 -53 -57 -174v-192h268v-129h-268v-889h-148v889h-194v129h194v188q0 166 86 262q86 88 228 88
q59 0 110 -18v-125q-41 12 -105 12z" />
    <glyph glyph-name="_1" horiz-adv-x="0" 
 />
    <glyph glyph-name="Aring.alt" horiz-adv-x="1478" 
d="M1083 524l-348 807l-346 -807h694zM827 1493l646 -1493h-166l-164 381h-813l-164 -381h-160l643 1493h178zM736 1993q-62 0 -106 -43q-44 -44 -44 -106t44 -105t108 -43t110 43q43 43 43 104t-45 107q-48 43 -110 43zM740 1589q-108 0 -187 75q-80 75 -80 180t80 180
q79 75 187 75t187 -75t79 -180t-79 -180t-187 -75z" />
    <glyph glyph-name="Ccedilla.alt" horiz-adv-x="1599" 
d="M795 -483q-129 0 -213 88l67 88q72 -70 156 -70q39 -3 73 17t34 62t-31 62q-58 33 -125 11l-60 80l84 133q-290 24 -484 232t-194 521q0 167 62 313t162 242q219 213 528 213q233 0 397 -114q70 -45 131 -115q102 -119 140 -262l-150 -53q-23 86 -88 180q-47 63 -100 108
t-140 74q-86 33 -194 33q-242 0 -413 -171t-171 -437q0 -178 75 -318t212 -221q131 -80 313 -80t314 105q59 45 98 102q53 70 98 192l150 -53q-41 -151 -179 -301q-73 -78 -187 -130t-253 -62l-71 -113q96 -4 156 -49t60 -126t-64 -131t-193 -50z" />
    <glyph glyph-name="OE.alt" horiz-adv-x="2199" 
d="M1141 1346h-240q-291 0 -463 -168q-172 -162 -172 -426q0 -172 80 -312t225 -216q145 -77 330 -77h240v1199zM1298 145h785v-145h-1192q-332 0 -559 205q-228 213 -229 536q-1 322 219 537q228 215 579 215h1174v-145h-777v-517h711v-145h-711v-541z" />
    <glyph glyph-name="Q.alt" horiz-adv-x="1703" 
d="M844 1362q-164 0 -299 -82q-133 -84 -206 -219t-73 -304t73 -306t208 -223t312 -85q177 0 310 95q119 78 189 215t70 301t-76 303q-74 139 -205 221q-139 84 -303 84zM847 1507q153 0 293 -57t238 -160q211 -210 211 -556q0 -182 -92 -341q-92 -158 -260 -254v-2l414 2
v-139h-803q-156 0 -296 57t-238 158t-155 238t-57 296t58 298q55 139 155 241q95 100 237 160t295 59z" />
    <glyph glyph-name="O.slash" horiz-adv-x="1705" 
d="M843 133q175 0 314 82q137 82 211 221q74 138 74 324t-111 348l-811 -870q148 -105 323 -105zM266 750q0 -238 144 -412l821 883q-162 139 -381 139q-168 0 -302 -82t-208 -222t-74 -306zM855 1507q157 0 297 -59t239 -158q211 -226 213 -540q0 -209 -98 -385
q-98 -175 -271 -277q-174 -102 -385 -102q-156 0 -296 59q-278 117 -394 399q-117 302 0 598q61 148 157 246q97 98 239 158t299 61z" />
    <glyph glyph-name="a.alt" horiz-adv-x="1282" 
d="M602 903q-164 1 -260 -113t-96 -284q0 -223 166 -336q84 -55 190 -55q154 -1 262 119t105 278q0 100 -47 189t-131 147q-86 55 -189 55zM94 507q0 209 132 369t345 160q150 0 244 -73q86 -63 152 -162v217h147v-1018h-147v215q-137 -229 -396 -229q-213 0 -348 157
q-129 156 -129 364z" />
    <glyph glyph-name="aacute.alt" horiz-adv-x="1282" 
d="M602 903q-164 1 -260 -113t-96 -284q0 -223 166 -336q84 -55 190 -55q154 -1 262 119t105 278q0 100 -47 189t-131 147q-86 55 -189 55zM94 507q0 209 132 369t345 160q150 0 244 -73q86 -63 152 -162v217h147v-1018h-147v215q-137 -229 -396 -229q-213 0 -348 157
q-129 156 -129 364zM737 1520h183l-246 -328h-142z" />
    <glyph glyph-name="abreve.alt" horiz-adv-x="1282" 
d="M602 903q-164 1 -260 -113t-96 -284q0 -223 166 -336q84 -55 190 -55q154 -1 262 119t105 278q0 100 -47 189t-131 147q-86 55 -189 55zM94 507q0 209 132 369t345 160q150 0 244 -73q86 -63 152 -162v217h147v-1018h-147v215q-137 -229 -396 -229q-213 0 -348 157
q-129 156 -129 364zM604 1188q-172 0 -260 143q-45 78 -49 178h117q4 -92 56 -147t136 -55t135 54t60 148h112q-2 -145 -91 -233t-216 -88z" />
    <glyph glyph-name="acaron.alt" horiz-adv-x="1282" 
d="M602 903q-164 1 -260 -113t-96 -284q0 -223 166 -336q84 -55 190 -55q154 -1 262 119t105 278q0 100 -47 189t-131 147q-86 55 -189 55zM94 507q0 209 132 369t345 160q150 0 244 -73q86 -63 152 -162v217h147v-1018h-147v215q-137 -229 -396 -229q-213 0 -348 157
q-129 156 -129 364zM604 1294l174 226h158l-262 -328h-150l-254 328h160l170 -226h4z" />
    <glyph glyph-name="acircumflex.alt" horiz-adv-x="1282" 
d="M602 903q-164 1 -260 -113t-96 -284q0 -223 166 -336q84 -55 190 -55q154 -1 262 119t105 278q0 100 -47 189t-131 147q-86 55 -189 55zM94 507q0 209 132 369t345 160q150 0 244 -73q86 -63 152 -162v217h147v-1018h-147v215q-137 -229 -396 -229q-213 0 -348 157
q-129 156 -129 364zM526 1520h148l262 -328h-158l-174 225h-4l-170 -225h-158z" />
    <glyph glyph-name="adieresis.alt" horiz-adv-x="1282" 
d="M602 903q-164 1 -260 -113t-96 -284q0 -223 166 -336q84 -55 190 -55q154 -1 262 119t105 278q0 100 -47 189t-131 147q-86 55 -189 55zM94 507q0 209 132 369t345 160q150 0 244 -73q86 -63 152 -162v217h147v-1018h-147v215q-137 -229 -396 -229q-213 0 -348 157
q-129 156 -129 364zM788 1188q-44 0 -78 35t-34 82t35 79t77 33q42 0 78 -33q35 -34 35 -80t-35 -81t-78 -35zM434 1188q-45 0 -79 35t-33 82q0 47 34 79t78 33q45 0 78 -33q33 -34 33 -80t-33 -81t-78 -35z" />
    <glyph glyph-name="agrave.alt" horiz-adv-x="1282" 
d="M602 903q-164 1 -260 -113t-96 -284q0 -223 166 -336q84 -55 190 -55q154 -1 262 119t105 278q0 100 -47 189t-131 147q-86 55 -189 55zM94 507q0 209 132 369t345 160q150 0 244 -73q86 -63 152 -162v217h147v-1018h-147v215q-137 -229 -396 -229q-213 0 -348 157
q-129 156 -129 364zM686 1192h-143l-246 328h182z" />
    <glyph glyph-name="amacron.alt" horiz-adv-x="1282" 
d="M602 903q-164 1 -260 -113t-96 -284q0 -223 166 -336q84 -55 190 -55q154 -1 262 119t105 278q0 100 -47 189t-131 147q-86 55 -189 55zM94 507q0 209 132 369t345 160q150 0 244 -73q86 -63 152 -162v217h147v-1018h-147v215q-137 -229 -396 -229q-213 0 -348 157
q-129 156 -129 364zM924 1221h-641v133h641v-133z" />
    <glyph glyph-name="aogonek.alt" horiz-adv-x="1282" 
d="M602 903q-164 1 -260 -113t-96 -284q0 -223 166 -336q84 -55 190 -55q154 -1 262 119t105 278q0 100 -47 189t-131 147q-86 55 -189 55zM977 -219q0 -131 166 -127v-115q-33 -4 -56 -4q-104 0 -179 56t-74 155q0 123 165 254h-32v215q-137 -229 -396 -229
q-213 0 -348 157q-129 156 -129 364q0 209 132 369t345 160q150 0 244 -73q86 -63 152 -162v217h147v-1018h-6q-131 -116 -131 -219z" />
    <glyph glyph-name="aring.alt" horiz-adv-x="1282" 
d="M602 903q-164 1 -260 -113t-96 -284q0 -223 166 -336q84 -55 190 -55q154 -1 262 119t105 278q0 100 -47 189t-131 147q-86 55 -189 55zM94 507q0 209 132 369t345 160q150 0 244 -73q86 -63 152 -162v217h147v-1018h-147v215q-137 -229 -396 -229q-213 0 -348 157
q-129 156 -129 364zM758 1404q0 60 -46 105t-110 45t-108 -43t-43 -105q0 -62 44 -106t108 -43q64 0 110 43q45 44 45 104zM606 1659q110 0 188 -74q76 -74 76 -179t-78 -180t-186 -75t-188 75t-80 180t78 179q80 74 190 74z" />
    <glyph glyph-name="atilde.alt" horiz-adv-x="1282" 
d="M602 903q-164 1 -260 -113t-96 -284q0 -223 166 -336q84 -55 190 -55q154 -1 262 119t105 278q0 100 -47 189t-131 147q-86 55 -189 55zM94 507q0 209 132 369t345 160q150 0 244 -73q86 -63 152 -162v217h147v-1018h-147v215q-137 -229 -396 -229q-213 0 -348 157
q-129 156 -129 364zM742 1192q-81 0 -141 46q-61 46 -121 46t-77 -90h-106q0 94 45 156t137 63q43 2 130 -45t124 -47q61 0 84 88h92q0 -92 -43 -158q-43 -59 -124 -59z" />
    <glyph glyph-name="ccedilla.alt" horiz-adv-x="1171" 
d="M815 -302q-1 -81 -65 -131t-193 -50t-213 88l68 88q72 -70 155 -70q39 -3 73 17t36 63q0 43 -34 62q-58 32 -124 10l-59 80l84 131q-197 25 -323 167t-126 353q0 147 72 271t190 192q118 67 276 67t290 -94q133 -100 163 -231l-135 -45q-24 82 -110 160t-236 77
q-150 1 -254 -113t-104 -276q0 -229 172 -342q84 -57 202 -57q162 0 267 125q45 59 67 118l138 -45q-47 -164 -220 -264q-96 -55 -202 -63l-72 -113q96 -4 156 -49t61 -126z" />
    <glyph glyph-name="l.alt" horiz-adv-x="575" 
d="M307 1554v-1288q0 -143 160 -143q39 0 92 8v-123q-53 -16 -117 -16q-283 0 -282 272v1290h147z" />
    <glyph glyph-name="lslash.alt" horiz-adv-x="739" 
d="M412 266q0 -143 159 -143q39 0 93 8v-123q-53 -16 -117 -16q-283 0 -283 272v297l-194 -143v155l194 144v837h148v-727l241 179v-156l-241 -178v-406z" />
    <glyph glyph-name="y.alt" horiz-adv-x="1118" 
d="M180 -508q-41 0 -74 12v127q27 -8 64 -8q174 0 260 215l66 162l-453 1018h162l368 -854l345 854h157l-506 -1223q-65 -155 -159 -229t-230 -74z" />
    <glyph glyph-name="aring.alt2" horiz-adv-x="1083" 
d="M782 465h-284q-94 0 -166 -35q-86 -37 -86 -128t62 -140t157 -49q133 0 225 88t92 229v35zM782 588v67q0 248 -260 248q-125 0 -189 -64t-77 -143l-143 31q2 43 41 109q118 200 385 200q266 0 358 -211q31 -72 31 -168v-286q0 -250 16 -371h-147q-14 78 -15 178
q-129 -197 -344 -196q-154 0 -245 86q-96 84 -97 215v10q0 151 122 223t282 72h282zM518 1554q-64 0 -106 -43t-43 -105q0 -62 43 -106q42 -44 108 -43q66 0 110 43q44 44 44 104t-46 105t-110 45zM522 1151q-108 0 -187 74t-79 181t78 180t188 73t188 -74t78 -179t-80 -180
q-78 -75 -186 -75z" />
    <glyph glyph-name="i.loclTRK" horiz-adv-x="485" 
d="M317 1018v-1018h-149v1018h149zM243 1270q-46 0 -79 35t-33 77t33 78q33 35 79 35t79 -33q32 -33 32 -80q0 -48 -32 -80t-79 -32z" />
    <glyph glyph-name="uni0414.alt" horiz-adv-x="1630" 
d="M813 1319l-479 -1174h958l-477 1174h-2zM1583 145v-458h-149v313h-1237v-313h-148v458h119l557 1348h180l555 -1348h123z" />
    <glyph glyph-name="uni041B.alt" horiz-adv-x="1394" 
d="M178 0h-168l600 1493h174l600 -1493h-172l-516 1317z" />
    <glyph glyph-name="uni0434.alt" horiz-adv-x="1263" 
d="M307 131h645l-319 729zM217 -315h-145v446h80l401 887h162l397 -887h80v-446h-143v315h-832v-315z" />
    <glyph glyph-name="uni0438.alt" horiz-adv-x="1204" 
d="M303 1018v-592q0 -143 74 -225q70 -84 205 -84t221 92t86 229v580h147v-1018h-145v186q-123 -207 -350 -206q-182 0 -285 112q-100 113 -100 297v629h147z" />
    <glyph glyph-name="uni0439.alt" horiz-adv-x="1204" 
d="M303 1018v-592q0 -143 74 -225q70 -84 205 -84t221 92t86 229v580h147v-1018h-145v186q-123 -207 -350 -206q-182 0 -285 112q-100 113 -100 297v629h147zM596 1188q-119 0 -204 76t-105 196l106 21q49 -172 203 -172t203 172l106 -21q-20 -120 -105 -196t-204 -76z" />
    <glyph glyph-name="uni043B.alt" horiz-adv-x="1116" 
d="M45 0l436 1018h156l434 -1018h-164l-350 852l-352 -852h-160z" />
    <glyph glyph-name="uni043F.alt" horiz-adv-x="1206" 
d="M901 0v592q0 141 -72 225q-73 84 -207 84t-221 -92q-84 -94 -84 -229v-580h-149v1018h145v-187q123 205 353 205q180 0 284 -110q100 -117 101 -297v-629h-150z" />
    <glyph glyph-name="uni0446.alt" horiz-adv-x="1251" 
d="M891 0v186q-123 -207 -350 -206q-182 0 -285 112q-100 113 -100 297v629h147v-592q0 -141 72 -225t207 -84t221 92t86 229v580h147v-887h123v-446h-143v315h-125z" />
    <glyph glyph-name="uni0448.alt" horiz-adv-x="1857" 
d="M995 1018v-598q0 -133 68 -219q63 -84 195 -84t208 95t76 226v580h148v-1018h-146v176q-131 -197 -330 -196q-227 0 -325 204q-129 -203 -357 -202q-180 0 -278 112t-98 295v629h147v-592q0 -135 66 -223q67 -86 197 -86t207 90t77 225v586h145z" />
    <glyph glyph-name="uni0449.alt" horiz-adv-x="1904" 
d="M1544 0v176q-131 -197 -330 -196q-227 0 -325 204q-129 -203 -357 -202q-180 0 -278 112t-98 295v629h147v-592q0 -135 66 -223q67 -86 197 -86t207 90t77 225v586h145v-598q0 -133 68 -219q63 -84 195 -84t208 95t76 226v580h148v-887h122v-446h-143v315h-125z" />
    <glyph glyph-name="zero.slash" horiz-adv-x="1464" 
d="M724 131q144 0 245 77q100 77 153 204q70 152 70 352t-98 373l-629 -904q115 -102 259 -102zM740 1362q-146 0 -244 -77t-161 -217t-63 -340q0 -199 97 -370l628 902q-111 102 -257 102zM732 1507q239 0 398 -159q70 -74 123 -172q98 -190 99 -426q4 -170 -56 -331
t-170 -272q-158 -162 -397 -161q-291 0 -463 239q-156 211 -155 516q-2 170 57 332t168 270q157 164 396 164z" />
    <glyph glyph-name="one.alt" horiz-adv-x="997" 
d="M121 1235q54 0 74 4q27 0 73 5q201 22 230 251h131v-1350h329v-145h-854v145h369v981h-352v109z" />
    <glyph glyph-name="colon.case" horiz-adv-x="600" 
d="M164 358q0 58 40 98t94 40t96 -40t42 -98t-42 -97q-42 -40 -96 -40t-94 40t-40 97zM298 997q-54 0 -94 40q-40 39 -40 97t39 98t96 40t97 -40t40 -97t-39 -97q-45 -41 -99 -41z" />
    <glyph glyph-name="exclamdown.case" horiz-adv-x="565" 
d="M360 -16h-155v262l8 796h139l8 -796v-262zM283 1493q47 0 79 -33t33 -79q0 -47 -33 -79q-34 -32 -80 -32t-78 32t-32 80t32 79q32 32 79 32z" />
    <glyph glyph-name="uni2E18.case" horiz-adv-x="1038" 
d="M517 -8q-122 0 -222 54t-158 144q-53 90 -53 182t37 165q46 79 73 109t100 110t105 122q59 78 68 191h147l13 -713h-158l12 424q-68 -88 -98 -125t-64 -81q-79 -105 -78 -200t71 -166t211 -71q140 0 218 92q80 88 70 232l152 -6l2 -45q-1 -119 -63 -216
q-62 -98 -162 -150t-223 -52zM666 1407q0 -47 -33 -80t-79 -33t-79 33t-33 80t32 79t80 32t80 -32t32 -79z" />
    <glyph glyph-name="questiondown.case" horiz-adv-x="1034" 
d="M518 -18q-198 0 -318 116t-120 273q0 106 57 188t143 168t98 99t48 63q45 70 45 170h147l3 -35q0 -124 -82 -233q-9 -9 -21 -23t-24 -26t-29 -31q-29 -25 -35 -35q-25 -25 -43 -45l-47 -47q-64 -56 -92 -150q-8 -27 -8 -61q0 -100 72 -172t209 -72q138 0 216 91t68 231
l153 -7q0 -30 3 -45q-1 -121 -63 -217t-162 -148t-218 -52zM664 1398q0 -44 -33 -81q-37 -33 -80 -33t-80 33q-31 35 -31 81t32 78t79 32t80 -33t33 -77z" />
    <glyph glyph-name="semicolon.case" horiz-adv-x="606" 
d="M166 348q0 53 39 90t101 37t100 -51q39 -51 38 -125q0 -129 -67 -227q-72 -99 -193 -113v78q61 12 107 72q45 61 45 127q-14 -12 -58 -12t-78 35q-34 36 -34 89zM166 1134q0 58 39 97q41 39 98 39t97 -40t40 -94t-41 -100q-39 -39 -96 -39t-98 39q-39 40 -39 98z" />
    <glyph glyph-name="braceleft.case" horiz-adv-x="827" 
d="M57 813q109 0 189 53t61 203l-31 215q-32 225 68 312t332 87h74v-127h-62q-137 0 -200 -32q-62 -33 -69 -102t11 -177l25 -176q20 -62 -21 -177q-16 -48 -66 -89t-126 -55v-3q76 -14 126 -52t66 -82q41 -113 23 -177l-27 -184q-18 -110 -11 -178t67 -101t202 -32h62v-129
h-74q-231 0 -332 87q-100 87 -68 314l31 213q17 146 -59 200t-191 58v131z" />
    <glyph glyph-name="braceright.case" horiz-adv-x="827" 
d="M770 813v-131q-116 -4 -192 -58t-56 -200l31 -213q33 -227 -67 -314t-332 -87h-76v129h61q137 0 201 32q64 33 70 99t-11 180l-28 184q-19 65 22 177q17 44 67 82t126 52v3q-76 14 -126 55t-66 89q-38 123 -21 177l26 176q17 109 11 177t-70 102q-70 33 -201 32h-61v127
h76q231 0 331 -87t68 -312l-31 -215q-23 -145 58 -201t190 -55z" />
    <glyph glyph-name="bracketleft.case" horiz-adv-x="806" 
d="M729 -61v-129h-522v1873h522v-127h-375v-1617h375z" />
    <glyph glyph-name="bracketright.case" horiz-adv-x="806" 
d="M598 1683v-1873h-522v129h375v1617h-375v127h522z" />
    <glyph glyph-name="parenleft.case" horiz-adv-x="763" 
d="M104 723v47q0 293 144 539q145 242 401 391l64 -96q-455 -291 -455 -834v-47q0 -541 453 -829l-62 -101q-256 150 -401 391q-144 246 -144 539z" />
    <glyph glyph-name="parenright.case" horiz-adv-x="765" 
d="M659 770v-47q0 -297 -144 -539t-400 -391l-62 101q453 289 453 829v47q0 543 -455 834l64 96q256 -150 401 -391q143 -242 143 -539z" />
    <glyph glyph-name="emdash.case" horiz-adv-x="1970" 
d="M1817 805v-150h-1663v150h1663z" />
    <glyph glyph-name="endash.case" horiz-adv-x="1183" 
d="M1030 805v-150h-876v150h876z" />
    <glyph glyph-name="hyphen.case" horiz-adv-x="841" 
d="M694 811v-156h-547v156h547z" />
    <glyph glyph-name="guillemotleft.case" horiz-adv-x="1097" 
d="M520 739l344 346l90 -92l-241 -250l241 -251l-90 -91zM100 739l344 346l91 -92l-242 -250l242 -251l-91 -91z" />
    <glyph glyph-name="guillemotright.case" horiz-adv-x="1097" 
d="M655 401l-92 91l242 251l-242 250l92 92l342 -346zM233 401l-90 91l242 251l-242 250l90 92l345 -346z" />
    </font>
</defs>
</svg>
