<svg width="44" height="50" viewBox="0 0 44 50" fill="none" xmlns="http://www.w3.org/2000/svg">
<path d="M21.4531 5.48438C21.1719 3.75 20.5312 2.40625 19.5156 1.45312C18.5156 0.484375 17.2812 0 15.8125 0C13.5469 0.015625 11.875 0.9375 10.7656 2.76562H10.625V1.67188C10.625 0.90625 10.0469 0.328125 9.3125 0.328125C8.60938 0.328125 8 0.90625 8 1.67188V15.875C8 16.6406 8.57812 17.2188 9.3125 17.2188C10.0781 17.2188 10.625 16.6406 10.625 15.875V8.78125C10.625 4.64062 12.4531 2.5625 15.2656 2.5625C17.375 2.5625 18.5312 3.9375 18.8281 5.89062C18.9062 6.5 19.4531 6.98438 20.1406 6.98438C20.9531 6.98438 21.5781 6.29688 21.4531 5.48438Z" fill="black"/>
<path d="M37.5 4.34375C37.5 3.57812 36.9219 3 36.1875 3C35.4531 3 34.875 3.57812 34.875 4.34375V11.3125H34.75C33.625 9.73438 32.0156 8.9375 29.9219 8.9375C27.9531 8.9375 26.3125 9.64062 24.9844 11.0625C23.6562 12.4688 23 14.6562 23 17.625C23 20.5781 23.6562 22.7656 24.9844 24.1719C26.3125 25.5781 27.9688 26.2812 29.9219 26.2812C32 26.2969 33.6094 25.5 34.75 23.9219H34.875V24.8125C34.875 25.5781 35.4531 26.1562 36.1875 26.1562C36.9219 26.1562 37.5 25.5781 37.5 24.8125V4.34375ZM30.2656 23.8594C27.1719 23.8594 25.625 21.7812 25.625 17.625C25.625 13.4531 27.1719 11.375 30.2656 11.375C33.25 11.375 35.0312 13.375 35.0312 17.6094C35.0312 21.7969 33.25 23.8594 30.2656 23.8594Z" fill="black"/>
<path d="M13.0611 36.5938H12.9361L10.4361 24.2812C10.2642 23.5469 9.63921 23 8.87359 23C8.10796 23 7.46734 23.5469 7.29546 24.2812L4.81109 36.5938H4.67046L2.43609 24.0469C2.35796 23.4688 1.85796 23 1.21734 23C0.451713 23 -0.142037 23.6719 0.0298379 24.4375L2.92046 38.6406C3.09234 39.4531 3.82671 40.0781 4.63921 40.0781C5.49859 40.0781 6.20171 39.4844 6.37359 38.6719L8.81109 26.7344H8.93609L11.358 38.6719C11.5455 39.4844 12.233 40.0781 13.0923 40.0781C13.9048 40.0781 14.6236 39.4531 14.7955 38.6406L17.7017 24.4375C17.7798 24.0781 17.7017 23.75 17.4361 23.4531C17.1861 23.1562 16.8736 23 16.5142 23C15.8736 23 15.3736 23.4375 15.2955 24.0469L13.0611 36.5938Z" fill="black"/>
<path d="M29.9062 32C27.3594 32 25.6562 32.7969 24.7969 34.4062H24.625V33.4844C24.625 32.7188 24.0469 32.1406 23.3125 32.1406C22.6094 32.1406 22 32.7188 22 33.4844V47.875C22 48.6406 22.6094 49.2188 23.3125 49.2188C24.0469 49.2188 24.5781 48.7031 24.625 47.9688V39.5625C24.625 37.7969 25.0469 36.5 25.9062 35.6719C26.7656 34.8438 27.875 34.4375 29.2656 34.4375C30.375 34.4375 31.3125 34.7969 32.0469 35.5C32.7969 36.2031 33.1719 37.2031 33.1719 38.5312V47.875C33.1719 48.6406 33.75 49.2188 34.4844 49.2188C35.2188 49.2188 35.7969 48.6406 35.7969 47.875V37.6719C35.7969 35.8125 35.25 34.4062 34.1562 33.4531C33.0781 32.4844 31.6562 32 29.9062 32Z" fill="black"/>
<path d="M44 43C44 44.1046 43.1046 45 42 45C40.8954 45 40 44.1046 40 43C40 41.8954 40.8954 41 42 41C43.1046 41 44 41.8954 44 43Z" fill="black"/>
</svg>
